%TF.GenerationSoftware,KiCad,Pcbnew,9.0.0+1*%
%TF.CreationDate,2025-03-04T14:17:01+00:00*%
%TF.ProjectId,ESP01LEDDriver,45535030-314c-4454-9444-72697665722e,rev?*%
%TF.SameCoordinates,Original*%
%TF.FileFunction,Legend,Top*%
%TF.FilePolarity,Positive*%
%FSLAX46Y46*%
G04 Gerber Fmt 4.6, Leading zero omitted, Abs format (unit mm)*
G04 Created by KiCad (PCBNEW 9.0.0+1) date 2025-03-04 14:17:01*
%MOMM*%
%LPD*%
G01*
G04 APERTURE LIST*
%ADD10C,0.127000*%
%ADD11C,0.203200*%
%ADD12C,0.152400*%
%ADD13C,0.150000*%
%ADD14C,0.120000*%
G04 APERTURE END LIST*
D10*
X32450409Y-21037416D02*
X32922123Y-21037416D01*
X32922123Y-21037416D02*
X32668123Y-21424464D01*
X32668123Y-21424464D02*
X32776980Y-21424464D01*
X32776980Y-21424464D02*
X32849552Y-21472845D01*
X32849552Y-21472845D02*
X32885837Y-21521226D01*
X32885837Y-21521226D02*
X32922123Y-21617988D01*
X32922123Y-21617988D02*
X32922123Y-21859893D01*
X32922123Y-21859893D02*
X32885837Y-21956655D01*
X32885837Y-21956655D02*
X32849552Y-22005036D01*
X32849552Y-22005036D02*
X32776980Y-22053416D01*
X32776980Y-22053416D02*
X32559266Y-22053416D01*
X32559266Y-22053416D02*
X32486694Y-22005036D01*
X32486694Y-22005036D02*
X32450409Y-21956655D01*
X33139837Y-21037416D02*
X33393837Y-22053416D01*
X33393837Y-22053416D02*
X33647837Y-21037416D01*
X33829266Y-21037416D02*
X34300980Y-21037416D01*
X34300980Y-21037416D02*
X34046980Y-21424464D01*
X34046980Y-21424464D02*
X34155837Y-21424464D01*
X34155837Y-21424464D02*
X34228409Y-21472845D01*
X34228409Y-21472845D02*
X34264694Y-21521226D01*
X34264694Y-21521226D02*
X34300980Y-21617988D01*
X34300980Y-21617988D02*
X34300980Y-21859893D01*
X34300980Y-21859893D02*
X34264694Y-21956655D01*
X34264694Y-21956655D02*
X34228409Y-22005036D01*
X34228409Y-22005036D02*
X34155837Y-22053416D01*
X34155837Y-22053416D02*
X33938123Y-22053416D01*
X33938123Y-22053416D02*
X33865551Y-22005036D01*
X33865551Y-22005036D02*
X33829266Y-21956655D01*
D11*
X52728554Y-35892453D02*
X52244744Y-35892453D01*
X52244744Y-35892453D02*
X52196363Y-36376263D01*
X52196363Y-36376263D02*
X52244744Y-36327882D01*
X52244744Y-36327882D02*
X52341506Y-36279501D01*
X52341506Y-36279501D02*
X52583411Y-36279501D01*
X52583411Y-36279501D02*
X52680173Y-36327882D01*
X52680173Y-36327882D02*
X52728554Y-36376263D01*
X52728554Y-36376263D02*
X52776935Y-36473025D01*
X52776935Y-36473025D02*
X52776935Y-36714930D01*
X52776935Y-36714930D02*
X52728554Y-36811692D01*
X52728554Y-36811692D02*
X52680173Y-36860073D01*
X52680173Y-36860073D02*
X52583411Y-36908453D01*
X52583411Y-36908453D02*
X52341506Y-36908453D01*
X52341506Y-36908453D02*
X52244744Y-36860073D01*
X52244744Y-36860073D02*
X52196363Y-36811692D01*
X53067220Y-35892453D02*
X53405887Y-36908453D01*
X53405887Y-36908453D02*
X53744554Y-35892453D01*
D10*
X32692313Y-23577416D02*
X33272885Y-23577416D01*
X32982599Y-24593416D02*
X32982599Y-23577416D01*
X33514789Y-23577416D02*
X34192123Y-24593416D01*
X34192123Y-23577416D02*
X33514789Y-24593416D01*
D11*
X52541714Y-54475093D02*
X52541714Y-53459093D01*
X52541714Y-53459093D02*
X52928762Y-53459093D01*
X52928762Y-53459093D02*
X53025524Y-53507474D01*
X53025524Y-53507474D02*
X53073905Y-53555855D01*
X53073905Y-53555855D02*
X53122286Y-53652617D01*
X53122286Y-53652617D02*
X53122286Y-53797760D01*
X53122286Y-53797760D02*
X53073905Y-53894522D01*
X53073905Y-53894522D02*
X53025524Y-53942903D01*
X53025524Y-53942903D02*
X52928762Y-53991284D01*
X52928762Y-53991284D02*
X52541714Y-53991284D01*
X54138286Y-54475093D02*
X53799619Y-53991284D01*
X53557714Y-54475093D02*
X53557714Y-53459093D01*
X53557714Y-53459093D02*
X53944762Y-53459093D01*
X53944762Y-53459093D02*
X54041524Y-53507474D01*
X54041524Y-53507474D02*
X54089905Y-53555855D01*
X54089905Y-53555855D02*
X54138286Y-53652617D01*
X54138286Y-53652617D02*
X54138286Y-53797760D01*
X54138286Y-53797760D02*
X54089905Y-53894522D01*
X54089905Y-53894522D02*
X54041524Y-53942903D01*
X54041524Y-53942903D02*
X53944762Y-53991284D01*
X53944762Y-53991284D02*
X53557714Y-53991284D01*
X54767238Y-53459093D02*
X54960762Y-53459093D01*
X54960762Y-53459093D02*
X55057524Y-53507474D01*
X55057524Y-53507474D02*
X55154286Y-53604236D01*
X55154286Y-53604236D02*
X55202667Y-53797760D01*
X55202667Y-53797760D02*
X55202667Y-54136427D01*
X55202667Y-54136427D02*
X55154286Y-54329951D01*
X55154286Y-54329951D02*
X55057524Y-54426713D01*
X55057524Y-54426713D02*
X54960762Y-54475093D01*
X54960762Y-54475093D02*
X54767238Y-54475093D01*
X54767238Y-54475093D02*
X54670476Y-54426713D01*
X54670476Y-54426713D02*
X54573714Y-54329951D01*
X54573714Y-54329951D02*
X54525333Y-54136427D01*
X54525333Y-54136427D02*
X54525333Y-53797760D01*
X54525333Y-53797760D02*
X54573714Y-53604236D01*
X54573714Y-53604236D02*
X54670476Y-53507474D01*
X54670476Y-53507474D02*
X54767238Y-53459093D01*
X56170286Y-53507474D02*
X56073524Y-53459093D01*
X56073524Y-53459093D02*
X55928381Y-53459093D01*
X55928381Y-53459093D02*
X55783238Y-53507474D01*
X55783238Y-53507474D02*
X55686476Y-53604236D01*
X55686476Y-53604236D02*
X55638095Y-53700998D01*
X55638095Y-53700998D02*
X55589714Y-53894522D01*
X55589714Y-53894522D02*
X55589714Y-54039665D01*
X55589714Y-54039665D02*
X55638095Y-54233189D01*
X55638095Y-54233189D02*
X55686476Y-54329951D01*
X55686476Y-54329951D02*
X55783238Y-54426713D01*
X55783238Y-54426713D02*
X55928381Y-54475093D01*
X55928381Y-54475093D02*
X56025143Y-54475093D01*
X56025143Y-54475093D02*
X56170286Y-54426713D01*
X56170286Y-54426713D02*
X56218667Y-54378332D01*
X56218667Y-54378332D02*
X56218667Y-54039665D01*
X56218667Y-54039665D02*
X56025143Y-54039665D01*
X57234667Y-54475093D02*
X56896000Y-53991284D01*
X56654095Y-54475093D02*
X56654095Y-53459093D01*
X56654095Y-53459093D02*
X57041143Y-53459093D01*
X57041143Y-53459093D02*
X57137905Y-53507474D01*
X57137905Y-53507474D02*
X57186286Y-53555855D01*
X57186286Y-53555855D02*
X57234667Y-53652617D01*
X57234667Y-53652617D02*
X57234667Y-53797760D01*
X57234667Y-53797760D02*
X57186286Y-53894522D01*
X57186286Y-53894522D02*
X57137905Y-53942903D01*
X57137905Y-53942903D02*
X57041143Y-53991284D01*
X57041143Y-53991284D02*
X56654095Y-53991284D01*
X57621714Y-54184808D02*
X58105524Y-54184808D01*
X57524952Y-54475093D02*
X57863619Y-53459093D01*
X57863619Y-53459093D02*
X58202286Y-54475093D01*
X58540952Y-54475093D02*
X58540952Y-53459093D01*
X58540952Y-53459093D02*
X58879619Y-54184808D01*
X58879619Y-54184808D02*
X59218286Y-53459093D01*
X59218286Y-53459093D02*
X59218286Y-54475093D01*
X51519030Y-45846834D02*
X51422268Y-45798453D01*
X51422268Y-45798453D02*
X51277125Y-45798453D01*
X51277125Y-45798453D02*
X51131982Y-45846834D01*
X51131982Y-45846834D02*
X51035220Y-45943596D01*
X51035220Y-45943596D02*
X50986839Y-46040358D01*
X50986839Y-46040358D02*
X50938458Y-46233882D01*
X50938458Y-46233882D02*
X50938458Y-46379025D01*
X50938458Y-46379025D02*
X50986839Y-46572549D01*
X50986839Y-46572549D02*
X51035220Y-46669311D01*
X51035220Y-46669311D02*
X51131982Y-46766073D01*
X51131982Y-46766073D02*
X51277125Y-46814453D01*
X51277125Y-46814453D02*
X51373887Y-46814453D01*
X51373887Y-46814453D02*
X51519030Y-46766073D01*
X51519030Y-46766073D02*
X51567411Y-46717692D01*
X51567411Y-46717692D02*
X51567411Y-46379025D01*
X51567411Y-46379025D02*
X51373887Y-46379025D01*
X52002839Y-46814453D02*
X52002839Y-45798453D01*
X52002839Y-45798453D02*
X52583411Y-46814453D01*
X52583411Y-46814453D02*
X52583411Y-45798453D01*
X53067220Y-46814453D02*
X53067220Y-45798453D01*
X53067220Y-45798453D02*
X53309125Y-45798453D01*
X53309125Y-45798453D02*
X53454268Y-45846834D01*
X53454268Y-45846834D02*
X53551030Y-45943596D01*
X53551030Y-45943596D02*
X53599411Y-46040358D01*
X53599411Y-46040358D02*
X53647792Y-46233882D01*
X53647792Y-46233882D02*
X53647792Y-46379025D01*
X53647792Y-46379025D02*
X53599411Y-46572549D01*
X53599411Y-46572549D02*
X53551030Y-46669311D01*
X53551030Y-46669311D02*
X53454268Y-46766073D01*
X53454268Y-46766073D02*
X53309125Y-46814453D01*
X53309125Y-46814453D02*
X53067220Y-46814453D01*
D10*
X33291028Y-27173416D02*
X32952361Y-26689607D01*
X32710456Y-27173416D02*
X32710456Y-26157416D01*
X32710456Y-26157416D02*
X33097504Y-26157416D01*
X33097504Y-26157416D02*
X33194266Y-26205797D01*
X33194266Y-26205797D02*
X33242647Y-26254178D01*
X33242647Y-26254178D02*
X33291028Y-26350940D01*
X33291028Y-26350940D02*
X33291028Y-26496083D01*
X33291028Y-26496083D02*
X33242647Y-26592845D01*
X33242647Y-26592845D02*
X33194266Y-26641226D01*
X33194266Y-26641226D02*
X33097504Y-26689607D01*
X33097504Y-26689607D02*
X32710456Y-26689607D01*
X33629694Y-26157416D02*
X34307028Y-27173416D01*
X34307028Y-26157416D02*
X33629694Y-27173416D01*
D11*
X50551411Y-41861453D02*
X50551411Y-40845453D01*
X50551411Y-40845453D02*
X50793316Y-40845453D01*
X50793316Y-40845453D02*
X50938459Y-40893834D01*
X50938459Y-40893834D02*
X51035221Y-40990596D01*
X51035221Y-40990596D02*
X51083602Y-41087358D01*
X51083602Y-41087358D02*
X51131983Y-41280882D01*
X51131983Y-41280882D02*
X51131983Y-41426025D01*
X51131983Y-41426025D02*
X51083602Y-41619549D01*
X51083602Y-41619549D02*
X51035221Y-41716311D01*
X51035221Y-41716311D02*
X50938459Y-41813073D01*
X50938459Y-41813073D02*
X50793316Y-41861453D01*
X50793316Y-41861453D02*
X50551411Y-41861453D01*
X51519030Y-41571168D02*
X52002840Y-41571168D01*
X51422268Y-41861453D02*
X51760935Y-40845453D01*
X51760935Y-40845453D02*
X52099602Y-41861453D01*
X52293125Y-40845453D02*
X52873697Y-40845453D01*
X52583411Y-41861453D02*
X52583411Y-40845453D01*
X53163982Y-41571168D02*
X53647792Y-41571168D01*
X53067220Y-41861453D02*
X53405887Y-40845453D01*
X53405887Y-40845453D02*
X53744554Y-41861453D01*
D12*
X42119120Y-59924117D02*
X42300548Y-60736917D01*
X42300548Y-60736917D02*
X42445691Y-60156346D01*
X42445691Y-60156346D02*
X42590834Y-60736917D01*
X42590834Y-60736917D02*
X42772263Y-59924117D01*
X43425405Y-60736917D02*
X43062548Y-60736917D01*
X43062548Y-60736917D02*
X43062548Y-59924117D01*
X43679405Y-60311165D02*
X43933405Y-60311165D01*
X44042262Y-60736917D02*
X43679405Y-60736917D01*
X43679405Y-60736917D02*
X43679405Y-59924117D01*
X43679405Y-59924117D02*
X44042262Y-59924117D01*
X44368834Y-60736917D02*
X44368834Y-59924117D01*
X44368834Y-59924117D02*
X44550263Y-59924117D01*
X44550263Y-59924117D02*
X44659120Y-59962822D01*
X44659120Y-59962822D02*
X44731691Y-60040232D01*
X44731691Y-60040232D02*
X44767977Y-60117641D01*
X44767977Y-60117641D02*
X44804263Y-60272460D01*
X44804263Y-60272460D02*
X44804263Y-60388574D01*
X44804263Y-60388574D02*
X44767977Y-60543393D01*
X44767977Y-60543393D02*
X44731691Y-60620803D01*
X44731691Y-60620803D02*
X44659120Y-60698213D01*
X44659120Y-60698213D02*
X44550263Y-60736917D01*
X44550263Y-60736917D02*
X44368834Y-60736917D01*
X45711405Y-60311165D02*
X45965405Y-60311165D01*
X46074262Y-60736917D02*
X45711405Y-60736917D01*
X45711405Y-60736917D02*
X45711405Y-59924117D01*
X45711405Y-59924117D02*
X46074262Y-59924117D01*
X46364548Y-60698213D02*
X46473406Y-60736917D01*
X46473406Y-60736917D02*
X46654834Y-60736917D01*
X46654834Y-60736917D02*
X46727406Y-60698213D01*
X46727406Y-60698213D02*
X46763691Y-60659508D01*
X46763691Y-60659508D02*
X46799977Y-60582098D01*
X46799977Y-60582098D02*
X46799977Y-60504689D01*
X46799977Y-60504689D02*
X46763691Y-60427279D01*
X46763691Y-60427279D02*
X46727406Y-60388574D01*
X46727406Y-60388574D02*
X46654834Y-60349870D01*
X46654834Y-60349870D02*
X46509691Y-60311165D01*
X46509691Y-60311165D02*
X46437120Y-60272460D01*
X46437120Y-60272460D02*
X46400834Y-60233755D01*
X46400834Y-60233755D02*
X46364548Y-60156346D01*
X46364548Y-60156346D02*
X46364548Y-60078936D01*
X46364548Y-60078936D02*
X46400834Y-60001527D01*
X46400834Y-60001527D02*
X46437120Y-59962822D01*
X46437120Y-59962822D02*
X46509691Y-59924117D01*
X46509691Y-59924117D02*
X46691120Y-59924117D01*
X46691120Y-59924117D02*
X46799977Y-59962822D01*
X47126548Y-60736917D02*
X47126548Y-59924117D01*
X47126548Y-59924117D02*
X47416834Y-59924117D01*
X47416834Y-59924117D02*
X47489405Y-59962822D01*
X47489405Y-59962822D02*
X47525691Y-60001527D01*
X47525691Y-60001527D02*
X47561977Y-60078936D01*
X47561977Y-60078936D02*
X47561977Y-60195051D01*
X47561977Y-60195051D02*
X47525691Y-60272460D01*
X47525691Y-60272460D02*
X47489405Y-60311165D01*
X47489405Y-60311165D02*
X47416834Y-60349870D01*
X47416834Y-60349870D02*
X47126548Y-60349870D01*
X47888548Y-60427279D02*
X48469120Y-60427279D01*
X48977120Y-59924117D02*
X49049691Y-59924117D01*
X49049691Y-59924117D02*
X49122263Y-59962822D01*
X49122263Y-59962822D02*
X49158549Y-60001527D01*
X49158549Y-60001527D02*
X49194834Y-60078936D01*
X49194834Y-60078936D02*
X49231120Y-60233755D01*
X49231120Y-60233755D02*
X49231120Y-60427279D01*
X49231120Y-60427279D02*
X49194834Y-60582098D01*
X49194834Y-60582098D02*
X49158549Y-60659508D01*
X49158549Y-60659508D02*
X49122263Y-60698213D01*
X49122263Y-60698213D02*
X49049691Y-60736917D01*
X49049691Y-60736917D02*
X48977120Y-60736917D01*
X48977120Y-60736917D02*
X48904549Y-60698213D01*
X48904549Y-60698213D02*
X48868263Y-60659508D01*
X48868263Y-60659508D02*
X48831977Y-60582098D01*
X48831977Y-60582098D02*
X48795691Y-60427279D01*
X48795691Y-60427279D02*
X48795691Y-60233755D01*
X48795691Y-60233755D02*
X48831977Y-60078936D01*
X48831977Y-60078936D02*
X48868263Y-60001527D01*
X48868263Y-60001527D02*
X48904549Y-59962822D01*
X48904549Y-59962822D02*
X48977120Y-59924117D01*
X49956834Y-60736917D02*
X49521405Y-60736917D01*
X49739120Y-60736917D02*
X49739120Y-59924117D01*
X49739120Y-59924117D02*
X49666548Y-60040232D01*
X49666548Y-60040232D02*
X49593977Y-60117641D01*
X49593977Y-60117641D02*
X49521405Y-60156346D01*
X51190548Y-60736917D02*
X51190548Y-59924117D01*
X51190548Y-60698213D02*
X51117976Y-60736917D01*
X51117976Y-60736917D02*
X50972833Y-60736917D01*
X50972833Y-60736917D02*
X50900262Y-60698213D01*
X50900262Y-60698213D02*
X50863976Y-60659508D01*
X50863976Y-60659508D02*
X50827690Y-60582098D01*
X50827690Y-60582098D02*
X50827690Y-60349870D01*
X50827690Y-60349870D02*
X50863976Y-60272460D01*
X50863976Y-60272460D02*
X50900262Y-60233755D01*
X50900262Y-60233755D02*
X50972833Y-60195051D01*
X50972833Y-60195051D02*
X51117976Y-60195051D01*
X51117976Y-60195051D02*
X51190548Y-60233755D01*
X51553405Y-60736917D02*
X51553405Y-60195051D01*
X51553405Y-60349870D02*
X51589691Y-60272460D01*
X51589691Y-60272460D02*
X51625977Y-60233755D01*
X51625977Y-60233755D02*
X51698548Y-60195051D01*
X51698548Y-60195051D02*
X51771119Y-60195051D01*
X52025119Y-60736917D02*
X52025119Y-60195051D01*
X52025119Y-59924117D02*
X51988833Y-59962822D01*
X51988833Y-59962822D02*
X52025119Y-60001527D01*
X52025119Y-60001527D02*
X52061405Y-59962822D01*
X52061405Y-59962822D02*
X52025119Y-59924117D01*
X52025119Y-59924117D02*
X52025119Y-60001527D01*
X52315405Y-60195051D02*
X52496833Y-60736917D01*
X52496833Y-60736917D02*
X52678262Y-60195051D01*
X53258833Y-60698213D02*
X53186261Y-60736917D01*
X53186261Y-60736917D02*
X53041119Y-60736917D01*
X53041119Y-60736917D02*
X52968547Y-60698213D01*
X52968547Y-60698213D02*
X52932261Y-60620803D01*
X52932261Y-60620803D02*
X52932261Y-60311165D01*
X52932261Y-60311165D02*
X52968547Y-60233755D01*
X52968547Y-60233755D02*
X53041119Y-60195051D01*
X53041119Y-60195051D02*
X53186261Y-60195051D01*
X53186261Y-60195051D02*
X53258833Y-60233755D01*
X53258833Y-60233755D02*
X53295119Y-60311165D01*
X53295119Y-60311165D02*
X53295119Y-60388574D01*
X53295119Y-60388574D02*
X52932261Y-60465984D01*
X53621690Y-60736917D02*
X53621690Y-60195051D01*
X53621690Y-60349870D02*
X53657976Y-60272460D01*
X53657976Y-60272460D02*
X53694262Y-60233755D01*
X53694262Y-60233755D02*
X53766833Y-60195051D01*
X53766833Y-60195051D02*
X53839404Y-60195051D01*
X54601404Y-60195051D02*
X54782832Y-60736917D01*
X54782832Y-60736917D02*
X54964261Y-60195051D01*
X55218260Y-60001527D02*
X55254546Y-59962822D01*
X55254546Y-59962822D02*
X55327118Y-59924117D01*
X55327118Y-59924117D02*
X55508546Y-59924117D01*
X55508546Y-59924117D02*
X55581118Y-59962822D01*
X55581118Y-59962822D02*
X55617403Y-60001527D01*
X55617403Y-60001527D02*
X55653689Y-60078936D01*
X55653689Y-60078936D02*
X55653689Y-60156346D01*
X55653689Y-60156346D02*
X55617403Y-60272460D01*
X55617403Y-60272460D02*
X55181975Y-60736917D01*
X55181975Y-60736917D02*
X55653689Y-60736917D01*
X42409405Y-62355117D02*
X42373120Y-62316413D01*
X42373120Y-62316413D02*
X42300548Y-62200298D01*
X42300548Y-62200298D02*
X42264263Y-62122889D01*
X42264263Y-62122889D02*
X42227977Y-62006775D01*
X42227977Y-62006775D02*
X42191691Y-61813251D01*
X42191691Y-61813251D02*
X42191691Y-61658432D01*
X42191691Y-61658432D02*
X42227977Y-61464908D01*
X42227977Y-61464908D02*
X42264263Y-61348794D01*
X42264263Y-61348794D02*
X42300548Y-61271384D01*
X42300548Y-61271384D02*
X42373120Y-61155270D01*
X42373120Y-61155270D02*
X42409405Y-61116565D01*
X43026263Y-62006775D02*
X42953691Y-62045479D01*
X42953691Y-62045479D02*
X42808548Y-62045479D01*
X42808548Y-62045479D02*
X42735977Y-62006775D01*
X42735977Y-62006775D02*
X42699691Y-61968070D01*
X42699691Y-61968070D02*
X42663405Y-61890660D01*
X42663405Y-61890660D02*
X42663405Y-61658432D01*
X42663405Y-61658432D02*
X42699691Y-61581022D01*
X42699691Y-61581022D02*
X42735977Y-61542317D01*
X42735977Y-61542317D02*
X42808548Y-61503613D01*
X42808548Y-61503613D02*
X42953691Y-61503613D01*
X42953691Y-61503613D02*
X43026263Y-61542317D01*
X43280263Y-62355117D02*
X43316548Y-62316413D01*
X43316548Y-62316413D02*
X43389120Y-62200298D01*
X43389120Y-62200298D02*
X43425406Y-62122889D01*
X43425406Y-62122889D02*
X43461691Y-62006775D01*
X43461691Y-62006775D02*
X43497977Y-61813251D01*
X43497977Y-61813251D02*
X43497977Y-61658432D01*
X43497977Y-61658432D02*
X43461691Y-61464908D01*
X43461691Y-61464908D02*
X43425406Y-61348794D01*
X43425406Y-61348794D02*
X43389120Y-61271384D01*
X43389120Y-61271384D02*
X43316548Y-61155270D01*
X43316548Y-61155270D02*
X43280263Y-61116565D01*
X44405119Y-61310089D02*
X44441405Y-61271384D01*
X44441405Y-61271384D02*
X44513977Y-61232679D01*
X44513977Y-61232679D02*
X44695405Y-61232679D01*
X44695405Y-61232679D02*
X44767977Y-61271384D01*
X44767977Y-61271384D02*
X44804262Y-61310089D01*
X44804262Y-61310089D02*
X44840548Y-61387498D01*
X44840548Y-61387498D02*
X44840548Y-61464908D01*
X44840548Y-61464908D02*
X44804262Y-61581022D01*
X44804262Y-61581022D02*
X44368834Y-62045479D01*
X44368834Y-62045479D02*
X44840548Y-62045479D01*
X45312262Y-61232679D02*
X45384833Y-61232679D01*
X45384833Y-61232679D02*
X45457405Y-61271384D01*
X45457405Y-61271384D02*
X45493691Y-61310089D01*
X45493691Y-61310089D02*
X45529976Y-61387498D01*
X45529976Y-61387498D02*
X45566262Y-61542317D01*
X45566262Y-61542317D02*
X45566262Y-61735841D01*
X45566262Y-61735841D02*
X45529976Y-61890660D01*
X45529976Y-61890660D02*
X45493691Y-61968070D01*
X45493691Y-61968070D02*
X45457405Y-62006775D01*
X45457405Y-62006775D02*
X45384833Y-62045479D01*
X45384833Y-62045479D02*
X45312262Y-62045479D01*
X45312262Y-62045479D02*
X45239691Y-62006775D01*
X45239691Y-62006775D02*
X45203405Y-61968070D01*
X45203405Y-61968070D02*
X45167119Y-61890660D01*
X45167119Y-61890660D02*
X45130833Y-61735841D01*
X45130833Y-61735841D02*
X45130833Y-61542317D01*
X45130833Y-61542317D02*
X45167119Y-61387498D01*
X45167119Y-61387498D02*
X45203405Y-61310089D01*
X45203405Y-61310089D02*
X45239691Y-61271384D01*
X45239691Y-61271384D02*
X45312262Y-61232679D01*
X45856547Y-61310089D02*
X45892833Y-61271384D01*
X45892833Y-61271384D02*
X45965405Y-61232679D01*
X45965405Y-61232679D02*
X46146833Y-61232679D01*
X46146833Y-61232679D02*
X46219405Y-61271384D01*
X46219405Y-61271384D02*
X46255690Y-61310089D01*
X46255690Y-61310089D02*
X46291976Y-61387498D01*
X46291976Y-61387498D02*
X46291976Y-61464908D01*
X46291976Y-61464908D02*
X46255690Y-61581022D01*
X46255690Y-61581022D02*
X45820262Y-62045479D01*
X45820262Y-62045479D02*
X46291976Y-62045479D01*
X46981404Y-61232679D02*
X46618547Y-61232679D01*
X46618547Y-61232679D02*
X46582261Y-61619727D01*
X46582261Y-61619727D02*
X46618547Y-61581022D01*
X46618547Y-61581022D02*
X46691119Y-61542317D01*
X46691119Y-61542317D02*
X46872547Y-61542317D01*
X46872547Y-61542317D02*
X46945119Y-61581022D01*
X46945119Y-61581022D02*
X46981404Y-61619727D01*
X46981404Y-61619727D02*
X47017690Y-61697136D01*
X47017690Y-61697136D02*
X47017690Y-61890660D01*
X47017690Y-61890660D02*
X46981404Y-61968070D01*
X46981404Y-61968070D02*
X46945119Y-62006775D01*
X46945119Y-62006775D02*
X46872547Y-62045479D01*
X46872547Y-62045479D02*
X46691119Y-62045479D01*
X46691119Y-62045479D02*
X46618547Y-62006775D01*
X46618547Y-62006775D02*
X46582261Y-61968070D01*
X47344261Y-61735841D02*
X47924833Y-61735841D01*
X48432833Y-61232679D02*
X48505404Y-61232679D01*
X48505404Y-61232679D02*
X48577976Y-61271384D01*
X48577976Y-61271384D02*
X48614262Y-61310089D01*
X48614262Y-61310089D02*
X48650547Y-61387498D01*
X48650547Y-61387498D02*
X48686833Y-61542317D01*
X48686833Y-61542317D02*
X48686833Y-61735841D01*
X48686833Y-61735841D02*
X48650547Y-61890660D01*
X48650547Y-61890660D02*
X48614262Y-61968070D01*
X48614262Y-61968070D02*
X48577976Y-62006775D01*
X48577976Y-62006775D02*
X48505404Y-62045479D01*
X48505404Y-62045479D02*
X48432833Y-62045479D01*
X48432833Y-62045479D02*
X48360262Y-62006775D01*
X48360262Y-62006775D02*
X48323976Y-61968070D01*
X48323976Y-61968070D02*
X48287690Y-61890660D01*
X48287690Y-61890660D02*
X48251404Y-61735841D01*
X48251404Y-61735841D02*
X48251404Y-61542317D01*
X48251404Y-61542317D02*
X48287690Y-61387498D01*
X48287690Y-61387498D02*
X48323976Y-61310089D01*
X48323976Y-61310089D02*
X48360262Y-61271384D01*
X48360262Y-61271384D02*
X48432833Y-61232679D01*
X48977118Y-61310089D02*
X49013404Y-61271384D01*
X49013404Y-61271384D02*
X49085976Y-61232679D01*
X49085976Y-61232679D02*
X49267404Y-61232679D01*
X49267404Y-61232679D02*
X49339976Y-61271384D01*
X49339976Y-61271384D02*
X49376261Y-61310089D01*
X49376261Y-61310089D02*
X49412547Y-61387498D01*
X49412547Y-61387498D02*
X49412547Y-61464908D01*
X49412547Y-61464908D02*
X49376261Y-61581022D01*
X49376261Y-61581022D02*
X48940833Y-62045479D01*
X48940833Y-62045479D02*
X49412547Y-62045479D01*
X49739118Y-61735841D02*
X50319690Y-61735841D01*
X51081690Y-62045479D02*
X50646261Y-62045479D01*
X50863976Y-62045479D02*
X50863976Y-61232679D01*
X50863976Y-61232679D02*
X50791404Y-61348794D01*
X50791404Y-61348794D02*
X50718833Y-61426203D01*
X50718833Y-61426203D02*
X50646261Y-61464908D01*
X51807404Y-62045479D02*
X51371975Y-62045479D01*
X51589690Y-62045479D02*
X51589690Y-61232679D01*
X51589690Y-61232679D02*
X51517118Y-61348794D01*
X51517118Y-61348794D02*
X51444547Y-61426203D01*
X51444547Y-61426203D02*
X51371975Y-61464908D01*
X42554548Y-63354041D02*
X42191691Y-63354041D01*
X42191691Y-63354041D02*
X42191691Y-62541241D01*
X43135120Y-63354041D02*
X43135120Y-62928289D01*
X43135120Y-62928289D02*
X43098834Y-62850879D01*
X43098834Y-62850879D02*
X43026262Y-62812175D01*
X43026262Y-62812175D02*
X42881120Y-62812175D01*
X42881120Y-62812175D02*
X42808548Y-62850879D01*
X43135120Y-63315337D02*
X43062548Y-63354041D01*
X43062548Y-63354041D02*
X42881120Y-63354041D01*
X42881120Y-63354041D02*
X42808548Y-63315337D01*
X42808548Y-63315337D02*
X42772262Y-63237927D01*
X42772262Y-63237927D02*
X42772262Y-63160517D01*
X42772262Y-63160517D02*
X42808548Y-63083108D01*
X42808548Y-63083108D02*
X42881120Y-63044403D01*
X42881120Y-63044403D02*
X43062548Y-63044403D01*
X43062548Y-63044403D02*
X43135120Y-63005698D01*
X43425406Y-62812175D02*
X43570549Y-63354041D01*
X43570549Y-63354041D02*
X43715691Y-62966994D01*
X43715691Y-62966994D02*
X43860834Y-63354041D01*
X43860834Y-63354041D02*
X44005977Y-62812175D01*
X44296263Y-63354041D02*
X44296263Y-62812175D01*
X44296263Y-62966994D02*
X44332549Y-62889584D01*
X44332549Y-62889584D02*
X44368835Y-62850879D01*
X44368835Y-62850879D02*
X44441406Y-62812175D01*
X44441406Y-62812175D02*
X44513977Y-62812175D01*
X45058263Y-63315337D02*
X44985691Y-63354041D01*
X44985691Y-63354041D02*
X44840549Y-63354041D01*
X44840549Y-63354041D02*
X44767977Y-63315337D01*
X44767977Y-63315337D02*
X44731691Y-63237927D01*
X44731691Y-63237927D02*
X44731691Y-62928289D01*
X44731691Y-62928289D02*
X44767977Y-62850879D01*
X44767977Y-62850879D02*
X44840549Y-62812175D01*
X44840549Y-62812175D02*
X44985691Y-62812175D01*
X44985691Y-62812175D02*
X45058263Y-62850879D01*
X45058263Y-62850879D02*
X45094549Y-62928289D01*
X45094549Y-62928289D02*
X45094549Y-63005698D01*
X45094549Y-63005698D02*
X44731691Y-63083108D01*
X45421120Y-62812175D02*
X45421120Y-63354041D01*
X45421120Y-62889584D02*
X45457406Y-62850879D01*
X45457406Y-62850879D02*
X45529977Y-62812175D01*
X45529977Y-62812175D02*
X45638834Y-62812175D01*
X45638834Y-62812175D02*
X45711406Y-62850879D01*
X45711406Y-62850879D02*
X45747692Y-62928289D01*
X45747692Y-62928289D02*
X45747692Y-63354041D01*
X46437121Y-63315337D02*
X46364549Y-63354041D01*
X46364549Y-63354041D02*
X46219406Y-63354041D01*
X46219406Y-63354041D02*
X46146835Y-63315337D01*
X46146835Y-63315337D02*
X46110549Y-63276632D01*
X46110549Y-63276632D02*
X46074263Y-63199222D01*
X46074263Y-63199222D02*
X46074263Y-62966994D01*
X46074263Y-62966994D02*
X46110549Y-62889584D01*
X46110549Y-62889584D02*
X46146835Y-62850879D01*
X46146835Y-62850879D02*
X46219406Y-62812175D01*
X46219406Y-62812175D02*
X46364549Y-62812175D01*
X46364549Y-62812175D02*
X46437121Y-62850879D01*
X47053978Y-63315337D02*
X46981406Y-63354041D01*
X46981406Y-63354041D02*
X46836264Y-63354041D01*
X46836264Y-63354041D02*
X46763692Y-63315337D01*
X46763692Y-63315337D02*
X46727406Y-63237927D01*
X46727406Y-63237927D02*
X46727406Y-62928289D01*
X46727406Y-62928289D02*
X46763692Y-62850879D01*
X46763692Y-62850879D02*
X46836264Y-62812175D01*
X46836264Y-62812175D02*
X46981406Y-62812175D01*
X46981406Y-62812175D02*
X47053978Y-62850879D01*
X47053978Y-62850879D02*
X47090264Y-62928289D01*
X47090264Y-62928289D02*
X47090264Y-63005698D01*
X47090264Y-63005698D02*
X46727406Y-63083108D01*
X47997406Y-63354041D02*
X47997406Y-62541241D01*
X47997406Y-62541241D02*
X48251406Y-63121813D01*
X48251406Y-63121813D02*
X48505406Y-62541241D01*
X48505406Y-62541241D02*
X48505406Y-63354041D01*
X49194835Y-63354041D02*
X49194835Y-62928289D01*
X49194835Y-62928289D02*
X49158549Y-62850879D01*
X49158549Y-62850879D02*
X49085977Y-62812175D01*
X49085977Y-62812175D02*
X48940835Y-62812175D01*
X48940835Y-62812175D02*
X48868263Y-62850879D01*
X49194835Y-63315337D02*
X49122263Y-63354041D01*
X49122263Y-63354041D02*
X48940835Y-63354041D01*
X48940835Y-63354041D02*
X48868263Y-63315337D01*
X48868263Y-63315337D02*
X48831977Y-63237927D01*
X48831977Y-63237927D02*
X48831977Y-63160517D01*
X48831977Y-63160517D02*
X48868263Y-63083108D01*
X48868263Y-63083108D02*
X48940835Y-63044403D01*
X48940835Y-63044403D02*
X49122263Y-63044403D01*
X49122263Y-63044403D02*
X49194835Y-63005698D01*
X49557692Y-62812175D02*
X49557692Y-63354041D01*
X49557692Y-62889584D02*
X49593978Y-62850879D01*
X49593978Y-62850879D02*
X49666549Y-62812175D01*
X49666549Y-62812175D02*
X49775406Y-62812175D01*
X49775406Y-62812175D02*
X49847978Y-62850879D01*
X49847978Y-62850879D02*
X49884264Y-62928289D01*
X49884264Y-62928289D02*
X49884264Y-63354041D01*
X50247121Y-62812175D02*
X50247121Y-63354041D01*
X50247121Y-62889584D02*
X50283407Y-62850879D01*
X50283407Y-62850879D02*
X50355978Y-62812175D01*
X50355978Y-62812175D02*
X50464835Y-62812175D01*
X50464835Y-62812175D02*
X50537407Y-62850879D01*
X50537407Y-62850879D02*
X50573693Y-62928289D01*
X50573693Y-62928289D02*
X50573693Y-63354041D01*
X50936550Y-63354041D02*
X50936550Y-62812175D01*
X50936550Y-62541241D02*
X50900264Y-62579946D01*
X50900264Y-62579946D02*
X50936550Y-62618651D01*
X50936550Y-62618651D02*
X50972836Y-62579946D01*
X50972836Y-62579946D02*
X50936550Y-62541241D01*
X50936550Y-62541241D02*
X50936550Y-62618651D01*
X51299407Y-62812175D02*
X51299407Y-63354041D01*
X51299407Y-62889584D02*
X51335693Y-62850879D01*
X51335693Y-62850879D02*
X51408264Y-62812175D01*
X51408264Y-62812175D02*
X51517121Y-62812175D01*
X51517121Y-62812175D02*
X51589693Y-62850879D01*
X51589693Y-62850879D02*
X51625979Y-62928289D01*
X51625979Y-62928289D02*
X51625979Y-63354041D01*
X52315408Y-62812175D02*
X52315408Y-63470156D01*
X52315408Y-63470156D02*
X52279122Y-63547565D01*
X52279122Y-63547565D02*
X52242836Y-63586270D01*
X52242836Y-63586270D02*
X52170265Y-63624975D01*
X52170265Y-63624975D02*
X52061408Y-63624975D01*
X52061408Y-63624975D02*
X51988836Y-63586270D01*
X52315408Y-63315337D02*
X52242836Y-63354041D01*
X52242836Y-63354041D02*
X52097693Y-63354041D01*
X52097693Y-63354041D02*
X52025122Y-63315337D01*
X52025122Y-63315337D02*
X51988836Y-63276632D01*
X51988836Y-63276632D02*
X51952550Y-63199222D01*
X51952550Y-63199222D02*
X51952550Y-62966994D01*
X51952550Y-62966994D02*
X51988836Y-62889584D01*
X51988836Y-62889584D02*
X52025122Y-62850879D01*
X52025122Y-62850879D02*
X52097693Y-62812175D01*
X52097693Y-62812175D02*
X52242836Y-62812175D01*
X52242836Y-62812175D02*
X52315408Y-62850879D01*
X42119120Y-64120737D02*
X42264263Y-64662603D01*
X42264263Y-64662603D02*
X42409405Y-64275556D01*
X42409405Y-64275556D02*
X42554548Y-64662603D01*
X42554548Y-64662603D02*
X42699691Y-64120737D01*
X42917406Y-64120737D02*
X43062549Y-64662603D01*
X43062549Y-64662603D02*
X43207691Y-64275556D01*
X43207691Y-64275556D02*
X43352834Y-64662603D01*
X43352834Y-64662603D02*
X43497977Y-64120737D01*
X43715692Y-64120737D02*
X43860835Y-64662603D01*
X43860835Y-64662603D02*
X44005977Y-64275556D01*
X44005977Y-64275556D02*
X44151120Y-64662603D01*
X44151120Y-64662603D02*
X44296263Y-64120737D01*
X44586549Y-64585194D02*
X44622835Y-64623899D01*
X44622835Y-64623899D02*
X44586549Y-64662603D01*
X44586549Y-64662603D02*
X44550263Y-64623899D01*
X44550263Y-64623899D02*
X44586549Y-64585194D01*
X44586549Y-64585194D02*
X44586549Y-64662603D01*
X45275978Y-64662603D02*
X45275978Y-64236851D01*
X45275978Y-64236851D02*
X45239692Y-64159441D01*
X45239692Y-64159441D02*
X45167120Y-64120737D01*
X45167120Y-64120737D02*
X45021978Y-64120737D01*
X45021978Y-64120737D02*
X44949406Y-64159441D01*
X45275978Y-64623899D02*
X45203406Y-64662603D01*
X45203406Y-64662603D02*
X45021978Y-64662603D01*
X45021978Y-64662603D02*
X44949406Y-64623899D01*
X44949406Y-64623899D02*
X44913120Y-64546489D01*
X44913120Y-64546489D02*
X44913120Y-64469079D01*
X44913120Y-64469079D02*
X44949406Y-64391670D01*
X44949406Y-64391670D02*
X45021978Y-64352965D01*
X45021978Y-64352965D02*
X45203406Y-64352965D01*
X45203406Y-64352965D02*
X45275978Y-64314260D01*
X45602549Y-64623899D02*
X45675121Y-64662603D01*
X45675121Y-64662603D02*
X45820264Y-64662603D01*
X45820264Y-64662603D02*
X45892835Y-64623899D01*
X45892835Y-64623899D02*
X45929121Y-64546489D01*
X45929121Y-64546489D02*
X45929121Y-64507784D01*
X45929121Y-64507784D02*
X45892835Y-64430375D01*
X45892835Y-64430375D02*
X45820264Y-64391670D01*
X45820264Y-64391670D02*
X45711407Y-64391670D01*
X45711407Y-64391670D02*
X45638835Y-64352965D01*
X45638835Y-64352965D02*
X45602549Y-64275556D01*
X45602549Y-64275556D02*
X45602549Y-64236851D01*
X45602549Y-64236851D02*
X45638835Y-64159441D01*
X45638835Y-64159441D02*
X45711407Y-64120737D01*
X45711407Y-64120737D02*
X45820264Y-64120737D01*
X45820264Y-64120737D02*
X45892835Y-64159441D01*
X46364549Y-64662603D02*
X46291978Y-64623899D01*
X46291978Y-64623899D02*
X46255692Y-64546489D01*
X46255692Y-64546489D02*
X46255692Y-63849803D01*
X46981407Y-64662603D02*
X46981407Y-64236851D01*
X46981407Y-64236851D02*
X46945121Y-64159441D01*
X46945121Y-64159441D02*
X46872549Y-64120737D01*
X46872549Y-64120737D02*
X46727407Y-64120737D01*
X46727407Y-64120737D02*
X46654835Y-64159441D01*
X46981407Y-64623899D02*
X46908835Y-64662603D01*
X46908835Y-64662603D02*
X46727407Y-64662603D01*
X46727407Y-64662603D02*
X46654835Y-64623899D01*
X46654835Y-64623899D02*
X46618549Y-64546489D01*
X46618549Y-64546489D02*
X46618549Y-64469079D01*
X46618549Y-64469079D02*
X46654835Y-64391670D01*
X46654835Y-64391670D02*
X46727407Y-64352965D01*
X46727407Y-64352965D02*
X46908835Y-64352965D01*
X46908835Y-64352965D02*
X46981407Y-64314260D01*
X47344264Y-64662603D02*
X47344264Y-63849803D01*
X47416836Y-64352965D02*
X47634550Y-64662603D01*
X47634550Y-64120737D02*
X47344264Y-64430375D01*
X47961121Y-64585194D02*
X47997407Y-64623899D01*
X47997407Y-64623899D02*
X47961121Y-64662603D01*
X47961121Y-64662603D02*
X47924835Y-64623899D01*
X47924835Y-64623899D02*
X47961121Y-64585194D01*
X47961121Y-64585194D02*
X47961121Y-64662603D01*
X48323978Y-64120737D02*
X48323978Y-64662603D01*
X48323978Y-64198146D02*
X48360264Y-64159441D01*
X48360264Y-64159441D02*
X48432835Y-64120737D01*
X48432835Y-64120737D02*
X48541692Y-64120737D01*
X48541692Y-64120737D02*
X48614264Y-64159441D01*
X48614264Y-64159441D02*
X48650550Y-64236851D01*
X48650550Y-64236851D02*
X48650550Y-64662603D01*
X49303693Y-64623899D02*
X49231121Y-64662603D01*
X49231121Y-64662603D02*
X49085979Y-64662603D01*
X49085979Y-64662603D02*
X49013407Y-64623899D01*
X49013407Y-64623899D02*
X48977121Y-64546489D01*
X48977121Y-64546489D02*
X48977121Y-64236851D01*
X48977121Y-64236851D02*
X49013407Y-64159441D01*
X49013407Y-64159441D02*
X49085979Y-64120737D01*
X49085979Y-64120737D02*
X49231121Y-64120737D01*
X49231121Y-64120737D02*
X49303693Y-64159441D01*
X49303693Y-64159441D02*
X49339979Y-64236851D01*
X49339979Y-64236851D02*
X49339979Y-64314260D01*
X49339979Y-64314260D02*
X48977121Y-64391670D01*
X49557693Y-64120737D02*
X49847979Y-64120737D01*
X49666550Y-63849803D02*
X49666550Y-64546489D01*
X49666550Y-64546489D02*
X49702836Y-64623899D01*
X49702836Y-64623899D02*
X49775407Y-64662603D01*
X49775407Y-64662603D02*
X49847979Y-64662603D01*
D11*
X44788667Y-44274453D02*
X44450000Y-43790644D01*
X44208095Y-44274453D02*
X44208095Y-43258453D01*
X44208095Y-43258453D02*
X44595143Y-43258453D01*
X44595143Y-43258453D02*
X44691905Y-43306834D01*
X44691905Y-43306834D02*
X44740286Y-43355215D01*
X44740286Y-43355215D02*
X44788667Y-43451977D01*
X44788667Y-43451977D02*
X44788667Y-43597120D01*
X44788667Y-43597120D02*
X44740286Y-43693882D01*
X44740286Y-43693882D02*
X44691905Y-43742263D01*
X44691905Y-43742263D02*
X44595143Y-43790644D01*
X44595143Y-43790644D02*
X44208095Y-43790644D01*
X45127333Y-43258453D02*
X45804667Y-44274453D01*
X45804667Y-43258453D02*
X45127333Y-44274453D01*
X44183904Y-32971453D02*
X44764476Y-32971453D01*
X44474190Y-33987453D02*
X44474190Y-32971453D01*
X45006380Y-32971453D02*
X45683714Y-33987453D01*
X45683714Y-32971453D02*
X45006380Y-33987453D01*
D10*
X33049123Y-28705797D02*
X32976552Y-28657416D01*
X32976552Y-28657416D02*
X32867694Y-28657416D01*
X32867694Y-28657416D02*
X32758837Y-28705797D01*
X32758837Y-28705797D02*
X32686266Y-28802559D01*
X32686266Y-28802559D02*
X32649980Y-28899321D01*
X32649980Y-28899321D02*
X32613694Y-29092845D01*
X32613694Y-29092845D02*
X32613694Y-29237988D01*
X32613694Y-29237988D02*
X32649980Y-29431512D01*
X32649980Y-29431512D02*
X32686266Y-29528274D01*
X32686266Y-29528274D02*
X32758837Y-29625036D01*
X32758837Y-29625036D02*
X32867694Y-29673416D01*
X32867694Y-29673416D02*
X32940266Y-29673416D01*
X32940266Y-29673416D02*
X33049123Y-29625036D01*
X33049123Y-29625036D02*
X33085409Y-29576655D01*
X33085409Y-29576655D02*
X33085409Y-29237988D01*
X33085409Y-29237988D02*
X32940266Y-29237988D01*
X33411980Y-29673416D02*
X33411980Y-28657416D01*
X33411980Y-28657416D02*
X33847409Y-29673416D01*
X33847409Y-29673416D02*
X33847409Y-28657416D01*
X34210266Y-29673416D02*
X34210266Y-28657416D01*
X34210266Y-28657416D02*
X34391695Y-28657416D01*
X34391695Y-28657416D02*
X34500552Y-28705797D01*
X34500552Y-28705797D02*
X34573123Y-28802559D01*
X34573123Y-28802559D02*
X34609409Y-28899321D01*
X34609409Y-28899321D02*
X34645695Y-29092845D01*
X34645695Y-29092845D02*
X34645695Y-29237988D01*
X34645695Y-29237988D02*
X34609409Y-29431512D01*
X34609409Y-29431512D02*
X34573123Y-29528274D01*
X34573123Y-29528274D02*
X34500552Y-29625036D01*
X34500552Y-29625036D02*
X34391695Y-29673416D01*
X34391695Y-29673416D02*
X34210266Y-29673416D01*
D13*
X37168333Y-58494819D02*
X36835000Y-58018628D01*
X36596905Y-58494819D02*
X36596905Y-57494819D01*
X36596905Y-57494819D02*
X36977857Y-57494819D01*
X36977857Y-57494819D02*
X37073095Y-57542438D01*
X37073095Y-57542438D02*
X37120714Y-57590057D01*
X37120714Y-57590057D02*
X37168333Y-57685295D01*
X37168333Y-57685295D02*
X37168333Y-57828152D01*
X37168333Y-57828152D02*
X37120714Y-57923390D01*
X37120714Y-57923390D02*
X37073095Y-57971009D01*
X37073095Y-57971009D02*
X36977857Y-58018628D01*
X36977857Y-58018628D02*
X36596905Y-58018628D01*
X37501667Y-57494819D02*
X38120714Y-57494819D01*
X38120714Y-57494819D02*
X37787381Y-57875771D01*
X37787381Y-57875771D02*
X37930238Y-57875771D01*
X37930238Y-57875771D02*
X38025476Y-57923390D01*
X38025476Y-57923390D02*
X38073095Y-57971009D01*
X38073095Y-57971009D02*
X38120714Y-58066247D01*
X38120714Y-58066247D02*
X38120714Y-58304342D01*
X38120714Y-58304342D02*
X38073095Y-58399580D01*
X38073095Y-58399580D02*
X38025476Y-58447200D01*
X38025476Y-58447200D02*
X37930238Y-58494819D01*
X37930238Y-58494819D02*
X37644524Y-58494819D01*
X37644524Y-58494819D02*
X37549286Y-58447200D01*
X37549286Y-58447200D02*
X37501667Y-58399580D01*
X37253666Y-18504819D02*
X37253666Y-19219104D01*
X37253666Y-19219104D02*
X37206047Y-19361961D01*
X37206047Y-19361961D02*
X37110809Y-19457200D01*
X37110809Y-19457200D02*
X36967952Y-19504819D01*
X36967952Y-19504819D02*
X36872714Y-19504819D01*
X37682238Y-18600057D02*
X37729857Y-18552438D01*
X37729857Y-18552438D02*
X37825095Y-18504819D01*
X37825095Y-18504819D02*
X38063190Y-18504819D01*
X38063190Y-18504819D02*
X38158428Y-18552438D01*
X38158428Y-18552438D02*
X38206047Y-18600057D01*
X38206047Y-18600057D02*
X38253666Y-18695295D01*
X38253666Y-18695295D02*
X38253666Y-18790533D01*
X38253666Y-18790533D02*
X38206047Y-18933390D01*
X38206047Y-18933390D02*
X37634619Y-19504819D01*
X37634619Y-19504819D02*
X38253666Y-19504819D01*
X47521905Y-41729819D02*
X47521905Y-40729819D01*
X47521905Y-40729819D02*
X47760000Y-40729819D01*
X47760000Y-40729819D02*
X47902857Y-40777438D01*
X47902857Y-40777438D02*
X47998095Y-40872676D01*
X47998095Y-40872676D02*
X48045714Y-40967914D01*
X48045714Y-40967914D02*
X48093333Y-41158390D01*
X48093333Y-41158390D02*
X48093333Y-41301247D01*
X48093333Y-41301247D02*
X48045714Y-41491723D01*
X48045714Y-41491723D02*
X47998095Y-41586961D01*
X47998095Y-41586961D02*
X47902857Y-41682200D01*
X47902857Y-41682200D02*
X47760000Y-41729819D01*
X47760000Y-41729819D02*
X47521905Y-41729819D01*
X48426667Y-40729819D02*
X49045714Y-40729819D01*
X49045714Y-40729819D02*
X48712381Y-41110771D01*
X48712381Y-41110771D02*
X48855238Y-41110771D01*
X48855238Y-41110771D02*
X48950476Y-41158390D01*
X48950476Y-41158390D02*
X48998095Y-41206009D01*
X48998095Y-41206009D02*
X49045714Y-41301247D01*
X49045714Y-41301247D02*
X49045714Y-41539342D01*
X49045714Y-41539342D02*
X48998095Y-41634580D01*
X48998095Y-41634580D02*
X48950476Y-41682200D01*
X48950476Y-41682200D02*
X48855238Y-41729819D01*
X48855238Y-41729819D02*
X48569524Y-41729819D01*
X48569524Y-41729819D02*
X48474286Y-41682200D01*
X48474286Y-41682200D02*
X48426667Y-41634580D01*
X47648905Y-36649819D02*
X47648905Y-35649819D01*
X47648905Y-35649819D02*
X47887000Y-35649819D01*
X47887000Y-35649819D02*
X48029857Y-35697438D01*
X48029857Y-35697438D02*
X48125095Y-35792676D01*
X48125095Y-35792676D02*
X48172714Y-35887914D01*
X48172714Y-35887914D02*
X48220333Y-36078390D01*
X48220333Y-36078390D02*
X48220333Y-36221247D01*
X48220333Y-36221247D02*
X48172714Y-36411723D01*
X48172714Y-36411723D02*
X48125095Y-36506961D01*
X48125095Y-36506961D02*
X48029857Y-36602200D01*
X48029857Y-36602200D02*
X47887000Y-36649819D01*
X47887000Y-36649819D02*
X47648905Y-36649819D01*
X48601286Y-35745057D02*
X48648905Y-35697438D01*
X48648905Y-35697438D02*
X48744143Y-35649819D01*
X48744143Y-35649819D02*
X48982238Y-35649819D01*
X48982238Y-35649819D02*
X49077476Y-35697438D01*
X49077476Y-35697438D02*
X49125095Y-35745057D01*
X49125095Y-35745057D02*
X49172714Y-35840295D01*
X49172714Y-35840295D02*
X49172714Y-35935533D01*
X49172714Y-35935533D02*
X49125095Y-36078390D01*
X49125095Y-36078390D02*
X48553667Y-36649819D01*
X48553667Y-36649819D02*
X49172714Y-36649819D01*
X58705761Y-27487057D02*
X58610523Y-27439438D01*
X58610523Y-27439438D02*
X58515285Y-27344200D01*
X58515285Y-27344200D02*
X58372428Y-27201342D01*
X58372428Y-27201342D02*
X58277190Y-27153723D01*
X58277190Y-27153723D02*
X58181952Y-27153723D01*
X58229571Y-27391819D02*
X58134333Y-27344200D01*
X58134333Y-27344200D02*
X58039095Y-27248961D01*
X58039095Y-27248961D02*
X57991476Y-27058485D01*
X57991476Y-27058485D02*
X57991476Y-26725152D01*
X57991476Y-26725152D02*
X58039095Y-26534676D01*
X58039095Y-26534676D02*
X58134333Y-26439438D01*
X58134333Y-26439438D02*
X58229571Y-26391819D01*
X58229571Y-26391819D02*
X58420047Y-26391819D01*
X58420047Y-26391819D02*
X58515285Y-26439438D01*
X58515285Y-26439438D02*
X58610523Y-26534676D01*
X58610523Y-26534676D02*
X58658142Y-26725152D01*
X58658142Y-26725152D02*
X58658142Y-27058485D01*
X58658142Y-27058485D02*
X58610523Y-27248961D01*
X58610523Y-27248961D02*
X58515285Y-27344200D01*
X58515285Y-27344200D02*
X58420047Y-27391819D01*
X58420047Y-27391819D02*
X58229571Y-27391819D01*
X59610523Y-27391819D02*
X59039095Y-27391819D01*
X59324809Y-27391819D02*
X59324809Y-26391819D01*
X59324809Y-26391819D02*
X59229571Y-26534676D01*
X59229571Y-26534676D02*
X59134333Y-26629914D01*
X59134333Y-26629914D02*
X59039095Y-26677533D01*
X62698333Y-27378819D02*
X62365000Y-26902628D01*
X62126905Y-27378819D02*
X62126905Y-26378819D01*
X62126905Y-26378819D02*
X62507857Y-26378819D01*
X62507857Y-26378819D02*
X62603095Y-26426438D01*
X62603095Y-26426438D02*
X62650714Y-26474057D01*
X62650714Y-26474057D02*
X62698333Y-26569295D01*
X62698333Y-26569295D02*
X62698333Y-26712152D01*
X62698333Y-26712152D02*
X62650714Y-26807390D01*
X62650714Y-26807390D02*
X62603095Y-26855009D01*
X62603095Y-26855009D02*
X62507857Y-26902628D01*
X62507857Y-26902628D02*
X62126905Y-26902628D01*
X63079286Y-26474057D02*
X63126905Y-26426438D01*
X63126905Y-26426438D02*
X63222143Y-26378819D01*
X63222143Y-26378819D02*
X63460238Y-26378819D01*
X63460238Y-26378819D02*
X63555476Y-26426438D01*
X63555476Y-26426438D02*
X63603095Y-26474057D01*
X63603095Y-26474057D02*
X63650714Y-26569295D01*
X63650714Y-26569295D02*
X63650714Y-26664533D01*
X63650714Y-26664533D02*
X63603095Y-26807390D01*
X63603095Y-26807390D02*
X63031667Y-27378819D01*
X63031667Y-27378819D02*
X63650714Y-27378819D01*
X27741714Y-53572580D02*
X27694095Y-53620200D01*
X27694095Y-53620200D02*
X27551238Y-53667819D01*
X27551238Y-53667819D02*
X27456000Y-53667819D01*
X27456000Y-53667819D02*
X27313143Y-53620200D01*
X27313143Y-53620200D02*
X27217905Y-53524961D01*
X27217905Y-53524961D02*
X27170286Y-53429723D01*
X27170286Y-53429723D02*
X27122667Y-53239247D01*
X27122667Y-53239247D02*
X27122667Y-53096390D01*
X27122667Y-53096390D02*
X27170286Y-52905914D01*
X27170286Y-52905914D02*
X27217905Y-52810676D01*
X27217905Y-52810676D02*
X27313143Y-52715438D01*
X27313143Y-52715438D02*
X27456000Y-52667819D01*
X27456000Y-52667819D02*
X27551238Y-52667819D01*
X27551238Y-52667819D02*
X27694095Y-52715438D01*
X27694095Y-52715438D02*
X27741714Y-52763057D01*
X28360762Y-52667819D02*
X28551238Y-52667819D01*
X28551238Y-52667819D02*
X28646476Y-52715438D01*
X28646476Y-52715438D02*
X28741714Y-52810676D01*
X28741714Y-52810676D02*
X28789333Y-53001152D01*
X28789333Y-53001152D02*
X28789333Y-53334485D01*
X28789333Y-53334485D02*
X28741714Y-53524961D01*
X28741714Y-53524961D02*
X28646476Y-53620200D01*
X28646476Y-53620200D02*
X28551238Y-53667819D01*
X28551238Y-53667819D02*
X28360762Y-53667819D01*
X28360762Y-53667819D02*
X28265524Y-53620200D01*
X28265524Y-53620200D02*
X28170286Y-53524961D01*
X28170286Y-53524961D02*
X28122667Y-53334485D01*
X28122667Y-53334485D02*
X28122667Y-53001152D01*
X28122667Y-53001152D02*
X28170286Y-52810676D01*
X28170286Y-52810676D02*
X28265524Y-52715438D01*
X28265524Y-52715438D02*
X28360762Y-52667819D01*
X29217905Y-53667819D02*
X29217905Y-52667819D01*
X29217905Y-52667819D02*
X29789333Y-53667819D01*
X29789333Y-53667819D02*
X29789333Y-52667819D01*
X30789333Y-53667819D02*
X30217905Y-53667819D01*
X30503619Y-53667819D02*
X30503619Y-52667819D01*
X30503619Y-52667819D02*
X30408381Y-52810676D01*
X30408381Y-52810676D02*
X30313143Y-52905914D01*
X30313143Y-52905914D02*
X30217905Y-52953533D01*
X30781666Y-18504819D02*
X30781666Y-19219104D01*
X30781666Y-19219104D02*
X30734047Y-19361961D01*
X30734047Y-19361961D02*
X30638809Y-19457200D01*
X30638809Y-19457200D02*
X30495952Y-19504819D01*
X30495952Y-19504819D02*
X30400714Y-19504819D01*
X31781666Y-19504819D02*
X31210238Y-19504819D01*
X31495952Y-19504819D02*
X31495952Y-18504819D01*
X31495952Y-18504819D02*
X31400714Y-18647676D01*
X31400714Y-18647676D02*
X31305476Y-18742914D01*
X31305476Y-18742914D02*
X31210238Y-18790533D01*
X30662666Y-48186009D02*
X30329333Y-48186009D01*
X30329333Y-48709819D02*
X30329333Y-47709819D01*
X30329333Y-47709819D02*
X30805523Y-47709819D01*
X31519809Y-48186009D02*
X31662666Y-48233628D01*
X31662666Y-48233628D02*
X31710285Y-48281247D01*
X31710285Y-48281247D02*
X31757904Y-48376485D01*
X31757904Y-48376485D02*
X31757904Y-48519342D01*
X31757904Y-48519342D02*
X31710285Y-48614580D01*
X31710285Y-48614580D02*
X31662666Y-48662200D01*
X31662666Y-48662200D02*
X31567428Y-48709819D01*
X31567428Y-48709819D02*
X31186476Y-48709819D01*
X31186476Y-48709819D02*
X31186476Y-47709819D01*
X31186476Y-47709819D02*
X31519809Y-47709819D01*
X31519809Y-47709819D02*
X31615047Y-47757438D01*
X31615047Y-47757438D02*
X31662666Y-47805057D01*
X31662666Y-47805057D02*
X31710285Y-47900295D01*
X31710285Y-47900295D02*
X31710285Y-47995533D01*
X31710285Y-47995533D02*
X31662666Y-48090771D01*
X31662666Y-48090771D02*
X31615047Y-48138390D01*
X31615047Y-48138390D02*
X31519809Y-48186009D01*
X31519809Y-48186009D02*
X31186476Y-48186009D01*
X32710285Y-48709819D02*
X32138857Y-48709819D01*
X32424571Y-48709819D02*
X32424571Y-47709819D01*
X32424571Y-47709819D02*
X32329333Y-47852676D01*
X32329333Y-47852676D02*
X32234095Y-47947914D01*
X32234095Y-47947914D02*
X32138857Y-47995533D01*
X46037667Y-58622200D02*
X46180524Y-58669819D01*
X46180524Y-58669819D02*
X46418619Y-58669819D01*
X46418619Y-58669819D02*
X46513857Y-58622200D01*
X46513857Y-58622200D02*
X46561476Y-58574580D01*
X46561476Y-58574580D02*
X46609095Y-58479342D01*
X46609095Y-58479342D02*
X46609095Y-58384104D01*
X46609095Y-58384104D02*
X46561476Y-58288866D01*
X46561476Y-58288866D02*
X46513857Y-58241247D01*
X46513857Y-58241247D02*
X46418619Y-58193628D01*
X46418619Y-58193628D02*
X46228143Y-58146009D01*
X46228143Y-58146009D02*
X46132905Y-58098390D01*
X46132905Y-58098390D02*
X46085286Y-58050771D01*
X46085286Y-58050771D02*
X46037667Y-57955533D01*
X46037667Y-57955533D02*
X46037667Y-57860295D01*
X46037667Y-57860295D02*
X46085286Y-57765057D01*
X46085286Y-57765057D02*
X46132905Y-57717438D01*
X46132905Y-57717438D02*
X46228143Y-57669819D01*
X46228143Y-57669819D02*
X46466238Y-57669819D01*
X46466238Y-57669819D02*
X46609095Y-57717438D01*
X46942429Y-57669819D02*
X47180524Y-58669819D01*
X47180524Y-58669819D02*
X47371000Y-57955533D01*
X47371000Y-57955533D02*
X47561476Y-58669819D01*
X47561476Y-58669819D02*
X47799572Y-57669819D01*
X48704333Y-58669819D02*
X48132905Y-58669819D01*
X48418619Y-58669819D02*
X48418619Y-57669819D01*
X48418619Y-57669819D02*
X48323381Y-57812676D01*
X48323381Y-57812676D02*
X48228143Y-57907914D01*
X48228143Y-57907914D02*
X48132905Y-57955533D01*
X31429905Y-57818819D02*
X31429905Y-56818819D01*
X31429905Y-56818819D02*
X31668000Y-56818819D01*
X31668000Y-56818819D02*
X31810857Y-56866438D01*
X31810857Y-56866438D02*
X31906095Y-56961676D01*
X31906095Y-56961676D02*
X31953714Y-57056914D01*
X31953714Y-57056914D02*
X32001333Y-57247390D01*
X32001333Y-57247390D02*
X32001333Y-57390247D01*
X32001333Y-57390247D02*
X31953714Y-57580723D01*
X31953714Y-57580723D02*
X31906095Y-57675961D01*
X31906095Y-57675961D02*
X31810857Y-57771200D01*
X31810857Y-57771200D02*
X31668000Y-57818819D01*
X31668000Y-57818819D02*
X31429905Y-57818819D01*
X32953714Y-57818819D02*
X32382286Y-57818819D01*
X32668000Y-57818819D02*
X32668000Y-56818819D01*
X32668000Y-56818819D02*
X32572762Y-56961676D01*
X32572762Y-56961676D02*
X32477524Y-57056914D01*
X32477524Y-57056914D02*
X32382286Y-57104533D01*
X54570333Y-27402319D02*
X54237000Y-26926128D01*
X53998905Y-27402319D02*
X53998905Y-26402319D01*
X53998905Y-26402319D02*
X54379857Y-26402319D01*
X54379857Y-26402319D02*
X54475095Y-26449938D01*
X54475095Y-26449938D02*
X54522714Y-26497557D01*
X54522714Y-26497557D02*
X54570333Y-26592795D01*
X54570333Y-26592795D02*
X54570333Y-26735652D01*
X54570333Y-26735652D02*
X54522714Y-26830890D01*
X54522714Y-26830890D02*
X54475095Y-26878509D01*
X54475095Y-26878509D02*
X54379857Y-26926128D01*
X54379857Y-26926128D02*
X53998905Y-26926128D01*
X55522714Y-27402319D02*
X54951286Y-27402319D01*
X55237000Y-27402319D02*
X55237000Y-26402319D01*
X55237000Y-26402319D02*
X55141762Y-26545176D01*
X55141762Y-26545176D02*
X55046524Y-26640414D01*
X55046524Y-26640414D02*
X54951286Y-26688033D01*
X27164666Y-28029819D02*
X27164666Y-28744104D01*
X27164666Y-28744104D02*
X27117047Y-28886961D01*
X27117047Y-28886961D02*
X27021809Y-28982200D01*
X27021809Y-28982200D02*
X26878952Y-29029819D01*
X26878952Y-29029819D02*
X26783714Y-29029819D01*
X28117047Y-28029819D02*
X27640857Y-28029819D01*
X27640857Y-28029819D02*
X27593238Y-28506009D01*
X27593238Y-28506009D02*
X27640857Y-28458390D01*
X27640857Y-28458390D02*
X27736095Y-28410771D01*
X27736095Y-28410771D02*
X27974190Y-28410771D01*
X27974190Y-28410771D02*
X28069428Y-28458390D01*
X28069428Y-28458390D02*
X28117047Y-28506009D01*
X28117047Y-28506009D02*
X28164666Y-28601247D01*
X28164666Y-28601247D02*
X28164666Y-28839342D01*
X28164666Y-28839342D02*
X28117047Y-28934580D01*
X28117047Y-28934580D02*
X28069428Y-28982200D01*
X28069428Y-28982200D02*
X27974190Y-29029819D01*
X27974190Y-29029819D02*
X27736095Y-29029819D01*
X27736095Y-29029819D02*
X27640857Y-28982200D01*
X27640857Y-28982200D02*
X27593238Y-28934580D01*
X64055666Y-32474819D02*
X64055666Y-33189104D01*
X64055666Y-33189104D02*
X64008047Y-33331961D01*
X64008047Y-33331961D02*
X63912809Y-33427200D01*
X63912809Y-33427200D02*
X63769952Y-33474819D01*
X63769952Y-33474819D02*
X63674714Y-33474819D01*
X64436619Y-32474819D02*
X65055666Y-32474819D01*
X65055666Y-32474819D02*
X64722333Y-32855771D01*
X64722333Y-32855771D02*
X64865190Y-32855771D01*
X64865190Y-32855771D02*
X64960428Y-32903390D01*
X64960428Y-32903390D02*
X65008047Y-32951009D01*
X65008047Y-32951009D02*
X65055666Y-33046247D01*
X65055666Y-33046247D02*
X65055666Y-33284342D01*
X65055666Y-33284342D02*
X65008047Y-33379580D01*
X65008047Y-33379580D02*
X64960428Y-33427200D01*
X64960428Y-33427200D02*
X64865190Y-33474819D01*
X64865190Y-33474819D02*
X64579476Y-33474819D01*
X64579476Y-33474819D02*
X64484238Y-33427200D01*
X64484238Y-33427200D02*
X64436619Y-33379580D01*
X47124595Y-18957819D02*
X47124595Y-19767342D01*
X47124595Y-19767342D02*
X47172214Y-19862580D01*
X47172214Y-19862580D02*
X47219833Y-19910200D01*
X47219833Y-19910200D02*
X47315071Y-19957819D01*
X47315071Y-19957819D02*
X47505547Y-19957819D01*
X47505547Y-19957819D02*
X47600785Y-19910200D01*
X47600785Y-19910200D02*
X47648404Y-19862580D01*
X47648404Y-19862580D02*
X47696023Y-19767342D01*
X47696023Y-19767342D02*
X47696023Y-18957819D01*
X48696023Y-19957819D02*
X48124595Y-19957819D01*
X48410309Y-19957819D02*
X48410309Y-18957819D01*
X48410309Y-18957819D02*
X48315071Y-19100676D01*
X48315071Y-19100676D02*
X48219833Y-19195914D01*
X48219833Y-19195914D02*
X48124595Y-19243533D01*
X40473333Y-38299819D02*
X40140000Y-37823628D01*
X39901905Y-38299819D02*
X39901905Y-37299819D01*
X39901905Y-37299819D02*
X40282857Y-37299819D01*
X40282857Y-37299819D02*
X40378095Y-37347438D01*
X40378095Y-37347438D02*
X40425714Y-37395057D01*
X40425714Y-37395057D02*
X40473333Y-37490295D01*
X40473333Y-37490295D02*
X40473333Y-37633152D01*
X40473333Y-37633152D02*
X40425714Y-37728390D01*
X40425714Y-37728390D02*
X40378095Y-37776009D01*
X40378095Y-37776009D02*
X40282857Y-37823628D01*
X40282857Y-37823628D02*
X39901905Y-37823628D01*
X40806667Y-37299819D02*
X41473333Y-37299819D01*
X41473333Y-37299819D02*
X41044762Y-38299819D01*
X40473333Y-43379819D02*
X40140000Y-42903628D01*
X39901905Y-43379819D02*
X39901905Y-42379819D01*
X39901905Y-42379819D02*
X40282857Y-42379819D01*
X40282857Y-42379819D02*
X40378095Y-42427438D01*
X40378095Y-42427438D02*
X40425714Y-42475057D01*
X40425714Y-42475057D02*
X40473333Y-42570295D01*
X40473333Y-42570295D02*
X40473333Y-42713152D01*
X40473333Y-42713152D02*
X40425714Y-42808390D01*
X40425714Y-42808390D02*
X40378095Y-42856009D01*
X40378095Y-42856009D02*
X40282857Y-42903628D01*
X40282857Y-42903628D02*
X39901905Y-42903628D01*
X41044762Y-42808390D02*
X40949524Y-42760771D01*
X40949524Y-42760771D02*
X40901905Y-42713152D01*
X40901905Y-42713152D02*
X40854286Y-42617914D01*
X40854286Y-42617914D02*
X40854286Y-42570295D01*
X40854286Y-42570295D02*
X40901905Y-42475057D01*
X40901905Y-42475057D02*
X40949524Y-42427438D01*
X40949524Y-42427438D02*
X41044762Y-42379819D01*
X41044762Y-42379819D02*
X41235238Y-42379819D01*
X41235238Y-42379819D02*
X41330476Y-42427438D01*
X41330476Y-42427438D02*
X41378095Y-42475057D01*
X41378095Y-42475057D02*
X41425714Y-42570295D01*
X41425714Y-42570295D02*
X41425714Y-42617914D01*
X41425714Y-42617914D02*
X41378095Y-42713152D01*
X41378095Y-42713152D02*
X41330476Y-42760771D01*
X41330476Y-42760771D02*
X41235238Y-42808390D01*
X41235238Y-42808390D02*
X41044762Y-42808390D01*
X41044762Y-42808390D02*
X40949524Y-42856009D01*
X40949524Y-42856009D02*
X40901905Y-42903628D01*
X40901905Y-42903628D02*
X40854286Y-42998866D01*
X40854286Y-42998866D02*
X40854286Y-43189342D01*
X40854286Y-43189342D02*
X40901905Y-43284580D01*
X40901905Y-43284580D02*
X40949524Y-43332200D01*
X40949524Y-43332200D02*
X41044762Y-43379819D01*
X41044762Y-43379819D02*
X41235238Y-43379819D01*
X41235238Y-43379819D02*
X41330476Y-43332200D01*
X41330476Y-43332200D02*
X41378095Y-43284580D01*
X41378095Y-43284580D02*
X41425714Y-43189342D01*
X41425714Y-43189342D02*
X41425714Y-42998866D01*
X41425714Y-42998866D02*
X41378095Y-42903628D01*
X41378095Y-42903628D02*
X41330476Y-42856009D01*
X41330476Y-42856009D02*
X41235238Y-42808390D01*
X33528095Y-32789819D02*
X33528095Y-33599342D01*
X33528095Y-33599342D02*
X33575714Y-33694580D01*
X33575714Y-33694580D02*
X33623333Y-33742200D01*
X33623333Y-33742200D02*
X33718571Y-33789819D01*
X33718571Y-33789819D02*
X33909047Y-33789819D01*
X33909047Y-33789819D02*
X34004285Y-33742200D01*
X34004285Y-33742200D02*
X34051904Y-33694580D01*
X34051904Y-33694580D02*
X34099523Y-33599342D01*
X34099523Y-33599342D02*
X34099523Y-32789819D01*
X34528095Y-32885057D02*
X34575714Y-32837438D01*
X34575714Y-32837438D02*
X34670952Y-32789819D01*
X34670952Y-32789819D02*
X34909047Y-32789819D01*
X34909047Y-32789819D02*
X35004285Y-32837438D01*
X35004285Y-32837438D02*
X35051904Y-32885057D01*
X35051904Y-32885057D02*
X35099523Y-32980295D01*
X35099523Y-32980295D02*
X35099523Y-33075533D01*
X35099523Y-33075533D02*
X35051904Y-33218390D01*
X35051904Y-33218390D02*
X34480476Y-33789819D01*
X34480476Y-33789819D02*
X35099523Y-33789819D01*
D14*
%TO.C,R3*%
X37107936Y-58955000D02*
X37562064Y-58955000D01*
X37107936Y-60425000D02*
X37562064Y-60425000D01*
%TO.C,J2*%
X34987000Y-20260000D02*
X36317000Y-20260000D01*
X34987000Y-21590000D02*
X34987000Y-20260000D01*
X34987000Y-22860000D02*
X34987000Y-30540000D01*
X34987000Y-22860000D02*
X37587000Y-22860000D01*
X34987000Y-30540000D02*
X40187000Y-30540000D01*
X37587000Y-20260000D02*
X40187000Y-20260000D01*
X37587000Y-22860000D02*
X37587000Y-20260000D01*
X40187000Y-20260000D02*
X40187000Y-30540000D01*
%TO.C,D3*%
X42800000Y-39690000D02*
X42800000Y-42860000D01*
X42800000Y-42860000D02*
X46685000Y-42860000D01*
X46685000Y-39690000D02*
X42800000Y-39690000D01*
%TO.C,D2*%
X42800000Y-34610000D02*
X42800000Y-37780000D01*
X42800000Y-37780000D02*
X46685000Y-37780000D01*
X46685000Y-34610000D02*
X42800000Y-34610000D01*
%TO.C,Q1*%
X58801000Y-27777000D02*
X58151000Y-27777000D01*
X58801000Y-27777000D02*
X59451000Y-27777000D01*
X58801000Y-30897000D02*
X58151000Y-30897000D01*
X58801000Y-30897000D02*
X59451000Y-30897000D01*
X57638500Y-27827000D02*
X57398500Y-27497000D01*
X57878500Y-27497000D01*
X57638500Y-27827000D01*
G36*
X57638500Y-27827000D02*
G01*
X57398500Y-27497000D01*
X57878500Y-27497000D01*
X57638500Y-27827000D01*
G37*
%TO.C,R2*%
X62257000Y-29564064D02*
X62257000Y-29109936D01*
X63727000Y-29564064D02*
X63727000Y-29109936D01*
%TO.C,CON1*%
X11885000Y-44676000D02*
X26585000Y-44676000D01*
X11885000Y-53876000D02*
X11885000Y-44676000D01*
X20685000Y-53876000D02*
X11885000Y-53876000D01*
X25735000Y-44476000D02*
X26785000Y-44476000D01*
X26585000Y-44676000D02*
X26585000Y-47276000D01*
X26585000Y-51176000D02*
X26585000Y-53876000D01*
X26585000Y-53876000D02*
X24685000Y-53876000D01*
X26785000Y-45526000D02*
X26785000Y-44476000D01*
%TO.C,J1*%
X29785000Y-20260000D02*
X31115000Y-20260000D01*
X29785000Y-21590000D02*
X29785000Y-20260000D01*
X29785000Y-22860000D02*
X29785000Y-30540000D01*
X29785000Y-22860000D02*
X32445000Y-22860000D01*
X29785000Y-30540000D02*
X32445000Y-30540000D01*
X32445000Y-22860000D02*
X32445000Y-30540000D01*
%TO.C,FB1*%
X32331242Y-45445000D02*
X30660758Y-45445000D01*
X32331242Y-47265000D02*
X30660758Y-47265000D01*
%TO.C,SW1*%
X44161000Y-50765000D02*
X44161000Y-51175000D01*
X44161000Y-52775000D02*
X44161000Y-55175000D01*
X44161000Y-56775000D02*
X44161000Y-57185000D01*
X44161000Y-57185000D02*
X50581000Y-57185000D01*
X50581000Y-50765000D02*
X44161000Y-50765000D01*
X50581000Y-51175000D02*
X50581000Y-50765000D01*
X50581000Y-55175000D02*
X50581000Y-52775000D01*
X50581000Y-57185000D02*
X50581000Y-56905000D01*
%TO.C,D1*%
X30655000Y-61275000D02*
X34540000Y-61275000D01*
X34540000Y-58105000D02*
X30655000Y-58105000D01*
X34540000Y-61275000D02*
X34540000Y-58105000D01*
%TO.C,R1*%
X54002000Y-29109936D02*
X54002000Y-29564064D01*
X55472000Y-29109936D02*
X55472000Y-29564064D01*
%TO.C,J5*%
X11462500Y-29400000D02*
X19822500Y-29400000D01*
X11462500Y-41720000D02*
X11462500Y-29400000D01*
X19822500Y-41720000D02*
X11462500Y-41720000D01*
X23922500Y-41720000D02*
X28182500Y-41720000D01*
X28182500Y-29400000D02*
X23922500Y-29400000D01*
X28182500Y-41720000D02*
X28182500Y-29400000D01*
X28402500Y-36810000D02*
X28902500Y-37310000D01*
X28902500Y-36310000D02*
X28402500Y-36810000D01*
X28902500Y-37310000D02*
X28902500Y-36310000D01*
%TO.C,J3*%
X54530000Y-33795000D02*
X64850000Y-33795000D01*
X54530000Y-48915000D02*
X54530000Y-33795000D01*
X54530000Y-48915000D02*
X64850000Y-48915000D01*
X63190000Y-48915000D02*
X63190000Y-33795000D01*
X64290000Y-48915000D02*
X64290000Y-33795000D01*
X64350000Y-49155000D02*
X65090000Y-49155000D01*
X64850000Y-48915000D02*
X64850000Y-33795000D01*
X65090000Y-49155000D02*
X65090000Y-48655000D01*
X57957891Y-46962742D02*
G75*
G02*
X57958000Y-45747000I1432109J607742D01*
G01*
X58782258Y-44922891D02*
G75*
G02*
X59998000Y-44923000I607743J-1432112D01*
G01*
X59997742Y-47787109D02*
G75*
G02*
X58782000Y-47787000I-607742J1432109D01*
G01*
X60821385Y-45747413D02*
G75*
G02*
X60945000Y-46355000I-1431385J-607587D01*
G01*
X60945493Y-46327989D02*
G75*
G02*
X60822000Y-46963000I-1555481J-27013D01*
G01*
X60945000Y-36355000D02*
G75*
G02*
X57835000Y-36355000I-1555000J0D01*
G01*
X57835000Y-36355000D02*
G75*
G02*
X60945000Y-36355000I1555000J0D01*
G01*
X60945000Y-41355000D02*
G75*
G02*
X57835000Y-41355000I-1555000J0D01*
G01*
X57835000Y-41355000D02*
G75*
G02*
X60945000Y-41355000I1555000J0D01*
G01*
%TO.C,U1*%
X46036500Y-20593000D02*
X49796500Y-20593000D01*
X46036500Y-27413000D02*
X49796500Y-27413000D01*
X49796500Y-20593000D02*
X49796500Y-21853000D01*
X49796500Y-27413000D02*
X49796500Y-26153000D01*
X44756500Y-20693000D02*
X44516500Y-20363000D01*
X44996500Y-20363000D01*
X44756500Y-20693000D01*
G36*
X44756500Y-20693000D02*
G01*
X44516500Y-20363000D01*
X44996500Y-20363000D01*
X44756500Y-20693000D01*
G37*
%TO.C,R7*%
X40867064Y-35460000D02*
X40412936Y-35460000D01*
X40867064Y-36930000D02*
X40412936Y-36930000D01*
%TO.C,R8*%
X40867064Y-40540000D02*
X40412936Y-40540000D01*
X40867064Y-42010000D02*
X40412936Y-42010000D01*
D13*
%TO.C,U2*%
X32215000Y-34260000D02*
X36365000Y-34260000D01*
X32215000Y-35370000D02*
X32215000Y-34260000D01*
X32215000Y-43210000D02*
X32215000Y-42100000D01*
X32215000Y-43210000D02*
X36365000Y-43210000D01*
X36365000Y-34260000D02*
X36365000Y-35370000D01*
X36365000Y-43210000D02*
X36365000Y-42100000D01*
D14*
X31652500Y-35370000D02*
X31412500Y-35040000D01*
X31892500Y-35040000D01*
X31652500Y-35370000D01*
G36*
X31652500Y-35370000D02*
G01*
X31412500Y-35040000D01*
X31892500Y-35040000D01*
X31652500Y-35370000D01*
G37*
%TD*%
M02*
