%TF.GenerationSoftware,KiCad,Pcbnew,9.0.0+1*%
%TF.CreationDate,2025-03-04T14:17:01+00:00*%
%TF.ProjectId,ESP01LEDDriver,45535030-314c-4454-9444-72697665722e,rev?*%
%TF.SameCoordinates,Original*%
%TF.FileFunction,Soldermask,Bot*%
%TF.FilePolarity,Negative*%
%FSLAX46Y46*%
G04 Gerber Fmt 4.6, Leading zero omitted, Abs format (unit mm)*
G04 Created by KiCad (PCBNEW 9.0.0+1) date 2025-03-04 14:17:01*
%MOMM*%
%LPD*%
G01*
G04 APERTURE LIST*
G04 Aperture macros list*
%AMRoundRect*
0 Rectangle with rounded corners*
0 $1 Rounding radius*
0 $2 $3 $4 $5 $6 $7 $8 $9 X,Y pos of 4 corners*
0 Add a 4 corners polygon primitive as box body*
4,1,4,$2,$3,$4,$5,$6,$7,$8,$9,$2,$3,0*
0 Add four circle primitives for the rounded corners*
1,1,$1+$1,$2,$3*
1,1,$1+$1,$4,$5*
1,1,$1+$1,$6,$7*
1,1,$1+$1,$8,$9*
0 Add four rect primitives between the rounded corners*
20,1,$1+$1,$2,$3,$4,$5,0*
20,1,$1+$1,$4,$5,$6,$7,0*
20,1,$1+$1,$6,$7,$8,$9,0*
20,1,$1+$1,$8,$9,$2,$3,0*%
G04 Aperture macros list end*
%ADD10R,1.700000X1.700000*%
%ADD11O,1.700000X1.700000*%
%ADD12C,4.300000*%
%ADD13R,3.500000X3.500000*%
%ADD14RoundRect,0.750000X-0.750000X-1.000000X0.750000X-1.000000X0.750000X1.000000X-0.750000X1.000000X0*%
%ADD15RoundRect,0.875000X-0.875000X-0.875000X0.875000X-0.875000X0.875000X0.875000X-0.875000X0.875000X0*%
%ADD16C,1.700000*%
%ADD17C,3.500000*%
%ADD18R,2.400000X2.400000*%
%ADD19C,2.400000*%
%ADD20RoundRect,0.250000X0.262500X0.450000X-0.262500X0.450000X-0.262500X-0.450000X0.262500X-0.450000X0*%
%ADD21RoundRect,0.250000X0.250000X0.475000X-0.250000X0.475000X-0.250000X-0.475000X0.250000X-0.475000X0*%
%ADD22RoundRect,0.250000X-0.475000X0.250000X-0.475000X-0.250000X0.475000X-0.250000X0.475000X0.250000X0*%
%ADD23RoundRect,0.250000X-0.425000X0.450000X-0.425000X-0.450000X0.425000X-0.450000X0.425000X0.450000X0*%
%ADD24RoundRect,0.250000X-1.025000X0.787500X-1.025000X-0.787500X1.025000X-0.787500X1.025000X0.787500X0*%
%ADD25RoundRect,0.250000X-0.250000X-0.475000X0.250000X-0.475000X0.250000X0.475000X-0.250000X0.475000X0*%
G04 APERTURE END LIST*
D10*
%TO.C,J2*%
X36317000Y-21590000D03*
D11*
X38857000Y-21590000D03*
X36317000Y-24130000D03*
X38857000Y-24130000D03*
X36317000Y-26670000D03*
X38857000Y-26670000D03*
X36317000Y-29210000D03*
X38857000Y-29210000D03*
%TD*%
D12*
%TO.C,H4*%
X60960000Y-60960000D03*
%TD*%
D13*
%TO.C,CON1*%
X25685000Y-49276000D03*
D14*
X19685000Y-49276000D03*
D15*
X22685000Y-53976000D03*
%TD*%
D10*
%TO.C,J1*%
X31115000Y-21590000D03*
D11*
X31115000Y-24130000D03*
X31115000Y-26670000D03*
X31115000Y-29210000D03*
%TD*%
D12*
%TO.C,H1*%
X17780000Y-21590000D03*
%TD*%
%TO.C,H2*%
X17780000Y-60960000D03*
%TD*%
%TO.C,H3*%
X60960000Y-21590000D03*
%TD*%
D10*
%TO.C,J5*%
X26582500Y-36810000D03*
D16*
X26582500Y-34310000D03*
X24582500Y-34310000D03*
X24582500Y-36810000D03*
D17*
X21872500Y-41580000D03*
X21872500Y-29540000D03*
%TD*%
D18*
%TO.C,J3*%
X59390000Y-46355000D03*
D19*
X59390000Y-41355000D03*
X59390000Y-36355000D03*
%TD*%
D20*
%TO.C,R5*%
X27267500Y-30480000D03*
X25442500Y-30480000D03*
%TD*%
D21*
%TO.C,C7*%
X35367000Y-35306000D03*
X33467000Y-35306000D03*
%TD*%
%TO.C,C8*%
X35367000Y-42545000D03*
X33467000Y-42545000D03*
%TD*%
D22*
%TO.C,C2*%
X51696500Y-23053000D03*
X51696500Y-24953000D03*
%TD*%
D20*
%TO.C,R6*%
X27267500Y-40640000D03*
X25442500Y-40640000D03*
%TD*%
D23*
%TO.C,C3*%
X44116500Y-22653000D03*
X44116500Y-25353000D03*
%TD*%
D24*
%TO.C,C1*%
X47886500Y-20890500D03*
X47886500Y-27115500D03*
%TD*%
D25*
%TO.C,C4*%
X30546000Y-46355000D03*
X32446000Y-46355000D03*
%TD*%
%TO.C,C6*%
X25405000Y-42926000D03*
X27305000Y-42926000D03*
%TD*%
%TO.C,C5*%
X25405000Y-28194000D03*
X27305000Y-28194000D03*
%TD*%
M02*
