%TF.GenerationSoftware,KiCad,Pcbnew,7.0.9-7.0.9~ubuntu20.04.1*%
%TF.CreationDate,2024-01-05T14:18:08+00:00*%
%TF.ProjectId,ESP01LEDDriver,45535030-314c-4454-9444-72697665722e,rev?*%
%TF.SameCoordinates,Original*%
%TF.FileFunction,Copper,L2,Bot*%
%TF.FilePolarity,Positive*%
%FSLAX46Y46*%
G04 Gerber Fmt 4.6, Leading zero omitted, Abs format (unit mm)*
G04 Created by KiCad (PCBNEW 7.0.9-7.0.9~ubuntu20.04.1) date 2024-01-05 14:18:08*
%MOMM*%
%LPD*%
G01*
G04 APERTURE LIST*
G04 Aperture macros list*
%AMRoundRect*
0 Rectangle with rounded corners*
0 $1 Rounding radius*
0 $2 $3 $4 $5 $6 $7 $8 $9 X,Y pos of 4 corners*
0 Add a 4 corners polygon primitive as box body*
4,1,4,$2,$3,$4,$5,$6,$7,$8,$9,$2,$3,0*
0 Add four circle primitives for the rounded corners*
1,1,$1+$1,$2,$3*
1,1,$1+$1,$4,$5*
1,1,$1+$1,$6,$7*
1,1,$1+$1,$8,$9*
0 Add four rect primitives between the rounded corners*
20,1,$1+$1,$2,$3,$4,$5,0*
20,1,$1+$1,$4,$5,$6,$7,0*
20,1,$1+$1,$6,$7,$8,$9,0*
20,1,$1+$1,$8,$9,$2,$3,0*%
G04 Aperture macros list end*
%TA.AperFunction,ComponentPad*%
%ADD10R,1.700000X1.700000*%
%TD*%
%TA.AperFunction,ComponentPad*%
%ADD11O,1.700000X1.700000*%
%TD*%
%TA.AperFunction,ComponentPad*%
%ADD12R,3.500000X3.500000*%
%TD*%
%TA.AperFunction,ComponentPad*%
%ADD13RoundRect,0.750000X-0.750000X-1.000000X0.750000X-1.000000X0.750000X1.000000X-0.750000X1.000000X0*%
%TD*%
%TA.AperFunction,ComponentPad*%
%ADD14RoundRect,0.875000X-0.875000X-0.875000X0.875000X-0.875000X0.875000X0.875000X-0.875000X0.875000X0*%
%TD*%
%TA.AperFunction,ComponentPad*%
%ADD15C,1.700000*%
%TD*%
%TA.AperFunction,ComponentPad*%
%ADD16C,3.500000*%
%TD*%
%TA.AperFunction,ComponentPad*%
%ADD17C,2.000000*%
%TD*%
%TA.AperFunction,ComponentPad*%
%ADD18R,2.400000X2.400000*%
%TD*%
%TA.AperFunction,ComponentPad*%
%ADD19C,2.400000*%
%TD*%
%TA.AperFunction,SMDPad,CuDef*%
%ADD20RoundRect,0.250000X-0.650000X0.325000X-0.650000X-0.325000X0.650000X-0.325000X0.650000X0.325000X0*%
%TD*%
%TA.AperFunction,SMDPad,CuDef*%
%ADD21RoundRect,0.250000X-0.425000X0.450000X-0.425000X-0.450000X0.425000X-0.450000X0.425000X0.450000X0*%
%TD*%
%TA.AperFunction,SMDPad,CuDef*%
%ADD22RoundRect,0.250000X-1.025000X0.787500X-1.025000X-0.787500X1.025000X-0.787500X1.025000X0.787500X0*%
%TD*%
%TA.AperFunction,ViaPad*%
%ADD23C,0.762000*%
%TD*%
%TA.AperFunction,Conductor*%
%ADD24C,1.270000*%
%TD*%
%TA.AperFunction,Conductor*%
%ADD25C,0.508000*%
%TD*%
G04 APERTURE END LIST*
D10*
%TO.P,J2,1,Pin_1*%
%TO.N,/UART_TX*%
X36258500Y-21590000D03*
D11*
%TO.P,J2,2,Pin_2*%
%TO.N,GND*%
X38798500Y-21590000D03*
%TO.P,J2,3,Pin_3*%
%TO.N,+3V3*%
X36258500Y-24130000D03*
%TO.P,J2,4,Pin_4*%
%TO.N,/GPIO2*%
X38798500Y-24130000D03*
%TO.P,J2,5,Pin_5*%
%TO.N,/RST*%
X36258500Y-26670000D03*
%TO.P,J2,6,Pin_6*%
%TO.N,/GPIO0*%
X38798500Y-26670000D03*
%TO.P,J2,7,Pin_7*%
%TO.N,+3V3*%
X36258500Y-29210000D03*
%TO.P,J2,8,Pin_8*%
%TO.N,/UART_RX*%
X38798500Y-29210000D03*
%TD*%
D12*
%TO.P,CON1,1*%
%TO.N,+5V*%
X25685000Y-49276000D03*
D13*
%TO.P,CON1,2*%
%TO.N,GND*%
X19685000Y-49276000D03*
D14*
%TO.P,CON1,3*%
X22685000Y-53976000D03*
%TD*%
D10*
%TO.P,J4,1,VBUS*%
%TO.N,+5V*%
X24357500Y-36175000D03*
D15*
%TO.P,J4,2,D-*%
%TO.N,unconnected-(J4-D--Pad2)*%
X24357500Y-33675000D03*
%TO.P,J4,3,D+*%
%TO.N,unconnected-(J4-D+-Pad3)*%
X22357500Y-33675000D03*
%TO.P,J4,4,GND*%
%TO.N,GND*%
X22357500Y-36175000D03*
D16*
%TO.P,J4,5,Shield*%
X19647500Y-40945000D03*
X19647500Y-28905000D03*
%TD*%
D10*
%TO.P,J1,1,Pin_1*%
%TO.N,+3V3*%
X29845000Y-21600000D03*
D11*
%TO.P,J1,2,Pin_2*%
%TO.N,/UART_TX*%
X29845000Y-24140000D03*
%TO.P,J1,3,Pin_3*%
%TO.N,/UART_RX*%
X29845000Y-26680000D03*
%TO.P,J1,4,Pin_4*%
%TO.N,GND*%
X29845000Y-29220000D03*
%TD*%
D17*
%TO.P,TP1,1,1*%
%TO.N,+3V3*%
X45085000Y-41910000D03*
%TD*%
D18*
%TO.P,J3,1,Pin_1*%
%TO.N,GND*%
X59390000Y-46355000D03*
D19*
%TO.P,J3,2,Pin_2*%
%TO.N,Net-(J3-Pin_2)*%
X59390000Y-41355000D03*
%TO.P,J3,3,Pin_3*%
%TO.N,+5V*%
X59390000Y-36355000D03*
%TD*%
D20*
%TO.P,C2,1*%
%TO.N,+3V3*%
X41235000Y-40475000D03*
%TO.P,C2,2*%
%TO.N,GND*%
X41235000Y-43425000D03*
%TD*%
D21*
%TO.P,C3,1*%
%TO.N,+3V3*%
X33655000Y-40600000D03*
%TO.P,C3,2*%
%TO.N,GND*%
X33655000Y-43300000D03*
%TD*%
D22*
%TO.P,C1,1*%
%TO.N,+5V*%
X37425000Y-38837500D03*
%TO.P,C1,2*%
%TO.N,GND*%
X37425000Y-45062500D03*
%TD*%
D23*
%TO.N,+5V*%
X37338000Y-37211000D03*
%TO.N,+3V3*%
X31750000Y-40640000D03*
X44132500Y-24765000D03*
%TO.N,GND*%
X39875000Y-59690000D03*
X47350000Y-55975000D03*
X37425000Y-43220000D03*
%TD*%
D24*
%TO.N,+5V*%
X37425000Y-38837500D02*
X37425000Y-37298000D01*
D25*
%TO.N,+3V3*%
X31750000Y-33718500D02*
X36258500Y-29210000D01*
X32385000Y-24130000D02*
X36131500Y-24130000D01*
X42227500Y-30861000D02*
X38798500Y-30861000D01*
X36258500Y-29210000D02*
X34353500Y-27305000D01*
X44410000Y-41950000D02*
X43140000Y-40680000D01*
X31877000Y-40767000D02*
X33655000Y-40767000D01*
X31750000Y-40640000D02*
X31877000Y-40767000D01*
X34353500Y-27305000D02*
X34353500Y-25971500D01*
X35005000Y-41950000D02*
X44410000Y-41950000D01*
X44132500Y-24765000D02*
X44132500Y-28956000D01*
X34353500Y-25971500D02*
X36195000Y-24130000D01*
X33655000Y-40600000D02*
X35005000Y-41950000D01*
X37909500Y-30861000D02*
X36258500Y-29210000D01*
X29845000Y-21590000D02*
X32385000Y-24130000D01*
X38798500Y-30861000D02*
X37909500Y-30861000D01*
X43140000Y-40680000D02*
X41235000Y-40680000D01*
X44132500Y-28956000D02*
X42227500Y-30861000D01*
X31750000Y-40640000D02*
X31750000Y-33718500D01*
%TO.N,GND*%
X37345000Y-43300000D02*
X37425000Y-43220000D01*
X33655000Y-43300000D02*
X37345000Y-43300000D01*
X37425000Y-45062500D02*
X37425000Y-43220000D01*
%TD*%
%TA.AperFunction,Conductor*%
%TO.N,GND*%
G36*
X58885364Y-17165002D02*
G01*
X58931857Y-17218658D01*
X58941961Y-17288932D01*
X58912467Y-17353512D01*
X58869523Y-17385238D01*
X58869548Y-17385288D01*
X58869574Y-17385335D01*
X58869571Y-17385336D01*
X58869632Y-17385457D01*
X58868393Y-17386073D01*
X58868134Y-17386264D01*
X58867484Y-17386551D01*
X58867021Y-17386756D01*
X58488139Y-17597792D01*
X58130326Y-17842899D01*
X57796648Y-18119981D01*
X57489981Y-18426648D01*
X57212899Y-18760326D01*
X56967792Y-19118139D01*
X56756756Y-19497021D01*
X56756753Y-19497028D01*
X56581569Y-19893780D01*
X56581563Y-19893796D01*
X56443741Y-20305003D01*
X56443732Y-20305035D01*
X56344440Y-20727198D01*
X56284520Y-21156748D01*
X56264490Y-21590000D01*
X56284520Y-22023251D01*
X56344440Y-22452801D01*
X56443732Y-22874964D01*
X56443741Y-22874996D01*
X56570143Y-23252131D01*
X56581567Y-23286214D01*
X56756265Y-23681867D01*
X56756753Y-23682971D01*
X56756756Y-23682978D01*
X56967792Y-24061860D01*
X57189387Y-24385350D01*
X57212902Y-24419677D01*
X57382567Y-24623997D01*
X57489981Y-24753351D01*
X57796648Y-25060018D01*
X57796653Y-25060022D01*
X57796655Y-25060024D01*
X58130323Y-25337098D01*
X58345321Y-25484375D01*
X58488139Y-25582207D01*
X58867021Y-25793243D01*
X58867025Y-25793244D01*
X58867031Y-25793248D01*
X59263786Y-25968433D01*
X59675013Y-26106262D01*
X60097202Y-26205560D01*
X60526753Y-26265480D01*
X60776529Y-26277027D01*
X60851629Y-26280500D01*
X60851634Y-26280500D01*
X61068371Y-26280500D01*
X61140152Y-26277181D01*
X61393247Y-26265480D01*
X61822798Y-26205560D01*
X62244987Y-26106262D01*
X62656214Y-25968433D01*
X63052969Y-25793248D01*
X63122609Y-25754459D01*
X63431860Y-25582207D01*
X63431860Y-25582206D01*
X63431867Y-25582203D01*
X63789677Y-25337098D01*
X64123345Y-25060024D01*
X64430024Y-24753345D01*
X64707098Y-24419677D01*
X64952203Y-24061867D01*
X65045339Y-23894657D01*
X65163243Y-23682978D01*
X65163243Y-23682977D01*
X65163248Y-23682969D01*
X65163735Y-23681865D01*
X65163886Y-23681686D01*
X65164543Y-23680368D01*
X65164663Y-23680428D01*
X65164665Y-23680426D01*
X65164711Y-23680451D01*
X65164864Y-23680528D01*
X65209545Y-23627628D01*
X65277408Y-23606767D01*
X65345776Y-23625907D01*
X65392943Y-23678970D01*
X65405000Y-23732757D01*
X65405000Y-58817242D01*
X65384998Y-58885363D01*
X65331342Y-58931856D01*
X65261068Y-58941960D01*
X65196488Y-58912466D01*
X65164759Y-58869524D01*
X65164711Y-58869548D01*
X65164665Y-58869574D01*
X65164663Y-58869571D01*
X65164543Y-58869632D01*
X65163931Y-58868402D01*
X65163739Y-58868143D01*
X65163247Y-58867029D01*
X65163243Y-58867021D01*
X64952207Y-58488139D01*
X64707100Y-58130326D01*
X64430018Y-57796648D01*
X64123351Y-57489981D01*
X63789673Y-57212899D01*
X63431860Y-56967792D01*
X63052978Y-56756756D01*
X63052971Y-56756753D01*
X62656219Y-56581569D01*
X62656203Y-56581563D01*
X62244996Y-56443741D01*
X62244995Y-56443740D01*
X62244987Y-56443738D01*
X62244976Y-56443735D01*
X62244964Y-56443732D01*
X61822800Y-56344440D01*
X61822801Y-56344440D01*
X61393251Y-56284520D01*
X61068371Y-56269500D01*
X61068366Y-56269500D01*
X60851634Y-56269500D01*
X60851629Y-56269500D01*
X60526748Y-56284520D01*
X60097198Y-56344440D01*
X59675035Y-56443732D01*
X59675017Y-56443737D01*
X59675013Y-56443738D01*
X59675009Y-56443739D01*
X59675003Y-56443741D01*
X59263796Y-56581563D01*
X59263780Y-56581569D01*
X58867028Y-56756753D01*
X58867021Y-56756756D01*
X58488139Y-56967792D01*
X58130326Y-57212899D01*
X57796648Y-57489981D01*
X57489981Y-57796648D01*
X57212899Y-58130326D01*
X56967792Y-58488139D01*
X56756756Y-58867021D01*
X56756753Y-58867028D01*
X56581569Y-59263780D01*
X56581563Y-59263796D01*
X56443741Y-59675003D01*
X56443732Y-59675035D01*
X56344440Y-60097198D01*
X56284520Y-60526748D01*
X56264490Y-60960000D01*
X56284520Y-61393251D01*
X56344440Y-61822801D01*
X56443732Y-62244964D01*
X56443741Y-62244996D01*
X56581563Y-62656203D01*
X56581569Y-62656219D01*
X56693663Y-62910087D01*
X56756265Y-63051867D01*
X56756753Y-63052971D01*
X56756756Y-63052978D01*
X56967792Y-63431860D01*
X56967797Y-63431867D01*
X57212902Y-63789677D01*
X57453894Y-64079893D01*
X57489981Y-64123351D01*
X57796648Y-64430018D01*
X57796653Y-64430022D01*
X57796655Y-64430024D01*
X58130323Y-64707098D01*
X58324574Y-64840163D01*
X58488139Y-64952207D01*
X58867021Y-65163243D01*
X58867025Y-65163245D01*
X58867031Y-65163248D01*
X58868134Y-65163735D01*
X58868313Y-65163886D01*
X58869632Y-65164543D01*
X58869571Y-65164663D01*
X58869574Y-65164665D01*
X58869548Y-65164711D01*
X58869471Y-65164864D01*
X58922372Y-65209545D01*
X58943233Y-65277408D01*
X58924093Y-65345776D01*
X58871030Y-65392943D01*
X58817243Y-65405000D01*
X19922757Y-65405000D01*
X19854636Y-65384998D01*
X19808143Y-65331342D01*
X19798039Y-65261068D01*
X19827533Y-65196488D01*
X19870476Y-65164761D01*
X19870451Y-65164711D01*
X19870426Y-65164665D01*
X19870428Y-65164663D01*
X19870368Y-65164543D01*
X19871606Y-65163926D01*
X19871865Y-65163735D01*
X19872969Y-65163248D01*
X20251867Y-64952203D01*
X20609677Y-64707098D01*
X20943345Y-64430024D01*
X21250024Y-64123345D01*
X21527098Y-63789677D01*
X21772203Y-63431867D01*
X21802444Y-63377575D01*
X21983243Y-63052978D01*
X21983243Y-63052977D01*
X21983248Y-63052969D01*
X22158433Y-62656214D01*
X22296262Y-62244987D01*
X22395560Y-61822798D01*
X22455480Y-61393247D01*
X22475510Y-60960000D01*
X22455480Y-60526753D01*
X22395560Y-60097202D01*
X22296262Y-59675013D01*
X22158433Y-59263786D01*
X21983248Y-58867031D01*
X21983244Y-58867025D01*
X21983243Y-58867021D01*
X21772207Y-58488139D01*
X21527100Y-58130326D01*
X21250018Y-57796648D01*
X20943351Y-57489981D01*
X20609673Y-57212899D01*
X20251860Y-56967792D01*
X19872978Y-56756756D01*
X19872971Y-56756753D01*
X19476219Y-56581569D01*
X19476203Y-56581563D01*
X19064996Y-56443741D01*
X19064995Y-56443740D01*
X19064987Y-56443738D01*
X19064976Y-56443735D01*
X19064964Y-56443732D01*
X18642800Y-56344440D01*
X18642801Y-56344440D01*
X18213251Y-56284520D01*
X17888371Y-56269500D01*
X17888366Y-56269500D01*
X17671634Y-56269500D01*
X17671629Y-56269500D01*
X17346748Y-56284520D01*
X16917198Y-56344440D01*
X16495035Y-56443732D01*
X16495017Y-56443737D01*
X16495013Y-56443738D01*
X16495009Y-56443739D01*
X16495003Y-56443741D01*
X16083796Y-56581563D01*
X16083780Y-56581569D01*
X15687028Y-56756753D01*
X15687021Y-56756756D01*
X15308139Y-56967792D01*
X14950326Y-57212899D01*
X14616648Y-57489981D01*
X14309981Y-57796648D01*
X14032899Y-58130326D01*
X13787792Y-58488139D01*
X13576756Y-58867021D01*
X13576752Y-58867029D01*
X13576261Y-58868143D01*
X13576108Y-58868323D01*
X13575457Y-58869632D01*
X13575336Y-58869571D01*
X13575335Y-58869574D01*
X13575288Y-58869548D01*
X13575137Y-58869472D01*
X13530445Y-58922377D01*
X13462580Y-58943232D01*
X13394214Y-58924086D01*
X13347052Y-58871018D01*
X13335000Y-58817242D01*
X13335000Y-54920583D01*
X20300000Y-54920583D01*
X20310114Y-55063842D01*
X20310115Y-55063853D01*
X20363682Y-55301690D01*
X20454705Y-55527856D01*
X20580832Y-55736497D01*
X20738794Y-55922205D01*
X20924502Y-56080167D01*
X21133143Y-56206294D01*
X21359309Y-56297317D01*
X21597146Y-56350884D01*
X21597157Y-56350885D01*
X21740417Y-56361000D01*
X22367500Y-56361000D01*
X22367500Y-54476000D01*
X23002500Y-54476000D01*
X23002500Y-56361000D01*
X23629583Y-56361000D01*
X23772842Y-56350885D01*
X23772853Y-56350884D01*
X24010690Y-56297317D01*
X24236856Y-56206294D01*
X24445497Y-56080167D01*
X24631205Y-55922205D01*
X24789167Y-55736497D01*
X24915294Y-55527856D01*
X25006317Y-55301690D01*
X25059884Y-55063853D01*
X25059885Y-55063842D01*
X25070000Y-54920583D01*
X25070000Y-54293500D01*
X24075307Y-54293500D01*
X24144493Y-54185844D01*
X24185000Y-54047889D01*
X24185000Y-53904111D01*
X24144493Y-53766156D01*
X24075307Y-53658500D01*
X25070000Y-53658500D01*
X25070000Y-53031417D01*
X25059885Y-52888157D01*
X25059884Y-52888146D01*
X25006317Y-52650309D01*
X24915294Y-52424143D01*
X24789167Y-52215502D01*
X24631205Y-52029794D01*
X24459185Y-51883475D01*
X24420256Y-51824103D01*
X24419606Y-51753109D01*
X24457441Y-51693034D01*
X24521749Y-51662951D01*
X24540811Y-51661499D01*
X27499180Y-51661499D01*
X27499181Y-51661499D01*
X27511188Y-51660554D01*
X27535204Y-51658665D01*
X27689393Y-51613869D01*
X27827598Y-51532135D01*
X27941135Y-51418598D01*
X28022869Y-51280393D01*
X28067665Y-51126204D01*
X28070500Y-51090181D01*
X28070499Y-47619131D01*
X57555000Y-47619131D01*
X57557832Y-47655118D01*
X57557834Y-47655130D01*
X57602595Y-47809197D01*
X57684261Y-47947285D01*
X57684266Y-47947292D01*
X57797707Y-48060733D01*
X57797714Y-48060738D01*
X57935802Y-48142404D01*
X58089869Y-48187165D01*
X58089881Y-48187167D01*
X58125869Y-48190000D01*
X59072500Y-48190000D01*
X59072500Y-46867656D01*
X59087412Y-46879099D01*
X59233369Y-46939556D01*
X59350677Y-46955000D01*
X59429323Y-46955000D01*
X59546631Y-46939556D01*
X59692588Y-46879099D01*
X59707500Y-46867656D01*
X59707500Y-48190000D01*
X60654131Y-48190000D01*
X60690118Y-48187167D01*
X60690130Y-48187165D01*
X60844197Y-48142404D01*
X60982285Y-48060738D01*
X60982292Y-48060733D01*
X61095733Y-47947292D01*
X61095738Y-47947285D01*
X61177404Y-47809197D01*
X61222165Y-47655130D01*
X61222167Y-47655118D01*
X61225000Y-47619131D01*
X61225000Y-46672500D01*
X59902657Y-46672500D01*
X59914099Y-46657589D01*
X59974556Y-46511631D01*
X59995177Y-46355000D01*
X59974556Y-46198369D01*
X59914099Y-46052412D01*
X59902657Y-46037500D01*
X61225000Y-46037500D01*
X61225000Y-45090869D01*
X61222167Y-45054881D01*
X61222165Y-45054869D01*
X61177404Y-44900802D01*
X61095738Y-44762714D01*
X61095733Y-44762707D01*
X60982292Y-44649266D01*
X60982285Y-44649261D01*
X60844197Y-44567595D01*
X60690130Y-44522834D01*
X60690118Y-44522832D01*
X60654131Y-44520000D01*
X59707500Y-44520000D01*
X59707500Y-45842343D01*
X59692588Y-45830901D01*
X59546631Y-45770444D01*
X59429323Y-45755000D01*
X59350677Y-45755000D01*
X59233369Y-45770444D01*
X59087412Y-45830901D01*
X59072500Y-45842343D01*
X59072500Y-44520000D01*
X58125869Y-44520000D01*
X58089881Y-44522832D01*
X58089869Y-44522834D01*
X57935802Y-44567595D01*
X57797714Y-44649261D01*
X57797707Y-44649266D01*
X57684266Y-44762707D01*
X57684261Y-44762714D01*
X57602595Y-44900802D01*
X57557834Y-45054869D01*
X57557832Y-45054881D01*
X57555000Y-45090869D01*
X57555000Y-46037500D01*
X58877343Y-46037500D01*
X58865901Y-46052411D01*
X58805444Y-46198369D01*
X58784823Y-46355000D01*
X58805444Y-46511631D01*
X58865901Y-46657588D01*
X58877343Y-46672500D01*
X57555000Y-46672500D01*
X57555000Y-47619131D01*
X28070499Y-47619131D01*
X28070499Y-47461820D01*
X28067665Y-47425796D01*
X28022869Y-47271607D01*
X27941135Y-47133402D01*
X27941133Y-47133400D01*
X27941130Y-47133396D01*
X27827603Y-47019869D01*
X27827599Y-47019866D01*
X27827598Y-47019865D01*
X27689393Y-46938131D01*
X27612298Y-46915733D01*
X27535202Y-46893334D01*
X27499184Y-46890500D01*
X27499181Y-46890500D01*
X24777910Y-46890500D01*
X23870819Y-46890501D01*
X23834797Y-46893334D01*
X23680604Y-46938132D01*
X23542400Y-47019866D01*
X23542396Y-47019869D01*
X23428869Y-47133396D01*
X23428866Y-47133400D01*
X23347132Y-47271604D01*
X23302334Y-47425797D01*
X23299500Y-47461816D01*
X23299501Y-51090181D01*
X23302334Y-51126202D01*
X23347132Y-51280397D01*
X23418375Y-51400861D01*
X23435835Y-51469677D01*
X23413318Y-51537008D01*
X23357974Y-51581477D01*
X23309922Y-51591000D01*
X23002500Y-51591000D01*
X23002500Y-53476000D01*
X22367500Y-53476000D01*
X22367500Y-51591000D01*
X21740417Y-51591000D01*
X21597157Y-51601114D01*
X21597146Y-51601115D01*
X21359307Y-51654682D01*
X21225657Y-51708471D01*
X21154995Y-51715348D01*
X21124677Y-51699788D01*
X21123349Y-51719437D01*
X21081022Y-51776437D01*
X21070309Y-51783689D01*
X20924504Y-51871831D01*
X20738794Y-52029794D01*
X20580832Y-52215502D01*
X20454705Y-52424143D01*
X20363682Y-52650309D01*
X20310115Y-52888146D01*
X20310114Y-52888157D01*
X20300000Y-53031417D01*
X20300000Y-53658500D01*
X21294693Y-53658500D01*
X21225507Y-53766156D01*
X21185000Y-53904111D01*
X21185000Y-54047889D01*
X21225507Y-54185844D01*
X21294693Y-54293500D01*
X20300000Y-54293500D01*
X20300000Y-54920583D01*
X13335000Y-54920583D01*
X13335000Y-48958500D01*
X17550000Y-48958500D01*
X19185000Y-48958500D01*
X19185000Y-49593500D01*
X17550001Y-49593500D01*
X17550001Y-50370269D01*
X17552814Y-50423250D01*
X17597582Y-50654727D01*
X17680823Y-50875301D01*
X17680825Y-50875306D01*
X17800144Y-51078636D01*
X17952115Y-51258884D01*
X18132363Y-51410855D01*
X18335693Y-51530174D01*
X18335698Y-51530176D01*
X18556272Y-51613417D01*
X18787749Y-51658185D01*
X18840728Y-51660999D01*
X19367500Y-51660999D01*
X19367500Y-50666307D01*
X19475156Y-50735493D01*
X19613111Y-50776000D01*
X19756889Y-50776000D01*
X19894844Y-50735493D01*
X20002500Y-50666307D01*
X20002500Y-51660999D01*
X20529269Y-51660999D01*
X20582250Y-51658185D01*
X20813727Y-51613417D01*
X20960636Y-51557976D01*
X21031431Y-51552638D01*
X21058700Y-51567391D01*
X21059470Y-51550588D01*
X21100547Y-51492681D01*
X21114845Y-51482911D01*
X21237636Y-51410855D01*
X21417884Y-51258884D01*
X21569855Y-51078636D01*
X21689174Y-50875306D01*
X21689176Y-50875301D01*
X21772417Y-50654727D01*
X21817185Y-50423250D01*
X21820000Y-50370271D01*
X21820000Y-49593500D01*
X20185000Y-49593500D01*
X20185000Y-48958500D01*
X21819999Y-48958500D01*
X21819999Y-48181731D01*
X21817185Y-48128749D01*
X21772417Y-47897272D01*
X21689176Y-47676698D01*
X21689174Y-47676693D01*
X21569855Y-47473363D01*
X21417884Y-47293115D01*
X21237636Y-47141144D01*
X21034306Y-47021825D01*
X21034301Y-47021823D01*
X20813727Y-46938582D01*
X20582250Y-46893814D01*
X20529271Y-46891000D01*
X20002500Y-46891000D01*
X20002500Y-47885692D01*
X19894844Y-47816507D01*
X19756889Y-47776000D01*
X19613111Y-47776000D01*
X19475156Y-47816507D01*
X19367500Y-47885692D01*
X19367500Y-46891000D01*
X18840731Y-46891001D01*
X18787749Y-46893814D01*
X18556272Y-46938582D01*
X18335698Y-47021823D01*
X18335693Y-47021825D01*
X18132363Y-47141144D01*
X17952115Y-47293115D01*
X17800144Y-47473363D01*
X17680825Y-47676693D01*
X17680823Y-47676698D01*
X17597582Y-47897272D01*
X17552814Y-48128749D01*
X17550000Y-48181729D01*
X17550000Y-48958500D01*
X13335000Y-48958500D01*
X13335000Y-45380000D01*
X35515000Y-45380000D01*
X35515000Y-45911945D01*
X35521082Y-45989210D01*
X35569230Y-46168902D01*
X35653687Y-46334658D01*
X35653688Y-46334661D01*
X35770763Y-46479236D01*
X35915338Y-46596311D01*
X35915341Y-46596312D01*
X36081097Y-46680769D01*
X36260789Y-46728917D01*
X36338055Y-46735000D01*
X37107500Y-46735000D01*
X37107500Y-45380000D01*
X37742500Y-45380000D01*
X37742500Y-46735000D01*
X38511945Y-46735000D01*
X38589210Y-46728917D01*
X38768902Y-46680769D01*
X38934658Y-46596312D01*
X38934661Y-46596311D01*
X39079236Y-46479236D01*
X39196311Y-46334661D01*
X39196312Y-46334658D01*
X39280769Y-46168902D01*
X39328917Y-45989210D01*
X39335000Y-45911945D01*
X39335000Y-45380000D01*
X37742500Y-45380000D01*
X37107500Y-45380000D01*
X35515000Y-45380000D01*
X13335000Y-45380000D01*
X13335000Y-44745000D01*
X35515000Y-44745000D01*
X37107500Y-44745000D01*
X37107500Y-43390000D01*
X37742500Y-43390000D01*
X37742500Y-44745000D01*
X39335000Y-44745000D01*
X39335000Y-44213055D01*
X39328917Y-44135789D01*
X39280769Y-43956097D01*
X39196312Y-43790341D01*
X39196311Y-43790338D01*
X39157572Y-43742500D01*
X39700000Y-43742500D01*
X39700000Y-43811945D01*
X39706082Y-43889210D01*
X39754230Y-44068902D01*
X39838687Y-44234658D01*
X39838688Y-44234661D01*
X39955763Y-44379236D01*
X40100338Y-44496311D01*
X40100341Y-44496312D01*
X40266097Y-44580769D01*
X40445789Y-44628917D01*
X40523055Y-44635000D01*
X40917500Y-44635000D01*
X40917500Y-43742500D01*
X41552500Y-43742500D01*
X41552500Y-44635000D01*
X41946945Y-44635000D01*
X42024210Y-44628917D01*
X42203902Y-44580769D01*
X42369658Y-44496312D01*
X42369661Y-44496311D01*
X42514236Y-44379236D01*
X42631311Y-44234661D01*
X42631312Y-44234658D01*
X42715769Y-44068902D01*
X42763917Y-43889210D01*
X42770000Y-43811945D01*
X42770000Y-43742500D01*
X41552500Y-43742500D01*
X40917500Y-43742500D01*
X39700000Y-43742500D01*
X39157572Y-43742500D01*
X39079236Y-43645763D01*
X38934661Y-43528688D01*
X38934658Y-43528687D01*
X38768902Y-43444230D01*
X38589210Y-43396082D01*
X38511945Y-43390000D01*
X37742500Y-43390000D01*
X37107500Y-43390000D01*
X36338055Y-43390000D01*
X36260789Y-43396082D01*
X36081097Y-43444230D01*
X35915341Y-43528687D01*
X35915338Y-43528688D01*
X35770763Y-43645763D01*
X35653688Y-43790338D01*
X35653687Y-43790341D01*
X35569230Y-43956097D01*
X35521082Y-44135789D01*
X35515000Y-44213055D01*
X35515000Y-44745000D01*
X13335000Y-44745000D01*
X13335000Y-43617500D01*
X32345000Y-43617500D01*
X32345000Y-43811945D01*
X32351082Y-43889210D01*
X32399230Y-44068902D01*
X32483687Y-44234658D01*
X32483688Y-44234661D01*
X32600763Y-44379236D01*
X32745338Y-44496311D01*
X32745341Y-44496312D01*
X32911097Y-44580769D01*
X33090789Y-44628917D01*
X33168055Y-44635000D01*
X33337500Y-44635000D01*
X33337500Y-43617500D01*
X33972500Y-43617500D01*
X33972500Y-44635000D01*
X34141945Y-44635000D01*
X34219210Y-44628917D01*
X34398902Y-44580769D01*
X34564658Y-44496312D01*
X34564661Y-44496311D01*
X34709236Y-44379236D01*
X34826311Y-44234661D01*
X34826312Y-44234658D01*
X34910769Y-44068902D01*
X34958917Y-43889210D01*
X34965000Y-43811945D01*
X34965000Y-43617500D01*
X33972500Y-43617500D01*
X33337500Y-43617500D01*
X32345000Y-43617500D01*
X13335000Y-43617500D01*
X13335000Y-40945005D01*
X17257784Y-40945005D01*
X17276627Y-41244505D01*
X17332860Y-41539295D01*
X17332863Y-41539307D01*
X17425597Y-41824710D01*
X17425601Y-41824719D01*
X17553373Y-42096249D01*
X17553374Y-42096251D01*
X17714178Y-42349638D01*
X17750247Y-42393238D01*
X17750248Y-42393239D01*
X18629539Y-41513948D01*
X18713827Y-41650077D01*
X18859282Y-41809634D01*
X19031579Y-41939746D01*
X19078433Y-41963076D01*
X18200092Y-42841417D01*
X18200092Y-42841418D01*
X18367023Y-42962702D01*
X18630008Y-43107279D01*
X18909031Y-43217753D01*
X18909049Y-43217758D01*
X19199697Y-43292384D01*
X19199724Y-43292389D01*
X19497433Y-43329998D01*
X19497452Y-43330000D01*
X19797548Y-43330000D01*
X19797566Y-43329998D01*
X20095275Y-43292389D01*
X20095302Y-43292384D01*
X20385950Y-43217758D01*
X20385968Y-43217753D01*
X20664991Y-43107279D01*
X20927975Y-42962702D01*
X21094906Y-42841419D01*
X21094906Y-42841417D01*
X20216566Y-41963077D01*
X20263421Y-41939746D01*
X20435718Y-41809634D01*
X20581173Y-41650077D01*
X20665459Y-41513948D01*
X21544750Y-42393239D01*
X21580824Y-42349635D01*
X21580825Y-42349633D01*
X21741618Y-42096263D01*
X21741626Y-42096249D01*
X21869398Y-41824719D01*
X21869402Y-41824710D01*
X21962136Y-41539307D01*
X21962139Y-41539295D01*
X22018372Y-41244505D01*
X22037216Y-40945005D01*
X22037216Y-40944994D01*
X22018372Y-40645494D01*
X21962139Y-40350704D01*
X21962136Y-40350692D01*
X21869402Y-40065289D01*
X21869398Y-40065280D01*
X21741626Y-39793750D01*
X21741618Y-39793736D01*
X21580823Y-39540363D01*
X21580820Y-39540359D01*
X21544750Y-39496759D01*
X20665459Y-40376050D01*
X20581173Y-40239923D01*
X20435718Y-40080366D01*
X20263421Y-39950254D01*
X20216565Y-39926922D01*
X21094906Y-39048581D01*
X21094906Y-39048579D01*
X20927980Y-38927300D01*
X20664991Y-38782720D01*
X20385968Y-38672246D01*
X20385950Y-38672241D01*
X20095302Y-38597615D01*
X20095275Y-38597610D01*
X19797566Y-38560001D01*
X19797548Y-38560000D01*
X19497452Y-38560000D01*
X19497433Y-38560001D01*
X19199724Y-38597610D01*
X19199697Y-38597615D01*
X18909049Y-38672241D01*
X18909031Y-38672246D01*
X18630008Y-38782720D01*
X18367023Y-38927297D01*
X18200092Y-39048579D01*
X18200092Y-39048581D01*
X19078434Y-39926922D01*
X19031579Y-39950254D01*
X18859282Y-40080366D01*
X18713827Y-40239923D01*
X18629540Y-40376051D01*
X17750248Y-39496759D01*
X17750247Y-39496759D01*
X17714177Y-39540361D01*
X17714175Y-39540364D01*
X17553381Y-39793736D01*
X17553373Y-39793750D01*
X17425601Y-40065280D01*
X17425597Y-40065289D01*
X17332863Y-40350692D01*
X17332860Y-40350704D01*
X17276627Y-40645494D01*
X17257784Y-40944994D01*
X17257784Y-40945005D01*
X13335000Y-40945005D01*
X13335000Y-33675000D01*
X20866909Y-33675000D01*
X20877136Y-33798424D01*
X20887240Y-33920350D01*
X20947671Y-34158990D01*
X20947674Y-34158997D01*
X21046563Y-34384442D01*
X21181213Y-34590540D01*
X21347943Y-34771657D01*
X21347948Y-34771661D01*
X21347950Y-34771663D01*
X21542224Y-34922873D01*
X21552584Y-34928479D01*
X21581712Y-34950199D01*
X22346513Y-35715000D01*
X22323026Y-35715000D01*
X22220381Y-35730471D01*
X22095446Y-35790637D01*
X21993795Y-35884955D01*
X21924461Y-36005045D01*
X21893605Y-36140236D01*
X21895215Y-36161727D01*
X21107179Y-35373691D01*
X21107179Y-35373692D01*
X21047009Y-35465790D01*
X21047003Y-35465801D01*
X20948149Y-35691165D01*
X20948146Y-35691172D01*
X20887735Y-35929731D01*
X20867411Y-36175000D01*
X20887735Y-36420268D01*
X20948146Y-36658827D01*
X20948149Y-36658834D01*
X21047003Y-36884198D01*
X21047010Y-36884212D01*
X21107178Y-36976306D01*
X21107179Y-36976306D01*
X21897065Y-36186420D01*
X21903967Y-36278516D01*
X21954628Y-36407598D01*
X22041086Y-36516013D01*
X22155659Y-36594127D01*
X22288166Y-36635000D01*
X22346511Y-36635000D01*
X21553244Y-37428266D01*
X21553244Y-37428268D01*
X21758938Y-37539583D01*
X21758940Y-37539585D01*
X21991700Y-37619491D01*
X21991707Y-37619493D01*
X22234453Y-37660000D01*
X22480547Y-37660000D01*
X22723292Y-37619493D01*
X22723299Y-37619491D01*
X22956058Y-37539585D01*
X22956063Y-37539583D01*
X22983770Y-37524588D01*
X23053200Y-37509755D01*
X23106456Y-37529845D01*
X23108080Y-37527100D01*
X23114900Y-37531133D01*
X23114902Y-37531135D01*
X23253107Y-37612869D01*
X23407296Y-37657665D01*
X23416301Y-37658373D01*
X23443316Y-37660500D01*
X23443318Y-37660499D01*
X23443319Y-37660500D01*
X24814589Y-37660499D01*
X25271681Y-37660499D01*
X25283688Y-37659554D01*
X25307704Y-37657665D01*
X25461893Y-37612869D01*
X25600098Y-37531135D01*
X25713635Y-37417598D01*
X25795369Y-37279393D01*
X25840165Y-37125204D01*
X25843000Y-37089181D01*
X25842999Y-35260820D01*
X25840165Y-35224796D01*
X25795369Y-35070607D01*
X25713635Y-34932402D01*
X25713633Y-34932400D01*
X25713630Y-34932396D01*
X25600103Y-34818869D01*
X25600099Y-34818866D01*
X25600098Y-34818865D01*
X25555068Y-34792234D01*
X25506617Y-34740342D01*
X25493912Y-34670491D01*
X25520988Y-34604861D01*
X25526480Y-34598476D01*
X25533786Y-34590540D01*
X25668436Y-34384443D01*
X25767327Y-34158994D01*
X25827761Y-33920343D01*
X25848091Y-33675000D01*
X25827761Y-33429657D01*
X25816676Y-33385881D01*
X25767328Y-33191009D01*
X25767325Y-33191002D01*
X25737277Y-33122500D01*
X25668436Y-32965557D01*
X25533786Y-32759459D01*
X25367056Y-32578342D01*
X25357498Y-32570903D01*
X25172776Y-32427127D01*
X25172775Y-32427126D01*
X25073433Y-32373365D01*
X24956264Y-32309957D01*
X24956262Y-32309956D01*
X24956261Y-32309955D01*
X24723422Y-32230022D01*
X24723415Y-32230020D01*
X24619493Y-32212678D01*
X24480592Y-32189500D01*
X24234408Y-32189500D01*
X24112885Y-32209778D01*
X23991584Y-32230020D01*
X23991577Y-32230022D01*
X23758738Y-32309955D01*
X23758736Y-32309956D01*
X23542218Y-32427130D01*
X23434890Y-32510667D01*
X23368848Y-32536723D01*
X23299202Y-32522937D01*
X23280110Y-32510667D01*
X23172781Y-32427130D01*
X23172777Y-32427127D01*
X23172776Y-32427127D01*
X23088199Y-32381356D01*
X22956263Y-32309956D01*
X22956261Y-32309955D01*
X22723422Y-32230022D01*
X22723415Y-32230020D01*
X22619493Y-32212678D01*
X22480592Y-32189500D01*
X22234408Y-32189500D01*
X22112885Y-32209778D01*
X21991584Y-32230020D01*
X21991577Y-32230022D01*
X21758738Y-32309955D01*
X21758736Y-32309957D01*
X21542224Y-32427126D01*
X21542223Y-32427127D01*
X21347943Y-32578342D01*
X21181213Y-32759459D01*
X21046563Y-32965557D01*
X20947674Y-33191002D01*
X20947671Y-33191009D01*
X20887240Y-33429649D01*
X20887239Y-33429655D01*
X20887239Y-33429657D01*
X20866909Y-33675000D01*
X13335000Y-33675000D01*
X13335000Y-28905005D01*
X17257784Y-28905005D01*
X17276627Y-29204505D01*
X17332860Y-29499295D01*
X17332863Y-29499307D01*
X17425597Y-29784710D01*
X17425601Y-29784719D01*
X17553373Y-30056249D01*
X17553374Y-30056251D01*
X17714178Y-30309638D01*
X17750247Y-30353238D01*
X17750248Y-30353239D01*
X18629539Y-29473948D01*
X18713827Y-29610077D01*
X18859282Y-29769634D01*
X19031579Y-29899746D01*
X19078433Y-29923076D01*
X18200092Y-30801417D01*
X18200092Y-30801418D01*
X18367023Y-30922702D01*
X18630008Y-31067279D01*
X18909031Y-31177753D01*
X18909049Y-31177758D01*
X19199697Y-31252384D01*
X19199724Y-31252389D01*
X19497433Y-31289998D01*
X19497452Y-31290000D01*
X19797548Y-31290000D01*
X19797566Y-31289998D01*
X20095275Y-31252389D01*
X20095302Y-31252384D01*
X20385950Y-31177758D01*
X20385968Y-31177753D01*
X20664991Y-31067279D01*
X20927975Y-30922702D01*
X21094906Y-30801419D01*
X21094906Y-30801417D01*
X20216566Y-29923077D01*
X20263421Y-29899746D01*
X20435718Y-29769634D01*
X20581173Y-29610077D01*
X20665459Y-29473948D01*
X21544750Y-30353239D01*
X21580824Y-30309635D01*
X21580825Y-30309633D01*
X21741618Y-30056263D01*
X21741626Y-30056249D01*
X21869398Y-29784719D01*
X21869402Y-29784710D01*
X21962136Y-29499307D01*
X21962139Y-29499295D01*
X22018372Y-29204505D01*
X22037216Y-28905005D01*
X22037216Y-28904994D01*
X22018372Y-28605494D01*
X21962139Y-28310704D01*
X21962136Y-28310692D01*
X21869402Y-28025289D01*
X21869398Y-28025280D01*
X21741626Y-27753750D01*
X21741618Y-27753736D01*
X21580823Y-27500363D01*
X21580820Y-27500359D01*
X21544750Y-27456759D01*
X20665459Y-28336050D01*
X20581173Y-28199923D01*
X20435718Y-28040366D01*
X20263421Y-27910254D01*
X20216565Y-27886922D01*
X21094906Y-27008581D01*
X21094906Y-27008579D01*
X20927980Y-26887300D01*
X20664991Y-26742720D01*
X20506580Y-26680000D01*
X28354409Y-26680000D01*
X28373910Y-26915343D01*
X28374740Y-26925350D01*
X28435171Y-27163990D01*
X28435174Y-27163997D01*
X28534063Y-27389442D01*
X28668713Y-27595540D01*
X28835443Y-27776657D01*
X28835448Y-27776661D01*
X28835450Y-27776663D01*
X28930811Y-27850886D01*
X28972281Y-27908509D01*
X28976015Y-27979408D01*
X28940825Y-28041070D01*
X28930811Y-28049747D01*
X28835791Y-28123705D01*
X28835790Y-28123705D01*
X28669107Y-28304771D01*
X28534508Y-28510793D01*
X28534501Y-28510805D01*
X28435649Y-28736165D01*
X28435647Y-28736169D01*
X28393526Y-28902499D01*
X28393527Y-28902500D01*
X29454693Y-28902500D01*
X29385507Y-29010156D01*
X29345000Y-29148111D01*
X29345000Y-29291889D01*
X29385507Y-29429844D01*
X29454693Y-29537500D01*
X28393527Y-29537500D01*
X28435647Y-29703830D01*
X28435649Y-29703834D01*
X28534501Y-29929194D01*
X28534508Y-29929206D01*
X28669107Y-30135228D01*
X28835790Y-30316293D01*
X29029998Y-30467452D01*
X29029999Y-30467453D01*
X29246438Y-30584584D01*
X29246440Y-30584585D01*
X29479200Y-30664491D01*
X29479209Y-30664493D01*
X29527500Y-30672551D01*
X29527500Y-29606479D01*
X29571900Y-29644952D01*
X29702685Y-29704680D01*
X29809237Y-29720000D01*
X29880763Y-29720000D01*
X29987315Y-29704680D01*
X30118100Y-29644952D01*
X30162500Y-29606479D01*
X30162500Y-30672550D01*
X30210790Y-30664493D01*
X30210799Y-30664491D01*
X30443559Y-30584585D01*
X30443561Y-30584584D01*
X30660000Y-30467453D01*
X30660001Y-30467452D01*
X30854209Y-30316293D01*
X31020892Y-30135228D01*
X31155491Y-29929206D01*
X31155498Y-29929194D01*
X31254350Y-29703834D01*
X31254352Y-29703830D01*
X31296473Y-29537500D01*
X30235307Y-29537500D01*
X30304493Y-29429844D01*
X30345000Y-29291889D01*
X30345000Y-29148111D01*
X30304493Y-29010156D01*
X30235307Y-28902500D01*
X31296473Y-28902500D01*
X31296473Y-28902499D01*
X31254352Y-28736169D01*
X31254350Y-28736165D01*
X31155498Y-28510805D01*
X31155491Y-28510793D01*
X31020892Y-28304771D01*
X30854209Y-28123705D01*
X30854203Y-28123700D01*
X30759189Y-28049747D01*
X30717718Y-27992122D01*
X30713985Y-27921224D01*
X30749175Y-27859562D01*
X30759179Y-27850892D01*
X30854550Y-27776663D01*
X30863761Y-27766658D01*
X31021286Y-27595540D01*
X31052431Y-27547869D01*
X31155936Y-27389443D01*
X31254827Y-27163994D01*
X31315261Y-26925343D01*
X31335591Y-26680000D01*
X31315261Y-26434657D01*
X31272420Y-26265479D01*
X31254828Y-26196009D01*
X31254825Y-26196002D01*
X31250440Y-26186006D01*
X31155936Y-25970557D01*
X31108466Y-25897899D01*
X31021286Y-25764459D01*
X30854556Y-25583342D01*
X30854550Y-25583337D01*
X30759594Y-25509429D01*
X30718125Y-25451807D01*
X30714391Y-25380908D01*
X30749581Y-25319246D01*
X30759585Y-25310576D01*
X30854550Y-25236663D01*
X30863761Y-25226658D01*
X31021286Y-25055540D01*
X31046313Y-25017233D01*
X31155936Y-24849443D01*
X31254827Y-24623994D01*
X31274391Y-24546734D01*
X31310502Y-24485610D01*
X31373929Y-24453711D01*
X31444533Y-24461167D01*
X31485630Y-24488572D01*
X31699508Y-24702450D01*
X31712349Y-24717484D01*
X31720332Y-24728472D01*
X31746958Y-24752445D01*
X31771307Y-24774369D01*
X31773662Y-24776604D01*
X31788994Y-24791936D01*
X31788998Y-24791940D01*
X31799060Y-24800088D01*
X31805842Y-24805579D01*
X31808316Y-24807692D01*
X31843578Y-24839442D01*
X31859286Y-24853586D01*
X31871037Y-24860370D01*
X31887327Y-24871565D01*
X31897875Y-24880106D01*
X31897879Y-24880109D01*
X31958949Y-24911225D01*
X31961817Y-24912782D01*
X32021215Y-24947075D01*
X32034122Y-24951268D01*
X32052385Y-24958834D01*
X32063036Y-24964261D01*
X32064475Y-24964994D01*
X32130732Y-24982747D01*
X32133810Y-24983659D01*
X32199044Y-25004855D01*
X32209189Y-25005921D01*
X32212530Y-25006272D01*
X32231977Y-25009876D01*
X32241367Y-25012392D01*
X32245084Y-25013388D01*
X32313554Y-25016975D01*
X32316796Y-25017230D01*
X32338380Y-25019500D01*
X32360063Y-25019500D01*
X32363333Y-25019585D01*
X32427259Y-25022935D01*
X32431808Y-25023174D01*
X32431808Y-25023173D01*
X32431809Y-25023174D01*
X32439488Y-25021957D01*
X32445214Y-25021051D01*
X32464924Y-25019500D01*
X33743365Y-25019500D01*
X33811486Y-25039502D01*
X33857979Y-25093158D01*
X33868083Y-25163432D01*
X33838589Y-25228012D01*
X33832460Y-25234596D01*
X33781040Y-25286015D01*
X33766013Y-25298850D01*
X33755029Y-25306831D01*
X33709165Y-25357767D01*
X33706898Y-25360157D01*
X33691565Y-25375491D01*
X33691557Y-25375500D01*
X33677912Y-25392348D01*
X33675774Y-25394852D01*
X33629918Y-25445781D01*
X33629910Y-25445792D01*
X33623126Y-25457542D01*
X33611931Y-25473831D01*
X33603393Y-25484374D01*
X33572273Y-25545450D01*
X33570699Y-25548348D01*
X33536425Y-25607714D01*
X33536423Y-25607717D01*
X33532231Y-25620620D01*
X33524668Y-25638881D01*
X33518507Y-25650973D01*
X33500761Y-25717196D01*
X33499825Y-25720358D01*
X33478644Y-25785542D01*
X33477226Y-25799038D01*
X33473625Y-25818468D01*
X33470110Y-25831587D01*
X33466524Y-25900034D01*
X33466265Y-25903322D01*
X33464000Y-25924871D01*
X33464000Y-25946555D01*
X33463914Y-25949827D01*
X33462593Y-25975046D01*
X33460325Y-26018307D01*
X33462449Y-26031712D01*
X33464000Y-26051424D01*
X33464000Y-27225074D01*
X33462449Y-27244784D01*
X33460325Y-27258190D01*
X33462467Y-27299055D01*
X33463914Y-27326671D01*
X33464000Y-27329944D01*
X33464000Y-27351624D01*
X33466265Y-27373175D01*
X33466524Y-27376464D01*
X33470110Y-27444908D01*
X33470111Y-27444919D01*
X33473625Y-27458033D01*
X33477226Y-27477463D01*
X33478644Y-27490957D01*
X33499828Y-27556150D01*
X33500756Y-27559284D01*
X33518506Y-27625524D01*
X33524665Y-27637613D01*
X33532229Y-27655872D01*
X33536425Y-27668785D01*
X33570709Y-27728167D01*
X33572274Y-27731050D01*
X33603391Y-27792123D01*
X33611930Y-27802667D01*
X33623129Y-27818961D01*
X33629915Y-27830715D01*
X33675785Y-27881660D01*
X33677927Y-27884168D01*
X33691563Y-27901006D01*
X33691568Y-27901012D01*
X33706877Y-27916320D01*
X33709147Y-27918712D01*
X33755030Y-27969669D01*
X33766009Y-27977646D01*
X33781045Y-27990488D01*
X34744413Y-28953856D01*
X34778439Y-29016168D01*
X34780888Y-29053355D01*
X34773037Y-29148111D01*
X34767909Y-29210000D01*
X34769167Y-29225183D01*
X34780888Y-29366643D01*
X34766579Y-29436183D01*
X34744413Y-29466142D01*
X31177544Y-33033011D01*
X31162518Y-33045846D01*
X31151529Y-33053830D01*
X31105665Y-33104767D01*
X31103398Y-33107157D01*
X31088065Y-33122491D01*
X31088057Y-33122500D01*
X31074412Y-33139348D01*
X31072274Y-33141852D01*
X31026418Y-33192781D01*
X31026410Y-33192792D01*
X31019626Y-33204542D01*
X31008431Y-33220831D01*
X30999893Y-33231374D01*
X30968773Y-33292450D01*
X30967199Y-33295348D01*
X30932925Y-33354714D01*
X30932923Y-33354717D01*
X30928731Y-33367620D01*
X30921168Y-33385881D01*
X30915007Y-33397973D01*
X30897261Y-33464196D01*
X30896325Y-33467358D01*
X30875144Y-33532542D01*
X30873726Y-33546038D01*
X30870125Y-33565468D01*
X30866610Y-33578587D01*
X30863024Y-33647034D01*
X30862765Y-33650322D01*
X30860500Y-33671871D01*
X30860500Y-33693555D01*
X30860414Y-33696827D01*
X30859093Y-33722046D01*
X30856825Y-33765307D01*
X30858949Y-33778712D01*
X30860500Y-33798424D01*
X30860500Y-40116218D01*
X30845622Y-40175613D01*
X30806334Y-40249115D01*
X30806330Y-40249124D01*
X30748208Y-40440727D01*
X30748206Y-40440738D01*
X30728582Y-40639996D01*
X30728582Y-40640003D01*
X30748206Y-40839261D01*
X30748206Y-40839263D01*
X30806332Y-41030877D01*
X30806334Y-41030883D01*
X30900720Y-41207466D01*
X30900722Y-41207469D01*
X31027748Y-41362252D01*
X31182531Y-41489278D01*
X31359120Y-41583667D01*
X31550731Y-41641792D01*
X31550735Y-41641792D01*
X31550737Y-41641793D01*
X31749997Y-41661418D01*
X31749998Y-41661417D01*
X31750000Y-41661418D01*
X31802889Y-41656208D01*
X31828421Y-41656293D01*
X31830380Y-41656500D01*
X31852064Y-41656500D01*
X31855334Y-41656585D01*
X31919260Y-41659935D01*
X31923809Y-41660174D01*
X31923809Y-41660173D01*
X31923810Y-41660174D01*
X31931489Y-41658957D01*
X31937215Y-41658051D01*
X31956925Y-41656500D01*
X32527273Y-41656500D01*
X32595394Y-41676502D01*
X32606568Y-41684580D01*
X32745062Y-41796732D01*
X32745063Y-41796732D01*
X32745065Y-41796734D01*
X32826081Y-41838013D01*
X32877697Y-41886761D01*
X32894763Y-41955675D01*
X32871863Y-42022877D01*
X32826083Y-42062546D01*
X32745345Y-42103684D01*
X32745338Y-42103688D01*
X32600763Y-42220763D01*
X32483688Y-42365338D01*
X32483687Y-42365341D01*
X32399230Y-42531097D01*
X32351082Y-42710789D01*
X32345000Y-42788055D01*
X32345000Y-42982500D01*
X34965000Y-42982500D01*
X34965000Y-42965500D01*
X34985002Y-42897379D01*
X35038658Y-42850886D01*
X35091000Y-42839500D01*
X39579321Y-42839500D01*
X39647442Y-42859502D01*
X39693935Y-42913158D01*
X39704933Y-42975387D01*
X39700000Y-43038055D01*
X39700000Y-43107500D01*
X42770000Y-43107500D01*
X42770000Y-43038055D01*
X42765067Y-42975387D01*
X42779663Y-42905907D01*
X42829505Y-42855347D01*
X42890679Y-42839500D01*
X43669957Y-42839500D01*
X43738078Y-42859502D01*
X43765768Y-42883670D01*
X43924950Y-43070049D01*
X44120701Y-43237235D01*
X44120705Y-43237238D01*
X44340203Y-43371747D01*
X44578040Y-43470262D01*
X44828360Y-43530359D01*
X45085000Y-43550557D01*
X45341640Y-43530359D01*
X45591960Y-43470262D01*
X45829797Y-43371747D01*
X46049295Y-43237238D01*
X46245049Y-43070049D01*
X46412238Y-42874295D01*
X46546747Y-42654797D01*
X46645262Y-42416960D01*
X46705359Y-42166640D01*
X46725557Y-41910000D01*
X46705359Y-41653360D01*
X46645262Y-41403040D01*
X46625363Y-41355000D01*
X57549811Y-41355000D01*
X57568541Y-41616887D01*
X57607664Y-41796732D01*
X57624352Y-41873441D01*
X57716105Y-42119441D01*
X57716106Y-42119445D01*
X57841930Y-42349873D01*
X57841932Y-42349876D01*
X57841935Y-42349881D01*
X57999278Y-42560068D01*
X57999280Y-42560070D01*
X57999283Y-42560074D01*
X58184925Y-42745716D01*
X58184928Y-42745718D01*
X58184932Y-42745722D01*
X58395119Y-42903065D01*
X58395125Y-42903068D01*
X58395126Y-42903069D01*
X58400323Y-42905907D01*
X58625558Y-43028895D01*
X58871559Y-43120648D01*
X59128114Y-43176459D01*
X59390000Y-43195189D01*
X59651886Y-43176459D01*
X59908441Y-43120648D01*
X60154442Y-43028895D01*
X60384881Y-42903065D01*
X60595068Y-42745722D01*
X60780722Y-42560068D01*
X60938065Y-42349881D01*
X61063895Y-42119442D01*
X61155648Y-41873441D01*
X61211459Y-41616886D01*
X61230189Y-41355000D01*
X61211459Y-41093114D01*
X61155648Y-40836559D01*
X61063895Y-40590558D01*
X60972668Y-40423490D01*
X60938069Y-40360126D01*
X60938068Y-40360125D01*
X60938065Y-40360119D01*
X60780722Y-40149932D01*
X60780718Y-40149928D01*
X60780716Y-40149925D01*
X60595074Y-39964283D01*
X60595070Y-39964280D01*
X60595068Y-39964278D01*
X60384881Y-39806935D01*
X60384876Y-39806932D01*
X60384873Y-39806930D01*
X60154445Y-39681106D01*
X60154442Y-39681105D01*
X59908441Y-39589352D01*
X59908437Y-39589351D01*
X59908434Y-39589350D01*
X59651887Y-39533541D01*
X59390000Y-39514811D01*
X59128112Y-39533541D01*
X58871565Y-39589350D01*
X58871560Y-39589351D01*
X58871559Y-39589352D01*
X58668571Y-39665062D01*
X58625558Y-39681105D01*
X58625554Y-39681106D01*
X58395126Y-39806930D01*
X58184925Y-39964283D01*
X57999283Y-40149925D01*
X57841930Y-40360126D01*
X57716106Y-40590554D01*
X57716105Y-40590558D01*
X57624350Y-40836565D01*
X57568541Y-41093112D01*
X57549811Y-41355000D01*
X46625363Y-41355000D01*
X46546747Y-41165203D01*
X46412238Y-40945705D01*
X46412235Y-40945701D01*
X46245049Y-40749950D01*
X46049298Y-40582764D01*
X46049296Y-40582763D01*
X46049295Y-40582762D01*
X45829797Y-40448253D01*
X45811655Y-40440738D01*
X45591958Y-40349737D01*
X45420722Y-40308627D01*
X45341640Y-40289641D01*
X45341641Y-40289641D01*
X45085000Y-40269443D01*
X44828359Y-40289641D01*
X44578042Y-40349737D01*
X44340198Y-40448255D01*
X44317002Y-40462470D01*
X44248468Y-40481007D01*
X44180792Y-40459549D01*
X44162074Y-40444131D01*
X43825488Y-40107545D01*
X43812646Y-40092509D01*
X43804669Y-40081530D01*
X43753712Y-40035647D01*
X43751320Y-40033377D01*
X43736012Y-40018068D01*
X43736006Y-40018063D01*
X43719168Y-40004427D01*
X43716660Y-40002285D01*
X43674453Y-39964283D01*
X43665715Y-39956415D01*
X43653961Y-39949629D01*
X43637667Y-39938430D01*
X43627123Y-39929891D01*
X43566050Y-39898774D01*
X43563167Y-39897209D01*
X43503785Y-39862925D01*
X43490872Y-39858729D01*
X43472613Y-39851165D01*
X43460524Y-39845006D01*
X43460522Y-39845005D01*
X43436258Y-39838503D01*
X43394284Y-39827256D01*
X43391167Y-39826333D01*
X43373497Y-39820591D01*
X43325957Y-39805144D01*
X43312463Y-39803726D01*
X43293033Y-39800125D01*
X43279919Y-39796611D01*
X43279908Y-39796610D01*
X43225054Y-39793736D01*
X43211457Y-39793023D01*
X43208175Y-39792765D01*
X43186624Y-39790500D01*
X43186620Y-39790500D01*
X43164944Y-39790500D01*
X43161671Y-39790414D01*
X43133703Y-39788949D01*
X43093191Y-39786825D01*
X43079786Y-39788949D01*
X43060075Y-39790500D01*
X42772859Y-39790500D01*
X42704738Y-39770498D01*
X42660592Y-39721703D01*
X42631734Y-39665065D01*
X42631732Y-39665062D01*
X42514592Y-39520407D01*
X42369937Y-39403267D01*
X42204081Y-39318760D01*
X42024290Y-39270585D01*
X42024289Y-39270584D01*
X42024286Y-39270584D01*
X41966795Y-39266059D01*
X41946984Y-39264500D01*
X41946981Y-39264500D01*
X41235000Y-39264500D01*
X40523017Y-39264501D01*
X40445716Y-39270583D01*
X40265918Y-39318760D01*
X40100063Y-39403267D01*
X40100062Y-39403267D01*
X39955407Y-39520407D01*
X39838267Y-39665062D01*
X39838267Y-39665063D01*
X39753760Y-39830918D01*
X39705585Y-40010709D01*
X39705584Y-40010714D01*
X39703708Y-40034554D01*
X39699500Y-40088016D01*
X39699501Y-40861983D01*
X39699501Y-40861984D01*
X39704429Y-40924617D01*
X39689831Y-40994097D01*
X39639988Y-41044655D01*
X39578817Y-41060500D01*
X35425633Y-41060500D01*
X35357512Y-41040498D01*
X35336538Y-41023595D01*
X35002404Y-40689461D01*
X34968378Y-40627149D01*
X34965499Y-40600366D01*
X34965499Y-40088017D01*
X34959416Y-40010716D01*
X34959416Y-40010714D01*
X34911239Y-39830917D01*
X34826734Y-39665065D01*
X34826732Y-39665062D01*
X34709592Y-39520407D01*
X34564937Y-39403267D01*
X34399081Y-39318760D01*
X34219290Y-39270585D01*
X34219289Y-39270584D01*
X34219286Y-39270584D01*
X34161795Y-39266059D01*
X34141984Y-39264500D01*
X34141981Y-39264500D01*
X33655000Y-39264500D01*
X33168017Y-39264501D01*
X33090716Y-39270583D01*
X32910916Y-39318761D01*
X32822702Y-39363708D01*
X32752926Y-39376812D01*
X32687141Y-39350112D01*
X32646235Y-39292084D01*
X32639500Y-39251441D01*
X32639500Y-37988016D01*
X35514500Y-37988016D01*
X35514501Y-39686983D01*
X35520583Y-39764283D01*
X35564958Y-39929893D01*
X35568761Y-39944083D01*
X35652048Y-40107545D01*
X35653267Y-40109936D01*
X35653267Y-40109937D01*
X35770407Y-40254592D01*
X35915062Y-40371732D01*
X35915063Y-40371732D01*
X35915065Y-40371734D01*
X36080917Y-40456239D01*
X36260714Y-40504416D01*
X36328110Y-40509720D01*
X36338016Y-40510500D01*
X36338018Y-40510499D01*
X36338019Y-40510500D01*
X37424999Y-40510499D01*
X38511983Y-40510499D01*
X38550633Y-40507457D01*
X38589286Y-40504416D01*
X38769083Y-40456239D01*
X38934935Y-40371734D01*
X39079592Y-40254592D01*
X39196734Y-40109935D01*
X39281239Y-39944083D01*
X39329416Y-39764286D01*
X39335500Y-39686981D01*
X39335499Y-37988020D01*
X39329416Y-37910714D01*
X39281239Y-37730917D01*
X39196734Y-37565065D01*
X39196732Y-37565062D01*
X39079592Y-37420407D01*
X38934937Y-37303267D01*
X38769087Y-37218763D01*
X38769086Y-37218762D01*
X38769083Y-37218761D01*
X38769078Y-37218759D01*
X38764105Y-37216851D01*
X38707675Y-37173768D01*
X38683760Y-37110509D01*
X38680135Y-37070227D01*
X38680134Y-37070224D01*
X38619294Y-36849774D01*
X38520067Y-36643728D01*
X38385644Y-36458710D01*
X38332185Y-36407598D01*
X38277172Y-36355000D01*
X57549811Y-36355000D01*
X57568541Y-36616887D01*
X57596307Y-36744526D01*
X57624352Y-36873441D01*
X57716105Y-37119441D01*
X57716106Y-37119445D01*
X57841930Y-37349873D01*
X57841932Y-37349876D01*
X57841935Y-37349881D01*
X57999278Y-37560068D01*
X57999280Y-37560070D01*
X57999283Y-37560074D01*
X58184925Y-37745716D01*
X58184928Y-37745718D01*
X58184932Y-37745722D01*
X58395119Y-37903065D01*
X58395125Y-37903068D01*
X58395126Y-37903069D01*
X58550699Y-37988019D01*
X58625558Y-38028895D01*
X58871559Y-38120648D01*
X59128114Y-38176459D01*
X59390000Y-38195189D01*
X59651886Y-38176459D01*
X59908441Y-38120648D01*
X60154442Y-38028895D01*
X60384881Y-37903065D01*
X60595068Y-37745722D01*
X60780722Y-37560068D01*
X60938065Y-37349881D01*
X61063895Y-37119442D01*
X61155648Y-36873441D01*
X61211459Y-36616886D01*
X61230189Y-36355000D01*
X61211459Y-36093114D01*
X61155648Y-35836559D01*
X61063895Y-35590558D01*
X60945476Y-35373692D01*
X60938069Y-35360126D01*
X60938068Y-35360125D01*
X60938065Y-35360119D01*
X60780722Y-35149932D01*
X60780718Y-35149928D01*
X60780716Y-35149925D01*
X60595074Y-34964283D01*
X60595070Y-34964280D01*
X60595068Y-34964278D01*
X60384881Y-34806935D01*
X60384876Y-34806932D01*
X60384873Y-34806930D01*
X60154445Y-34681106D01*
X60154442Y-34681105D01*
X59908441Y-34589352D01*
X59908437Y-34589351D01*
X59908434Y-34589350D01*
X59651887Y-34533541D01*
X59390000Y-34514811D01*
X59128112Y-34533541D01*
X58871565Y-34589350D01*
X58871560Y-34589351D01*
X58871559Y-34589352D01*
X58625558Y-34681105D01*
X58625554Y-34681106D01*
X58395126Y-34806930D01*
X58395120Y-34806934D01*
X58395119Y-34806935D01*
X58379181Y-34818866D01*
X58184925Y-34964283D01*
X57999283Y-35149925D01*
X57841930Y-35360126D01*
X57716106Y-35590554D01*
X57716105Y-35590558D01*
X57625312Y-35833987D01*
X57624350Y-35836565D01*
X57568541Y-36093112D01*
X57549811Y-36355000D01*
X38277172Y-36355000D01*
X38220347Y-36300669D01*
X38029487Y-36174684D01*
X38029479Y-36174680D01*
X37819193Y-36084799D01*
X37819191Y-36084798D01*
X37596233Y-36033910D01*
X37367773Y-36023649D01*
X37367772Y-36023649D01*
X37367769Y-36023649D01*
X37141145Y-36054348D01*
X37141143Y-36054348D01*
X37141140Y-36054349D01*
X36923644Y-36125017D01*
X36722262Y-36233385D01*
X36722255Y-36233389D01*
X36543454Y-36375979D01*
X36392990Y-36548199D01*
X36275696Y-36744515D01*
X36275691Y-36744526D01*
X36195334Y-36958632D01*
X36165815Y-37121296D01*
X36133971Y-37184750D01*
X36086992Y-37216429D01*
X36080918Y-37218760D01*
X35915063Y-37303267D01*
X35915062Y-37303267D01*
X35770407Y-37420407D01*
X35653267Y-37565062D01*
X35653267Y-37565063D01*
X35568760Y-37730918D01*
X35522632Y-37903069D01*
X35520584Y-37910714D01*
X35520584Y-37910716D01*
X35514500Y-37988016D01*
X32639500Y-37988016D01*
X32639500Y-34139132D01*
X32659502Y-34071011D01*
X32676400Y-34050042D01*
X36000022Y-30726419D01*
X36062332Y-30692395D01*
X36109851Y-30691235D01*
X36135408Y-30695500D01*
X36135411Y-30695500D01*
X36381592Y-30695500D01*
X36407143Y-30691236D01*
X36477627Y-30699752D01*
X36516979Y-30726422D01*
X37224009Y-31433452D01*
X37236848Y-31448483D01*
X37244832Y-31459472D01*
X37271454Y-31483442D01*
X37295797Y-31505360D01*
X37298152Y-31507595D01*
X37313491Y-31522934D01*
X37313492Y-31522935D01*
X37330343Y-31536581D01*
X37332827Y-31538702D01*
X37383785Y-31584585D01*
X37393351Y-31590107D01*
X37395534Y-31591368D01*
X37411833Y-31602570D01*
X37422372Y-31611105D01*
X37422377Y-31611108D01*
X37483439Y-31642220D01*
X37486338Y-31643794D01*
X37529776Y-31668872D01*
X37545715Y-31678075D01*
X37558626Y-31682270D01*
X37576879Y-31689830D01*
X37588976Y-31695994D01*
X37655207Y-31713740D01*
X37658328Y-31714664D01*
X37723544Y-31735855D01*
X37737030Y-31737272D01*
X37756469Y-31740874D01*
X37769585Y-31744389D01*
X37769591Y-31744389D01*
X37769594Y-31744390D01*
X37808673Y-31746436D01*
X37838054Y-31747976D01*
X37841315Y-31748232D01*
X37862880Y-31750500D01*
X37884556Y-31750500D01*
X37887828Y-31750585D01*
X37947109Y-31753691D01*
X37956308Y-31754174D01*
X37956308Y-31754173D01*
X37956310Y-31754174D01*
X37969714Y-31752050D01*
X37989425Y-31750500D01*
X38751880Y-31750500D01*
X42147575Y-31750500D01*
X42167285Y-31752050D01*
X42180690Y-31754174D01*
X42249171Y-31750585D01*
X42252444Y-31750500D01*
X42274112Y-31750500D01*
X42274120Y-31750500D01*
X42295727Y-31748228D01*
X42298909Y-31747978D01*
X42367415Y-31744389D01*
X42380520Y-31740876D01*
X42399971Y-31737272D01*
X42413456Y-31735855D01*
X42413458Y-31735854D01*
X42413460Y-31735854D01*
X42478642Y-31714674D01*
X42481791Y-31713740D01*
X42548024Y-31695994D01*
X42560113Y-31689833D01*
X42578377Y-31682268D01*
X42591285Y-31678075D01*
X42591288Y-31678073D01*
X42591289Y-31678073D01*
X42600350Y-31672840D01*
X42650685Y-31643779D01*
X42653538Y-31642231D01*
X42653560Y-31642220D01*
X42714625Y-31611107D01*
X42725171Y-31602565D01*
X42741459Y-31591371D01*
X42753215Y-31584585D01*
X42753218Y-31584581D01*
X42753220Y-31584581D01*
X42804153Y-31538720D01*
X42806662Y-31536577D01*
X42809723Y-31534097D01*
X42823506Y-31522937D01*
X42838845Y-31507597D01*
X42841201Y-31505360D01*
X42892169Y-31459470D01*
X42900154Y-31448478D01*
X42912983Y-31433458D01*
X44704958Y-29641483D01*
X44719978Y-29628654D01*
X44730970Y-29620669D01*
X44776860Y-29569701D01*
X44779097Y-29567345D01*
X44794437Y-29552006D01*
X44808077Y-29535162D01*
X44810220Y-29532653D01*
X44856081Y-29481720D01*
X44856081Y-29481718D01*
X44856085Y-29481715D01*
X44862871Y-29469959D01*
X44874065Y-29453671D01*
X44882607Y-29443125D01*
X44913733Y-29382033D01*
X44915279Y-29379185D01*
X44949575Y-29319785D01*
X44953768Y-29306877D01*
X44961333Y-29288613D01*
X44967494Y-29276524D01*
X44985240Y-29210291D01*
X44986174Y-29207142D01*
X45007354Y-29141960D01*
X45007355Y-29141954D01*
X45008772Y-29128471D01*
X45012377Y-29109020D01*
X45015889Y-29095915D01*
X45019478Y-29027409D01*
X45019728Y-29024227D01*
X45022000Y-29002620D01*
X45022000Y-28980944D01*
X45022085Y-28977671D01*
X45025674Y-28909190D01*
X45025010Y-28904998D01*
X45023551Y-28895784D01*
X45022000Y-28876074D01*
X45022000Y-25288780D01*
X45036878Y-25229384D01*
X45076167Y-25155880D01*
X45134292Y-24964269D01*
X45134293Y-24964261D01*
X45153918Y-24765003D01*
X45153918Y-24764996D01*
X45134293Y-24565738D01*
X45134293Y-24565736D01*
X45134292Y-24565733D01*
X45134292Y-24565731D01*
X45076167Y-24374120D01*
X45049024Y-24323340D01*
X44981779Y-24197533D01*
X44981778Y-24197531D01*
X44854752Y-24042748D01*
X44699969Y-23915722D01*
X44699967Y-23915721D01*
X44699966Y-23915720D01*
X44523383Y-23821334D01*
X44523377Y-23821332D01*
X44331762Y-23763206D01*
X44132503Y-23743582D01*
X44132497Y-23743582D01*
X43933238Y-23763206D01*
X43933236Y-23763206D01*
X43741622Y-23821332D01*
X43741616Y-23821334D01*
X43565033Y-23915720D01*
X43410248Y-24042748D01*
X43283220Y-24197533D01*
X43188834Y-24374116D01*
X43188832Y-24374122D01*
X43130706Y-24565736D01*
X43130706Y-24565738D01*
X43111082Y-24764996D01*
X43111082Y-24765003D01*
X43130706Y-24964261D01*
X43130706Y-24964263D01*
X43147462Y-25019499D01*
X43188833Y-25155880D01*
X43227388Y-25228012D01*
X43228122Y-25229384D01*
X43243000Y-25288780D01*
X43243000Y-28535367D01*
X43222998Y-28603488D01*
X43206095Y-28624462D01*
X41895962Y-29934595D01*
X41833650Y-29968621D01*
X41806867Y-29971500D01*
X40279459Y-29971500D01*
X40211338Y-29951498D01*
X40164845Y-29897842D01*
X40154741Y-29827568D01*
X40164072Y-29794886D01*
X40177232Y-29764882D01*
X40208327Y-29693994D01*
X40268761Y-29455343D01*
X40289091Y-29210000D01*
X40268761Y-28964657D01*
X40253654Y-28905001D01*
X40208328Y-28726009D01*
X40208325Y-28726002D01*
X40205692Y-28720000D01*
X40109436Y-28500557D01*
X40080317Y-28455987D01*
X39974786Y-28294459D01*
X39808056Y-28113342D01*
X39808050Y-28113337D01*
X39713094Y-28039429D01*
X39671625Y-27981807D01*
X39667891Y-27910908D01*
X39703081Y-27849246D01*
X39713085Y-27840576D01*
X39808050Y-27766663D01*
X39819938Y-27753750D01*
X39974786Y-27585540D01*
X40030436Y-27500361D01*
X40109436Y-27379443D01*
X40208327Y-27153994D01*
X40268761Y-26915343D01*
X40289091Y-26670000D01*
X40268761Y-26424657D01*
X40232256Y-26280500D01*
X40208328Y-26186009D01*
X40208325Y-26186002D01*
X40109436Y-25960557D01*
X39974786Y-25754459D01*
X39808056Y-25573342D01*
X39808050Y-25573337D01*
X39713094Y-25499429D01*
X39671625Y-25441807D01*
X39667891Y-25370908D01*
X39703081Y-25309246D01*
X39713085Y-25300576D01*
X39808050Y-25226663D01*
X39866259Y-25163432D01*
X39974786Y-25045540D01*
X39999398Y-25007869D01*
X40109436Y-24839443D01*
X40208327Y-24613994D01*
X40268761Y-24375343D01*
X40289091Y-24130000D01*
X40268761Y-23884657D01*
X40230295Y-23732757D01*
X40208328Y-23646009D01*
X40208325Y-23646002D01*
X40200265Y-23627628D01*
X40109436Y-23420557D01*
X39974786Y-23214459D01*
X39808056Y-23033342D01*
X39808050Y-23033337D01*
X39712687Y-22959113D01*
X39671218Y-22901490D01*
X39667484Y-22830591D01*
X39702674Y-22768929D01*
X39712689Y-22760251D01*
X39807709Y-22686293D01*
X39974392Y-22505228D01*
X40108991Y-22299206D01*
X40108998Y-22299194D01*
X40207850Y-22073834D01*
X40207852Y-22073830D01*
X40249973Y-21907500D01*
X39188807Y-21907500D01*
X39257993Y-21799844D01*
X39298500Y-21661889D01*
X39298500Y-21518111D01*
X39257993Y-21380156D01*
X39188807Y-21272500D01*
X40249973Y-21272500D01*
X40249973Y-21272499D01*
X40207852Y-21106169D01*
X40207850Y-21106165D01*
X40108998Y-20880805D01*
X40108991Y-20880793D01*
X39974392Y-20674771D01*
X39807709Y-20493706D01*
X39613501Y-20342547D01*
X39613500Y-20342546D01*
X39397061Y-20225415D01*
X39397058Y-20225414D01*
X39164301Y-20145508D01*
X39164294Y-20145507D01*
X39116000Y-20137447D01*
X39116000Y-21203520D01*
X39071600Y-21165048D01*
X38940815Y-21105320D01*
X38834263Y-21090000D01*
X38762737Y-21090000D01*
X38656185Y-21105320D01*
X38525400Y-21165048D01*
X38481000Y-21203520D01*
X38481000Y-20137447D01*
X38432705Y-20145507D01*
X38432698Y-20145508D01*
X38199941Y-20225414D01*
X38199938Y-20225415D01*
X37983499Y-20342546D01*
X37983498Y-20342547D01*
X37841910Y-20452750D01*
X37775867Y-20478806D01*
X37706222Y-20465020D01*
X37656066Y-20417458D01*
X37651423Y-20409608D01*
X37614635Y-20347402D01*
X37614633Y-20347400D01*
X37614630Y-20347396D01*
X37501103Y-20233869D01*
X37501099Y-20233866D01*
X37501098Y-20233865D01*
X37362893Y-20152131D01*
X37285798Y-20129733D01*
X37208702Y-20107334D01*
X37172684Y-20104500D01*
X37172681Y-20104500D01*
X35801410Y-20104500D01*
X35344319Y-20104501D01*
X35308297Y-20107334D01*
X35154104Y-20152132D01*
X35015900Y-20233866D01*
X35015896Y-20233869D01*
X34902369Y-20347396D01*
X34902366Y-20347400D01*
X34820632Y-20485604D01*
X34775834Y-20639797D01*
X34773000Y-20675816D01*
X34773001Y-22504181D01*
X34775834Y-22540202D01*
X34778740Y-22550204D01*
X34817908Y-22685021D01*
X34820632Y-22694395D01*
X34902366Y-22832599D01*
X34902369Y-22832603D01*
X35015896Y-22946130D01*
X35015898Y-22946131D01*
X35015902Y-22946135D01*
X35084772Y-22986865D01*
X35133224Y-23038756D01*
X35145929Y-23108607D01*
X35118854Y-23174238D01*
X35113336Y-23180651D01*
X35095678Y-23199834D01*
X35034826Y-23236407D01*
X35002974Y-23240500D01*
X32805632Y-23240500D01*
X32737511Y-23220498D01*
X32716537Y-23203595D01*
X31367404Y-21854461D01*
X31333378Y-21792149D01*
X31330499Y-21765366D01*
X31330499Y-20685819D01*
X31327665Y-20649797D01*
X31324760Y-20639797D01*
X31282869Y-20495607D01*
X31201135Y-20357402D01*
X31201133Y-20357400D01*
X31201130Y-20357396D01*
X31087603Y-20243869D01*
X31087599Y-20243866D01*
X31087598Y-20243865D01*
X30949393Y-20162131D01*
X30864430Y-20137447D01*
X30795202Y-20117334D01*
X30759184Y-20114500D01*
X30759181Y-20114500D01*
X29387910Y-20114500D01*
X28930819Y-20114501D01*
X28894797Y-20117334D01*
X28740604Y-20162132D01*
X28602400Y-20243866D01*
X28602396Y-20243869D01*
X28488869Y-20357396D01*
X28488866Y-20357400D01*
X28407132Y-20495604D01*
X28362334Y-20649797D01*
X28359500Y-20685816D01*
X28359501Y-22514181D01*
X28362334Y-22550202D01*
X28362335Y-22550204D01*
X28404226Y-22694395D01*
X28407132Y-22704395D01*
X28488866Y-22842599D01*
X28488869Y-22842603D01*
X28602396Y-22956130D01*
X28602398Y-22956131D01*
X28602402Y-22956135D01*
X28671272Y-22996865D01*
X28719724Y-23048756D01*
X28732429Y-23118607D01*
X28705354Y-23184238D01*
X28699835Y-23190653D01*
X28668711Y-23224463D01*
X28534063Y-23430557D01*
X28435174Y-23656002D01*
X28435171Y-23656009D01*
X28374740Y-23894649D01*
X28374739Y-23894655D01*
X28374739Y-23894657D01*
X28354409Y-24140000D01*
X28373910Y-24375343D01*
X28374740Y-24385350D01*
X28435171Y-24623990D01*
X28435174Y-24623997D01*
X28534063Y-24849442D01*
X28668713Y-25055540D01*
X28835444Y-25236658D01*
X28835449Y-25236663D01*
X28930403Y-25310569D01*
X28971874Y-25368194D01*
X28975607Y-25439092D01*
X28940417Y-25500754D01*
X28930403Y-25509431D01*
X28835449Y-25583336D01*
X28835444Y-25583341D01*
X28668713Y-25764459D01*
X28534063Y-25970557D01*
X28435174Y-26196002D01*
X28435171Y-26196009D01*
X28374740Y-26434649D01*
X28374739Y-26434655D01*
X28374739Y-26434657D01*
X28354409Y-26680000D01*
X20506580Y-26680000D01*
X20385968Y-26632246D01*
X20385950Y-26632241D01*
X20095302Y-26557615D01*
X20095275Y-26557610D01*
X19797566Y-26520001D01*
X19797548Y-26520000D01*
X19497452Y-26520000D01*
X19497433Y-26520001D01*
X19199724Y-26557610D01*
X19199697Y-26557615D01*
X18909049Y-26632241D01*
X18909031Y-26632246D01*
X18630008Y-26742720D01*
X18367023Y-26887297D01*
X18200092Y-27008579D01*
X18200092Y-27008581D01*
X19078434Y-27886922D01*
X19031579Y-27910254D01*
X18859282Y-28040366D01*
X18713827Y-28199923D01*
X18629540Y-28336051D01*
X17750248Y-27456759D01*
X17750247Y-27456759D01*
X17714177Y-27500361D01*
X17714175Y-27500364D01*
X17553381Y-27753736D01*
X17553373Y-27753750D01*
X17425601Y-28025280D01*
X17425597Y-28025289D01*
X17332863Y-28310692D01*
X17332860Y-28310704D01*
X17276627Y-28605494D01*
X17257784Y-28904994D01*
X17257784Y-28905005D01*
X13335000Y-28905005D01*
X13335000Y-23732757D01*
X13355002Y-23664636D01*
X13408658Y-23618143D01*
X13478932Y-23608039D01*
X13543512Y-23637533D01*
X13575238Y-23680476D01*
X13575288Y-23680451D01*
X13575335Y-23680426D01*
X13575336Y-23680428D01*
X13575457Y-23680368D01*
X13576073Y-23681606D01*
X13576264Y-23681865D01*
X13576752Y-23682969D01*
X13576756Y-23682978D01*
X13787792Y-24061860D01*
X14009387Y-24385350D01*
X14032902Y-24419677D01*
X14202567Y-24623997D01*
X14309981Y-24753351D01*
X14616648Y-25060018D01*
X14616653Y-25060022D01*
X14616655Y-25060024D01*
X14950323Y-25337098D01*
X15165321Y-25484375D01*
X15308139Y-25582207D01*
X15687021Y-25793243D01*
X15687025Y-25793244D01*
X15687031Y-25793248D01*
X16083786Y-25968433D01*
X16495013Y-26106262D01*
X16917202Y-26205560D01*
X17346753Y-26265480D01*
X17596529Y-26277027D01*
X17671629Y-26280500D01*
X17671634Y-26280500D01*
X17888371Y-26280500D01*
X17960152Y-26277181D01*
X18213247Y-26265480D01*
X18642798Y-26205560D01*
X19064987Y-26106262D01*
X19476214Y-25968433D01*
X19872969Y-25793248D01*
X19942609Y-25754459D01*
X20251860Y-25582207D01*
X20251860Y-25582206D01*
X20251867Y-25582203D01*
X20609677Y-25337098D01*
X20943345Y-25060024D01*
X21250024Y-24753345D01*
X21527098Y-24419677D01*
X21772203Y-24061867D01*
X21865339Y-23894657D01*
X21983243Y-23682978D01*
X21983243Y-23682977D01*
X21983248Y-23682969D01*
X22158433Y-23286214D01*
X22296262Y-22874987D01*
X22395560Y-22452798D01*
X22455480Y-22023247D01*
X22475510Y-21590000D01*
X22455480Y-21156753D01*
X22395560Y-20727202D01*
X22296262Y-20305013D01*
X22158433Y-19893786D01*
X21983248Y-19497031D01*
X21983244Y-19497025D01*
X21983243Y-19497021D01*
X21772207Y-19118139D01*
X21527100Y-18760326D01*
X21519769Y-18751498D01*
X21250024Y-18426655D01*
X21250022Y-18426653D01*
X21250018Y-18426648D01*
X20943351Y-18119981D01*
X20792206Y-17994472D01*
X20609677Y-17842902D01*
X20309302Y-17637141D01*
X20251860Y-17597792D01*
X19872978Y-17386756D01*
X19872969Y-17386752D01*
X19871865Y-17386264D01*
X19871686Y-17386113D01*
X19870368Y-17385457D01*
X19870428Y-17385336D01*
X19870426Y-17385335D01*
X19870451Y-17385288D01*
X19870528Y-17385135D01*
X19817628Y-17340455D01*
X19796767Y-17272592D01*
X19815907Y-17204224D01*
X19868970Y-17157057D01*
X19922757Y-17145000D01*
X58817243Y-17145000D01*
X58885364Y-17165002D01*
G37*
%TD.AperFunction*%
%TD*%
M02*
