M48
; DRILL file {KiCad 9.0.0+1} date 2025-03-04T14:17:03+0000
; FORMAT={-:-/ absolute / inch / decimal}
; #@! TF.CreationDate,2025-03-04T14:17:03+00:00
; #@! TF.GenerationSoftware,Kicad,Pcbnew,9.0.0+1
; #@! TF.FileFunction,Plated,1,2,PTH
FMAT,2
INCH
; #@! TA.AperFunction,Plated,PTH,ViaDrill
T1C0.0120
; #@! TA.AperFunction,Plated,PTH,ComponentDrill
T2C0.0362
; #@! TA.AperFunction,Plated,PTH,ComponentDrill
T3C0.0394
; #@! TA.AperFunction,Plated,PTH,ComponentDrill
T4C0.0472
; #@! TA.AperFunction,Plated,PTH,ComponentDrill
T5C0.0917
%
G90
G05
T1
X1.115Y-1.77
X1.2Y-1.54
X1.2Y-1.67
X1.295Y-1.6
X1.32Y-1.335
X1.36Y-1.44
X1.3807Y-1.5293
X1.39Y-1.5725
X1.455Y-1.37
X1.505Y-1.615
X1.5699Y-2.35
X1.64Y-0.8544
X1.675Y-0.925
X1.775Y-1.525
X1.825Y-1.35
X1.8642Y-2.2037
X1.865Y-2.045
X1.87Y-0.952
X1.875Y-1.525
X1.885Y-0.725
X1.93Y-0.895
X1.995Y-0.825
X2.215Y-1.12
T2
X0.9678Y-1.3508
X0.9678Y-1.4492
X1.0466Y-1.3508
X1.0466Y-1.4492
T3
X1.225Y-0.85
X1.225Y-0.95
X1.225Y-1.05
X1.225Y-1.15
X1.4298Y-0.85
X1.4298Y-0.95
X1.4298Y-1.05
X1.4298Y-1.15
X1.5298Y-0.85
X1.5298Y-0.95
X1.5298Y-1.05
X1.5298Y-1.15
T4
X2.3382Y-1.4313
X2.3382Y-1.6281
X2.3382Y-1.825
T5
X0.8611Y-1.163
X0.8611Y-1.637
T3
G00X0.775Y-1.9006
M15
G01X0.775Y-1.9794
M16
G05
G00X0.8537Y-2.125
M15
G01X0.9325Y-2.125
M16
G05
G00X1.0112Y-1.9006
M15
G01X1.0112Y-1.9794
M16
G05
M30
