%TF.GenerationSoftware,KiCad,Pcbnew,7.0.9-7.0.9~ubuntu20.04.1*%
%TF.CreationDate,2024-01-05T14:18:08+00:00*%
%TF.ProjectId,ESP01LEDDriver,45535030-314c-4454-9444-72697665722e,rev?*%
%TF.SameCoordinates,Original*%
%TF.FileFunction,Copper,L1,Top*%
%TF.FilePolarity,Positive*%
%FSLAX46Y46*%
G04 Gerber Fmt 4.6, Leading zero omitted, Abs format (unit mm)*
G04 Created by KiCad (PCBNEW 7.0.9-7.0.9~ubuntu20.04.1) date 2024-01-05 14:18:08*
%MOMM*%
%LPD*%
G01*
G04 APERTURE LIST*
G04 Aperture macros list*
%AMRoundRect*
0 Rectangle with rounded corners*
0 $1 Rounding radius*
0 $2 $3 $4 $5 $6 $7 $8 $9 X,Y pos of 4 corners*
0 Add a 4 corners polygon primitive as box body*
4,1,4,$2,$3,$4,$5,$6,$7,$8,$9,$2,$3,0*
0 Add four circle primitives for the rounded corners*
1,1,$1+$1,$2,$3*
1,1,$1+$1,$4,$5*
1,1,$1+$1,$6,$7*
1,1,$1+$1,$8,$9*
0 Add four rect primitives between the rounded corners*
20,1,$1+$1,$2,$3,$4,$5,0*
20,1,$1+$1,$4,$5,$6,$7,0*
20,1,$1+$1,$6,$7,$8,$9,0*
20,1,$1+$1,$8,$9,$2,$3,0*%
G04 Aperture macros list end*
%TA.AperFunction,SMDPad,CuDef*%
%ADD10RoundRect,0.250000X-0.262500X-0.450000X0.262500X-0.450000X0.262500X0.450000X-0.262500X0.450000X0*%
%TD*%
%TA.AperFunction,ComponentPad*%
%ADD11R,1.700000X1.700000*%
%TD*%
%TA.AperFunction,ComponentPad*%
%ADD12O,1.700000X1.700000*%
%TD*%
%TA.AperFunction,SMDPad,CuDef*%
%ADD13RoundRect,0.150000X-0.587500X-0.150000X0.587500X-0.150000X0.587500X0.150000X-0.587500X0.150000X0*%
%TD*%
%TA.AperFunction,SMDPad,CuDef*%
%ADD14RoundRect,0.250000X0.450000X-0.262500X0.450000X0.262500X-0.450000X0.262500X-0.450000X-0.262500X0*%
%TD*%
%TA.AperFunction,ComponentPad*%
%ADD15R,3.500000X3.500000*%
%TD*%
%TA.AperFunction,ComponentPad*%
%ADD16RoundRect,0.750000X-0.750000X-1.000000X0.750000X-1.000000X0.750000X1.000000X-0.750000X1.000000X0*%
%TD*%
%TA.AperFunction,ComponentPad*%
%ADD17RoundRect,0.875000X-0.875000X-0.875000X0.875000X-0.875000X0.875000X0.875000X-0.875000X0.875000X0*%
%TD*%
%TA.AperFunction,ComponentPad*%
%ADD18C,1.700000*%
%TD*%
%TA.AperFunction,ComponentPad*%
%ADD19C,3.500000*%
%TD*%
%TA.AperFunction,ComponentPad*%
%ADD20C,2.000000*%
%TD*%
%TA.AperFunction,SMDPad,CuDef*%
%ADD21R,2.800000X1.000000*%
%TD*%
%TA.AperFunction,SMDPad,CuDef*%
%ADD22RoundRect,0.250000X0.375000X1.075000X-0.375000X1.075000X-0.375000X-1.075000X0.375000X-1.075000X0*%
%TD*%
%TA.AperFunction,SMDPad,CuDef*%
%ADD23RoundRect,0.250000X-0.450000X0.262500X-0.450000X-0.262500X0.450000X-0.262500X0.450000X0.262500X0*%
%TD*%
%TA.AperFunction,ComponentPad*%
%ADD24R,2.400000X2.400000*%
%TD*%
%TA.AperFunction,ComponentPad*%
%ADD25C,2.400000*%
%TD*%
%TA.AperFunction,SMDPad,CuDef*%
%ADD26R,2.000000X1.500000*%
%TD*%
%TA.AperFunction,SMDPad,CuDef*%
%ADD27R,2.000000X3.800000*%
%TD*%
%TA.AperFunction,ViaPad*%
%ADD28C,0.762000*%
%TD*%
%TA.AperFunction,Conductor*%
%ADD29C,0.508000*%
%TD*%
%TA.AperFunction,Conductor*%
%ADD30C,0.190500*%
%TD*%
G04 APERTURE END LIST*
D10*
%TO.P,R3,1*%
%TO.N,Net-(D1-K)*%
X36422500Y-59690000D03*
%TO.P,R3,2*%
%TO.N,GND*%
X38247500Y-59690000D03*
%TD*%
D11*
%TO.P,J2,1,Pin_1*%
%TO.N,/UART_TX*%
X36258500Y-21590000D03*
D12*
%TO.P,J2,2,Pin_2*%
%TO.N,GND*%
X38798500Y-21590000D03*
%TO.P,J2,3,Pin_3*%
%TO.N,+3V3*%
X36258500Y-24130000D03*
%TO.P,J2,4,Pin_4*%
%TO.N,/GPIO2*%
X38798500Y-24130000D03*
%TO.P,J2,5,Pin_5*%
%TO.N,/RST*%
X36258500Y-26670000D03*
%TO.P,J2,6,Pin_6*%
%TO.N,/GPIO0*%
X38798500Y-26670000D03*
%TO.P,J2,7,Pin_7*%
%TO.N,+3V3*%
X36258500Y-29210000D03*
%TO.P,J2,8,Pin_8*%
%TO.N,/UART_RX*%
X38798500Y-29210000D03*
%TD*%
D13*
%TO.P,Q1,1,G*%
%TO.N,+3V3*%
X45783500Y-24765000D03*
%TO.P,Q1,2,S*%
%TO.N,/GPIO2*%
X45783500Y-26665000D03*
%TO.P,Q1,3,D*%
%TO.N,Net-(J3-Pin_2)*%
X47658500Y-25715000D03*
%TD*%
D14*
%TO.P,R2,1*%
%TO.N,+5V*%
X50863500Y-27582500D03*
%TO.P,R2,2*%
%TO.N,Net-(J3-Pin_2)*%
X50863500Y-25757500D03*
%TD*%
D15*
%TO.P,CON1,1*%
%TO.N,+5V*%
X25685000Y-49276000D03*
D16*
%TO.P,CON1,2*%
%TO.N,GND*%
X19685000Y-49276000D03*
D17*
%TO.P,CON1,3*%
X22685000Y-53976000D03*
%TD*%
D11*
%TO.P,J4,1,VBUS*%
%TO.N,+5V*%
X24357500Y-36175000D03*
D18*
%TO.P,J4,2,D-*%
%TO.N,unconnected-(J4-D--Pad2)*%
X24357500Y-33675000D03*
%TO.P,J4,3,D+*%
%TO.N,unconnected-(J4-D+-Pad3)*%
X22357500Y-33675000D03*
%TO.P,J4,4,GND*%
%TO.N,GND*%
X22357500Y-36175000D03*
D19*
%TO.P,J4,5,Shield*%
X19647500Y-40945000D03*
X19647500Y-28905000D03*
%TD*%
D11*
%TO.P,J1,1,Pin_1*%
%TO.N,+3V3*%
X29845000Y-21600000D03*
D12*
%TO.P,J1,2,Pin_2*%
%TO.N,/UART_TX*%
X29845000Y-24140000D03*
%TO.P,J1,3,Pin_3*%
%TO.N,/UART_RX*%
X29845000Y-26680000D03*
%TO.P,J1,4,Pin_4*%
%TO.N,GND*%
X29845000Y-29220000D03*
%TD*%
D20*
%TO.P,TP1,1,1*%
%TO.N,+3V3*%
X45085000Y-41910000D03*
%TD*%
D21*
%TO.P,SW1,1,1*%
%TO.N,/GPIO0*%
X44450000Y-52070000D03*
X50250000Y-52070000D03*
%TO.P,SW1,2,2*%
%TO.N,GND*%
X44450000Y-56070000D03*
X50250000Y-56070000D03*
%TD*%
D22*
%TO.P,D1,1,K*%
%TO.N,Net-(D1-K)*%
X33655000Y-59690000D03*
%TO.P,D1,2,A*%
%TO.N,+5V*%
X30855000Y-59690000D03*
%TD*%
D23*
%TO.P,R1,1*%
%TO.N,+3V3*%
X42608500Y-24845000D03*
%TO.P,R1,2*%
%TO.N,/GPIO2*%
X42608500Y-26670000D03*
%TD*%
D24*
%TO.P,J3,1,Pin_1*%
%TO.N,GND*%
X59390000Y-46355000D03*
D25*
%TO.P,J3,2,Pin_2*%
%TO.N,Net-(J3-Pin_2)*%
X59390000Y-41355000D03*
%TO.P,J3,3,Pin_3*%
%TO.N,+5V*%
X59390000Y-36355000D03*
%TD*%
D26*
%TO.P,U1,1,GND*%
%TO.N,GND*%
X34275000Y-39650000D03*
%TO.P,U1,2,VO*%
%TO.N,+3V3*%
X34275000Y-41950000D03*
D27*
X40575000Y-41950000D03*
D26*
%TO.P,U1,3,VI*%
%TO.N,+5V*%
X34275000Y-44250000D03*
%TD*%
D28*
%TO.N,+5V*%
X37338000Y-37211000D03*
%TO.N,+3V3*%
X31750000Y-40640000D03*
X44132500Y-24765000D03*
%TO.N,GND*%
X39875000Y-59690000D03*
X47350000Y-55975000D03*
X37425000Y-43220000D03*
%TD*%
D29*
%TO.N,+3V3*%
X44871000Y-41950000D02*
X44958000Y-42037000D01*
X45783500Y-24765000D02*
X44132500Y-24765000D01*
X33060000Y-41950000D02*
X34275000Y-41950000D01*
X31750000Y-40640000D02*
X33060000Y-41950000D01*
X40575000Y-41950000D02*
X44871000Y-41950000D01*
X42608500Y-24845000D02*
X44052500Y-24845000D01*
X44052500Y-24845000D02*
X44132500Y-24765000D01*
%TO.N,GND*%
X47445000Y-56070000D02*
X47350000Y-55975000D01*
X38247500Y-59690000D02*
X39875000Y-59690000D01*
X44450000Y-56070000D02*
X47255000Y-56070000D01*
X35840000Y-39650000D02*
X37425000Y-41235000D01*
X34275000Y-39650000D02*
X35840000Y-39650000D01*
X37425000Y-41235000D02*
X37425000Y-43220000D01*
X50250000Y-56070000D02*
X47445000Y-56070000D01*
X47255000Y-56070000D02*
X47350000Y-55975000D01*
D30*
%TO.N,Net-(D1-K)*%
X36422500Y-59690000D02*
X33525000Y-59690000D01*
%TO.N,/UART_TX*%
X36258500Y-21590000D02*
X32385000Y-21590000D01*
X32385000Y-21590000D02*
X29845000Y-24130000D01*
%TO.N,/UART_RX*%
X29845000Y-26680000D02*
X31760000Y-26680000D01*
X31760000Y-26680000D02*
X35560000Y-30480000D01*
X35560000Y-30480000D02*
X37528500Y-30480000D01*
X37528500Y-30480000D02*
X38798500Y-29210000D01*
%TO.N,/GPIO2*%
X42608500Y-26670000D02*
X40195500Y-24257000D01*
X40195500Y-24257000D02*
X38925500Y-24257000D01*
X42608500Y-26670000D02*
X45910500Y-26670000D01*
%TO.N,/RST*%
X36258500Y-26670000D02*
X36258500Y-26733500D01*
%TO.N,Net-(J3-Pin_2)*%
X59390000Y-41355000D02*
X53975000Y-35940000D01*
X53975000Y-35940000D02*
X53975000Y-26670000D01*
X53062500Y-25757500D02*
X53975000Y-26670000D01*
X47792000Y-25757500D02*
X47688500Y-25654000D01*
X50863500Y-25757500D02*
X47792000Y-25757500D01*
X50863500Y-25757500D02*
X53062500Y-25757500D01*
%TO.N,/GPIO0*%
X44450000Y-52070000D02*
X50430000Y-52070000D01*
X50165000Y-51985000D02*
X50250000Y-52070000D01*
X50430000Y-52070000D02*
X50525000Y-52165000D01*
X38798500Y-26670000D02*
X38798500Y-27368500D01*
X38735000Y-26670000D02*
X50165000Y-38100000D01*
X50165000Y-38100000D02*
X50165000Y-52070000D01*
%TD*%
%TA.AperFunction,Conductor*%
%TO.N,+5V*%
G36*
X58885364Y-17165002D02*
G01*
X58931857Y-17218658D01*
X58941961Y-17288932D01*
X58912467Y-17353512D01*
X58869523Y-17385238D01*
X58869548Y-17385288D01*
X58869574Y-17385335D01*
X58869571Y-17385336D01*
X58869632Y-17385457D01*
X58868393Y-17386073D01*
X58868134Y-17386264D01*
X58867484Y-17386551D01*
X58867021Y-17386756D01*
X58488139Y-17597792D01*
X58130326Y-17842899D01*
X57796648Y-18119981D01*
X57489981Y-18426648D01*
X57212899Y-18760326D01*
X56967792Y-19118139D01*
X56756756Y-19497021D01*
X56756753Y-19497028D01*
X56581569Y-19893780D01*
X56581563Y-19893796D01*
X56443741Y-20305003D01*
X56443732Y-20305035D01*
X56344440Y-20727198D01*
X56284520Y-21156748D01*
X56264490Y-21590000D01*
X56284520Y-22023251D01*
X56344440Y-22452801D01*
X56443732Y-22874964D01*
X56443741Y-22874996D01*
X56570143Y-23252131D01*
X56581567Y-23286214D01*
X56756265Y-23681867D01*
X56756753Y-23682971D01*
X56756756Y-23682978D01*
X56967792Y-24061860D01*
X57189387Y-24385350D01*
X57212902Y-24419677D01*
X57450530Y-24705842D01*
X57489981Y-24753351D01*
X57796648Y-25060018D01*
X57796653Y-25060022D01*
X57796655Y-25060024D01*
X58130323Y-25337098D01*
X58161119Y-25358194D01*
X58488139Y-25582207D01*
X58867021Y-25793243D01*
X58867025Y-25793244D01*
X58867031Y-25793248D01*
X59263786Y-25968433D01*
X59675013Y-26106262D01*
X60097202Y-26205560D01*
X60526753Y-26265480D01*
X60776529Y-26277027D01*
X60851629Y-26280500D01*
X60851634Y-26280500D01*
X61068371Y-26280500D01*
X61140152Y-26277181D01*
X61393247Y-26265480D01*
X61822798Y-26205560D01*
X62244987Y-26106262D01*
X62656214Y-25968433D01*
X63052969Y-25793248D01*
X63167417Y-25729501D01*
X63431860Y-25582207D01*
X63431860Y-25582206D01*
X63431867Y-25582203D01*
X63789677Y-25337098D01*
X64123345Y-25060024D01*
X64430024Y-24753345D01*
X64707098Y-24419677D01*
X64952203Y-24061867D01*
X65045339Y-23894657D01*
X65163243Y-23682978D01*
X65163243Y-23682977D01*
X65163248Y-23682969D01*
X65163735Y-23681865D01*
X65163886Y-23681686D01*
X65164543Y-23680368D01*
X65164663Y-23680428D01*
X65164665Y-23680426D01*
X65164711Y-23680451D01*
X65164864Y-23680528D01*
X65209545Y-23627628D01*
X65277408Y-23606767D01*
X65345776Y-23625907D01*
X65392943Y-23678970D01*
X65405000Y-23732757D01*
X65405000Y-58817242D01*
X65384998Y-58885363D01*
X65331342Y-58931856D01*
X65261068Y-58941960D01*
X65196488Y-58912466D01*
X65164759Y-58869524D01*
X65164711Y-58869548D01*
X65164665Y-58869574D01*
X65164663Y-58869571D01*
X65164543Y-58869632D01*
X65163931Y-58868402D01*
X65163739Y-58868143D01*
X65163247Y-58867029D01*
X65163243Y-58867021D01*
X64952207Y-58488139D01*
X64820655Y-58296097D01*
X64707098Y-58130323D01*
X64430024Y-57796655D01*
X64430022Y-57796653D01*
X64430018Y-57796648D01*
X64123351Y-57489981D01*
X63789673Y-57212899D01*
X63431860Y-56967792D01*
X63052978Y-56756756D01*
X63052971Y-56756753D01*
X62656219Y-56581569D01*
X62656203Y-56581563D01*
X62244996Y-56443741D01*
X62244995Y-56443740D01*
X62244987Y-56443738D01*
X62244976Y-56443735D01*
X62244964Y-56443732D01*
X61822800Y-56344440D01*
X61822801Y-56344440D01*
X61393251Y-56284520D01*
X61068371Y-56269500D01*
X61068366Y-56269500D01*
X60851634Y-56269500D01*
X60851629Y-56269500D01*
X60526748Y-56284520D01*
X60097198Y-56344440D01*
X59675035Y-56443732D01*
X59675017Y-56443737D01*
X59675013Y-56443738D01*
X59675009Y-56443739D01*
X59675003Y-56443741D01*
X59263796Y-56581563D01*
X59263780Y-56581569D01*
X58867028Y-56756753D01*
X58867021Y-56756756D01*
X58488139Y-56967792D01*
X58130326Y-57212899D01*
X57796648Y-57489981D01*
X57489981Y-57796648D01*
X57212899Y-58130326D01*
X56967792Y-58488139D01*
X56756756Y-58867021D01*
X56756753Y-58867028D01*
X56581569Y-59263780D01*
X56581563Y-59263796D01*
X56443741Y-59675003D01*
X56443732Y-59675035D01*
X56344440Y-60097198D01*
X56284520Y-60526748D01*
X56264490Y-60960000D01*
X56284520Y-61393251D01*
X56344440Y-61822801D01*
X56443732Y-62244964D01*
X56443741Y-62244996D01*
X56581563Y-62656203D01*
X56581569Y-62656219D01*
X56693663Y-62910087D01*
X56756265Y-63051867D01*
X56756753Y-63052971D01*
X56756756Y-63052978D01*
X56967792Y-63431860D01*
X56967797Y-63431867D01*
X57212902Y-63789677D01*
X57453894Y-64079893D01*
X57489981Y-64123351D01*
X57796648Y-64430018D01*
X57796653Y-64430022D01*
X57796655Y-64430024D01*
X58130323Y-64707098D01*
X58324574Y-64840163D01*
X58488139Y-64952207D01*
X58867021Y-65163243D01*
X58867025Y-65163245D01*
X58867031Y-65163248D01*
X58868134Y-65163735D01*
X58868313Y-65163886D01*
X58869632Y-65164543D01*
X58869571Y-65164663D01*
X58869574Y-65164665D01*
X58869548Y-65164711D01*
X58869471Y-65164864D01*
X58922372Y-65209545D01*
X58943233Y-65277408D01*
X58924093Y-65345776D01*
X58871030Y-65392943D01*
X58817243Y-65405000D01*
X19922757Y-65405000D01*
X19854636Y-65384998D01*
X19808143Y-65331342D01*
X19798039Y-65261068D01*
X19827533Y-65196488D01*
X19870476Y-65164761D01*
X19870451Y-65164711D01*
X19870426Y-65164665D01*
X19870428Y-65164663D01*
X19870368Y-65164543D01*
X19871606Y-65163926D01*
X19871865Y-65163735D01*
X19872969Y-65163248D01*
X20251867Y-64952203D01*
X20609677Y-64707098D01*
X20943345Y-64430024D01*
X21250024Y-64123345D01*
X21527098Y-63789677D01*
X21772203Y-63431867D01*
X21802444Y-63377575D01*
X21983243Y-63052978D01*
X21983243Y-63052977D01*
X21983248Y-63052969D01*
X22158433Y-62656214D01*
X22296262Y-62244987D01*
X22395560Y-61822798D01*
X22455480Y-61393247D01*
X22475510Y-60960000D01*
X22455480Y-60526753D01*
X22395560Y-60097202D01*
X22374462Y-60007500D01*
X29595000Y-60007500D01*
X29595000Y-60826945D01*
X29601082Y-60904210D01*
X29649230Y-61083902D01*
X29733687Y-61249658D01*
X29733688Y-61249661D01*
X29850763Y-61394236D01*
X29995338Y-61511311D01*
X29995341Y-61511312D01*
X30161097Y-61595769D01*
X30340789Y-61643917D01*
X30418055Y-61650000D01*
X30537500Y-61650000D01*
X30537500Y-60007500D01*
X31172500Y-60007500D01*
X31172500Y-61650000D01*
X31291945Y-61650000D01*
X31369210Y-61643917D01*
X31548902Y-61595769D01*
X31714658Y-61511312D01*
X31714661Y-61511311D01*
X31859236Y-61394236D01*
X31976311Y-61249661D01*
X31976312Y-61249658D01*
X32060769Y-61083902D01*
X32108917Y-60904210D01*
X32115000Y-60826945D01*
X32115000Y-60007500D01*
X31172500Y-60007500D01*
X30537500Y-60007500D01*
X29595000Y-60007500D01*
X22374462Y-60007500D01*
X22296262Y-59675013D01*
X22194870Y-59372500D01*
X29595000Y-59372500D01*
X30537500Y-59372500D01*
X30537500Y-57730000D01*
X31172500Y-57730000D01*
X31172500Y-59372500D01*
X32115000Y-59372500D01*
X32115000Y-58553055D01*
X32114997Y-58553016D01*
X32394500Y-58553016D01*
X32394501Y-60826983D01*
X32400583Y-60904283D01*
X32448712Y-61083902D01*
X32448761Y-61084083D01*
X32533126Y-61249661D01*
X32533267Y-61249936D01*
X32533267Y-61249937D01*
X32650407Y-61394592D01*
X32795062Y-61511732D01*
X32795063Y-61511732D01*
X32795065Y-61511734D01*
X32960917Y-61596239D01*
X33140714Y-61644416D01*
X33208110Y-61649720D01*
X33218016Y-61650500D01*
X33218018Y-61650499D01*
X33218019Y-61650500D01*
X33654999Y-61650499D01*
X34091983Y-61650499D01*
X34130633Y-61647457D01*
X34169286Y-61644416D01*
X34349083Y-61596239D01*
X34514935Y-61511734D01*
X34659592Y-61394592D01*
X34776734Y-61249935D01*
X34861239Y-61084083D01*
X34909416Y-60904286D01*
X34915500Y-60826981D01*
X34915500Y-60546750D01*
X34935502Y-60478629D01*
X34989158Y-60432136D01*
X35041500Y-60420750D01*
X35232016Y-60420750D01*
X35300137Y-60440752D01*
X35344283Y-60489547D01*
X35393810Y-60586751D01*
X35413267Y-60624936D01*
X35413267Y-60624937D01*
X35530407Y-60769592D01*
X35675062Y-60886732D01*
X35675063Y-60886732D01*
X35675065Y-60886734D01*
X35840917Y-60971239D01*
X36020714Y-61019416D01*
X36088110Y-61024720D01*
X36098016Y-61025500D01*
X36098018Y-61025499D01*
X36098019Y-61025500D01*
X36422499Y-61025499D01*
X36746983Y-61025499D01*
X36785633Y-61022457D01*
X36824286Y-61019416D01*
X37004083Y-60971239D01*
X37169935Y-60886734D01*
X37255705Y-60817277D01*
X37321232Y-60789952D01*
X37391131Y-60802391D01*
X37414293Y-60817277D01*
X37426276Y-60826980D01*
X37500062Y-60886732D01*
X37500063Y-60886732D01*
X37500065Y-60886734D01*
X37665917Y-60971239D01*
X37845714Y-61019416D01*
X37913110Y-61024720D01*
X37923016Y-61025500D01*
X37923018Y-61025499D01*
X37923019Y-61025500D01*
X38247499Y-61025499D01*
X38571983Y-61025499D01*
X38610633Y-61022457D01*
X38649286Y-61019416D01*
X38829083Y-60971239D01*
X38994935Y-60886734D01*
X39139592Y-60769592D01*
X39160001Y-60744390D01*
X39249663Y-60633667D01*
X39254978Y-60627102D01*
X39313392Y-60586751D01*
X39384349Y-60584385D01*
X39412293Y-60595274D01*
X39484120Y-60633667D01*
X39675731Y-60691792D01*
X39675735Y-60691792D01*
X39675737Y-60691793D01*
X39874997Y-60711418D01*
X39875000Y-60711418D01*
X39875003Y-60711418D01*
X40074261Y-60691793D01*
X40074263Y-60691793D01*
X40074264Y-60691792D01*
X40074269Y-60691792D01*
X40265880Y-60633667D01*
X40442469Y-60539278D01*
X40597252Y-60412252D01*
X40724278Y-60257469D01*
X40818667Y-60080880D01*
X40876792Y-59889269D01*
X40896418Y-59690000D01*
X40876793Y-59490738D01*
X40876793Y-59490736D01*
X40876792Y-59490733D01*
X40876792Y-59490731D01*
X40818667Y-59299120D01*
X40724278Y-59122531D01*
X40597252Y-58967748D01*
X40442469Y-58840722D01*
X40442467Y-58840721D01*
X40442466Y-58840720D01*
X40265883Y-58746334D01*
X40265877Y-58746332D01*
X40074262Y-58688206D01*
X39875003Y-58668582D01*
X39874997Y-58668582D01*
X39675738Y-58688206D01*
X39675736Y-58688206D01*
X39484122Y-58746332D01*
X39484111Y-58746336D01*
X39412293Y-58784724D01*
X39342787Y-58799196D01*
X39276491Y-58773792D01*
X39254978Y-58752897D01*
X39249663Y-58746334D01*
X39139592Y-58610408D01*
X39139591Y-58610407D01*
X38994937Y-58493267D01*
X38829081Y-58408760D01*
X38649290Y-58360585D01*
X38649289Y-58360584D01*
X38649286Y-58360584D01*
X38591795Y-58356059D01*
X38571984Y-58354500D01*
X38571981Y-58354500D01*
X38247500Y-58354500D01*
X37923017Y-58354501D01*
X37845716Y-58360583D01*
X37665918Y-58408760D01*
X37500063Y-58493267D01*
X37500057Y-58493271D01*
X37414294Y-58562721D01*
X37348767Y-58590047D01*
X37278869Y-58577607D01*
X37255706Y-58562721D01*
X37169942Y-58493271D01*
X37169936Y-58493267D01*
X37169935Y-58493266D01*
X37004083Y-58408761D01*
X37004082Y-58408760D01*
X37004081Y-58408760D01*
X36824290Y-58360585D01*
X36824289Y-58360584D01*
X36824286Y-58360584D01*
X36766795Y-58356059D01*
X36746984Y-58354500D01*
X36746981Y-58354500D01*
X36422500Y-58354500D01*
X36098017Y-58354501D01*
X36020716Y-58360583D01*
X35840918Y-58408760D01*
X35675063Y-58493267D01*
X35675062Y-58493267D01*
X35530407Y-58610407D01*
X35413267Y-58755062D01*
X35413267Y-58755063D01*
X35344283Y-58890453D01*
X35295535Y-58942068D01*
X35232016Y-58959250D01*
X35041499Y-58959250D01*
X34973378Y-58939248D01*
X34926885Y-58885592D01*
X34915499Y-58833250D01*
X34915499Y-58553017D01*
X34911849Y-58506636D01*
X34909416Y-58475714D01*
X34861239Y-58295917D01*
X34776734Y-58130065D01*
X34776732Y-58130062D01*
X34659592Y-57985407D01*
X34514937Y-57868267D01*
X34349081Y-57783760D01*
X34169290Y-57735585D01*
X34169289Y-57735584D01*
X34169286Y-57735584D01*
X34111795Y-57731059D01*
X34091984Y-57729500D01*
X34091981Y-57729500D01*
X33655000Y-57729500D01*
X33218017Y-57729501D01*
X33140716Y-57735583D01*
X32960918Y-57783760D01*
X32795063Y-57868267D01*
X32795062Y-57868267D01*
X32650407Y-57985407D01*
X32533267Y-58130062D01*
X32533267Y-58130063D01*
X32448760Y-58295918D01*
X32418524Y-58408760D01*
X32400584Y-58475714D01*
X32396205Y-58531353D01*
X32394500Y-58553016D01*
X32114997Y-58553016D01*
X32108917Y-58475789D01*
X32060769Y-58296097D01*
X31976312Y-58130341D01*
X31976311Y-58130338D01*
X31859236Y-57985763D01*
X31714661Y-57868688D01*
X31714658Y-57868687D01*
X31548902Y-57784230D01*
X31369210Y-57736082D01*
X31291945Y-57730000D01*
X31172500Y-57730000D01*
X30537500Y-57730000D01*
X30418055Y-57730000D01*
X30340789Y-57736082D01*
X30161097Y-57784230D01*
X29995341Y-57868687D01*
X29995338Y-57868688D01*
X29850763Y-57985763D01*
X29733688Y-58130338D01*
X29733687Y-58130341D01*
X29649230Y-58296097D01*
X29601082Y-58475789D01*
X29595000Y-58553055D01*
X29595000Y-59372500D01*
X22194870Y-59372500D01*
X22158433Y-59263786D01*
X21983248Y-58867031D01*
X21983244Y-58867025D01*
X21983243Y-58867021D01*
X21772207Y-58488139D01*
X21640655Y-58296097D01*
X21527098Y-58130323D01*
X21250024Y-57796655D01*
X21250022Y-57796653D01*
X21250018Y-57796648D01*
X20943351Y-57489981D01*
X20609673Y-57212899D01*
X20251860Y-56967792D01*
X19872978Y-56756756D01*
X19872971Y-56756753D01*
X19476219Y-56581569D01*
X19476203Y-56581563D01*
X19064996Y-56443741D01*
X19064995Y-56443740D01*
X19064987Y-56443738D01*
X19064976Y-56443735D01*
X19064964Y-56443732D01*
X18642800Y-56344440D01*
X18642801Y-56344440D01*
X18213251Y-56284520D01*
X17888371Y-56269500D01*
X17888366Y-56269500D01*
X17671634Y-56269500D01*
X17671629Y-56269500D01*
X17346748Y-56284520D01*
X16917198Y-56344440D01*
X16495035Y-56443732D01*
X16495017Y-56443737D01*
X16495013Y-56443738D01*
X16495009Y-56443739D01*
X16495003Y-56443741D01*
X16083796Y-56581563D01*
X16083780Y-56581569D01*
X15687028Y-56756753D01*
X15687021Y-56756756D01*
X15308139Y-56967792D01*
X14950326Y-57212899D01*
X14616648Y-57489981D01*
X14309981Y-57796648D01*
X14032899Y-58130326D01*
X13787792Y-58488139D01*
X13576756Y-58867021D01*
X13576752Y-58867029D01*
X13576261Y-58868143D01*
X13576108Y-58868323D01*
X13575457Y-58869632D01*
X13575336Y-58869571D01*
X13575335Y-58869574D01*
X13575288Y-58869548D01*
X13575137Y-58869472D01*
X13530445Y-58922377D01*
X13462580Y-58943232D01*
X13394214Y-58924086D01*
X13347052Y-58871018D01*
X13335000Y-58817242D01*
X13335000Y-54920611D01*
X20299500Y-54920611D01*
X20309617Y-55063912D01*
X20309618Y-55063923D01*
X20352486Y-55254255D01*
X20363203Y-55301840D01*
X20368744Y-55315607D01*
X20454256Y-55528081D01*
X20580425Y-55736791D01*
X20738439Y-55922560D01*
X20924208Y-56080574D01*
X20992476Y-56121843D01*
X21132915Y-56206742D01*
X21359160Y-56297797D01*
X21566258Y-56344440D01*
X21597076Y-56351381D01*
X21597081Y-56351382D01*
X21663226Y-56356051D01*
X21740389Y-56361500D01*
X21740396Y-56361500D01*
X23629611Y-56361500D01*
X23701261Y-56356441D01*
X23772919Y-56351382D01*
X24010840Y-56297797D01*
X24237085Y-56206742D01*
X24445793Y-56080573D01*
X24631560Y-55922560D01*
X24789573Y-55736793D01*
X24915742Y-55528085D01*
X24924704Y-55505816D01*
X42414500Y-55505816D01*
X42414501Y-56634181D01*
X42417334Y-56670202D01*
X42417335Y-56670204D01*
X42462131Y-56824393D01*
X42543735Y-56962379D01*
X42543866Y-56962599D01*
X42543869Y-56962603D01*
X42657396Y-57076130D01*
X42657400Y-57076133D01*
X42657402Y-57076135D01*
X42795607Y-57157869D01*
X42949796Y-57202665D01*
X42958801Y-57203373D01*
X42985816Y-57205500D01*
X42985818Y-57205499D01*
X42985819Y-57205500D01*
X45182089Y-57205499D01*
X45914181Y-57205499D01*
X45926188Y-57204554D01*
X45950204Y-57202665D01*
X46104393Y-57157869D01*
X46242598Y-57076135D01*
X46242603Y-57076130D01*
X46322329Y-56996405D01*
X46384641Y-56962379D01*
X46411424Y-56959500D01*
X47075038Y-56959500D01*
X47111607Y-56964924D01*
X47150731Y-56976792D01*
X47150737Y-56976792D01*
X47150739Y-56976793D01*
X47349997Y-56996418D01*
X47350000Y-56996418D01*
X47350003Y-56996418D01*
X47549260Y-56976793D01*
X47549260Y-56976792D01*
X47549269Y-56976792D01*
X47588392Y-56964924D01*
X47624962Y-56959500D01*
X48288576Y-56959500D01*
X48356697Y-56979502D01*
X48377671Y-56996405D01*
X48457396Y-57076130D01*
X48457400Y-57076133D01*
X48457402Y-57076135D01*
X48595607Y-57157869D01*
X48749796Y-57202665D01*
X48758801Y-57203373D01*
X48785816Y-57205500D01*
X48785818Y-57205499D01*
X48785819Y-57205500D01*
X50982089Y-57205499D01*
X51714181Y-57205499D01*
X51726188Y-57204554D01*
X51750204Y-57202665D01*
X51904393Y-57157869D01*
X52042598Y-57076135D01*
X52156135Y-56962598D01*
X52237869Y-56824393D01*
X52282665Y-56670204D01*
X52285500Y-56634181D01*
X52285499Y-55505820D01*
X52282665Y-55469796D01*
X52237869Y-55315607D01*
X52156135Y-55177402D01*
X52156133Y-55177400D01*
X52156130Y-55177396D01*
X52042603Y-55063869D01*
X52042599Y-55063866D01*
X52042598Y-55063865D01*
X51904393Y-54982131D01*
X51806127Y-54953582D01*
X51750202Y-54937334D01*
X51714184Y-54934500D01*
X51714181Y-54934500D01*
X49517910Y-54934500D01*
X48785819Y-54934501D01*
X48749797Y-54937334D01*
X48595604Y-54982132D01*
X48457400Y-55063866D01*
X48457396Y-55063869D01*
X48377671Y-55143595D01*
X48315359Y-55177621D01*
X48288576Y-55180500D01*
X48029300Y-55180500D01*
X47961179Y-55160498D01*
X47949366Y-55151899D01*
X47917471Y-55125723D01*
X47917468Y-55125721D01*
X47740883Y-55031334D01*
X47740877Y-55031332D01*
X47549262Y-54973206D01*
X47350003Y-54953582D01*
X47349997Y-54953582D01*
X47150738Y-54973206D01*
X47150736Y-54973206D01*
X46959122Y-55031332D01*
X46959116Y-55031334D01*
X46782531Y-55125721D01*
X46782528Y-55125723D01*
X46750634Y-55151899D01*
X46685286Y-55179653D01*
X46670700Y-55180500D01*
X46411424Y-55180500D01*
X46343303Y-55160498D01*
X46322329Y-55143595D01*
X46242603Y-55063869D01*
X46242599Y-55063866D01*
X46242598Y-55063865D01*
X46104393Y-54982131D01*
X46006127Y-54953582D01*
X45950202Y-54937334D01*
X45914184Y-54934500D01*
X45914181Y-54934500D01*
X43717910Y-54934500D01*
X42985819Y-54934501D01*
X42949797Y-54937334D01*
X42795604Y-54982132D01*
X42657400Y-55063866D01*
X42657396Y-55063869D01*
X42543869Y-55177396D01*
X42543866Y-55177400D01*
X42462132Y-55315604D01*
X42417334Y-55469797D01*
X42414500Y-55505816D01*
X24924704Y-55505816D01*
X25006797Y-55301840D01*
X25060382Y-55063919D01*
X25070500Y-54920604D01*
X25070500Y-53031396D01*
X25060382Y-52888081D01*
X25006797Y-52650160D01*
X24915742Y-52423915D01*
X24789573Y-52215207D01*
X24631560Y-52029439D01*
X24511464Y-51927287D01*
X24459369Y-51882975D01*
X24420441Y-51823604D01*
X24419791Y-51752610D01*
X24457626Y-51692535D01*
X24521934Y-51662452D01*
X24541007Y-51661000D01*
X25367500Y-51661000D01*
X25367500Y-50666307D01*
X25475156Y-50735493D01*
X25613111Y-50776000D01*
X25756889Y-50776000D01*
X25894844Y-50735493D01*
X26002500Y-50666307D01*
X26002500Y-51661000D01*
X27499131Y-51661000D01*
X27535118Y-51658167D01*
X27535130Y-51658165D01*
X27689197Y-51613404D01*
X27827285Y-51531738D01*
X27827292Y-51531733D01*
X27940733Y-51418292D01*
X27940738Y-51418285D01*
X28022404Y-51280197D01*
X28067165Y-51126130D01*
X28067167Y-51126118D01*
X28070000Y-51090131D01*
X28070000Y-49593500D01*
X26185000Y-49593500D01*
X26185000Y-48958500D01*
X28070000Y-48958500D01*
X28070000Y-47461869D01*
X28067167Y-47425881D01*
X28067165Y-47425869D01*
X28022404Y-47271802D01*
X27940738Y-47133714D01*
X27940733Y-47133707D01*
X27827292Y-47020266D01*
X27827285Y-47020261D01*
X27689197Y-46938595D01*
X27535130Y-46893834D01*
X27535118Y-46893832D01*
X27499131Y-46891000D01*
X26002500Y-46891000D01*
X26002500Y-47885692D01*
X25894844Y-47816507D01*
X25756889Y-47776000D01*
X25613111Y-47776000D01*
X25475156Y-47816507D01*
X25367500Y-47885692D01*
X25367500Y-46891000D01*
X23870869Y-46891000D01*
X23834881Y-46893832D01*
X23834869Y-46893834D01*
X23680802Y-46938595D01*
X23542714Y-47020261D01*
X23542707Y-47020266D01*
X23429266Y-47133707D01*
X23429261Y-47133714D01*
X23347595Y-47271802D01*
X23302834Y-47425869D01*
X23302832Y-47425881D01*
X23300000Y-47461869D01*
X23300000Y-48958500D01*
X25185000Y-48958500D01*
X25185000Y-49593500D01*
X23300000Y-49593500D01*
X23300000Y-51090131D01*
X23302832Y-51126118D01*
X23302834Y-51126130D01*
X23347595Y-51280195D01*
X23418661Y-51400360D01*
X23436121Y-51469177D01*
X23413605Y-51536508D01*
X23358260Y-51580977D01*
X23310208Y-51590500D01*
X21740389Y-51590500D01*
X21597087Y-51600617D01*
X21597076Y-51600618D01*
X21359158Y-51654203D01*
X21231721Y-51705491D01*
X21161058Y-51712368D01*
X21120471Y-51691537D01*
X21118423Y-51721830D01*
X21076096Y-51778830D01*
X21065383Y-51786082D01*
X20924210Y-51871424D01*
X20738439Y-52029439D01*
X20580425Y-52215208D01*
X20454256Y-52423918D01*
X20363203Y-52650160D01*
X20309618Y-52888076D01*
X20309617Y-52888087D01*
X20299500Y-53031389D01*
X20299500Y-54920611D01*
X13335000Y-54920611D01*
X13335000Y-50370306D01*
X17549500Y-50370306D01*
X17552315Y-50423305D01*
X17597099Y-50654861D01*
X17597100Y-50654864D01*
X17680370Y-50875515D01*
X17799737Y-51078927D01*
X17951761Y-51259238D01*
X18030758Y-51325842D01*
X18132073Y-51411263D01*
X18335483Y-51530629D01*
X18556139Y-51613901D01*
X18787695Y-51658685D01*
X18840694Y-51661500D01*
X18840699Y-51661500D01*
X20529301Y-51661500D01*
X20529306Y-51661500D01*
X20582305Y-51658685D01*
X20813861Y-51613901D01*
X20955711Y-51560368D01*
X21026505Y-51555031D01*
X21064258Y-51575456D01*
X21065534Y-51547608D01*
X21106611Y-51489701D01*
X21120898Y-51479938D01*
X21237927Y-51411263D01*
X21418238Y-51259238D01*
X21570263Y-51078927D01*
X21689629Y-50875517D01*
X21772901Y-50654861D01*
X21817685Y-50423305D01*
X21820500Y-50370306D01*
X21820500Y-48181694D01*
X21817685Y-48128695D01*
X21772901Y-47897139D01*
X21689629Y-47676483D01*
X21570263Y-47473073D01*
X21530464Y-47425869D01*
X21418238Y-47292761D01*
X21237927Y-47140737D01*
X21034515Y-47021370D01*
X20813864Y-46938100D01*
X20813863Y-46938099D01*
X20813861Y-46938099D01*
X20582305Y-46893315D01*
X20529306Y-46890500D01*
X18840694Y-46890500D01*
X18787695Y-46893315D01*
X18556139Y-46938099D01*
X18556137Y-46938099D01*
X18556135Y-46938100D01*
X18335484Y-47021370D01*
X18132072Y-47140737D01*
X17951761Y-47292761D01*
X17799737Y-47473072D01*
X17680370Y-47676484D01*
X17597100Y-47897135D01*
X17597099Y-47897137D01*
X17597099Y-47897139D01*
X17552315Y-48128695D01*
X17549500Y-48181694D01*
X17549500Y-50370306D01*
X13335000Y-50370306D01*
X13335000Y-44567500D01*
X32640000Y-44567500D01*
X32640000Y-45064131D01*
X32642832Y-45100118D01*
X32642834Y-45100130D01*
X32687595Y-45254197D01*
X32769261Y-45392285D01*
X32769266Y-45392292D01*
X32882707Y-45505733D01*
X32882714Y-45505738D01*
X33020802Y-45587404D01*
X33174869Y-45632165D01*
X33174881Y-45632167D01*
X33210869Y-45635000D01*
X33957500Y-45635000D01*
X33957500Y-44567500D01*
X34592500Y-44567500D01*
X34592500Y-45635000D01*
X35339131Y-45635000D01*
X35375118Y-45632167D01*
X35375130Y-45632165D01*
X35529197Y-45587404D01*
X35667285Y-45505738D01*
X35667292Y-45505733D01*
X35780733Y-45392292D01*
X35780738Y-45392285D01*
X35862404Y-45254197D01*
X35907165Y-45100130D01*
X35907167Y-45100118D01*
X35910000Y-45064131D01*
X35910000Y-44567500D01*
X34592500Y-44567500D01*
X33957500Y-44567500D01*
X32640000Y-44567500D01*
X13335000Y-44567500D01*
X13335000Y-40945005D01*
X17257283Y-40945005D01*
X17276130Y-41244568D01*
X17332375Y-41539420D01*
X17332378Y-41539432D01*
X17425127Y-41824886D01*
X17425132Y-41824899D01*
X17552934Y-42096491D01*
X17552942Y-42096505D01*
X17713768Y-42349927D01*
X17905106Y-42581215D01*
X17905108Y-42581217D01*
X18123914Y-42786691D01*
X18123917Y-42786693D01*
X18123918Y-42786694D01*
X18134149Y-42794127D01*
X18354736Y-42954393D01*
X18366758Y-42963127D01*
X18629795Y-43107733D01*
X18803375Y-43176458D01*
X18908876Y-43218229D01*
X18908879Y-43218229D01*
X18908882Y-43218231D01*
X19199618Y-43292880D01*
X19497417Y-43330500D01*
X19497421Y-43330500D01*
X19797579Y-43330500D01*
X19797583Y-43330500D01*
X20095382Y-43292880D01*
X20386118Y-43218231D01*
X20665205Y-43107733D01*
X20928242Y-42963127D01*
X21171082Y-42786694D01*
X21389893Y-42581216D01*
X21581226Y-42349934D01*
X21581228Y-42349929D01*
X21581231Y-42349927D01*
X21727501Y-42119442D01*
X21742063Y-42096496D01*
X21869868Y-41824898D01*
X21962624Y-41539423D01*
X22018869Y-41244574D01*
X22029702Y-41072400D01*
X22037717Y-40945005D01*
X22037717Y-40944994D01*
X22022887Y-40709285D01*
X22018869Y-40645426D01*
X22017835Y-40640003D01*
X30728582Y-40640003D01*
X30748206Y-40839261D01*
X30748206Y-40839263D01*
X30806332Y-41030877D01*
X30806334Y-41030883D01*
X30890523Y-41188388D01*
X30900722Y-41207469D01*
X31027748Y-41362252D01*
X31182531Y-41489278D01*
X31359120Y-41583667D01*
X31438880Y-41607862D01*
X31491397Y-41639340D01*
X32374509Y-42522452D01*
X32387348Y-42537483D01*
X32395332Y-42548472D01*
X32421954Y-42572442D01*
X32446297Y-42594360D01*
X32448652Y-42596595D01*
X32463992Y-42611935D01*
X32480843Y-42625581D01*
X32483327Y-42627702D01*
X32534285Y-42673585D01*
X32543851Y-42679107D01*
X32546034Y-42680368D01*
X32562333Y-42691570D01*
X32568072Y-42696218D01*
X32572875Y-42700107D01*
X32574149Y-42700756D01*
X32574752Y-42701326D01*
X32578413Y-42703703D01*
X32577978Y-42704372D01*
X32625767Y-42749498D01*
X32639744Y-42794127D01*
X32641177Y-42793866D01*
X32642333Y-42800197D01*
X32642334Y-42800203D01*
X32642335Y-42800204D01*
X32687131Y-42954393D01*
X32731191Y-43028895D01*
X32735601Y-43036351D01*
X32753061Y-43105168D01*
X32735602Y-43164630D01*
X32687594Y-43245805D01*
X32642834Y-43399869D01*
X32642832Y-43399881D01*
X32640000Y-43435869D01*
X32640000Y-43932500D01*
X35910000Y-43932500D01*
X35910000Y-43435869D01*
X35907167Y-43399881D01*
X35907165Y-43399869D01*
X35862404Y-43245804D01*
X35814398Y-43164631D01*
X35796938Y-43095815D01*
X35814396Y-43036356D01*
X35862869Y-42954393D01*
X35907665Y-42800204D01*
X35910500Y-42764181D01*
X35910499Y-41282631D01*
X35930501Y-41214511D01*
X35984157Y-41168018D01*
X36054431Y-41157914D01*
X36119011Y-41187407D01*
X36125594Y-41193537D01*
X36498595Y-41566538D01*
X36532621Y-41628850D01*
X36535500Y-41655633D01*
X36535500Y-42696218D01*
X36520622Y-42755613D01*
X36481334Y-42829115D01*
X36481330Y-42829124D01*
X36423208Y-43020727D01*
X36423206Y-43020738D01*
X36403582Y-43219996D01*
X36403582Y-43220003D01*
X36423206Y-43419261D01*
X36423206Y-43419263D01*
X36481332Y-43610877D01*
X36481334Y-43610883D01*
X36575720Y-43787466D01*
X36575722Y-43787469D01*
X36702748Y-43942252D01*
X36857531Y-44069278D01*
X37034120Y-44163667D01*
X37225731Y-44221792D01*
X37225735Y-44221792D01*
X37225737Y-44221793D01*
X37424997Y-44241418D01*
X37425000Y-44241418D01*
X37425003Y-44241418D01*
X37624261Y-44221793D01*
X37624263Y-44221793D01*
X37624264Y-44221792D01*
X37624269Y-44221792D01*
X37815880Y-44163667D01*
X37992469Y-44069278D01*
X38147252Y-43942252D01*
X38274278Y-43787469D01*
X38368667Y-43610880D01*
X38426792Y-43419269D01*
X38428703Y-43399869D01*
X38446418Y-43220003D01*
X38446418Y-43219996D01*
X38426793Y-43020738D01*
X38426791Y-43020727D01*
X38368669Y-42829124D01*
X38368665Y-42829115D01*
X38329378Y-42755613D01*
X38314500Y-42696218D01*
X38314500Y-41314923D01*
X38316051Y-41295211D01*
X38318174Y-41281809D01*
X38314585Y-41213334D01*
X38314500Y-41210062D01*
X38314500Y-41188388D01*
X38314500Y-41188380D01*
X38312230Y-41166796D01*
X38311975Y-41163554D01*
X38308388Y-41095084D01*
X38304876Y-41081977D01*
X38301272Y-41062530D01*
X38299855Y-41049043D01*
X38278675Y-40983858D01*
X38277738Y-40980696D01*
X38259995Y-40914478D01*
X38259994Y-40914477D01*
X38259994Y-40914475D01*
X38253830Y-40902379D01*
X38246267Y-40884118D01*
X38242075Y-40871215D01*
X38207785Y-40811822D01*
X38206237Y-40808971D01*
X38175106Y-40747874D01*
X38166566Y-40737327D01*
X38155372Y-40721039D01*
X38148588Y-40709291D01*
X38148585Y-40709285D01*
X38102703Y-40658328D01*
X38100579Y-40655841D01*
X38092145Y-40645426D01*
X38086936Y-40638993D01*
X38071594Y-40623651D01*
X38069342Y-40621277D01*
X38023472Y-40570333D01*
X38023471Y-40570332D01*
X38023470Y-40570331D01*
X38012483Y-40562348D01*
X37997452Y-40549509D01*
X37433759Y-39985816D01*
X38939500Y-39985816D01*
X38939501Y-43914181D01*
X38942334Y-43950202D01*
X38942335Y-43950204D01*
X38987131Y-44104393D01*
X39068167Y-44241418D01*
X39068866Y-44242599D01*
X39068869Y-44242603D01*
X39182396Y-44356130D01*
X39182400Y-44356133D01*
X39182402Y-44356135D01*
X39320607Y-44437869D01*
X39474796Y-44482665D01*
X39483801Y-44483373D01*
X39510816Y-44485500D01*
X39510818Y-44485499D01*
X39510819Y-44485500D01*
X41107089Y-44485499D01*
X41639181Y-44485499D01*
X41651188Y-44484554D01*
X41675204Y-44482665D01*
X41829393Y-44437869D01*
X41967598Y-44356135D01*
X42081135Y-44242598D01*
X42162869Y-44104393D01*
X42207665Y-43950204D01*
X42210500Y-43914181D01*
X42210500Y-42965500D01*
X42230502Y-42897379D01*
X42284158Y-42850886D01*
X42336500Y-42839500D01*
X43669957Y-42839500D01*
X43738078Y-42859502D01*
X43765768Y-42883670D01*
X43924950Y-43070049D01*
X44100525Y-43220003D01*
X44120705Y-43237238D01*
X44340203Y-43371747D01*
X44578040Y-43470262D01*
X44828360Y-43530359D01*
X45085000Y-43550557D01*
X45341640Y-43530359D01*
X45591960Y-43470262D01*
X45829797Y-43371747D01*
X46049295Y-43237238D01*
X46245049Y-43070049D01*
X46412238Y-42874295D01*
X46546747Y-42654797D01*
X46645262Y-42416960D01*
X46705359Y-42166640D01*
X46725557Y-41910000D01*
X46705359Y-41653360D01*
X46645262Y-41403040D01*
X46546747Y-41165203D01*
X46412238Y-40945705D01*
X46412235Y-40945701D01*
X46245049Y-40749950D01*
X46049298Y-40582764D01*
X46049296Y-40582763D01*
X46049295Y-40582762D01*
X45829797Y-40448253D01*
X45811655Y-40440738D01*
X45591958Y-40349737D01*
X45420722Y-40308627D01*
X45341640Y-40289641D01*
X45341641Y-40289641D01*
X45085000Y-40269443D01*
X44828359Y-40289641D01*
X44578041Y-40349737D01*
X44340204Y-40448252D01*
X44120703Y-40582763D01*
X44120701Y-40582764D01*
X43924950Y-40749950D01*
X43757764Y-40945701D01*
X43757763Y-40945703D01*
X43757762Y-40945705D01*
X43724283Y-41000336D01*
X43671637Y-41047966D01*
X43616852Y-41060500D01*
X42336499Y-41060500D01*
X42268378Y-41040498D01*
X42221885Y-40986842D01*
X42210499Y-40934500D01*
X42210499Y-39985819D01*
X42207665Y-39949797D01*
X42197067Y-39913318D01*
X42162869Y-39795607D01*
X42081135Y-39657402D01*
X42081133Y-39657400D01*
X42081130Y-39657396D01*
X41967603Y-39543869D01*
X41967599Y-39543866D01*
X41967598Y-39543865D01*
X41829393Y-39462131D01*
X41752298Y-39439733D01*
X41675202Y-39417334D01*
X41639184Y-39414500D01*
X41639181Y-39414500D01*
X40042910Y-39414500D01*
X39510819Y-39414501D01*
X39474797Y-39417334D01*
X39320604Y-39462132D01*
X39182400Y-39543866D01*
X39182396Y-39543869D01*
X39068869Y-39657396D01*
X39068866Y-39657400D01*
X38987132Y-39795604D01*
X38942334Y-39949797D01*
X38939500Y-39985816D01*
X37433759Y-39985816D01*
X36525488Y-39077545D01*
X36512646Y-39062509D01*
X36504669Y-39051530D01*
X36453712Y-39005647D01*
X36451320Y-39003377D01*
X36436012Y-38988068D01*
X36436006Y-38988063D01*
X36419168Y-38974427D01*
X36416660Y-38972285D01*
X36394108Y-38951980D01*
X36365715Y-38926415D01*
X36353961Y-38919629D01*
X36337667Y-38908430D01*
X36327123Y-38899891D01*
X36266050Y-38868774D01*
X36263167Y-38867209D01*
X36203785Y-38832925D01*
X36190872Y-38828729D01*
X36172613Y-38821165D01*
X36160524Y-38815006D01*
X36160522Y-38815005D01*
X36136258Y-38808503D01*
X36094284Y-38797256D01*
X36091167Y-38796333D01*
X36073497Y-38790591D01*
X36025957Y-38775144D01*
X36012463Y-38773726D01*
X35993033Y-38770125D01*
X35979919Y-38766611D01*
X35973392Y-38765578D01*
X35973855Y-38762654D01*
X35918996Y-38743254D01*
X35875485Y-38687152D01*
X35871774Y-38676260D01*
X35870469Y-38671769D01*
X35862869Y-38645607D01*
X35781135Y-38507402D01*
X35781133Y-38507400D01*
X35781130Y-38507396D01*
X35667603Y-38393869D01*
X35667599Y-38393866D01*
X35667598Y-38393865D01*
X35529393Y-38312131D01*
X35452298Y-38289733D01*
X35375202Y-38267334D01*
X35339184Y-38264500D01*
X35339181Y-38264500D01*
X33742910Y-38264500D01*
X33210819Y-38264501D01*
X33174797Y-38267334D01*
X33020604Y-38312132D01*
X32882400Y-38393866D01*
X32882396Y-38393869D01*
X32768869Y-38507396D01*
X32768866Y-38507400D01*
X32687132Y-38645604D01*
X32642334Y-38799797D01*
X32639500Y-38835816D01*
X32639500Y-39788600D01*
X32619498Y-39856721D01*
X32565842Y-39903214D01*
X32495568Y-39913318D01*
X32433567Y-39886000D01*
X32385864Y-39846852D01*
X32317469Y-39790722D01*
X32317467Y-39790721D01*
X32317466Y-39790720D01*
X32140883Y-39696334D01*
X32140877Y-39696332D01*
X32060105Y-39671830D01*
X31949269Y-39638208D01*
X31949268Y-39638207D01*
X31949262Y-39638206D01*
X31750003Y-39618582D01*
X31749997Y-39618582D01*
X31550738Y-39638206D01*
X31550736Y-39638206D01*
X31359122Y-39696332D01*
X31359116Y-39696334D01*
X31182533Y-39790720D01*
X31027748Y-39917748D01*
X30900720Y-40072533D01*
X30806334Y-40249116D01*
X30806332Y-40249122D01*
X30748206Y-40440736D01*
X30748206Y-40440738D01*
X30728582Y-40639996D01*
X30728582Y-40640003D01*
X22017835Y-40640003D01*
X21962624Y-40350577D01*
X21962621Y-40350567D01*
X21869872Y-40065113D01*
X21869867Y-40065100D01*
X21742065Y-39793508D01*
X21742057Y-39793494D01*
X21581231Y-39540072D01*
X21389893Y-39308784D01*
X21389891Y-39308782D01*
X21171085Y-39103308D01*
X20928244Y-38926874D01*
X20819697Y-38867200D01*
X20665205Y-38782267D01*
X20566669Y-38743254D01*
X20386123Y-38671770D01*
X20386105Y-38671765D01*
X20095396Y-38597123D01*
X20095387Y-38597121D01*
X20095382Y-38597120D01*
X20095375Y-38597119D01*
X20095369Y-38597118D01*
X19797597Y-38559501D01*
X19797586Y-38559500D01*
X19797583Y-38559500D01*
X19497417Y-38559500D01*
X19497414Y-38559500D01*
X19497402Y-38559501D01*
X19199630Y-38597118D01*
X19199621Y-38597119D01*
X19199618Y-38597120D01*
X19199614Y-38597120D01*
X19199603Y-38597123D01*
X18908894Y-38671765D01*
X18908876Y-38671770D01*
X18629795Y-38782267D01*
X18366755Y-38926874D01*
X18123914Y-39103308D01*
X17905108Y-39308782D01*
X17905106Y-39308784D01*
X17713768Y-39540072D01*
X17552942Y-39793494D01*
X17552934Y-39793508D01*
X17425132Y-40065100D01*
X17425127Y-40065113D01*
X17332378Y-40350567D01*
X17332375Y-40350579D01*
X17276130Y-40645431D01*
X17257283Y-40944994D01*
X17257283Y-40945005D01*
X13335000Y-40945005D01*
X13335000Y-36175000D01*
X20866909Y-36175000D01*
X20886623Y-36412915D01*
X20887240Y-36420350D01*
X20947671Y-36658990D01*
X20947674Y-36658997D01*
X21046563Y-36884442D01*
X21181213Y-37090540D01*
X21347943Y-37271657D01*
X21347948Y-37271661D01*
X21347950Y-37271663D01*
X21542224Y-37422873D01*
X21758736Y-37540043D01*
X21758737Y-37540043D01*
X21758738Y-37540044D01*
X21862782Y-37575762D01*
X21991582Y-37619979D01*
X22234408Y-37660500D01*
X22234412Y-37660500D01*
X22480588Y-37660500D01*
X22480592Y-37660500D01*
X22723418Y-37619979D01*
X22956264Y-37540043D01*
X22984755Y-37524624D01*
X23054182Y-37509791D01*
X23108866Y-37526983D01*
X23253304Y-37612404D01*
X23407369Y-37657165D01*
X23407381Y-37657167D01*
X23443369Y-37660000D01*
X24040000Y-37660000D01*
X24040000Y-36514651D01*
X24041086Y-36516013D01*
X24155659Y-36594127D01*
X24288166Y-36635000D01*
X24391974Y-36635000D01*
X24494619Y-36619529D01*
X24619554Y-36559363D01*
X24675000Y-36507916D01*
X24675000Y-37660000D01*
X25271631Y-37660000D01*
X25307618Y-37657167D01*
X25307630Y-37657165D01*
X25461697Y-37612404D01*
X25599785Y-37530738D01*
X25599792Y-37530733D01*
X25713233Y-37417292D01*
X25713238Y-37417285D01*
X25794904Y-37279197D01*
X25839665Y-37125130D01*
X25839667Y-37125118D01*
X25842500Y-37089131D01*
X25842500Y-36492500D01*
X24691615Y-36492500D01*
X24721205Y-36465045D01*
X24790539Y-36344955D01*
X24821395Y-36209764D01*
X24811033Y-36071484D01*
X24760372Y-35942402D01*
X24692665Y-35857500D01*
X25842500Y-35857500D01*
X25842500Y-35260869D01*
X25839667Y-35224881D01*
X25839665Y-35224869D01*
X25794904Y-35070802D01*
X25713238Y-34932714D01*
X25713233Y-34932707D01*
X25599791Y-34819265D01*
X25554722Y-34792611D01*
X25506271Y-34740717D01*
X25493566Y-34670866D01*
X25520642Y-34605236D01*
X25526148Y-34598836D01*
X25533786Y-34590540D01*
X25668436Y-34384443D01*
X25767327Y-34158994D01*
X25827761Y-33920343D01*
X25848091Y-33675000D01*
X25827761Y-33429657D01*
X25767327Y-33191006D01*
X25668436Y-32965557D01*
X25533786Y-32759459D01*
X25367056Y-32578342D01*
X25357498Y-32570903D01*
X25172776Y-32427127D01*
X25172775Y-32427126D01*
X25073433Y-32373365D01*
X24956264Y-32309957D01*
X24956262Y-32309956D01*
X24956261Y-32309955D01*
X24723422Y-32230022D01*
X24723415Y-32230020D01*
X24619493Y-32212678D01*
X24480592Y-32189500D01*
X24234408Y-32189500D01*
X24112885Y-32209778D01*
X23991584Y-32230020D01*
X23991577Y-32230022D01*
X23758738Y-32309955D01*
X23758736Y-32309956D01*
X23542218Y-32427130D01*
X23434890Y-32510667D01*
X23368848Y-32536723D01*
X23299202Y-32522937D01*
X23280110Y-32510667D01*
X23172781Y-32427130D01*
X23172777Y-32427127D01*
X23172776Y-32427127D01*
X23088199Y-32381356D01*
X22956263Y-32309956D01*
X22956261Y-32309955D01*
X22723422Y-32230022D01*
X22723415Y-32230020D01*
X22619493Y-32212678D01*
X22480592Y-32189500D01*
X22234408Y-32189500D01*
X22112885Y-32209778D01*
X21991584Y-32230020D01*
X21991577Y-32230022D01*
X21758738Y-32309955D01*
X21758736Y-32309957D01*
X21542224Y-32427126D01*
X21542223Y-32427127D01*
X21347943Y-32578342D01*
X21181213Y-32759459D01*
X21046563Y-32965557D01*
X20947674Y-33191002D01*
X20947671Y-33191009D01*
X20887240Y-33429649D01*
X20866909Y-33675000D01*
X20887240Y-33920350D01*
X20947671Y-34158990D01*
X20947674Y-34158997D01*
X21046563Y-34384442D01*
X21181213Y-34590540D01*
X21347944Y-34771658D01*
X21347949Y-34771663D01*
X21417207Y-34825569D01*
X21458678Y-34883194D01*
X21462411Y-34954092D01*
X21427221Y-35015754D01*
X21417207Y-35024431D01*
X21347949Y-35078336D01*
X21347944Y-35078341D01*
X21181213Y-35259459D01*
X21046563Y-35465557D01*
X20947674Y-35691002D01*
X20947671Y-35691009D01*
X20887240Y-35929649D01*
X20887239Y-35929655D01*
X20887239Y-35929657D01*
X20866909Y-36175000D01*
X13335000Y-36175000D01*
X13335000Y-28905005D01*
X17257283Y-28905005D01*
X17276130Y-29204568D01*
X17332375Y-29499420D01*
X17332378Y-29499432D01*
X17425127Y-29784886D01*
X17425132Y-29784899D01*
X17552934Y-30056491D01*
X17552942Y-30056505D01*
X17713768Y-30309927D01*
X17905106Y-30541215D01*
X17905108Y-30541217D01*
X18123914Y-30746691D01*
X18123917Y-30746693D01*
X18123918Y-30746694D01*
X18366758Y-30923127D01*
X18629795Y-31067733D01*
X18814496Y-31140861D01*
X18908876Y-31178229D01*
X18908879Y-31178229D01*
X18908882Y-31178231D01*
X19199618Y-31252880D01*
X19497417Y-31290500D01*
X19497421Y-31290500D01*
X19797579Y-31290500D01*
X19797583Y-31290500D01*
X20095382Y-31252880D01*
X20386118Y-31178231D01*
X20665205Y-31067733D01*
X20928242Y-30923127D01*
X21171082Y-30746694D01*
X21389893Y-30541216D01*
X21581226Y-30309934D01*
X21581228Y-30309929D01*
X21581231Y-30309927D01*
X21742057Y-30056505D01*
X21742063Y-30056496D01*
X21869868Y-29784898D01*
X21896157Y-29703990D01*
X21962621Y-29499432D01*
X21962624Y-29499423D01*
X22015926Y-29220000D01*
X28354409Y-29220000D01*
X28373910Y-29455343D01*
X28374740Y-29465350D01*
X28435171Y-29703990D01*
X28435174Y-29703997D01*
X28534063Y-29929442D01*
X28668713Y-30135540D01*
X28835443Y-30316657D01*
X28835448Y-30316661D01*
X28835450Y-30316663D01*
X29029724Y-30467873D01*
X29246236Y-30585043D01*
X29246237Y-30585043D01*
X29246238Y-30585044D01*
X29368489Y-30627012D01*
X29479082Y-30664979D01*
X29721908Y-30705500D01*
X29721912Y-30705500D01*
X29968088Y-30705500D01*
X29968092Y-30705500D01*
X30210918Y-30664979D01*
X30443764Y-30585043D01*
X30660276Y-30467873D01*
X30854550Y-30316663D01*
X30863762Y-30306657D01*
X31021286Y-30135540D01*
X31072931Y-30056491D01*
X31155936Y-29929443D01*
X31254827Y-29703994D01*
X31315261Y-29465343D01*
X31335591Y-29220000D01*
X31315261Y-28974657D01*
X31254827Y-28736006D01*
X31155936Y-28510557D01*
X31025284Y-28310579D01*
X31021286Y-28304459D01*
X30854556Y-28123342D01*
X30854550Y-28123337D01*
X30759594Y-28049429D01*
X30718125Y-27991807D01*
X30714391Y-27920908D01*
X30749581Y-27859246D01*
X30759585Y-27850576D01*
X30854550Y-27776663D01*
X30863761Y-27766658D01*
X31021286Y-27595540D01*
X31104720Y-27467835D01*
X31158723Y-27421746D01*
X31210203Y-27410750D01*
X31405123Y-27410750D01*
X31473244Y-27430752D01*
X31494218Y-27447655D01*
X34999142Y-30952578D01*
X35011115Y-30966432D01*
X35024852Y-30984884D01*
X35063743Y-31017517D01*
X35067778Y-31021214D01*
X35073379Y-31026815D01*
X35094605Y-31043598D01*
X35098425Y-31046619D01*
X35155714Y-31094690D01*
X35161845Y-31098722D01*
X35161784Y-31098813D01*
X35167453Y-31102425D01*
X35167511Y-31102333D01*
X35173757Y-31106185D01*
X35173759Y-31106186D01*
X35173762Y-31106188D01*
X35241551Y-31137798D01*
X35308367Y-31171355D01*
X35308369Y-31171355D01*
X35315264Y-31173865D01*
X35315226Y-31173969D01*
X35321578Y-31176176D01*
X35321613Y-31176073D01*
X35328581Y-31178382D01*
X35401845Y-31193509D01*
X35474588Y-31210750D01*
X35474595Y-31210750D01*
X35481877Y-31211602D01*
X35481864Y-31211710D01*
X35488554Y-31212393D01*
X35488564Y-31212286D01*
X35495871Y-31212924D01*
X35495878Y-31212926D01*
X35568667Y-31210808D01*
X35570669Y-31210750D01*
X37466081Y-31210750D01*
X37484340Y-31212079D01*
X37507102Y-31215414D01*
X37537688Y-31212737D01*
X37557675Y-31210990D01*
X37563168Y-31210750D01*
X37571064Y-31210750D01*
X37586918Y-31208896D01*
X37602773Y-31207043D01*
X37677277Y-31200525D01*
X37677279Y-31200524D01*
X37677281Y-31200524D01*
X37684463Y-31199041D01*
X37684485Y-31199148D01*
X37691055Y-31197691D01*
X37691030Y-31197585D01*
X37698164Y-31195893D01*
X37698170Y-31195893D01*
X37768452Y-31170312D01*
X37839430Y-31146793D01*
X37839436Y-31146788D01*
X37846080Y-31143692D01*
X37846126Y-31143791D01*
X37852177Y-31140861D01*
X37852129Y-31140765D01*
X37858685Y-31137472D01*
X37858688Y-31137469D01*
X37858693Y-31137468D01*
X37906256Y-31106185D01*
X37921187Y-31096365D01*
X37957394Y-31074031D01*
X37984823Y-31057114D01*
X37984828Y-31057108D01*
X37990581Y-31052561D01*
X37990649Y-31052647D01*
X37995861Y-31048401D01*
X37995791Y-31048317D01*
X38001410Y-31043601D01*
X38001415Y-31043598D01*
X38052737Y-30989199D01*
X38347621Y-30694314D01*
X38409932Y-30660291D01*
X38457451Y-30659129D01*
X38675408Y-30695500D01*
X38675412Y-30695500D01*
X38921588Y-30695500D01*
X38921592Y-30695500D01*
X39164418Y-30654979D01*
X39397264Y-30575043D01*
X39613776Y-30457873D01*
X39808050Y-30306663D01*
X39974786Y-30125540D01*
X40109436Y-29919443D01*
X40208327Y-29693994D01*
X40209789Y-29688219D01*
X40258404Y-29496244D01*
X40294516Y-29435118D01*
X40357943Y-29403219D01*
X40428547Y-29410676D01*
X40469643Y-29438080D01*
X49397345Y-38365782D01*
X49431371Y-38428094D01*
X49434250Y-38454877D01*
X49434250Y-50808500D01*
X49414248Y-50876621D01*
X49360592Y-50923114D01*
X49308250Y-50934500D01*
X48785819Y-50934501D01*
X48749797Y-50937334D01*
X48595604Y-50982132D01*
X48457400Y-51063866D01*
X48457396Y-51063869D01*
X48343869Y-51177396D01*
X48343866Y-51177400D01*
X48284732Y-51277390D01*
X48232839Y-51325842D01*
X48176279Y-51339250D01*
X46523721Y-51339250D01*
X46455600Y-51319248D01*
X46415268Y-51277390D01*
X46395416Y-51243823D01*
X46356135Y-51177402D01*
X46356133Y-51177400D01*
X46356130Y-51177396D01*
X46242603Y-51063869D01*
X46242599Y-51063866D01*
X46242598Y-51063865D01*
X46104393Y-50982131D01*
X46027298Y-50959733D01*
X45950202Y-50937334D01*
X45914184Y-50934500D01*
X45914181Y-50934500D01*
X43717910Y-50934500D01*
X42985819Y-50934501D01*
X42949797Y-50937334D01*
X42795604Y-50982132D01*
X42657400Y-51063866D01*
X42657396Y-51063869D01*
X42543869Y-51177396D01*
X42543866Y-51177400D01*
X42462132Y-51315604D01*
X42462131Y-51315606D01*
X42462131Y-51315607D01*
X42455266Y-51339236D01*
X42417334Y-51469797D01*
X42414500Y-51505816D01*
X42414501Y-52634181D01*
X42417334Y-52670202D01*
X42417335Y-52670204D01*
X42462131Y-52824393D01*
X42499799Y-52888087D01*
X42543866Y-52962599D01*
X42543869Y-52962603D01*
X42657396Y-53076130D01*
X42657400Y-53076133D01*
X42657402Y-53076135D01*
X42795607Y-53157869D01*
X42949796Y-53202665D01*
X42958801Y-53203373D01*
X42985816Y-53205500D01*
X42985818Y-53205499D01*
X42985819Y-53205500D01*
X45182089Y-53205499D01*
X45914181Y-53205499D01*
X45926188Y-53204554D01*
X45950204Y-53202665D01*
X46104393Y-53157869D01*
X46242598Y-53076135D01*
X46356135Y-52962598D01*
X46415268Y-52862610D01*
X46467161Y-52814158D01*
X46523721Y-52800750D01*
X48176279Y-52800750D01*
X48244400Y-52820752D01*
X48284732Y-52862610D01*
X48343866Y-52962599D01*
X48343869Y-52962603D01*
X48457396Y-53076130D01*
X48457400Y-53076133D01*
X48457402Y-53076135D01*
X48595607Y-53157869D01*
X48749796Y-53202665D01*
X48758801Y-53203373D01*
X48785816Y-53205500D01*
X48785818Y-53205499D01*
X48785819Y-53205500D01*
X50982089Y-53205499D01*
X51714181Y-53205499D01*
X51726188Y-53204554D01*
X51750204Y-53202665D01*
X51904393Y-53157869D01*
X52042598Y-53076135D01*
X52156135Y-52962598D01*
X52237869Y-52824393D01*
X52282665Y-52670204D01*
X52283799Y-52655794D01*
X52285500Y-52634184D01*
X52285499Y-51505819D01*
X52282665Y-51469797D01*
X52282485Y-51469177D01*
X52237869Y-51315607D01*
X52156135Y-51177402D01*
X52156133Y-51177400D01*
X52156130Y-51177396D01*
X52042603Y-51063869D01*
X52042599Y-51063866D01*
X52042598Y-51063865D01*
X51904393Y-50982131D01*
X51827298Y-50959733D01*
X51750202Y-50937334D01*
X51714184Y-50934500D01*
X51714181Y-50934500D01*
X51021750Y-50934500D01*
X50953629Y-50914498D01*
X50907136Y-50860842D01*
X50895750Y-50808500D01*
X50895750Y-45090816D01*
X57554500Y-45090816D01*
X57554501Y-47619181D01*
X57557334Y-47655202D01*
X57557335Y-47655204D01*
X57602131Y-47809393D01*
X57654021Y-47897135D01*
X57683866Y-47947599D01*
X57683869Y-47947603D01*
X57797396Y-48061130D01*
X57797400Y-48061133D01*
X57797402Y-48061135D01*
X57935607Y-48142869D01*
X58089796Y-48187665D01*
X58098801Y-48188373D01*
X58125816Y-48190500D01*
X58125818Y-48190499D01*
X58125819Y-48190500D01*
X60022089Y-48190499D01*
X60654181Y-48190499D01*
X60666188Y-48189554D01*
X60690204Y-48187665D01*
X60844393Y-48142869D01*
X60982598Y-48061135D01*
X61096135Y-47947598D01*
X61177869Y-47809393D01*
X61222665Y-47655204D01*
X61225500Y-47619181D01*
X61225499Y-45090820D01*
X61222665Y-45054796D01*
X61177869Y-44900607D01*
X61096135Y-44762402D01*
X61096133Y-44762400D01*
X61096130Y-44762396D01*
X60982603Y-44648869D01*
X60982599Y-44648866D01*
X60982598Y-44648865D01*
X60844393Y-44567131D01*
X60767298Y-44544733D01*
X60690202Y-44522334D01*
X60654184Y-44519500D01*
X60654181Y-44519500D01*
X58757910Y-44519500D01*
X58125819Y-44519501D01*
X58089797Y-44522334D01*
X57935604Y-44567132D01*
X57797400Y-44648866D01*
X57797396Y-44648869D01*
X57683869Y-44762396D01*
X57683866Y-44762400D01*
X57602132Y-44900604D01*
X57557334Y-45054797D01*
X57554500Y-45090816D01*
X50895750Y-45090816D01*
X50895750Y-38162419D01*
X50897080Y-38144159D01*
X50897442Y-38141686D01*
X50900414Y-38121398D01*
X50897926Y-38092965D01*
X50895990Y-38070825D01*
X50895750Y-38065332D01*
X50895750Y-38057436D01*
X50892043Y-38025727D01*
X50892043Y-38025726D01*
X50885525Y-37951223D01*
X50885524Y-37951220D01*
X50885524Y-37951218D01*
X50884041Y-37944036D01*
X50884147Y-37944013D01*
X50882691Y-37937445D01*
X50882585Y-37937471D01*
X50880892Y-37930326D01*
X50855312Y-37860048D01*
X50854670Y-37858110D01*
X50831793Y-37789070D01*
X50831790Y-37789065D01*
X50831789Y-37789062D01*
X50828688Y-37782410D01*
X50828787Y-37782363D01*
X50825860Y-37776319D01*
X50825764Y-37776368D01*
X50822472Y-37769814D01*
X50822468Y-37769809D01*
X50822468Y-37769807D01*
X50781365Y-37707313D01*
X50752491Y-37660500D01*
X50742117Y-37643681D01*
X50737561Y-37637919D01*
X50737647Y-37637850D01*
X50733397Y-37632634D01*
X50733314Y-37632705D01*
X50728596Y-37627082D01*
X50674200Y-37575763D01*
X40998437Y-27900000D01*
X49528500Y-27900000D01*
X49528500Y-27906945D01*
X49534582Y-27984210D01*
X49582730Y-28163902D01*
X49667187Y-28329658D01*
X49667188Y-28329661D01*
X49784263Y-28474236D01*
X49928838Y-28591311D01*
X49928841Y-28591312D01*
X50094597Y-28675769D01*
X50274289Y-28723917D01*
X50351555Y-28730000D01*
X50546000Y-28730000D01*
X50546000Y-27900000D01*
X51181000Y-27900000D01*
X51181000Y-28730000D01*
X51375445Y-28730000D01*
X51452710Y-28723917D01*
X51632402Y-28675769D01*
X51798158Y-28591312D01*
X51798161Y-28591311D01*
X51942736Y-28474236D01*
X52059811Y-28329661D01*
X52059812Y-28329658D01*
X52144269Y-28163902D01*
X52192417Y-27984210D01*
X52198500Y-27906945D01*
X52198500Y-27900000D01*
X51181000Y-27900000D01*
X50546000Y-27900000D01*
X49528500Y-27900000D01*
X40998437Y-27900000D01*
X40267862Y-27169425D01*
X40233836Y-27107113D01*
X40234813Y-27049398D01*
X40241023Y-27024877D01*
X40268761Y-26915343D01*
X40289091Y-26670000D01*
X40268761Y-26424657D01*
X40231449Y-26277313D01*
X40208328Y-26186009D01*
X40208325Y-26186002D01*
X40187606Y-26138768D01*
X40109436Y-25960557D01*
X40084615Y-25922565D01*
X39974786Y-25754459D01*
X39808056Y-25573342D01*
X39808050Y-25573337D01*
X39713094Y-25499429D01*
X39671625Y-25441807D01*
X39667891Y-25370908D01*
X39703081Y-25309246D01*
X39713085Y-25300576D01*
X39808050Y-25226663D01*
X39874255Y-25154744D01*
X39935105Y-25118174D01*
X40006070Y-25120307D01*
X40056050Y-25150987D01*
X41236095Y-26331032D01*
X41270121Y-26393344D01*
X41273000Y-26420127D01*
X41273001Y-26994483D01*
X41279083Y-27071783D01*
X41308291Y-27180789D01*
X41327261Y-27251583D01*
X41392408Y-27379443D01*
X41411767Y-27417436D01*
X41411767Y-27417437D01*
X41528907Y-27562092D01*
X41673562Y-27679232D01*
X41673563Y-27679232D01*
X41673565Y-27679234D01*
X41839417Y-27763739D01*
X42019214Y-27811916D01*
X42086610Y-27817220D01*
X42096516Y-27818000D01*
X42096518Y-27817999D01*
X42096519Y-27818000D01*
X42608499Y-27817999D01*
X43120483Y-27817999D01*
X43159133Y-27814957D01*
X43197786Y-27811916D01*
X43377583Y-27763739D01*
X43543435Y-27679234D01*
X43688092Y-27562092D01*
X43780924Y-27447454D01*
X43839338Y-27407103D01*
X43878844Y-27400750D01*
X44618695Y-27400750D01*
X44686816Y-27420752D01*
X44697201Y-27429121D01*
X44697616Y-27428601D01*
X44703146Y-27433010D01*
X44703150Y-27433014D01*
X44853028Y-27527189D01*
X45020104Y-27585651D01*
X45151891Y-27600500D01*
X46415108Y-27600499D01*
X46415109Y-27600499D01*
X46431581Y-27598643D01*
X46546896Y-27585651D01*
X46713972Y-27527189D01*
X46863850Y-27433014D01*
X46989014Y-27307850D01*
X47083189Y-27157972D01*
X47141651Y-26990896D01*
X47156500Y-26859109D01*
X47156500Y-26776499D01*
X47176502Y-26708378D01*
X47230158Y-26661885D01*
X47282500Y-26650499D01*
X48290110Y-26650499D01*
X48319394Y-26647199D01*
X48421896Y-26635651D01*
X48588972Y-26577189D01*
X48680783Y-26519500D01*
X48699781Y-26507563D01*
X48766817Y-26488250D01*
X49593156Y-26488250D01*
X49661277Y-26508252D01*
X49691076Y-26534956D01*
X49736543Y-26591103D01*
X49763869Y-26656630D01*
X49751429Y-26726528D01*
X49736544Y-26749691D01*
X49667189Y-26835338D01*
X49667187Y-26835341D01*
X49582730Y-27001097D01*
X49534582Y-27180789D01*
X49528500Y-27258055D01*
X49528500Y-27265000D01*
X52198500Y-27265000D01*
X52198500Y-27258055D01*
X52192417Y-27180789D01*
X52144269Y-27001097D01*
X52059812Y-26835341D01*
X52059811Y-26835338D01*
X51990455Y-26749690D01*
X51963130Y-26684162D01*
X51975570Y-26614264D01*
X51990451Y-26591107D01*
X52035925Y-26534954D01*
X52094340Y-26494603D01*
X52133844Y-26488250D01*
X52707623Y-26488250D01*
X52775744Y-26508252D01*
X52796718Y-26525155D01*
X53207345Y-26935782D01*
X53241371Y-26998094D01*
X53244250Y-27024877D01*
X53244250Y-35877580D01*
X53242920Y-35895839D01*
X53239586Y-35918598D01*
X53239586Y-35918608D01*
X53244010Y-35969161D01*
X53244250Y-35974655D01*
X53244250Y-35982566D01*
X53247956Y-36014273D01*
X53254474Y-36088773D01*
X53255958Y-36095959D01*
X53255852Y-36095980D01*
X53257309Y-36102551D01*
X53257414Y-36102527D01*
X53259108Y-36109674D01*
X53284687Y-36179951D01*
X53308206Y-36250927D01*
X53311310Y-36257584D01*
X53311211Y-36257629D01*
X53314139Y-36263677D01*
X53314235Y-36263630D01*
X53317530Y-36270191D01*
X53358634Y-36332686D01*
X53397884Y-36396321D01*
X53402439Y-36402081D01*
X53402353Y-36402148D01*
X53406602Y-36407364D01*
X53406686Y-36407294D01*
X53411401Y-36412914D01*
X53465800Y-36464237D01*
X57625165Y-40623602D01*
X57659191Y-40685914D01*
X57654126Y-40756728D01*
X57624353Y-40836553D01*
X57624351Y-40836561D01*
X57568541Y-41093112D01*
X57549811Y-41355000D01*
X57568541Y-41616887D01*
X57576475Y-41653360D01*
X57624352Y-41873441D01*
X57637988Y-41910000D01*
X57716105Y-42119441D01*
X57716106Y-42119445D01*
X57841930Y-42349873D01*
X57841932Y-42349876D01*
X57841935Y-42349881D01*
X57999278Y-42560068D01*
X57999280Y-42560070D01*
X57999283Y-42560074D01*
X58184925Y-42745716D01*
X58184928Y-42745718D01*
X58184932Y-42745722D01*
X58395119Y-42903065D01*
X58395125Y-42903068D01*
X58395126Y-42903069D01*
X58610619Y-43020738D01*
X58625558Y-43028895D01*
X58871559Y-43120648D01*
X59128114Y-43176459D01*
X59390000Y-43195189D01*
X59651886Y-43176459D01*
X59908441Y-43120648D01*
X60154442Y-43028895D01*
X60384881Y-42903065D01*
X60595068Y-42745722D01*
X60780722Y-42560068D01*
X60938065Y-42349881D01*
X61063895Y-42119442D01*
X61155648Y-41873441D01*
X61211459Y-41616886D01*
X61230189Y-41355000D01*
X61211459Y-41093114D01*
X61155648Y-40836559D01*
X61063895Y-40590558D01*
X61045311Y-40556525D01*
X60938069Y-40360126D01*
X60938068Y-40360125D01*
X60938065Y-40360119D01*
X60780722Y-40149932D01*
X60780718Y-40149928D01*
X60780716Y-40149925D01*
X60595074Y-39964283D01*
X60595070Y-39964280D01*
X60595068Y-39964278D01*
X60384881Y-39806935D01*
X60384876Y-39806932D01*
X60384873Y-39806930D01*
X60154445Y-39681106D01*
X60154442Y-39681105D01*
X59908441Y-39589352D01*
X59908437Y-39589351D01*
X59908434Y-39589350D01*
X59651887Y-39533541D01*
X59390000Y-39514811D01*
X59128112Y-39533541D01*
X58871566Y-39589349D01*
X58791726Y-39619127D01*
X58720910Y-39624190D01*
X58658601Y-39590165D01*
X56706355Y-37637919D01*
X55423437Y-36355000D01*
X57550313Y-36355000D01*
X57569037Y-36616811D01*
X57624832Y-36873298D01*
X57716561Y-37119232D01*
X57842358Y-37349611D01*
X57842360Y-37349615D01*
X57886887Y-37409097D01*
X57886889Y-37409097D01*
X58802990Y-36492996D01*
X58805444Y-36511631D01*
X58865901Y-36657588D01*
X58962075Y-36782925D01*
X59087412Y-36879099D01*
X59233369Y-36939556D01*
X59252002Y-36942009D01*
X58335900Y-37858110D01*
X58335901Y-37858111D01*
X58395384Y-37902639D01*
X58395388Y-37902641D01*
X58625767Y-38028438D01*
X58625766Y-38028438D01*
X58871701Y-38120167D01*
X59128188Y-38175962D01*
X59390000Y-38194686D01*
X59651811Y-38175962D01*
X59908298Y-38120167D01*
X60154232Y-38028438D01*
X60384608Y-37902643D01*
X60444097Y-37858111D01*
X60444098Y-37858110D01*
X59527997Y-36942009D01*
X59546631Y-36939556D01*
X59692588Y-36879099D01*
X59817925Y-36782925D01*
X59914099Y-36657589D01*
X59974556Y-36511631D01*
X59977009Y-36492997D01*
X60893110Y-37409098D01*
X60893111Y-37409097D01*
X60937643Y-37349608D01*
X61063438Y-37119232D01*
X61155167Y-36873298D01*
X61210962Y-36616811D01*
X61229686Y-36355000D01*
X61210962Y-36093188D01*
X61155167Y-35836701D01*
X61063438Y-35590767D01*
X60937641Y-35360388D01*
X60937639Y-35360384D01*
X60893111Y-35300901D01*
X60893110Y-35300900D01*
X59977009Y-36217001D01*
X59974556Y-36198369D01*
X59914099Y-36052412D01*
X59817925Y-35927075D01*
X59692588Y-35830901D01*
X59546631Y-35770444D01*
X59527996Y-35767990D01*
X60444097Y-34851889D01*
X60444097Y-34851887D01*
X60384615Y-34807360D01*
X60384611Y-34807358D01*
X60154232Y-34681561D01*
X60154233Y-34681561D01*
X59908298Y-34589832D01*
X59651811Y-34534037D01*
X59390000Y-34515313D01*
X59128188Y-34534037D01*
X58871701Y-34589832D01*
X58625766Y-34681561D01*
X58625762Y-34681563D01*
X58395394Y-34807355D01*
X58395377Y-34807365D01*
X58335901Y-34851887D01*
X58335901Y-34851889D01*
X59252002Y-35767990D01*
X59233369Y-35770444D01*
X59087412Y-35830901D01*
X58962075Y-35927075D01*
X58865901Y-36052411D01*
X58805444Y-36198369D01*
X58802990Y-36217002D01*
X57886889Y-35300901D01*
X57886887Y-35300901D01*
X57842365Y-35360377D01*
X57842355Y-35360394D01*
X57716563Y-35590762D01*
X57716561Y-35590766D01*
X57624832Y-35836701D01*
X57569037Y-36093188D01*
X57550313Y-36355000D01*
X55423437Y-36355000D01*
X54742655Y-35674218D01*
X54708629Y-35611906D01*
X54705750Y-35585123D01*
X54705750Y-26732420D01*
X54707080Y-26714160D01*
X54707927Y-26708378D01*
X54710414Y-26691399D01*
X54706836Y-26650499D01*
X54705990Y-26640826D01*
X54705750Y-26635333D01*
X54705750Y-26627434D01*
X54702043Y-26595724D01*
X54700421Y-26577187D01*
X54695525Y-26521223D01*
X54695523Y-26521219D01*
X54694041Y-26514037D01*
X54694147Y-26514014D01*
X54692691Y-26507445D01*
X54692585Y-26507471D01*
X54690892Y-26500326D01*
X54665312Y-26430048D01*
X54663523Y-26424649D01*
X54641793Y-26359070D01*
X54641790Y-26359065D01*
X54641789Y-26359062D01*
X54638688Y-26352410D01*
X54638787Y-26352363D01*
X54635860Y-26346319D01*
X54635764Y-26346368D01*
X54632472Y-26339814D01*
X54632468Y-26339809D01*
X54632468Y-26339807D01*
X54591365Y-26277313D01*
X54584066Y-26265479D01*
X54552117Y-26213681D01*
X54547561Y-26207919D01*
X54547647Y-26207850D01*
X54543397Y-26202634D01*
X54543314Y-26202705D01*
X54538596Y-26197082D01*
X54484200Y-26145763D01*
X54067937Y-25729500D01*
X53623348Y-25284911D01*
X53611384Y-25271066D01*
X53597647Y-25252615D01*
X53597646Y-25252614D01*
X53558762Y-25219986D01*
X53554726Y-25216289D01*
X53549122Y-25210685D01*
X53524062Y-25190870D01*
X53481011Y-25154746D01*
X53466789Y-25142812D01*
X53460662Y-25138783D01*
X53460721Y-25138692D01*
X53455046Y-25135076D01*
X53454990Y-25135168D01*
X53448740Y-25131313D01*
X53380948Y-25099701D01*
X53314133Y-25066145D01*
X53314130Y-25066144D01*
X53307238Y-25063636D01*
X53307275Y-25063534D01*
X53300914Y-25061323D01*
X53300881Y-25061425D01*
X53293920Y-25059118D01*
X53220665Y-25043992D01*
X53147910Y-25026749D01*
X53140622Y-25025898D01*
X53140634Y-25025790D01*
X53133944Y-25025106D01*
X53133935Y-25025215D01*
X53126623Y-25024575D01*
X53051866Y-25026750D01*
X52133844Y-25026750D01*
X52065723Y-25006748D01*
X52035924Y-24980045D01*
X51943092Y-24865407D01*
X51798437Y-24748267D01*
X51632581Y-24663760D01*
X51452790Y-24615585D01*
X51452789Y-24615584D01*
X51452786Y-24615584D01*
X51395295Y-24611059D01*
X51375484Y-24609500D01*
X51375481Y-24609500D01*
X50863500Y-24609500D01*
X50351517Y-24609501D01*
X50274216Y-24615583D01*
X50094418Y-24663760D01*
X49928563Y-24748267D01*
X49928562Y-24748267D01*
X49783907Y-24865407D01*
X49691076Y-24980045D01*
X49632662Y-25020397D01*
X49593156Y-25026750D01*
X48870804Y-25026750D01*
X48802683Y-25006748D01*
X48781713Y-24989849D01*
X48738850Y-24946986D01*
X48609020Y-24865408D01*
X48588971Y-24852810D01*
X48421899Y-24794350D01*
X48421898Y-24794349D01*
X48421896Y-24794349D01*
X48290109Y-24779500D01*
X47282499Y-24779500D01*
X47214378Y-24759498D01*
X47167885Y-24705842D01*
X47156499Y-24653500D01*
X47156499Y-24570890D01*
X47152787Y-24537945D01*
X47141651Y-24439104D01*
X47083189Y-24272028D01*
X46989014Y-24122150D01*
X46989010Y-24122146D01*
X46989010Y-24122145D01*
X46863854Y-23996989D01*
X46863851Y-23996987D01*
X46863850Y-23996986D01*
X46778874Y-23943591D01*
X46713971Y-23902810D01*
X46546899Y-23844350D01*
X46546898Y-23844349D01*
X46546896Y-23844349D01*
X46415109Y-23829500D01*
X45151890Y-23829500D01*
X45020110Y-23844348D01*
X45020105Y-23844348D01*
X45020104Y-23844349D01*
X45020103Y-23844349D01*
X45020099Y-23844350D01*
X44951287Y-23868429D01*
X44909672Y-23875500D01*
X44656280Y-23875500D01*
X44596884Y-23860622D01*
X44523382Y-23821334D01*
X44523377Y-23821332D01*
X44331762Y-23763206D01*
X44132503Y-23743582D01*
X44132497Y-23743582D01*
X43933238Y-23763206D01*
X43933227Y-23763208D01*
X43741624Y-23821330D01*
X43741619Y-23821333D01*
X43685222Y-23851477D01*
X43615716Y-23865948D01*
X43549420Y-23840543D01*
X43546537Y-23838277D01*
X43543441Y-23835770D01*
X43543436Y-23835767D01*
X43543435Y-23835766D01*
X43377583Y-23751261D01*
X43377582Y-23751260D01*
X43377581Y-23751260D01*
X43197790Y-23703085D01*
X43197789Y-23703084D01*
X43197786Y-23703084D01*
X43140295Y-23698559D01*
X43120484Y-23697000D01*
X43120481Y-23697000D01*
X42608500Y-23697000D01*
X42096517Y-23697001D01*
X42019216Y-23703083D01*
X41839418Y-23751260D01*
X41673563Y-23835767D01*
X41673562Y-23835767D01*
X41528907Y-23952907D01*
X41411767Y-24097562D01*
X41411767Y-24097563D01*
X41411766Y-24097565D01*
X41390145Y-24140000D01*
X41374971Y-24169780D01*
X41326223Y-24221395D01*
X41257308Y-24238461D01*
X41190106Y-24215560D01*
X41173609Y-24201672D01*
X40756355Y-23784418D01*
X40744384Y-23770566D01*
X40730647Y-23752115D01*
X40730646Y-23752114D01*
X40691762Y-23719486D01*
X40687726Y-23715789D01*
X40682122Y-23710185D01*
X40657062Y-23690370D01*
X40648590Y-23683261D01*
X40599789Y-23642312D01*
X40593662Y-23638283D01*
X40593721Y-23638192D01*
X40588046Y-23634576D01*
X40587990Y-23634668D01*
X40581740Y-23630813D01*
X40513948Y-23599201D01*
X40447133Y-23565645D01*
X40447130Y-23565644D01*
X40440238Y-23563136D01*
X40440275Y-23563034D01*
X40433914Y-23560823D01*
X40433881Y-23560925D01*
X40426920Y-23558618D01*
X40353665Y-23543492D01*
X40280910Y-23526249D01*
X40273622Y-23525398D01*
X40273634Y-23525290D01*
X40266944Y-23524606D01*
X40266935Y-23524715D01*
X40259625Y-23524075D01*
X40259623Y-23524075D01*
X40259620Y-23524075D01*
X40241084Y-23524614D01*
X40172411Y-23506599D01*
X40124379Y-23454317D01*
X40122036Y-23449281D01*
X40109436Y-23420557D01*
X39974786Y-23214459D01*
X39808056Y-23033342D01*
X39808050Y-23033337D01*
X39713094Y-22959429D01*
X39671625Y-22901807D01*
X39667891Y-22830908D01*
X39703081Y-22769246D01*
X39713085Y-22760576D01*
X39808050Y-22686663D01*
X39942876Y-22540204D01*
X39974786Y-22505540D01*
X40047392Y-22394408D01*
X40109436Y-22299443D01*
X40208327Y-22073994D01*
X40268761Y-21835343D01*
X40289091Y-21590000D01*
X40268761Y-21344657D01*
X40221178Y-21156753D01*
X40208328Y-21106009D01*
X40208325Y-21106002D01*
X40167482Y-21012890D01*
X40109436Y-20880557D01*
X40095359Y-20859010D01*
X39974786Y-20674459D01*
X39808056Y-20493342D01*
X39798118Y-20485607D01*
X39613776Y-20342127D01*
X39613775Y-20342126D01*
X39432210Y-20243869D01*
X39397264Y-20224957D01*
X39397262Y-20224956D01*
X39397261Y-20224955D01*
X39164422Y-20145022D01*
X39164415Y-20145020D01*
X39060493Y-20127678D01*
X38921592Y-20104500D01*
X38675408Y-20104500D01*
X38553885Y-20124778D01*
X38432584Y-20145020D01*
X38432577Y-20145022D01*
X38199738Y-20224955D01*
X38199736Y-20224957D01*
X37983224Y-20342126D01*
X37983223Y-20342127D01*
X37841653Y-20452316D01*
X37775610Y-20478372D01*
X37705965Y-20464586D01*
X37655809Y-20417023D01*
X37614636Y-20347403D01*
X37614630Y-20347396D01*
X37501103Y-20233869D01*
X37501099Y-20233866D01*
X37501098Y-20233865D01*
X37362893Y-20152131D01*
X37285798Y-20129733D01*
X37208702Y-20107334D01*
X37172684Y-20104500D01*
X37172681Y-20104500D01*
X35801410Y-20104500D01*
X35344319Y-20104501D01*
X35308297Y-20107334D01*
X35154104Y-20152132D01*
X35015900Y-20233866D01*
X35015896Y-20233869D01*
X34902369Y-20347396D01*
X34902366Y-20347400D01*
X34820632Y-20485604D01*
X34775834Y-20639797D01*
X34773000Y-20675816D01*
X34773000Y-20733250D01*
X34752998Y-20801371D01*
X34699342Y-20847864D01*
X34647000Y-20859250D01*
X32447412Y-20859250D01*
X32429152Y-20857920D01*
X32406398Y-20854587D01*
X32406397Y-20854587D01*
X32355835Y-20859010D01*
X32350342Y-20859250D01*
X32342434Y-20859250D01*
X32318642Y-20862031D01*
X32310711Y-20862958D01*
X32306541Y-20863322D01*
X32236229Y-20869473D01*
X32229037Y-20870959D01*
X32229015Y-20870854D01*
X32222441Y-20872312D01*
X32222466Y-20872416D01*
X32215332Y-20874106D01*
X32145053Y-20899685D01*
X32074071Y-20923205D01*
X32067426Y-20926305D01*
X32067380Y-20926207D01*
X32061315Y-20929143D01*
X32061363Y-20929239D01*
X32054812Y-20932528D01*
X32011459Y-20961042D01*
X31992306Y-20973639D01*
X31928677Y-21012887D01*
X31928675Y-21012888D01*
X31928673Y-21012890D01*
X31922920Y-21017439D01*
X31922853Y-21017355D01*
X31917631Y-21021609D01*
X31917700Y-21021691D01*
X31912082Y-21026404D01*
X31860746Y-21080817D01*
X31545594Y-21395968D01*
X31483282Y-21429994D01*
X31412467Y-21424929D01*
X31355631Y-21382382D01*
X31330820Y-21315862D01*
X31330499Y-21306873D01*
X31330499Y-20685819D01*
X31327665Y-20649797D01*
X31324760Y-20639797D01*
X31282869Y-20495607D01*
X31201135Y-20357402D01*
X31201133Y-20357400D01*
X31201130Y-20357396D01*
X31087603Y-20243869D01*
X31087599Y-20243866D01*
X31087598Y-20243865D01*
X30949393Y-20162131D01*
X30870154Y-20139110D01*
X30795202Y-20117334D01*
X30759184Y-20114500D01*
X30759181Y-20114500D01*
X29387910Y-20114500D01*
X28930819Y-20114501D01*
X28894797Y-20117334D01*
X28740604Y-20162132D01*
X28602400Y-20243866D01*
X28602396Y-20243869D01*
X28488869Y-20357396D01*
X28488866Y-20357400D01*
X28407132Y-20495604D01*
X28362334Y-20649797D01*
X28359500Y-20685816D01*
X28359501Y-22514181D01*
X28362334Y-22550202D01*
X28362335Y-22550204D01*
X28407131Y-22704393D01*
X28482953Y-22832602D01*
X28488866Y-22842599D01*
X28488869Y-22842603D01*
X28602396Y-22956130D01*
X28602398Y-22956131D01*
X28602402Y-22956135D01*
X28671272Y-22996865D01*
X28719724Y-23048756D01*
X28732429Y-23118607D01*
X28705354Y-23184238D01*
X28699835Y-23190653D01*
X28668711Y-23224463D01*
X28534063Y-23430557D01*
X28435174Y-23656002D01*
X28435171Y-23656009D01*
X28374740Y-23894649D01*
X28374739Y-23894655D01*
X28374739Y-23894657D01*
X28354409Y-24140000D01*
X28373910Y-24375343D01*
X28374740Y-24385350D01*
X28435171Y-24623990D01*
X28435174Y-24623997D01*
X28534063Y-24849442D01*
X28668713Y-25055540D01*
X28835444Y-25236658D01*
X28835449Y-25236663D01*
X28930403Y-25310569D01*
X28971874Y-25368194D01*
X28975607Y-25439092D01*
X28940417Y-25500754D01*
X28930403Y-25509431D01*
X28835449Y-25583336D01*
X28835444Y-25583341D01*
X28668713Y-25764459D01*
X28534063Y-25970557D01*
X28435174Y-26196002D01*
X28435171Y-26196009D01*
X28374740Y-26434649D01*
X28374739Y-26434655D01*
X28374739Y-26434657D01*
X28354409Y-26680000D01*
X28373910Y-26915343D01*
X28374740Y-26925350D01*
X28435171Y-27163990D01*
X28435174Y-27163997D01*
X28534063Y-27389442D01*
X28668713Y-27595540D01*
X28835444Y-27776658D01*
X28835449Y-27776663D01*
X28930403Y-27850569D01*
X28971874Y-27908194D01*
X28975607Y-27979092D01*
X28940417Y-28040754D01*
X28930403Y-28049431D01*
X28835449Y-28123336D01*
X28835444Y-28123341D01*
X28668713Y-28304459D01*
X28534063Y-28510557D01*
X28435174Y-28736002D01*
X28435171Y-28736009D01*
X28374740Y-28974649D01*
X28374739Y-28974655D01*
X28374739Y-28974657D01*
X28354409Y-29220000D01*
X22015926Y-29220000D01*
X22018869Y-29204574D01*
X22029149Y-29041170D01*
X22037717Y-28905005D01*
X22037717Y-28904994D01*
X22023295Y-28675769D01*
X22018869Y-28605426D01*
X21962624Y-28310577D01*
X21962621Y-28310567D01*
X21869872Y-28025113D01*
X21869867Y-28025100D01*
X21742065Y-27753508D01*
X21742057Y-27753494D01*
X21581231Y-27500072D01*
X21389893Y-27268784D01*
X21389891Y-27268782D01*
X21171085Y-27063308D01*
X20928244Y-26886874D01*
X20887928Y-26864710D01*
X20665205Y-26742267D01*
X20536727Y-26691399D01*
X20386123Y-26631770D01*
X20386105Y-26631765D01*
X20095396Y-26557123D01*
X20095387Y-26557121D01*
X20095382Y-26557120D01*
X20095375Y-26557119D01*
X20095369Y-26557118D01*
X19797597Y-26519501D01*
X19797586Y-26519500D01*
X19797583Y-26519500D01*
X19497417Y-26519500D01*
X19497414Y-26519500D01*
X19497402Y-26519501D01*
X19199630Y-26557118D01*
X19199621Y-26557119D01*
X19199618Y-26557120D01*
X19199614Y-26557120D01*
X19199603Y-26557123D01*
X18908894Y-26631765D01*
X18908876Y-26631770D01*
X18629795Y-26742267D01*
X18366755Y-26886874D01*
X18123914Y-27063308D01*
X17905108Y-27268782D01*
X17905106Y-27268784D01*
X17713768Y-27500072D01*
X17552942Y-27753494D01*
X17552934Y-27753508D01*
X17425132Y-28025100D01*
X17425127Y-28025113D01*
X17332378Y-28310567D01*
X17332375Y-28310579D01*
X17276130Y-28605431D01*
X17257283Y-28904994D01*
X17257283Y-28905005D01*
X13335000Y-28905005D01*
X13335000Y-23732757D01*
X13355002Y-23664636D01*
X13408658Y-23618143D01*
X13478932Y-23608039D01*
X13543512Y-23637533D01*
X13575238Y-23680476D01*
X13575288Y-23680451D01*
X13575335Y-23680426D01*
X13575336Y-23680428D01*
X13575457Y-23680368D01*
X13576073Y-23681606D01*
X13576264Y-23681865D01*
X13576752Y-23682969D01*
X13576756Y-23682978D01*
X13787792Y-24061860D01*
X14009387Y-24385350D01*
X14032902Y-24419677D01*
X14270530Y-24705842D01*
X14309981Y-24753351D01*
X14616648Y-25060018D01*
X14616653Y-25060022D01*
X14616655Y-25060024D01*
X14950323Y-25337098D01*
X14981119Y-25358194D01*
X15308139Y-25582207D01*
X15687021Y-25793243D01*
X15687025Y-25793244D01*
X15687031Y-25793248D01*
X16083786Y-25968433D01*
X16495013Y-26106262D01*
X16917202Y-26205560D01*
X17346753Y-26265480D01*
X17596529Y-26277027D01*
X17671629Y-26280500D01*
X17671634Y-26280500D01*
X17888371Y-26280500D01*
X17960152Y-26277181D01*
X18213247Y-26265480D01*
X18642798Y-26205560D01*
X19064987Y-26106262D01*
X19476214Y-25968433D01*
X19872969Y-25793248D01*
X19987417Y-25729501D01*
X20251860Y-25582207D01*
X20251860Y-25582206D01*
X20251867Y-25582203D01*
X20609677Y-25337098D01*
X20943345Y-25060024D01*
X21250024Y-24753345D01*
X21527098Y-24419677D01*
X21772203Y-24061867D01*
X21865339Y-23894657D01*
X21983243Y-23682978D01*
X21983243Y-23682977D01*
X21983248Y-23682969D01*
X22158433Y-23286214D01*
X22296262Y-22874987D01*
X22395560Y-22452798D01*
X22455480Y-22023247D01*
X22475510Y-21590000D01*
X22455480Y-21156753D01*
X22395560Y-20727202D01*
X22296262Y-20305013D01*
X22158433Y-19893786D01*
X21983248Y-19497031D01*
X21983244Y-19497025D01*
X21983243Y-19497021D01*
X21772207Y-19118139D01*
X21527100Y-18760326D01*
X21519769Y-18751498D01*
X21250024Y-18426655D01*
X21250022Y-18426653D01*
X21250018Y-18426648D01*
X20943351Y-18119981D01*
X20792206Y-17994472D01*
X20609677Y-17842902D01*
X20309302Y-17637141D01*
X20251860Y-17597792D01*
X19872978Y-17386756D01*
X19872969Y-17386752D01*
X19871865Y-17386264D01*
X19871686Y-17386113D01*
X19870368Y-17385457D01*
X19870428Y-17385336D01*
X19870426Y-17385335D01*
X19870451Y-17385288D01*
X19870528Y-17385135D01*
X19817628Y-17340455D01*
X19796767Y-17272592D01*
X19815907Y-17204224D01*
X19868970Y-17157057D01*
X19922757Y-17145000D01*
X58817243Y-17145000D01*
X58885364Y-17165002D01*
G37*
%TD.AperFunction*%
%TD*%
M02*
