%TF.GenerationSoftware,KiCad,Pcbnew,9.0.0+1*%
%TF.CreationDate,2025-03-04T14:17:01+00:00*%
%TF.ProjectId,ESP01LEDDriver,45535030-314c-4454-9444-72697665722e,rev?*%
%TF.SameCoordinates,Original*%
%TF.FileFunction,Copper,L1,Top*%
%TF.FilePolarity,Positive*%
%FSLAX46Y46*%
G04 Gerber Fmt 4.6, Leading zero omitted, Abs format (unit mm)*
G04 Created by KiCad (PCBNEW 9.0.0+1) date 2025-03-04 14:17:01*
%MOMM*%
%LPD*%
G01*
G04 APERTURE LIST*
G04 Aperture macros list*
%AMRoundRect*
0 Rectangle with rounded corners*
0 $1 Rounding radius*
0 $2 $3 $4 $5 $6 $7 $8 $9 X,Y pos of 4 corners*
0 Add a 4 corners polygon primitive as box body*
4,1,4,$2,$3,$4,$5,$6,$7,$8,$9,$2,$3,0*
0 Add four circle primitives for the rounded corners*
1,1,$1+$1,$2,$3*
1,1,$1+$1,$4,$5*
1,1,$1+$1,$6,$7*
1,1,$1+$1,$8,$9*
0 Add four rect primitives between the rounded corners*
20,1,$1+$1,$2,$3,$4,$5,0*
20,1,$1+$1,$4,$5,$6,$7,0*
20,1,$1+$1,$6,$7,$8,$9,0*
20,1,$1+$1,$8,$9,$2,$3,0*%
G04 Aperture macros list end*
%TA.AperFunction,SMDPad,CuDef*%
%ADD10RoundRect,0.250000X-0.262500X-0.450000X0.262500X-0.450000X0.262500X0.450000X-0.262500X0.450000X0*%
%TD*%
%TA.AperFunction,ComponentPad*%
%ADD11R,1.700000X1.700000*%
%TD*%
%TA.AperFunction,ComponentPad*%
%ADD12O,1.700000X1.700000*%
%TD*%
%TA.AperFunction,SMDPad,CuDef*%
%ADD13RoundRect,0.250000X-0.375000X-1.075000X0.375000X-1.075000X0.375000X1.075000X-0.375000X1.075000X0*%
%TD*%
%TA.AperFunction,SMDPad,CuDef*%
%ADD14RoundRect,0.150000X-0.587500X-0.150000X0.587500X-0.150000X0.587500X0.150000X-0.587500X0.150000X0*%
%TD*%
%TA.AperFunction,SMDPad,CuDef*%
%ADD15RoundRect,0.250000X0.450000X-0.262500X0.450000X0.262500X-0.450000X0.262500X-0.450000X-0.262500X0*%
%TD*%
%TA.AperFunction,ComponentPad*%
%ADD16R,3.500000X3.500000*%
%TD*%
%TA.AperFunction,ComponentPad*%
%ADD17RoundRect,0.750000X-0.750000X-1.000000X0.750000X-1.000000X0.750000X1.000000X-0.750000X1.000000X0*%
%TD*%
%TA.AperFunction,ComponentPad*%
%ADD18RoundRect,0.875000X-0.875000X-0.875000X0.875000X-0.875000X0.875000X0.875000X-0.875000X0.875000X0*%
%TD*%
%TA.AperFunction,SMDPad,CuDef*%
%ADD19RoundRect,0.250000X0.275000X0.700000X-0.275000X0.700000X-0.275000X-0.700000X0.275000X-0.700000X0*%
%TD*%
%TA.AperFunction,SMDPad,CuDef*%
%ADD20R,2.800000X1.000000*%
%TD*%
%TA.AperFunction,SMDPad,CuDef*%
%ADD21RoundRect,0.250000X0.375000X1.075000X-0.375000X1.075000X-0.375000X-1.075000X0.375000X-1.075000X0*%
%TD*%
%TA.AperFunction,SMDPad,CuDef*%
%ADD22RoundRect,0.250000X-0.450000X0.262500X-0.450000X-0.262500X0.450000X-0.262500X0.450000X0.262500X0*%
%TD*%
%TA.AperFunction,ComponentPad*%
%ADD23C,1.700000*%
%TD*%
%TA.AperFunction,ComponentPad*%
%ADD24C,3.500000*%
%TD*%
%TA.AperFunction,ComponentPad*%
%ADD25R,2.400000X2.400000*%
%TD*%
%TA.AperFunction,ComponentPad*%
%ADD26C,2.400000*%
%TD*%
%TA.AperFunction,SMDPad,CuDef*%
%ADD27RoundRect,0.375000X-0.625000X-0.375000X0.625000X-0.375000X0.625000X0.375000X-0.625000X0.375000X0*%
%TD*%
%TA.AperFunction,SMDPad,CuDef*%
%ADD28RoundRect,0.500000X-0.500000X-1.400000X0.500000X-1.400000X0.500000X1.400000X-0.500000X1.400000X0*%
%TD*%
%TA.AperFunction,SMDPad,CuDef*%
%ADD29RoundRect,0.250000X0.262500X0.450000X-0.262500X0.450000X-0.262500X-0.450000X0.262500X-0.450000X0*%
%TD*%
%TA.AperFunction,SMDPad,CuDef*%
%ADD30R,1.200000X0.400000*%
%TD*%
%TA.AperFunction,ViaPad*%
%ADD31C,0.635000*%
%TD*%
%TA.AperFunction,ViaPad*%
%ADD32C,0.508000*%
%TD*%
%TA.AperFunction,Conductor*%
%ADD33C,0.406400*%
%TD*%
%TA.AperFunction,Conductor*%
%ADD34C,0.190500*%
%TD*%
G04 APERTURE END LIST*
D10*
%TO.P,R3,1*%
%TO.N,Net-(D1-K)*%
X36422500Y-59690000D03*
%TO.P,R3,2*%
%TO.N,GND*%
X38247500Y-59690000D03*
%TD*%
D11*
%TO.P,J2,1,Pin_1*%
%TO.N,/UART_TX*%
X36317000Y-21590000D03*
D12*
%TO.P,J2,2,Pin_2*%
%TO.N,GND*%
X38857000Y-21590000D03*
%TO.P,J2,3,Pin_3*%
%TO.N,+3V3*%
X36317000Y-24130000D03*
%TO.P,J2,4,Pin_4*%
%TO.N,/GPIO2*%
X38857000Y-24130000D03*
%TO.P,J2,5,Pin_5*%
%TO.N,+3V3*%
X36317000Y-26670000D03*
%TO.P,J2,6,Pin_6*%
%TO.N,/GPIO0*%
X38857000Y-26670000D03*
%TO.P,J2,7,Pin_7*%
%TO.N,+3V3*%
X36317000Y-29210000D03*
%TO.P,J2,8,Pin_8*%
%TO.N,/UART_RX*%
X38857000Y-29210000D03*
%TD*%
D13*
%TO.P,D3,1,K*%
%TO.N,Net-(D3-K)*%
X43685000Y-41275000D03*
%TO.P,D3,2,A*%
%TO.N,+3V3*%
X46485000Y-41275000D03*
%TD*%
%TO.P,D2,1,K*%
%TO.N,Net-(D2-K)*%
X43685000Y-36195000D03*
%TO.P,D2,2,A*%
%TO.N,+3V3*%
X46485000Y-36195000D03*
%TD*%
D14*
%TO.P,Q1,1,G*%
%TO.N,+3V3*%
X57863500Y-28387000D03*
%TO.P,Q1,2,S*%
%TO.N,/GPIO2*%
X57863500Y-30287000D03*
%TO.P,Q1,3,D*%
%TO.N,Net-(J3-Pin_2)*%
X59738500Y-29337000D03*
%TD*%
D15*
%TO.P,R2,1*%
%TO.N,+5V*%
X62992000Y-30249500D03*
%TO.P,R2,2*%
%TO.N,Net-(J3-Pin_2)*%
X62992000Y-28424500D03*
%TD*%
D16*
%TO.P,CON1,1*%
%TO.N,+5V*%
X25685000Y-49276000D03*
D17*
%TO.P,CON1,2*%
%TO.N,GND*%
X19685000Y-49276000D03*
D18*
%TO.P,CON1,3*%
X22685000Y-53976000D03*
%TD*%
D11*
%TO.P,J1,1,Pin_1*%
%TO.N,+3V3*%
X31115000Y-21590000D03*
D12*
%TO.P,J1,2,Pin_2*%
%TO.N,/UART_TX*%
X31115000Y-24130000D03*
%TO.P,J1,3,Pin_3*%
%TO.N,/UART_RX*%
X31115000Y-26670000D03*
%TO.P,J1,4,Pin_4*%
%TO.N,GND*%
X31115000Y-29210000D03*
%TD*%
D19*
%TO.P,FB1,1*%
%TO.N,+5V*%
X33071000Y-46355000D03*
%TO.P,FB1,2*%
%TO.N,/VBUS*%
X29921000Y-46355000D03*
%TD*%
D20*
%TO.P,SW1,1,1*%
%TO.N,/GPIO0*%
X44471000Y-51975000D03*
X50271000Y-51975000D03*
%TO.P,SW1,2,2*%
%TO.N,GND*%
X44471000Y-55975000D03*
X50271000Y-55975000D03*
%TD*%
D21*
%TO.P,D1,1,K*%
%TO.N,Net-(D1-K)*%
X33655000Y-59690000D03*
%TO.P,D1,2,A*%
%TO.N,+5V*%
X30855000Y-59690000D03*
%TD*%
D22*
%TO.P,R1,1*%
%TO.N,+3V3*%
X54737000Y-28424500D03*
%TO.P,R1,2*%
%TO.N,/GPIO2*%
X54737000Y-30249500D03*
%TD*%
D11*
%TO.P,J5,1,VBUS*%
%TO.N,/VBUS*%
X26582500Y-36810000D03*
D23*
%TO.P,J5,2,D-*%
%TO.N,Net-(J5-D-)*%
X26582500Y-34310000D03*
%TO.P,J5,3,D+*%
%TO.N,Net-(J5-D+)*%
X24582500Y-34310000D03*
%TO.P,J5,4,GND*%
%TO.N,GND*%
X24582500Y-36810000D03*
D24*
%TO.P,J5,5,Shield*%
X21872500Y-41580000D03*
X21872500Y-29540000D03*
%TD*%
D25*
%TO.P,J3,1,Pin_1*%
%TO.N,GND*%
X59390000Y-46355000D03*
D26*
%TO.P,J3,2,Pin_2*%
%TO.N,Net-(J3-Pin_2)*%
X59390000Y-41355000D03*
%TO.P,J3,3,Pin_3*%
%TO.N,+5V*%
X59390000Y-36355000D03*
%TD*%
D27*
%TO.P,U1,1,GND*%
%TO.N,GND*%
X44736500Y-21703000D03*
%TO.P,U1,2,VO*%
%TO.N,+3V3*%
X44736500Y-24003000D03*
D28*
X51036500Y-24003000D03*
D27*
%TO.P,U1,3,VI*%
%TO.N,+5V*%
X44736500Y-26303000D03*
%TD*%
D29*
%TO.P,R7,1*%
%TO.N,Net-(D2-K)*%
X41552500Y-36195000D03*
%TO.P,R7,2*%
%TO.N,/TXLED*%
X39727500Y-36195000D03*
%TD*%
%TO.P,R8,1*%
%TO.N,Net-(D3-K)*%
X41552500Y-41275000D03*
%TO.P,R8,2*%
%TO.N,/RXLED*%
X39727500Y-41275000D03*
%TD*%
D30*
%TO.P,U2,1,~{DTR}*%
%TO.N,unconnected-(U2-~{DTR}-Pad1)*%
X31690000Y-35877500D03*
%TO.P,U2,2,~{RTS}*%
%TO.N,unconnected-(U2-~{RTS}-Pad2)*%
X31690000Y-36512500D03*
%TO.P,U2,3,VCCIO*%
%TO.N,+3V3*%
X31690000Y-37147500D03*
%TO.P,U2,4,RXD*%
%TO.N,/UART_TX*%
X31690000Y-37782500D03*
%TO.P,U2,5,~{RI}*%
%TO.N,unconnected-(U2-~{RI}-Pad5)*%
X31690000Y-38417500D03*
%TO.P,U2,6,GND*%
%TO.N,GND*%
X31690000Y-39052500D03*
%TO.P,U2,7,~{DSR}*%
%TO.N,unconnected-(U2-~{DSR}-Pad7)*%
X31690000Y-39687500D03*
%TO.P,U2,8,~{DCD}*%
%TO.N,unconnected-(U2-~{DCD}-Pad8)*%
X31690000Y-40322500D03*
%TO.P,U2,9,~{CTS}*%
%TO.N,unconnected-(U2-~{CTS}-Pad9)*%
X31690000Y-40957500D03*
%TO.P,U2,10,CBUS2*%
%TO.N,/RXLED*%
X31690000Y-41592500D03*
%TO.P,U2,11,USBDP*%
%TO.N,Net-(U2-USBDP)*%
X36890000Y-41592500D03*
%TO.P,U2,12,USBDM*%
%TO.N,Net-(U2-USBDM)*%
X36890000Y-40957500D03*
%TO.P,U2,13,3V3OUT*%
%TO.N,unconnected-(U2-3V3OUT-Pad13)*%
X36890000Y-40322500D03*
%TO.P,U2,14,~{RESET}*%
%TO.N,+3V3*%
X36890000Y-39687500D03*
%TO.P,U2,15,VCC*%
%TO.N,+5V*%
X36890000Y-39052500D03*
%TO.P,U2,16,GND*%
%TO.N,GND*%
X36890000Y-38417500D03*
%TO.P,U2,17,CBUS1*%
%TO.N,/TXLED*%
X36890000Y-37782500D03*
%TO.P,U2,18,CBUS0*%
%TO.N,unconnected-(U2-CBUS0-Pad18)*%
X36890000Y-37147500D03*
%TO.P,U2,19,CBUS3*%
%TO.N,unconnected-(U2-CBUS3-Pad19)*%
X36890000Y-36512500D03*
%TO.P,U2,20,TXD*%
%TO.N,/UART_RX*%
X36890000Y-35877500D03*
%TD*%
D31*
%TO.N,+5V*%
X45085000Y-38735000D03*
X50673000Y-20955000D03*
X47625000Y-38735000D03*
X47879000Y-18415000D03*
%TO.N,+3V3*%
X35306000Y-39941500D03*
X56261000Y-28448000D03*
X34544000Y-36576000D03*
X49022000Y-22733000D03*
X42545000Y-23495000D03*
X46355000Y-34290000D03*
%TO.N,GND*%
X39875000Y-59690000D03*
X47350000Y-55975000D03*
X33528000Y-33909000D03*
X30480000Y-39116000D03*
X30480000Y-42418000D03*
X35069937Y-38844063D03*
X41656000Y-21703000D03*
X47498000Y-24180800D03*
D32*
%TO.N,/UART_RX*%
X36957000Y-34798000D03*
D31*
%TO.N,/VBUS*%
X28321000Y-44958000D03*
D32*
%TO.N,/GPIO0*%
X47371000Y-51943000D03*
%TO.N,Net-(U2-USBDM)*%
X38227000Y-41021000D03*
%TO.N,Net-(U2-USBDP)*%
X32893000Y-40640000D03*
%TD*%
D33*
%TO.N,+5V*%
X36890000Y-39052500D02*
X37909500Y-39052500D01*
%TO.N,+3V3*%
X45085000Y-24003000D02*
X44736500Y-24003000D01*
X49022000Y-24511000D02*
X48387000Y-25146000D01*
X54760500Y-28448000D02*
X56261000Y-28448000D01*
X57863500Y-28387000D02*
X57802500Y-28448000D01*
X46228000Y-25146000D02*
X45085000Y-24003000D01*
X46355000Y-41145000D02*
X46355000Y-36325000D01*
X57802500Y-28448000D02*
X56261000Y-28448000D01*
X34290000Y-36830000D02*
X33909000Y-37211000D01*
X48387000Y-25146000D02*
X46228000Y-25146000D01*
X34544000Y-36576000D02*
X34290000Y-36830000D01*
X35560000Y-39687500D02*
X36890000Y-39687500D01*
X46355000Y-34290000D02*
X46485000Y-34420000D01*
X54737000Y-28424500D02*
X54760500Y-28448000D01*
X36258500Y-26670000D02*
X36258500Y-26733500D01*
X49022000Y-22733000D02*
X49022000Y-24511000D01*
X46485000Y-34420000D02*
X46485000Y-36195000D01*
X46355000Y-36325000D02*
X46485000Y-36195000D01*
X34353500Y-39941500D02*
X33909000Y-39497000D01*
X51036500Y-24003000D02*
X50292000Y-24003000D01*
X31690000Y-37147500D02*
X33972500Y-37147500D01*
X33909000Y-39497000D02*
X33909000Y-37211000D01*
X35306000Y-39941500D02*
X34353500Y-39941500D01*
X44736500Y-24003000D02*
X43053000Y-24003000D01*
X35306000Y-39941500D02*
X35560000Y-39687500D01*
X50292000Y-24003000D02*
X49022000Y-22733000D01*
X33972500Y-37147500D02*
X34290000Y-36830000D01*
X46485000Y-41275000D02*
X46355000Y-41145000D01*
X43053000Y-24003000D02*
X42545000Y-23495000D01*
%TO.N,GND*%
X35550427Y-38363573D02*
X35550427Y-35931427D01*
X47498000Y-24180800D02*
X47498000Y-22899500D01*
X38247500Y-59690000D02*
X39875000Y-59690000D01*
X38911500Y-21703000D02*
X38798500Y-21590000D01*
X46301500Y-21703000D02*
X44736500Y-21703000D01*
X35550427Y-35931427D02*
X33528000Y-33909000D01*
X44471000Y-55975000D02*
X47350000Y-55975000D01*
X30480000Y-39116000D02*
X30543500Y-39052500D01*
X35069937Y-38844063D02*
X35496500Y-38417500D01*
X47498000Y-22899500D02*
X46301500Y-21703000D01*
X50271000Y-55975000D02*
X47350000Y-55975000D01*
X30543500Y-39052500D02*
X31690000Y-39052500D01*
X44736500Y-21703000D02*
X38911500Y-21703000D01*
X35496500Y-38417500D02*
X36890000Y-38417500D01*
X35069937Y-38844063D02*
X35550427Y-38363573D01*
X30480000Y-42418000D02*
X30480000Y-39116000D01*
D34*
%TO.N,Net-(D1-K)*%
X36422500Y-59690000D02*
X33525000Y-59690000D01*
%TO.N,/UART_TX*%
X30543500Y-37782500D02*
X31690000Y-37782500D01*
X33655000Y-21590000D02*
X36317000Y-21590000D01*
X28956000Y-36195000D02*
X30543500Y-37782500D01*
X28956000Y-26289000D02*
X28956000Y-36195000D01*
X31115000Y-24130000D02*
X33655000Y-21590000D01*
X31115000Y-24130000D02*
X28956000Y-26289000D01*
%TO.N,/UART_RX*%
X37592000Y-28003500D02*
X38798500Y-29210000D01*
X31115000Y-26670000D02*
X34925000Y-22860000D01*
X37592000Y-23368000D02*
X37592000Y-28003500D01*
X36890000Y-35877500D02*
X36957000Y-35810500D01*
X36957000Y-35810500D02*
X36957000Y-34798000D01*
X37084000Y-22860000D02*
X37592000Y-23368000D01*
X34925000Y-22860000D02*
X37084000Y-22860000D01*
%TO.N,/GPIO2*%
X54840500Y-30353000D02*
X58039000Y-30353000D01*
X38925500Y-24257000D02*
X38989000Y-24257000D01*
X38989000Y-24257000D02*
X45085000Y-30353000D01*
X54633500Y-30353000D02*
X54737000Y-30249500D01*
X45085000Y-30353000D02*
X54633500Y-30353000D01*
X54737000Y-30249500D02*
X54840500Y-30353000D01*
%TO.N,Net-(J3-Pin_2)*%
X62230000Y-38515000D02*
X59390000Y-41355000D01*
X62230000Y-34544000D02*
X62230000Y-38515000D01*
X59738500Y-32052500D02*
X62230000Y-34544000D01*
X59738500Y-29337000D02*
X60960000Y-29337000D01*
X59920500Y-29440500D02*
X59817000Y-29337000D01*
X61872500Y-28424500D02*
X62992000Y-28424500D01*
X60960000Y-29337000D02*
X61872500Y-28424500D01*
X59738500Y-29337000D02*
X59738500Y-32052500D01*
D33*
%TO.N,/VBUS*%
X29718000Y-46355000D02*
X29921000Y-46355000D01*
X28321000Y-44958000D02*
X26582500Y-43219500D01*
X29896000Y-46330000D02*
X29921000Y-46355000D01*
X26582500Y-43219500D02*
X26582500Y-36810000D01*
X28321000Y-44958000D02*
X29718000Y-46355000D01*
D34*
%TO.N,/GPIO0*%
X44503000Y-51943000D02*
X50303000Y-51943000D01*
X50165000Y-51985000D02*
X50261000Y-51985000D01*
X50261000Y-51985000D02*
X50271000Y-51975000D01*
X50303000Y-51943000D02*
X50525000Y-52165000D01*
X38798500Y-26670000D02*
X38798500Y-27368500D01*
X44471000Y-51975000D02*
X44503000Y-51943000D01*
%TO.N,Net-(D2-K)*%
X43685000Y-36195000D02*
X41552500Y-36195000D01*
%TO.N,Net-(D3-K)*%
X41552500Y-41275000D02*
X43685000Y-41275000D01*
%TO.N,Net-(U2-USBDM)*%
X36953500Y-41021000D02*
X36890000Y-40957500D01*
X38227000Y-41021000D02*
X36953500Y-41021000D01*
%TO.N,Net-(U2-USBDP)*%
X33845500Y-41592500D02*
X36890000Y-41592500D01*
X32893000Y-40640000D02*
X33845500Y-41592500D01*
%TO.N,/TXLED*%
X39727500Y-36195000D02*
X38140000Y-37782500D01*
X38140000Y-37782500D02*
X36890000Y-37782500D01*
%TO.N,/RXLED*%
X39727500Y-41275000D02*
X38330500Y-42672000D01*
X32769500Y-42672000D02*
X31690000Y-41592500D01*
X38330500Y-42672000D02*
X32769500Y-42672000D01*
%TD*%
%TA.AperFunction,Conductor*%
%TO.N,+5V*%
G36*
X63444779Y-17162759D02*
G01*
X63733747Y-17334946D01*
X63742458Y-17340637D01*
X63898020Y-17451706D01*
X64075655Y-17578535D01*
X64083872Y-17584931D01*
X64396279Y-17849525D01*
X64403941Y-17856579D01*
X64693420Y-18146058D01*
X64700474Y-18153720D01*
X64965068Y-18466127D01*
X64971464Y-18474344D01*
X65209357Y-18807533D01*
X65215052Y-18816249D01*
X65387241Y-19105220D01*
X65405000Y-19169716D01*
X65405000Y-63380282D01*
X65387241Y-63444780D01*
X65215053Y-63733748D01*
X65209357Y-63742466D01*
X64971464Y-64075655D01*
X64965068Y-64083872D01*
X64700474Y-64396279D01*
X64693420Y-64403941D01*
X64403941Y-64693420D01*
X64396279Y-64700474D01*
X64083872Y-64965068D01*
X64075655Y-64971464D01*
X63742466Y-65209357D01*
X63733748Y-65215053D01*
X63444780Y-65387241D01*
X63380282Y-65405000D01*
X15359718Y-65405000D01*
X15295221Y-65387241D01*
X15006252Y-65215053D01*
X14997533Y-65209357D01*
X14664344Y-64971464D01*
X14656127Y-64965068D01*
X14343720Y-64700474D01*
X14336058Y-64693420D01*
X14046579Y-64403941D01*
X14039525Y-64396279D01*
X13774931Y-64083872D01*
X13768535Y-64075655D01*
X13530637Y-63742458D01*
X13524946Y-63733747D01*
X13352759Y-63444779D01*
X13335000Y-63380282D01*
X13335000Y-60825189D01*
X15379500Y-60825189D01*
X15379500Y-61094810D01*
X15409688Y-61362735D01*
X15469685Y-61625597D01*
X15558726Y-61880061D01*
X15558737Y-61880088D01*
X15675717Y-62123000D01*
X15819159Y-62351286D01*
X15987268Y-62562088D01*
X16177911Y-62752731D01*
X16388713Y-62920840D01*
X16616999Y-63064282D01*
X16617002Y-63064283D01*
X16617003Y-63064284D01*
X16859921Y-63181267D01*
X16859937Y-63181272D01*
X16859938Y-63181273D01*
X17114402Y-63270314D01*
X17114405Y-63270314D01*
X17114409Y-63270316D01*
X17377268Y-63330312D01*
X17567248Y-63351717D01*
X17645189Y-63360500D01*
X17645191Y-63360500D01*
X17914811Y-63360500D01*
X17982853Y-63352833D01*
X18182732Y-63330312D01*
X18445591Y-63270316D01*
X18700079Y-63181267D01*
X18942997Y-63064284D01*
X19171289Y-62920838D01*
X19382085Y-62752734D01*
X19572734Y-62562085D01*
X19740838Y-62351289D01*
X19884284Y-62122997D01*
X20001267Y-61880079D01*
X20083730Y-61644414D01*
X20090314Y-61625597D01*
X20090314Y-61625596D01*
X20090316Y-61625591D01*
X20150312Y-61362732D01*
X20180500Y-61094809D01*
X20180500Y-60826938D01*
X29595000Y-60826938D01*
X29601082Y-60904210D01*
X29649230Y-61083902D01*
X29733687Y-61249658D01*
X29733688Y-61249661D01*
X29850763Y-61394236D01*
X29995338Y-61511311D01*
X29995341Y-61511312D01*
X30161097Y-61595769D01*
X30340789Y-61643917D01*
X30418061Y-61650000D01*
X30537500Y-61650000D01*
X31172500Y-61650000D01*
X31291939Y-61650000D01*
X31369210Y-61643917D01*
X31548902Y-61595769D01*
X31714658Y-61511312D01*
X31714661Y-61511311D01*
X31859236Y-61394236D01*
X31976311Y-61249661D01*
X31976312Y-61249658D01*
X32060769Y-61083902D01*
X32108917Y-60904210D01*
X32115000Y-60826938D01*
X32115000Y-60007500D01*
X31172500Y-60007500D01*
X31172500Y-61650000D01*
X30537500Y-61650000D01*
X30537500Y-60007500D01*
X29595000Y-60007500D01*
X29595000Y-60826938D01*
X20180500Y-60826938D01*
X20180500Y-60825191D01*
X20179608Y-60817278D01*
X20171396Y-60744390D01*
X20150312Y-60557268D01*
X20090316Y-60294409D01*
X20001267Y-60039921D01*
X19884284Y-59797003D01*
X19884283Y-59797002D01*
X19884282Y-59796999D01*
X19740840Y-59568713D01*
X19572731Y-59357911D01*
X19382088Y-59167268D01*
X19171286Y-58999159D01*
X18943000Y-58855717D01*
X18700088Y-58738737D01*
X18700083Y-58738735D01*
X18700079Y-58738733D01*
X18700073Y-58738730D01*
X18700061Y-58738726D01*
X18502260Y-58669513D01*
X18445597Y-58649685D01*
X18182735Y-58589688D01*
X17914811Y-58559500D01*
X17914809Y-58559500D01*
X17645191Y-58559500D01*
X17645189Y-58559500D01*
X17377264Y-58589688D01*
X17114402Y-58649685D01*
X16859938Y-58738726D01*
X16859911Y-58738737D01*
X16616999Y-58855717D01*
X16388713Y-58999159D01*
X16177911Y-59167268D01*
X15987268Y-59357911D01*
X15819159Y-59568713D01*
X15675717Y-59796999D01*
X15558737Y-60039911D01*
X15558726Y-60039938D01*
X15469685Y-60294402D01*
X15409688Y-60557264D01*
X15379500Y-60825189D01*
X13335000Y-60825189D01*
X13335000Y-58553061D01*
X29595000Y-58553061D01*
X29595000Y-59372500D01*
X30537500Y-59372500D01*
X31172500Y-59372500D01*
X32115000Y-59372500D01*
X32115000Y-58553070D01*
X32114999Y-58553052D01*
X32114996Y-58553019D01*
X32394500Y-58553019D01*
X32394500Y-58553022D01*
X32394500Y-60826979D01*
X32400583Y-60904283D01*
X32448712Y-61083902D01*
X32448761Y-61084083D01*
X32533126Y-61249661D01*
X32533267Y-61249936D01*
X32533267Y-61249937D01*
X32650407Y-61394592D01*
X32795062Y-61511732D01*
X32795063Y-61511732D01*
X32795065Y-61511734D01*
X32960917Y-61596239D01*
X33140714Y-61644416D01*
X33218019Y-61650500D01*
X34091980Y-61650499D01*
X34169286Y-61644416D01*
X34349083Y-61596239D01*
X34514935Y-61511734D01*
X34659592Y-61394592D01*
X34776734Y-61249935D01*
X34861239Y-61084083D01*
X34909416Y-60904286D01*
X34915500Y-60826981D01*
X34915500Y-60546750D01*
X34918091Y-60537924D01*
X34916782Y-60528818D01*
X34927937Y-60504392D01*
X34935502Y-60478629D01*
X34942455Y-60472604D01*
X34946276Y-60464238D01*
X34968861Y-60449723D01*
X34989158Y-60432136D01*
X34999844Y-60429811D01*
X35006002Y-60425854D01*
X35041500Y-60420750D01*
X35232016Y-60420750D01*
X35300137Y-60440752D01*
X35344283Y-60489547D01*
X35403810Y-60606377D01*
X35413267Y-60624936D01*
X35413267Y-60624937D01*
X35530407Y-60769592D01*
X35675062Y-60886732D01*
X35675063Y-60886732D01*
X35675065Y-60886734D01*
X35840917Y-60971239D01*
X36020714Y-61019416D01*
X36098019Y-61025500D01*
X36746980Y-61025499D01*
X36824286Y-61019416D01*
X37004083Y-60971239D01*
X37169935Y-60886734D01*
X37255705Y-60817277D01*
X37321232Y-60789952D01*
X37391131Y-60802391D01*
X37414293Y-60817277D01*
X37426276Y-60826980D01*
X37500062Y-60886732D01*
X37500063Y-60886732D01*
X37500065Y-60886734D01*
X37665917Y-60971239D01*
X37845714Y-61019416D01*
X37923019Y-61025500D01*
X38571980Y-61025499D01*
X38649286Y-61019416D01*
X38829083Y-60971239D01*
X38994935Y-60886734D01*
X39070936Y-60825189D01*
X58559500Y-60825189D01*
X58559500Y-61094810D01*
X58589688Y-61362735D01*
X58649685Y-61625597D01*
X58738726Y-61880061D01*
X58738737Y-61880088D01*
X58855717Y-62123000D01*
X58999159Y-62351286D01*
X59167268Y-62562088D01*
X59357911Y-62752731D01*
X59568713Y-62920840D01*
X59796999Y-63064282D01*
X59797002Y-63064283D01*
X59797003Y-63064284D01*
X60039921Y-63181267D01*
X60039937Y-63181272D01*
X60039938Y-63181273D01*
X60294402Y-63270314D01*
X60294405Y-63270314D01*
X60294409Y-63270316D01*
X60557268Y-63330312D01*
X60747248Y-63351717D01*
X60825189Y-63360500D01*
X60825191Y-63360500D01*
X61094811Y-63360500D01*
X61162853Y-63352833D01*
X61362732Y-63330312D01*
X61625591Y-63270316D01*
X61880079Y-63181267D01*
X62122997Y-63064284D01*
X62351289Y-62920838D01*
X62562085Y-62752734D01*
X62752734Y-62562085D01*
X62920838Y-62351289D01*
X63064284Y-62122997D01*
X63181267Y-61880079D01*
X63263730Y-61644414D01*
X63270314Y-61625597D01*
X63270314Y-61625596D01*
X63270316Y-61625591D01*
X63330312Y-61362732D01*
X63360500Y-61094809D01*
X63360500Y-60825191D01*
X63359608Y-60817278D01*
X63351396Y-60744390D01*
X63330312Y-60557268D01*
X63270316Y-60294409D01*
X63181267Y-60039921D01*
X63064284Y-59797003D01*
X63064283Y-59797002D01*
X63064282Y-59796999D01*
X62920840Y-59568713D01*
X62752731Y-59357911D01*
X62562088Y-59167268D01*
X62351286Y-58999159D01*
X62123000Y-58855717D01*
X61880088Y-58738737D01*
X61880083Y-58738735D01*
X61880079Y-58738733D01*
X61880073Y-58738730D01*
X61880061Y-58738726D01*
X61625597Y-58649685D01*
X61362735Y-58589688D01*
X61094811Y-58559500D01*
X61094809Y-58559500D01*
X60825191Y-58559500D01*
X60825189Y-58559500D01*
X60557264Y-58589688D01*
X60294402Y-58649685D01*
X60039938Y-58738726D01*
X60039911Y-58738737D01*
X59796999Y-58855717D01*
X59568713Y-58999159D01*
X59357911Y-59167268D01*
X59167268Y-59357911D01*
X58999159Y-59568713D01*
X58855717Y-59796999D01*
X58738737Y-60039911D01*
X58738726Y-60039938D01*
X58649685Y-60294402D01*
X58589688Y-60557264D01*
X58559500Y-60825189D01*
X39070936Y-60825189D01*
X39139592Y-60769592D01*
X39256734Y-60624935D01*
X39275453Y-60588195D01*
X39281659Y-60579801D01*
X39301966Y-60564407D01*
X39319463Y-60545882D01*
X39330256Y-60542962D01*
X39338238Y-60536912D01*
X39358408Y-60535346D01*
X39382981Y-60528700D01*
X39384428Y-60528700D01*
X39401166Y-60532029D01*
X39409021Y-60531420D01*
X39415421Y-60534864D01*
X39432645Y-60538290D01*
X39597020Y-60606377D01*
X39781138Y-60643000D01*
X39781139Y-60643000D01*
X39968861Y-60643000D01*
X39968862Y-60643000D01*
X40152980Y-60606377D01*
X40326415Y-60534538D01*
X40482502Y-60430243D01*
X40615243Y-60297502D01*
X40719538Y-60141415D01*
X40791377Y-59967980D01*
X40828000Y-59783862D01*
X40828000Y-59596138D01*
X40791377Y-59412020D01*
X40719538Y-59238585D01*
X40615243Y-59082498D01*
X40615238Y-59082492D01*
X40482507Y-58949761D01*
X40482501Y-58949756D01*
X40386473Y-58885592D01*
X40326415Y-58845462D01*
X40152980Y-58773623D01*
X39968864Y-58737000D01*
X39968862Y-58737000D01*
X39781138Y-58737000D01*
X39781135Y-58737000D01*
X39597019Y-58773623D01*
X39597014Y-58773625D01*
X39477538Y-58823113D01*
X39453068Y-58833250D01*
X39432646Y-58841709D01*
X39424335Y-58843361D01*
X39419926Y-58846196D01*
X39384428Y-58851300D01*
X39382981Y-58851300D01*
X39314860Y-58831298D01*
X39270714Y-58782503D01*
X39256734Y-58755065D01*
X39243512Y-58738737D01*
X39139592Y-58610407D01*
X38994937Y-58493267D01*
X38829081Y-58408760D01*
X38649290Y-58360585D01*
X38649289Y-58360584D01*
X38649286Y-58360584D01*
X38571981Y-58354500D01*
X38571977Y-58354500D01*
X37923020Y-58354500D01*
X37845716Y-58360583D01*
X37665918Y-58408760D01*
X37500063Y-58493267D01*
X37500057Y-58493271D01*
X37414294Y-58562721D01*
X37348767Y-58590047D01*
X37278869Y-58577607D01*
X37255706Y-58562721D01*
X37169942Y-58493271D01*
X37169936Y-58493267D01*
X37169935Y-58493266D01*
X37004083Y-58408761D01*
X37004082Y-58408760D01*
X37004081Y-58408760D01*
X36824290Y-58360585D01*
X36824289Y-58360584D01*
X36824286Y-58360584D01*
X36746981Y-58354500D01*
X36746977Y-58354500D01*
X36098020Y-58354500D01*
X36020716Y-58360583D01*
X35840918Y-58408760D01*
X35675063Y-58493267D01*
X35675062Y-58493267D01*
X35530407Y-58610407D01*
X35413267Y-58755062D01*
X35413267Y-58755063D01*
X35344283Y-58890453D01*
X35333663Y-58901697D01*
X35327240Y-58915762D01*
X35309785Y-58926979D01*
X35295535Y-58942068D01*
X35279600Y-58946378D01*
X35267514Y-58954146D01*
X35232016Y-58959250D01*
X35041499Y-58959250D01*
X34973378Y-58939248D01*
X34926885Y-58885592D01*
X34915499Y-58833250D01*
X34915499Y-58553020D01*
X34915499Y-58553019D01*
X34909416Y-58475714D01*
X34861239Y-58295917D01*
X34776734Y-58130065D01*
X34776732Y-58130062D01*
X34659592Y-57985407D01*
X34514937Y-57868267D01*
X34349081Y-57783760D01*
X34169290Y-57735585D01*
X34169289Y-57735584D01*
X34169286Y-57735584D01*
X34091981Y-57729500D01*
X34091977Y-57729500D01*
X33218020Y-57729500D01*
X33140716Y-57735583D01*
X32960918Y-57783760D01*
X32795063Y-57868267D01*
X32795062Y-57868267D01*
X32650407Y-57985407D01*
X32533267Y-58130062D01*
X32533267Y-58130063D01*
X32448760Y-58295918D01*
X32418524Y-58408760D01*
X32400584Y-58475714D01*
X32394500Y-58553019D01*
X32114996Y-58553019D01*
X32108917Y-58475789D01*
X32060769Y-58296097D01*
X31976312Y-58130341D01*
X31976311Y-58130338D01*
X31859236Y-57985763D01*
X31714661Y-57868688D01*
X31714658Y-57868687D01*
X31548902Y-57784230D01*
X31369210Y-57736082D01*
X31291939Y-57730000D01*
X31172500Y-57730000D01*
X31172500Y-59372500D01*
X30537500Y-59372500D01*
X30537500Y-57730000D01*
X30418061Y-57730000D01*
X30340789Y-57736082D01*
X30161097Y-57784230D01*
X29995341Y-57868687D01*
X29995338Y-57868688D01*
X29850763Y-57985763D01*
X29733688Y-58130338D01*
X29733687Y-58130341D01*
X29649230Y-58296097D01*
X29601082Y-58475789D01*
X29595000Y-58553061D01*
X13335000Y-58553061D01*
X13335000Y-53031387D01*
X20299500Y-53031387D01*
X20299500Y-54920612D01*
X20309617Y-55063912D01*
X20309618Y-55063923D01*
X20352486Y-55254255D01*
X20363203Y-55301840D01*
X20407059Y-55410810D01*
X20454256Y-55528081D01*
X20580425Y-55736791D01*
X20738439Y-55922560D01*
X20924208Y-56080574D01*
X20992476Y-56121843D01*
X21132915Y-56206742D01*
X21359160Y-56297797D01*
X21570432Y-56345380D01*
X21597076Y-56351381D01*
X21597081Y-56351382D01*
X21654407Y-56355429D01*
X21740387Y-56361500D01*
X21740396Y-56361500D01*
X23629613Y-56361500D01*
X23710218Y-56355808D01*
X23772919Y-56351382D01*
X24010840Y-56297797D01*
X24237085Y-56206742D01*
X24445793Y-56080573D01*
X24631560Y-55922560D01*
X24789573Y-55736793D01*
X24915742Y-55528085D01*
X24962941Y-55410810D01*
X42435500Y-55410810D01*
X42435500Y-56539179D01*
X42438334Y-56575202D01*
X42438335Y-56575204D01*
X42483131Y-56729393D01*
X42536442Y-56819538D01*
X42564866Y-56867599D01*
X42564869Y-56867603D01*
X42678396Y-56981130D01*
X42678400Y-56981133D01*
X42678402Y-56981135D01*
X42816607Y-57062869D01*
X42970796Y-57107665D01*
X43006819Y-57110500D01*
X45935180Y-57110499D01*
X45971204Y-57107665D01*
X46125393Y-57062869D01*
X46263598Y-56981135D01*
X46377135Y-56867598D01*
X46377137Y-56867594D01*
X46381108Y-56862476D01*
X46438663Y-56820908D01*
X46480669Y-56813700D01*
X46859428Y-56813700D01*
X46907645Y-56823290D01*
X47072020Y-56891377D01*
X47256138Y-56928000D01*
X47256139Y-56928000D01*
X47443861Y-56928000D01*
X47443862Y-56928000D01*
X47627980Y-56891377D01*
X47792354Y-56823290D01*
X47840572Y-56813700D01*
X48261331Y-56813700D01*
X48329452Y-56833702D01*
X48360892Y-56862476D01*
X48364867Y-56867601D01*
X48478396Y-56981130D01*
X48478400Y-56981133D01*
X48478402Y-56981135D01*
X48616607Y-57062869D01*
X48770796Y-57107665D01*
X48806819Y-57110500D01*
X51735180Y-57110499D01*
X51771204Y-57107665D01*
X51925393Y-57062869D01*
X52063598Y-56981135D01*
X52177135Y-56867598D01*
X52258869Y-56729393D01*
X52303665Y-56575204D01*
X52306500Y-56539181D01*
X52306499Y-55410820D01*
X52303665Y-55374796D01*
X52258869Y-55220607D01*
X52177135Y-55082402D01*
X52177131Y-55082398D01*
X52177130Y-55082396D01*
X52063603Y-54968869D01*
X52063599Y-54968866D01*
X52063598Y-54968865D01*
X51925393Y-54887131D01*
X51848298Y-54864733D01*
X51771202Y-54842334D01*
X51735189Y-54839500D01*
X48806820Y-54839500D01*
X48770797Y-54842334D01*
X48616604Y-54887132D01*
X48478400Y-54968866D01*
X48478396Y-54968869D01*
X48364867Y-55082398D01*
X48360892Y-55087524D01*
X48303337Y-55129092D01*
X48261331Y-55136300D01*
X47840572Y-55136300D01*
X47792354Y-55126709D01*
X47627985Y-55058625D01*
X47627980Y-55058623D01*
X47443864Y-55022000D01*
X47443862Y-55022000D01*
X47256138Y-55022000D01*
X47256135Y-55022000D01*
X47072019Y-55058623D01*
X47072014Y-55058625D01*
X46907646Y-55126709D01*
X46859428Y-55136300D01*
X46480669Y-55136300D01*
X46412548Y-55116298D01*
X46381108Y-55087524D01*
X46377132Y-55082398D01*
X46263603Y-54968869D01*
X46263599Y-54968866D01*
X46263598Y-54968865D01*
X46125393Y-54887131D01*
X46048298Y-54864733D01*
X45971202Y-54842334D01*
X45935189Y-54839500D01*
X43006820Y-54839500D01*
X42970797Y-54842334D01*
X42816604Y-54887132D01*
X42678400Y-54968866D01*
X42678396Y-54968869D01*
X42564869Y-55082396D01*
X42564866Y-55082400D01*
X42483132Y-55220604D01*
X42438334Y-55374797D01*
X42435500Y-55410810D01*
X24962941Y-55410810D01*
X25006797Y-55301840D01*
X25060382Y-55063919D01*
X25067093Y-54968865D01*
X25070500Y-54920612D01*
X25070500Y-53031387D01*
X25060382Y-52888087D01*
X25060382Y-52888081D01*
X25006797Y-52650160D01*
X24915742Y-52423915D01*
X24789573Y-52215207D01*
X24631560Y-52029439D01*
X24511464Y-51927287D01*
X24459369Y-51882975D01*
X24420441Y-51823604D01*
X24419791Y-51752610D01*
X24457626Y-51692535D01*
X24521934Y-51662452D01*
X24541007Y-51661000D01*
X25367500Y-51661000D01*
X25367500Y-50665606D01*
X25377993Y-50676099D01*
X25492007Y-50741925D01*
X25619174Y-50776000D01*
X25750826Y-50776000D01*
X25877993Y-50741925D01*
X25992007Y-50676099D01*
X26002500Y-50665606D01*
X26002500Y-51661000D01*
X27499135Y-51661000D01*
X27499136Y-51660999D01*
X27535117Y-51658167D01*
X27535130Y-51658165D01*
X27689197Y-51613404D01*
X27827285Y-51531738D01*
X27827292Y-51531733D01*
X27940733Y-51418292D01*
X27940736Y-51418288D01*
X27945159Y-51410810D01*
X42435500Y-51410810D01*
X42435500Y-52539179D01*
X42438334Y-52575202D01*
X42438335Y-52575204D01*
X42472776Y-52693752D01*
X42483132Y-52729395D01*
X42484238Y-52731265D01*
X42523892Y-52798317D01*
X42564866Y-52867599D01*
X42564869Y-52867603D01*
X42678396Y-52981130D01*
X42678400Y-52981133D01*
X42678402Y-52981135D01*
X42816607Y-53062869D01*
X42970796Y-53107665D01*
X43006819Y-53110500D01*
X45935180Y-53110499D01*
X45971204Y-53107665D01*
X46125393Y-53062869D01*
X46263598Y-52981135D01*
X46377135Y-52867598D01*
X46428931Y-52780014D01*
X46455193Y-52735610D01*
X46507086Y-52687158D01*
X46563646Y-52673750D01*
X46825365Y-52673750D01*
X46893486Y-52693752D01*
X46895367Y-52694985D01*
X46949664Y-52731265D01*
X47111542Y-52798317D01*
X47283392Y-52832500D01*
X47283393Y-52832500D01*
X47458607Y-52832500D01*
X47458608Y-52832500D01*
X47630458Y-52798317D01*
X47792336Y-52731265D01*
X47846633Y-52694985D01*
X47914386Y-52673770D01*
X47916635Y-52673750D01*
X48178354Y-52673750D01*
X48246475Y-52693752D01*
X48286807Y-52735610D01*
X48364866Y-52867599D01*
X48364869Y-52867603D01*
X48478396Y-52981130D01*
X48478400Y-52981133D01*
X48478402Y-52981135D01*
X48616607Y-53062869D01*
X48770796Y-53107665D01*
X48806819Y-53110500D01*
X51735180Y-53110499D01*
X51771204Y-53107665D01*
X51925393Y-53062869D01*
X52063598Y-52981135D01*
X52177135Y-52867598D01*
X52258869Y-52729393D01*
X52303665Y-52575204D01*
X52306500Y-52539181D01*
X52306499Y-51410820D01*
X52303665Y-51374796D01*
X52258869Y-51220607D01*
X52177135Y-51082402D01*
X52177132Y-51082399D01*
X52177130Y-51082396D01*
X52063603Y-50968869D01*
X52063599Y-50968866D01*
X52063598Y-50968865D01*
X51925393Y-50887131D01*
X51848298Y-50864733D01*
X51771202Y-50842334D01*
X51735189Y-50839500D01*
X48806820Y-50839500D01*
X48770797Y-50842334D01*
X48616604Y-50887132D01*
X48478400Y-50968866D01*
X48478396Y-50968869D01*
X48364866Y-51082399D01*
X48324658Y-51150389D01*
X48272765Y-51198842D01*
X48216204Y-51212250D01*
X47916635Y-51212250D01*
X47848514Y-51192248D01*
X47846633Y-51191015D01*
X47792336Y-51154735D01*
X47630463Y-51087685D01*
X47630458Y-51087683D01*
X47458610Y-51053500D01*
X47458608Y-51053500D01*
X47283392Y-51053500D01*
X47283389Y-51053500D01*
X47111541Y-51087683D01*
X47111536Y-51087685D01*
X46949663Y-51154735D01*
X46895367Y-51191015D01*
X46827614Y-51212230D01*
X46825365Y-51212250D01*
X46525796Y-51212250D01*
X46457675Y-51192248D01*
X46417342Y-51150389D01*
X46402995Y-51126130D01*
X46377135Y-51082402D01*
X46377134Y-51082401D01*
X46377133Y-51082399D01*
X46263603Y-50968869D01*
X46263599Y-50968866D01*
X46263598Y-50968865D01*
X46125393Y-50887131D01*
X46048298Y-50864733D01*
X45971202Y-50842334D01*
X45935189Y-50839500D01*
X43006820Y-50839500D01*
X42970797Y-50842334D01*
X42816604Y-50887132D01*
X42678400Y-50968866D01*
X42678396Y-50968869D01*
X42564869Y-51082396D01*
X42564866Y-51082400D01*
X42483132Y-51220604D01*
X42438334Y-51374797D01*
X42435500Y-51410810D01*
X27945159Y-51410810D01*
X27984550Y-51344205D01*
X28022405Y-51280194D01*
X28067165Y-51126130D01*
X28067167Y-51126117D01*
X28069999Y-51090136D01*
X28070000Y-51090135D01*
X28070000Y-49593500D01*
X26185000Y-49593500D01*
X26185000Y-48958500D01*
X28070000Y-48958500D01*
X28070000Y-47461864D01*
X28069999Y-47461863D01*
X28067167Y-47425882D01*
X28067165Y-47425869D01*
X28022404Y-47271802D01*
X27940738Y-47133714D01*
X27940733Y-47133707D01*
X27827292Y-47020266D01*
X27827285Y-47020261D01*
X27689197Y-46938595D01*
X27535130Y-46893834D01*
X27535117Y-46893832D01*
X27499136Y-46891000D01*
X26002500Y-46891000D01*
X26002500Y-47886394D01*
X25992007Y-47875901D01*
X25877993Y-47810075D01*
X25750826Y-47776000D01*
X25619174Y-47776000D01*
X25492007Y-47810075D01*
X25377993Y-47875901D01*
X25367500Y-47886394D01*
X25367500Y-46891000D01*
X23870864Y-46891000D01*
X23834882Y-46893832D01*
X23834869Y-46893834D01*
X23680802Y-46938595D01*
X23542714Y-47020261D01*
X23542707Y-47020266D01*
X23429266Y-47133707D01*
X23429261Y-47133714D01*
X23347595Y-47271802D01*
X23302834Y-47425869D01*
X23302832Y-47425882D01*
X23300000Y-47461863D01*
X23300000Y-48958500D01*
X25185000Y-48958500D01*
X25185000Y-49593500D01*
X23300000Y-49593500D01*
X23300000Y-51090136D01*
X23302832Y-51126117D01*
X23302834Y-51126130D01*
X23347595Y-51280195D01*
X23418661Y-51400360D01*
X23436121Y-51469177D01*
X23413605Y-51536508D01*
X23358260Y-51580977D01*
X23310208Y-51590500D01*
X21740387Y-51590500D01*
X21597087Y-51600617D01*
X21597076Y-51600618D01*
X21359158Y-51654203D01*
X21235801Y-51703848D01*
X21235773Y-51703861D01*
X21132915Y-51745258D01*
X21060461Y-51789058D01*
X21060449Y-51789064D01*
X20924210Y-51871424D01*
X20738439Y-52029439D01*
X20580425Y-52215208D01*
X20454256Y-52423918D01*
X20363203Y-52650160D01*
X20309618Y-52888076D01*
X20309617Y-52888087D01*
X20299500Y-53031387D01*
X13335000Y-53031387D01*
X13335000Y-48181694D01*
X17549500Y-48181694D01*
X17549500Y-50370306D01*
X17552315Y-50423305D01*
X17597099Y-50654861D01*
X17597100Y-50654864D01*
X17667848Y-50842335D01*
X17680371Y-50875517D01*
X17735152Y-50968869D01*
X17799737Y-51078927D01*
X17951761Y-51259238D01*
X18052538Y-51344205D01*
X18132073Y-51411263D01*
X18335483Y-51530629D01*
X18556139Y-51613901D01*
X18787695Y-51658685D01*
X18840694Y-51661500D01*
X18840705Y-51661500D01*
X20529295Y-51661500D01*
X20529306Y-51661500D01*
X20582305Y-51658685D01*
X20813861Y-51613901D01*
X21034517Y-51530629D01*
X21237927Y-51411263D01*
X21418238Y-51259238D01*
X21570263Y-51078927D01*
X21689629Y-50875517D01*
X21772901Y-50654861D01*
X21817685Y-50423305D01*
X21820500Y-50370306D01*
X21820500Y-48181694D01*
X21817685Y-48128695D01*
X21772901Y-47897139D01*
X21689629Y-47676483D01*
X21570263Y-47473073D01*
X21570262Y-47473072D01*
X21418238Y-47292761D01*
X21237927Y-47140737D01*
X21034515Y-47021370D01*
X20813864Y-46938100D01*
X20813863Y-46938099D01*
X20813861Y-46938099D01*
X20582305Y-46893315D01*
X20529306Y-46890500D01*
X18840694Y-46890500D01*
X18787695Y-46893315D01*
X18556139Y-46938099D01*
X18556137Y-46938099D01*
X18556135Y-46938100D01*
X18335484Y-47021370D01*
X18132072Y-47140737D01*
X17951761Y-47292761D01*
X17799737Y-47473072D01*
X17680370Y-47676484D01*
X17597100Y-47897135D01*
X17597099Y-47897137D01*
X17597099Y-47897139D01*
X17552315Y-48128695D01*
X17549500Y-48181694D01*
X13335000Y-48181694D01*
X13335000Y-41446031D01*
X19487000Y-41446031D01*
X19487000Y-41713968D01*
X19516999Y-41980219D01*
X19576621Y-42241438D01*
X19665106Y-42494312D01*
X19665117Y-42494339D01*
X19781366Y-42735733D01*
X19923914Y-42962596D01*
X20090970Y-43172078D01*
X20280421Y-43361529D01*
X20280425Y-43361532D01*
X20489904Y-43528586D01*
X20585173Y-43588447D01*
X20716766Y-43671133D01*
X20716769Y-43671134D01*
X20716770Y-43671135D01*
X20958170Y-43787387D01*
X20958186Y-43787392D01*
X20958187Y-43787393D01*
X21211061Y-43875878D01*
X21211064Y-43875878D01*
X21211068Y-43875880D01*
X21472284Y-43935501D01*
X21661079Y-43956773D01*
X21738531Y-43965500D01*
X21738533Y-43965500D01*
X22006469Y-43965500D01*
X22074085Y-43957881D01*
X22272716Y-43935501D01*
X22533932Y-43875880D01*
X22786830Y-43787387D01*
X23028230Y-43671135D01*
X23255096Y-43528586D01*
X23464575Y-43361532D01*
X23654032Y-43172075D01*
X23821086Y-42962596D01*
X23963635Y-42735730D01*
X24079887Y-42494330D01*
X24168380Y-42241432D01*
X24228001Y-41980216D01*
X24258000Y-41713967D01*
X24258000Y-41446033D01*
X24228001Y-41179784D01*
X24168380Y-40918568D01*
X24148498Y-40861750D01*
X24079893Y-40665687D01*
X24079892Y-40665686D01*
X24079887Y-40665670D01*
X23963635Y-40424270D01*
X23963634Y-40424269D01*
X23963633Y-40424266D01*
X23843286Y-40232735D01*
X23821086Y-40197404D01*
X23726077Y-40078266D01*
X23654029Y-39987921D01*
X23464578Y-39798470D01*
X23255096Y-39631414D01*
X23028233Y-39488866D01*
X22786839Y-39372617D01*
X22786834Y-39372615D01*
X22786830Y-39372613D01*
X22786824Y-39372610D01*
X22786812Y-39372606D01*
X22533938Y-39284121D01*
X22272719Y-39224499D01*
X22006469Y-39194500D01*
X22006467Y-39194500D01*
X21738533Y-39194500D01*
X21738531Y-39194500D01*
X21472280Y-39224499D01*
X21211061Y-39284121D01*
X20958187Y-39372606D01*
X20958160Y-39372617D01*
X20716766Y-39488866D01*
X20489903Y-39631414D01*
X20280421Y-39798470D01*
X20090970Y-39987921D01*
X19923914Y-40197403D01*
X19781366Y-40424266D01*
X19665117Y-40665660D01*
X19665106Y-40665687D01*
X19576621Y-40918561D01*
X19516999Y-41179780D01*
X19487000Y-41446031D01*
X13335000Y-41446031D01*
X13335000Y-34193089D01*
X23097000Y-34193089D01*
X23097000Y-34426911D01*
X23133578Y-34657855D01*
X23133579Y-34657858D01*
X23205832Y-34880230D01*
X23205834Y-34880234D01*
X23308968Y-35082646D01*
X23311989Y-35088574D01*
X23331484Y-35115407D01*
X23449424Y-35277738D01*
X23449426Y-35277740D01*
X23449428Y-35277743D01*
X23614761Y-35443076D01*
X23635392Y-35458065D01*
X23678745Y-35514287D01*
X23684820Y-35585024D01*
X23651688Y-35647815D01*
X23635392Y-35661935D01*
X23614761Y-35676923D01*
X23449428Y-35842256D01*
X23449426Y-35842259D01*
X23311989Y-36031425D01*
X23205833Y-36239767D01*
X23133579Y-36462141D01*
X23133578Y-36462145D01*
X23097000Y-36693089D01*
X23097000Y-36926911D01*
X23133578Y-37157855D01*
X23133579Y-37157858D01*
X23190155Y-37331981D01*
X23205834Y-37380234D01*
X23301202Y-37567404D01*
X23311989Y-37588574D01*
X23312359Y-37589083D01*
X23449424Y-37777738D01*
X23449426Y-37777740D01*
X23449428Y-37777743D01*
X23614756Y-37943071D01*
X23614759Y-37943073D01*
X23614762Y-37943076D01*
X23803929Y-38080513D01*
X24012266Y-38186666D01*
X24234645Y-38258922D01*
X24465589Y-38295500D01*
X24465592Y-38295500D01*
X24699408Y-38295500D01*
X24699411Y-38295500D01*
X24930355Y-38258922D01*
X25152734Y-38186666D01*
X25210427Y-38157269D01*
X25280201Y-38144165D01*
X25331559Y-38164670D01*
X25333080Y-38162100D01*
X25339900Y-38166133D01*
X25339902Y-38166135D01*
X25478107Y-38247869D01*
X25632296Y-38292665D01*
X25632297Y-38292665D01*
X25638627Y-38293821D01*
X25638173Y-38296302D01*
X25694011Y-38317574D01*
X25736160Y-38374706D01*
X25743800Y-38417913D01*
X25743800Y-43302107D01*
X25763820Y-43402751D01*
X25776031Y-43464140D01*
X25839254Y-43616773D01*
X25875578Y-43671135D01*
X25931040Y-43754141D01*
X25931045Y-43754147D01*
X27381061Y-45204162D01*
X27408375Y-45245039D01*
X27476462Y-45409415D01*
X27546149Y-45513709D01*
X27580756Y-45565501D01*
X27580761Y-45565507D01*
X27713492Y-45698238D01*
X27713498Y-45698243D01*
X27869585Y-45802538D01*
X28033960Y-45870624D01*
X28074837Y-45897938D01*
X28723595Y-46546696D01*
X28757621Y-46609008D01*
X28760500Y-46635791D01*
X28760500Y-47116979D01*
X28766583Y-47194283D01*
X28814712Y-47373902D01*
X28814761Y-47374083D01*
X28899126Y-47539661D01*
X28899267Y-47539936D01*
X28899267Y-47539937D01*
X29016407Y-47684592D01*
X29161062Y-47801732D01*
X29161063Y-47801732D01*
X29161065Y-47801734D01*
X29326917Y-47886239D01*
X29506714Y-47934416D01*
X29584019Y-47940500D01*
X30257980Y-47940499D01*
X30335286Y-47934416D01*
X30515083Y-47886239D01*
X30680935Y-47801734D01*
X30825592Y-47684592D01*
X30942734Y-47539935D01*
X31027239Y-47374083D01*
X31075416Y-47194286D01*
X31081500Y-47116981D01*
X31081500Y-47116938D01*
X31911000Y-47116938D01*
X31917082Y-47194210D01*
X31965230Y-47373902D01*
X32049687Y-47539658D01*
X32049688Y-47539661D01*
X32166763Y-47684236D01*
X32311338Y-47801311D01*
X32311341Y-47801312D01*
X32477097Y-47885769D01*
X32656789Y-47933917D01*
X32734061Y-47940000D01*
X32753500Y-47940000D01*
X33388500Y-47940000D01*
X33407939Y-47940000D01*
X33485210Y-47933917D01*
X33664902Y-47885769D01*
X33830658Y-47801312D01*
X33830661Y-47801311D01*
X33975236Y-47684236D01*
X34092311Y-47539661D01*
X34092312Y-47539658D01*
X34176769Y-47373902D01*
X34224917Y-47194210D01*
X34231000Y-47116938D01*
X34231000Y-46672500D01*
X33388500Y-46672500D01*
X33388500Y-47940000D01*
X32753500Y-47940000D01*
X32753500Y-46672500D01*
X31911000Y-46672500D01*
X31911000Y-47116938D01*
X31081500Y-47116938D01*
X31081499Y-45593061D01*
X31911000Y-45593061D01*
X31911000Y-46037500D01*
X32753500Y-46037500D01*
X33388500Y-46037500D01*
X34231000Y-46037500D01*
X34231000Y-45593061D01*
X34224917Y-45515789D01*
X34176769Y-45336097D01*
X34092312Y-45170341D01*
X34092311Y-45170339D01*
X34090124Y-45167638D01*
X34090123Y-45167637D01*
X34027910Y-45090810D01*
X57554500Y-45090810D01*
X57554500Y-47619179D01*
X57557334Y-47655202D01*
X57565873Y-47684592D01*
X57602131Y-47809393D01*
X57679667Y-47940500D01*
X57683866Y-47947599D01*
X57683869Y-47947603D01*
X57797396Y-48061130D01*
X57797400Y-48061133D01*
X57797402Y-48061135D01*
X57935607Y-48142869D01*
X58089796Y-48187665D01*
X58125819Y-48190500D01*
X60654180Y-48190499D01*
X60690204Y-48187665D01*
X60844393Y-48142869D01*
X60982598Y-48061135D01*
X61096135Y-47947598D01*
X61177869Y-47809393D01*
X61222665Y-47655204D01*
X61225500Y-47619181D01*
X61225499Y-45090820D01*
X61222665Y-45054796D01*
X61177869Y-44900607D01*
X61096135Y-44762402D01*
X61096133Y-44762400D01*
X61096130Y-44762396D01*
X60982603Y-44648869D01*
X60982599Y-44648866D01*
X60982598Y-44648865D01*
X60844393Y-44567131D01*
X60767298Y-44544733D01*
X60690202Y-44522334D01*
X60654189Y-44519500D01*
X58125820Y-44519500D01*
X58089797Y-44522334D01*
X57935604Y-44567132D01*
X57797400Y-44648866D01*
X57797396Y-44648869D01*
X57683869Y-44762396D01*
X57683866Y-44762400D01*
X57602132Y-44900604D01*
X57557334Y-45054797D01*
X57554500Y-45090810D01*
X34027910Y-45090810D01*
X33975236Y-45025763D01*
X33830661Y-44908688D01*
X33830658Y-44908687D01*
X33664902Y-44824230D01*
X33485210Y-44776082D01*
X33407939Y-44770000D01*
X33388500Y-44770000D01*
X33388500Y-46037500D01*
X32753500Y-46037500D01*
X32753500Y-44770000D01*
X32734061Y-44770000D01*
X32656789Y-44776082D01*
X32477097Y-44824230D01*
X32311341Y-44908687D01*
X32311338Y-44908688D01*
X32166763Y-45025763D01*
X32049688Y-45170338D01*
X32049687Y-45170341D01*
X31965230Y-45336097D01*
X31917082Y-45515789D01*
X31911000Y-45593061D01*
X31081499Y-45593061D01*
X31081499Y-45593020D01*
X31075416Y-45515714D01*
X31027239Y-45335917D01*
X30942734Y-45170065D01*
X30940768Y-45167637D01*
X30825592Y-45025407D01*
X30680937Y-44908267D01*
X30515081Y-44823760D01*
X30335290Y-44775585D01*
X30335289Y-44775584D01*
X30335286Y-44775584D01*
X30257981Y-44769500D01*
X30257977Y-44769500D01*
X29584020Y-44769500D01*
X29506715Y-44775583D01*
X29506712Y-44775584D01*
X29433417Y-44795223D01*
X29421223Y-44794932D01*
X29409796Y-44799195D01*
X29386388Y-44794103D01*
X29362441Y-44793533D01*
X29350607Y-44786319D01*
X29340422Y-44784104D01*
X29311712Y-44762611D01*
X29260938Y-44711837D01*
X29233624Y-44670960D01*
X29224474Y-44648869D01*
X29165538Y-44506585D01*
X29061243Y-44350498D01*
X29061238Y-44350492D01*
X28928507Y-44217761D01*
X28928501Y-44217756D01*
X28876709Y-44183149D01*
X28772415Y-44113462D01*
X28683774Y-44076746D01*
X28608039Y-44045375D01*
X28567162Y-44018061D01*
X27458105Y-42909004D01*
X27424079Y-42846692D01*
X27421200Y-42819909D01*
X27421200Y-38417913D01*
X27441202Y-38349792D01*
X27494858Y-38303299D01*
X27526596Y-38295087D01*
X27526366Y-38293823D01*
X27532697Y-38292666D01*
X27532699Y-38292665D01*
X27532704Y-38292665D01*
X27686893Y-38247869D01*
X27825098Y-38166135D01*
X27938635Y-38052598D01*
X28020369Y-37914393D01*
X28065165Y-37760204D01*
X28068000Y-37724181D01*
X28067999Y-36594163D01*
X28088001Y-36526044D01*
X28141657Y-36479551D01*
X28211931Y-36469447D01*
X28276511Y-36498940D01*
X28303702Y-36536638D01*
X28305498Y-36535679D01*
X28308416Y-36541139D01*
X28388388Y-36660825D01*
X28388393Y-36660831D01*
X29902302Y-38174739D01*
X29936327Y-38237051D01*
X29931263Y-38307866D01*
X29888716Y-38364702D01*
X29883214Y-38368596D01*
X29872498Y-38375756D01*
X29872492Y-38375761D01*
X29739761Y-38508492D01*
X29739756Y-38508498D01*
X29635462Y-38664585D01*
X29563625Y-38838014D01*
X29563623Y-38838019D01*
X29527000Y-39022135D01*
X29527000Y-39209864D01*
X29563623Y-39393980D01*
X29563625Y-39393985D01*
X29631709Y-39558354D01*
X29641300Y-39606572D01*
X29641300Y-41927426D01*
X29631709Y-41975644D01*
X29563625Y-42140014D01*
X29563623Y-42140019D01*
X29527000Y-42324135D01*
X29527000Y-42511864D01*
X29558273Y-42669083D01*
X29563623Y-42695980D01*
X29635462Y-42869415D01*
X29645501Y-42884439D01*
X29739756Y-43025501D01*
X29739761Y-43025507D01*
X29872492Y-43158238D01*
X29872498Y-43158243D01*
X30028585Y-43262538D01*
X30202020Y-43334377D01*
X30386138Y-43371000D01*
X30386139Y-43371000D01*
X30573861Y-43371000D01*
X30573862Y-43371000D01*
X30757980Y-43334377D01*
X30931415Y-43262538D01*
X31087502Y-43158243D01*
X31220243Y-43025502D01*
X31324538Y-42869415D01*
X31396377Y-42695980D01*
X31410724Y-42623848D01*
X31443631Y-42560940D01*
X31505326Y-42525808D01*
X31576221Y-42529608D01*
X31623398Y-42559335D01*
X31910756Y-42846692D01*
X32201887Y-43137823D01*
X32201889Y-43137826D01*
X32303674Y-43239611D01*
X32329250Y-43256700D01*
X32423360Y-43319583D01*
X32517397Y-43358533D01*
X32556348Y-43374668D01*
X32579771Y-43379327D01*
X32697527Y-43402751D01*
X32697532Y-43402751D01*
X32847686Y-43402751D01*
X32847706Y-43402750D01*
X38402472Y-43402750D01*
X38402473Y-43402750D01*
X38543652Y-43374668D01*
X38676640Y-43319583D01*
X38796326Y-43239611D01*
X39388532Y-42647403D01*
X39450845Y-42613379D01*
X39477628Y-42610499D01*
X40051980Y-42610499D01*
X40129286Y-42604416D01*
X40309083Y-42556239D01*
X40474935Y-42471734D01*
X40560705Y-42402277D01*
X40626232Y-42374952D01*
X40696131Y-42387391D01*
X40719293Y-42402277D01*
X40731276Y-42411980D01*
X40805062Y-42471732D01*
X40805063Y-42471732D01*
X40805065Y-42471734D01*
X40970917Y-42556239D01*
X41150714Y-42604416D01*
X41228019Y-42610500D01*
X41876980Y-42610499D01*
X41954286Y-42604416D01*
X42134083Y-42556239D01*
X42272115Y-42485908D01*
X42341890Y-42472805D01*
X42407675Y-42499505D01*
X42448581Y-42557533D01*
X42451023Y-42565565D01*
X42478760Y-42669081D01*
X42563267Y-42834936D01*
X42563267Y-42834937D01*
X42680407Y-42979592D01*
X42825062Y-43096732D01*
X42825063Y-43096732D01*
X42825065Y-43096734D01*
X42990917Y-43181239D01*
X43170714Y-43229416D01*
X43248019Y-43235500D01*
X44121980Y-43235499D01*
X44199286Y-43229416D01*
X44379083Y-43181239D01*
X44544935Y-43096734D01*
X44689592Y-42979592D01*
X44806734Y-42834935D01*
X44891239Y-42669083D01*
X44939416Y-42489286D01*
X44945500Y-42411981D01*
X44945499Y-40138020D01*
X44939416Y-40060714D01*
X44891239Y-39880917D01*
X44806734Y-39715065D01*
X44806732Y-39715062D01*
X44689592Y-39570407D01*
X44544937Y-39453267D01*
X44379081Y-39368760D01*
X44199290Y-39320585D01*
X44199289Y-39320584D01*
X44199286Y-39320584D01*
X44121981Y-39314500D01*
X44121977Y-39314500D01*
X43248020Y-39314500D01*
X43170716Y-39320583D01*
X42990918Y-39368760D01*
X42825063Y-39453267D01*
X42825062Y-39453267D01*
X42680407Y-39570407D01*
X42563267Y-39715062D01*
X42563267Y-39715063D01*
X42478760Y-39880917D01*
X42451023Y-39984435D01*
X42414071Y-40045057D01*
X42350210Y-40076079D01*
X42279716Y-40067650D01*
X42272114Y-40064090D01*
X42134083Y-39993760D01*
X41954290Y-39945585D01*
X41954289Y-39945584D01*
X41954286Y-39945584D01*
X41876981Y-39939500D01*
X41876977Y-39939500D01*
X41228020Y-39939500D01*
X41150716Y-39945583D01*
X40970918Y-39993760D01*
X40805063Y-40078267D01*
X40805057Y-40078271D01*
X40719294Y-40147721D01*
X40653767Y-40175047D01*
X40583869Y-40162607D01*
X40560706Y-40147721D01*
X40474942Y-40078271D01*
X40474936Y-40078267D01*
X40474935Y-40078266D01*
X40309083Y-39993761D01*
X40309082Y-39993760D01*
X40309081Y-39993760D01*
X40129290Y-39945585D01*
X40129289Y-39945584D01*
X40129286Y-39945584D01*
X40051981Y-39939500D01*
X40051977Y-39939500D01*
X39403020Y-39939500D01*
X39325716Y-39945583D01*
X39145918Y-39993760D01*
X38980063Y-40078267D01*
X38980062Y-40078267D01*
X38835407Y-40195408D01*
X38822449Y-40211409D01*
X38764033Y-40251758D01*
X38693075Y-40254119D01*
X38654534Y-40236876D01*
X38648336Y-40232735D01*
X38486463Y-40165685D01*
X38486458Y-40165683D01*
X38314610Y-40131500D01*
X38314608Y-40131500D01*
X38247682Y-40131500D01*
X38215858Y-40122155D01*
X38183687Y-40114039D01*
X38181970Y-40112205D01*
X38179561Y-40111498D01*
X38157838Y-40086428D01*
X38135165Y-40062210D01*
X38134096Y-40059029D01*
X38133068Y-40057842D01*
X38123746Y-40028213D01*
X38123654Y-40027711D01*
X38123646Y-39994237D01*
X38122160Y-39994120D01*
X38125499Y-39951689D01*
X38125500Y-39951681D01*
X38125499Y-39423320D01*
X38122665Y-39387296D01*
X38122160Y-39380876D01*
X38122837Y-39380822D01*
X38121698Y-39358573D01*
X38125000Y-39316633D01*
X38125000Y-39252499D01*
X38109950Y-39237449D01*
X38093086Y-39232498D01*
X38083887Y-39222951D01*
X38075217Y-39218596D01*
X38052754Y-39190640D01*
X38008989Y-39116637D01*
X37991530Y-39047824D01*
X38008989Y-38988362D01*
X38052754Y-38914359D01*
X38104647Y-38865908D01*
X38113751Y-38863749D01*
X38125000Y-38852501D01*
X38125000Y-38788365D01*
X38121698Y-38746424D01*
X38121414Y-38731396D01*
X38121859Y-38720475D01*
X38122665Y-38717704D01*
X38125500Y-38681681D01*
X38125500Y-38631289D01*
X38125605Y-38628717D01*
X38136196Y-38597427D01*
X38145502Y-38565735D01*
X38147514Y-38563991D01*
X38148368Y-38561469D01*
X38174196Y-38540870D01*
X38199158Y-38519242D01*
X38202788Y-38518069D01*
X38203875Y-38517203D01*
X38206212Y-38516963D01*
X38226919Y-38510277D01*
X38353152Y-38485168D01*
X38486140Y-38430083D01*
X38605826Y-38350111D01*
X39388532Y-37567403D01*
X39450845Y-37533379D01*
X39477628Y-37530499D01*
X40051980Y-37530499D01*
X40129286Y-37524416D01*
X40309083Y-37476239D01*
X40474935Y-37391734D01*
X40560705Y-37322277D01*
X40626232Y-37294952D01*
X40696131Y-37307391D01*
X40719293Y-37322277D01*
X40731276Y-37331980D01*
X40805062Y-37391732D01*
X40805063Y-37391732D01*
X40805065Y-37391734D01*
X40970917Y-37476239D01*
X41150714Y-37524416D01*
X41228019Y-37530500D01*
X41876980Y-37530499D01*
X41954286Y-37524416D01*
X42134083Y-37476239D01*
X42272115Y-37405908D01*
X42341890Y-37392805D01*
X42407675Y-37419505D01*
X42448581Y-37477533D01*
X42451023Y-37485565D01*
X42478624Y-37588574D01*
X42478761Y-37589083D01*
X42547600Y-37724189D01*
X42563267Y-37754936D01*
X42563267Y-37754937D01*
X42680407Y-37899592D01*
X42825062Y-38016732D01*
X42825063Y-38016732D01*
X42825065Y-38016734D01*
X42990917Y-38101239D01*
X43170714Y-38149416D01*
X43248019Y-38155500D01*
X44121980Y-38155499D01*
X44199286Y-38149416D01*
X44379083Y-38101239D01*
X44544935Y-38016734D01*
X44689592Y-37899592D01*
X44806734Y-37754935D01*
X44891239Y-37589083D01*
X44939416Y-37409286D01*
X44945500Y-37331981D01*
X44945499Y-35058022D01*
X45224500Y-35058022D01*
X45224500Y-37331979D01*
X45230583Y-37409283D01*
X45278624Y-37588574D01*
X45278761Y-37589083D01*
X45347600Y-37724189D01*
X45363267Y-37754936D01*
X45363267Y-37754937D01*
X45484563Y-37904723D01*
X45483305Y-37905741D01*
X45513421Y-37960892D01*
X45516300Y-37987675D01*
X45516300Y-39482325D01*
X45496298Y-39550446D01*
X45484431Y-39565170D01*
X45484563Y-39565277D01*
X45363267Y-39715062D01*
X45363267Y-39715063D01*
X45278760Y-39880918D01*
X45231225Y-40058320D01*
X45230584Y-40060714D01*
X45225749Y-40122155D01*
X45224500Y-40138022D01*
X45224500Y-42411979D01*
X45230583Y-42489283D01*
X45278760Y-42669081D01*
X45363267Y-42834936D01*
X45363267Y-42834937D01*
X45480407Y-42979592D01*
X45625062Y-43096732D01*
X45625063Y-43096732D01*
X45625065Y-43096734D01*
X45790917Y-43181239D01*
X45970714Y-43229416D01*
X46048019Y-43235500D01*
X46921980Y-43235499D01*
X46999286Y-43229416D01*
X47179083Y-43181239D01*
X47344935Y-43096734D01*
X47489592Y-42979592D01*
X47606734Y-42834935D01*
X47691239Y-42669083D01*
X47739416Y-42489286D01*
X47745500Y-42411981D01*
X47745499Y-40138020D01*
X47739416Y-40060714D01*
X47691239Y-39880917D01*
X47606734Y-39715065D01*
X47606732Y-39715062D01*
X47489592Y-39570407D01*
X47344936Y-39453267D01*
X47344929Y-39453262D01*
X47262496Y-39411260D01*
X47210882Y-39362512D01*
X47193700Y-39298994D01*
X47193700Y-38171004D01*
X47213702Y-38102883D01*
X47262498Y-38058737D01*
X47274537Y-38052603D01*
X47344935Y-38016734D01*
X47489592Y-37899592D01*
X47606734Y-37754935D01*
X47691239Y-37589083D01*
X47739416Y-37409286D01*
X47745500Y-37331981D01*
X47745499Y-36234725D01*
X57555000Y-36234725D01*
X57555000Y-36475274D01*
X57586396Y-36713751D01*
X57648655Y-36946106D01*
X57740708Y-37168342D01*
X57740714Y-37168353D01*
X57860977Y-37376655D01*
X57886313Y-37409674D01*
X58805214Y-36490773D01*
X58830889Y-36586591D01*
X58909881Y-36723408D01*
X59021592Y-36835119D01*
X59158409Y-36914111D01*
X59254225Y-36939784D01*
X58335324Y-37858685D01*
X58368344Y-37884022D01*
X58576646Y-38004285D01*
X58576657Y-38004291D01*
X58798893Y-38096344D01*
X59031248Y-38158603D01*
X59269725Y-38189999D01*
X59269735Y-38190000D01*
X59510265Y-38190000D01*
X59510274Y-38189999D01*
X59748751Y-38158603D01*
X59981106Y-38096344D01*
X60203342Y-38004291D01*
X60203353Y-38004285D01*
X60411654Y-37884022D01*
X60444674Y-37858685D01*
X59525774Y-36939785D01*
X59621591Y-36914111D01*
X59758408Y-36835119D01*
X59870119Y-36723408D01*
X59949111Y-36586591D01*
X59974785Y-36490774D01*
X60893685Y-37409674D01*
X60919022Y-37376654D01*
X61039285Y-37168353D01*
X61039291Y-37168342D01*
X61131344Y-36946106D01*
X61193603Y-36713751D01*
X61224999Y-36475274D01*
X61225000Y-36475265D01*
X61225000Y-36234735D01*
X61224999Y-36234725D01*
X61193603Y-35996248D01*
X61131344Y-35763893D01*
X61039291Y-35541657D01*
X61039285Y-35541646D01*
X60919022Y-35333344D01*
X60893685Y-35300324D01*
X59974784Y-36219225D01*
X59949111Y-36123409D01*
X59870119Y-35986592D01*
X59758408Y-35874881D01*
X59621591Y-35795889D01*
X59525773Y-35770214D01*
X60444674Y-34851313D01*
X60411655Y-34825977D01*
X60203353Y-34705714D01*
X60203342Y-34705708D01*
X59981106Y-34613655D01*
X59748751Y-34551396D01*
X59510274Y-34520000D01*
X59269725Y-34520000D01*
X59031248Y-34551396D01*
X58798893Y-34613655D01*
X58576657Y-34705708D01*
X58576646Y-34705714D01*
X58368344Y-34825977D01*
X58368337Y-34825982D01*
X58335324Y-34851313D01*
X59254225Y-35770214D01*
X59158409Y-35795889D01*
X59021592Y-35874881D01*
X58909881Y-35986592D01*
X58830889Y-36123409D01*
X58805214Y-36219225D01*
X57886313Y-35300324D01*
X57860982Y-35333337D01*
X57860977Y-35333344D01*
X57740714Y-35541646D01*
X57740708Y-35541657D01*
X57648655Y-35763893D01*
X57586396Y-35996248D01*
X57555000Y-36234725D01*
X47745499Y-36234725D01*
X47745499Y-36195000D01*
X47745499Y-35058020D01*
X47744545Y-35045891D01*
X47739416Y-34980714D01*
X47691239Y-34800917D01*
X47606734Y-34635065D01*
X47606732Y-34635062D01*
X47489592Y-34490407D01*
X47363525Y-34388320D01*
X47348961Y-34367237D01*
X47331171Y-34348800D01*
X47325897Y-34333850D01*
X47323173Y-34329906D01*
X47319241Y-34314979D01*
X47310421Y-34270634D01*
X47308000Y-34246055D01*
X47308000Y-34196139D01*
X47307999Y-34196135D01*
X47307394Y-34193092D01*
X47271377Y-34012020D01*
X47199538Y-33838585D01*
X47095243Y-33682498D01*
X47095238Y-33682492D01*
X46962507Y-33549761D01*
X46962501Y-33549756D01*
X46910709Y-33515149D01*
X46806415Y-33445462D01*
X46632980Y-33373623D01*
X46448864Y-33337000D01*
X46448862Y-33337000D01*
X46261138Y-33337000D01*
X46261135Y-33337000D01*
X46077019Y-33373623D01*
X46077014Y-33373625D01*
X45903585Y-33445462D01*
X45747498Y-33549756D01*
X45747492Y-33549761D01*
X45614761Y-33682492D01*
X45614756Y-33682498D01*
X45510462Y-33838585D01*
X45438625Y-34012014D01*
X45438623Y-34012019D01*
X45402000Y-34196135D01*
X45402000Y-34383867D01*
X45422947Y-34489175D01*
X45416619Y-34559889D01*
X45397289Y-34593049D01*
X45363270Y-34635059D01*
X45363265Y-34635067D01*
X45278760Y-34800918D01*
X45239196Y-34948573D01*
X45230584Y-34980714D01*
X45224544Y-35057458D01*
X45224500Y-35058022D01*
X44945499Y-35058022D01*
X44945499Y-35058020D01*
X44939416Y-34980714D01*
X44891239Y-34800917D01*
X44806734Y-34635065D01*
X44806732Y-34635062D01*
X44689592Y-34490407D01*
X44544937Y-34373267D01*
X44379081Y-34288760D01*
X44199290Y-34240585D01*
X44199289Y-34240584D01*
X44199286Y-34240584D01*
X44121981Y-34234500D01*
X44121977Y-34234500D01*
X43248020Y-34234500D01*
X43170716Y-34240583D01*
X42990918Y-34288760D01*
X42825063Y-34373267D01*
X42825062Y-34373267D01*
X42680407Y-34490407D01*
X42563267Y-34635062D01*
X42563267Y-34635063D01*
X42478760Y-34800917D01*
X42451023Y-34904435D01*
X42414071Y-34965057D01*
X42350210Y-34996079D01*
X42279716Y-34987650D01*
X42272114Y-34984090D01*
X42134083Y-34913760D01*
X41954290Y-34865585D01*
X41954289Y-34865584D01*
X41954286Y-34865584D01*
X41876981Y-34859500D01*
X41876977Y-34859500D01*
X41228020Y-34859500D01*
X41150716Y-34865583D01*
X40970918Y-34913760D01*
X40805063Y-34998267D01*
X40805057Y-34998271D01*
X40719294Y-35067721D01*
X40653767Y-35095047D01*
X40583869Y-35082607D01*
X40560706Y-35067721D01*
X40474942Y-34998271D01*
X40474936Y-34998267D01*
X40474935Y-34998266D01*
X40309083Y-34913761D01*
X40309082Y-34913760D01*
X40309081Y-34913760D01*
X40129290Y-34865585D01*
X40129289Y-34865584D01*
X40129286Y-34865584D01*
X40051981Y-34859500D01*
X40051977Y-34859500D01*
X39403020Y-34859500D01*
X39325716Y-34865583D01*
X39145918Y-34913760D01*
X38980063Y-34998267D01*
X38980062Y-34998267D01*
X38835407Y-35115407D01*
X38718267Y-35260062D01*
X38718267Y-35260063D01*
X38633760Y-35425918D01*
X38588683Y-35594149D01*
X38585584Y-35605714D01*
X38579980Y-35676923D01*
X38579500Y-35683022D01*
X38579500Y-36257372D01*
X38571789Y-36283633D01*
X38567663Y-36310690D01*
X38561090Y-36320070D01*
X38559498Y-36325493D01*
X38553880Y-36330360D01*
X38542595Y-36346467D01*
X38340594Y-36548468D01*
X38278282Y-36582494D01*
X38207467Y-36577429D01*
X38150631Y-36534882D01*
X38125820Y-36468362D01*
X38125499Y-36459373D01*
X38125499Y-36248320D01*
X38122160Y-36205877D01*
X38123639Y-36205760D01*
X38123642Y-36184236D01*
X38122160Y-36184120D01*
X38125499Y-36141689D01*
X38125500Y-36141687D01*
X38125500Y-36141681D01*
X38125499Y-35613320D01*
X38122665Y-35577296D01*
X38077869Y-35423107D01*
X37996135Y-35284902D01*
X37996133Y-35284900D01*
X37996130Y-35284896D01*
X37882601Y-35171367D01*
X37882592Y-35171360D01*
X37876297Y-35167637D01*
X37827847Y-35115742D01*
X37815144Y-35045891D01*
X37816859Y-35034620D01*
X37846500Y-34885608D01*
X37846500Y-34710392D01*
X37812317Y-34538542D01*
X37745265Y-34376664D01*
X37647920Y-34230977D01*
X37524023Y-34107080D01*
X37378336Y-34009735D01*
X37216458Y-33942683D01*
X37044610Y-33908500D01*
X37044608Y-33908500D01*
X36869392Y-33908500D01*
X36869389Y-33908500D01*
X36697541Y-33942683D01*
X36697536Y-33942685D01*
X36535664Y-34009735D01*
X36389981Y-34107077D01*
X36389974Y-34107082D01*
X36266082Y-34230974D01*
X36266077Y-34230981D01*
X36168735Y-34376664D01*
X36101685Y-34538536D01*
X36101683Y-34538541D01*
X36067500Y-34710389D01*
X36067500Y-34885613D01*
X36080024Y-34948573D01*
X36073696Y-35019287D01*
X36030141Y-35075354D01*
X35963189Y-35098973D01*
X35894095Y-35082646D01*
X35867350Y-35062249D01*
X34467938Y-33662837D01*
X34440624Y-33621960D01*
X34410718Y-33549761D01*
X34372538Y-33457585D01*
X34268243Y-33301498D01*
X34268238Y-33301492D01*
X34135507Y-33168761D01*
X34135501Y-33168756D01*
X34083709Y-33134149D01*
X33979415Y-33064462D01*
X33805980Y-32992623D01*
X33621864Y-32956000D01*
X33621862Y-32956000D01*
X33434138Y-32956000D01*
X33434135Y-32956000D01*
X33250019Y-32992623D01*
X33250014Y-32992625D01*
X33076585Y-33064462D01*
X32920498Y-33168756D01*
X32920492Y-33168761D01*
X32787761Y-33301492D01*
X32787756Y-33301498D01*
X32683462Y-33457585D01*
X32611625Y-33631014D01*
X32611623Y-33631019D01*
X32575000Y-33815135D01*
X32575000Y-34002864D01*
X32589980Y-34078172D01*
X32611623Y-34186980D01*
X32683462Y-34360415D01*
X32702108Y-34388320D01*
X32787756Y-34516501D01*
X32787761Y-34516507D01*
X32920492Y-34649238D01*
X32920498Y-34649243D01*
X33076585Y-34753538D01*
X33240960Y-34821624D01*
X33281837Y-34848938D01*
X34027048Y-35594149D01*
X34061074Y-35656461D01*
X34056009Y-35727276D01*
X34013462Y-35784112D01*
X34007957Y-35788008D01*
X33936497Y-35835757D01*
X33936492Y-35835761D01*
X33803761Y-35968492D01*
X33803756Y-35968498D01*
X33699462Y-36124585D01*
X33655376Y-36231018D01*
X33610828Y-36286299D01*
X33543464Y-36308720D01*
X33538967Y-36308800D01*
X33048653Y-36308800D01*
X32980532Y-36288798D01*
X32934039Y-36235142D01*
X32923042Y-36172911D01*
X32925500Y-36141687D01*
X32925500Y-36141680D01*
X32925499Y-35613320D01*
X32923991Y-35594149D01*
X32922665Y-35577296D01*
X32877869Y-35423107D01*
X32796135Y-35284902D01*
X32796133Y-35284900D01*
X32796130Y-35284896D01*
X32682603Y-35171369D01*
X32682599Y-35171366D01*
X32682598Y-35171365D01*
X32560467Y-35099137D01*
X32544395Y-35089632D01*
X32544394Y-35089631D01*
X32544393Y-35089631D01*
X32467298Y-35067233D01*
X32390202Y-35044834D01*
X32354189Y-35042000D01*
X31025820Y-35042000D01*
X30989797Y-35044834D01*
X30859784Y-35082607D01*
X30839246Y-35088574D01*
X30835604Y-35089632D01*
X30697400Y-35171366D01*
X30697396Y-35171369D01*
X30583869Y-35284896D01*
X30583866Y-35284900D01*
X30502132Y-35423104D01*
X30457334Y-35577297D01*
X30454500Y-35613310D01*
X30454500Y-36141679D01*
X30457840Y-36184121D01*
X30457288Y-36184164D01*
X30458372Y-36198059D01*
X30458089Y-36209699D01*
X30457335Y-36212296D01*
X30454500Y-36248319D01*
X30454500Y-36357411D01*
X30454463Y-36358934D01*
X30444084Y-36391343D01*
X30434498Y-36423994D01*
X30433296Y-36425035D01*
X30432812Y-36426548D01*
X30406570Y-36448192D01*
X30380842Y-36470487D01*
X30379268Y-36470713D01*
X30378043Y-36471724D01*
X30344275Y-36475744D01*
X30310568Y-36480591D01*
X30309121Y-36479930D01*
X30307544Y-36480118D01*
X30276944Y-36465235D01*
X30245988Y-36451097D01*
X30243921Y-36449173D01*
X30243699Y-36449065D01*
X30243559Y-36448836D01*
X30239405Y-36444968D01*
X29723655Y-35929218D01*
X29689629Y-35866906D01*
X29686750Y-35840123D01*
X29686750Y-30159253D01*
X29706752Y-30091132D01*
X29760408Y-30044639D01*
X29830682Y-30034535D01*
X29895262Y-30064029D01*
X29914685Y-30085191D01*
X29981924Y-30177738D01*
X29981926Y-30177740D01*
X29981928Y-30177743D01*
X30147256Y-30343071D01*
X30147259Y-30343073D01*
X30147262Y-30343076D01*
X30336429Y-30480513D01*
X30544766Y-30586666D01*
X30767145Y-30658922D01*
X30998089Y-30695500D01*
X30998092Y-30695500D01*
X31231908Y-30695500D01*
X31231911Y-30695500D01*
X31462855Y-30658922D01*
X31685234Y-30586666D01*
X31893571Y-30480513D01*
X32082738Y-30343076D01*
X32248076Y-30177738D01*
X32385513Y-29988571D01*
X32491666Y-29780234D01*
X32563922Y-29557855D01*
X32600500Y-29326911D01*
X32600500Y-29093089D01*
X32563922Y-28862145D01*
X32491666Y-28639766D01*
X32385513Y-28431429D01*
X32248076Y-28242262D01*
X32248073Y-28242259D01*
X32248071Y-28242256D01*
X32082743Y-28076928D01*
X32082739Y-28076925D01*
X32082738Y-28076924D01*
X32034579Y-28041935D01*
X31991226Y-27985715D01*
X31985150Y-27914979D01*
X32018282Y-27852187D01*
X32034574Y-27838068D01*
X32082738Y-27803076D01*
X32248076Y-27637738D01*
X32385513Y-27448571D01*
X32491666Y-27240234D01*
X32563922Y-27017855D01*
X32600500Y-26786911D01*
X32600500Y-26553089D01*
X32564717Y-26327166D01*
X32573817Y-26256759D01*
X32600068Y-26218367D01*
X34621096Y-24197338D01*
X34683406Y-24163315D01*
X34754221Y-24168379D01*
X34811057Y-24210926D01*
X34834638Y-24266724D01*
X34838886Y-24293549D01*
X34868078Y-24477855D01*
X34868079Y-24477858D01*
X34925460Y-24654459D01*
X34940334Y-24700234D01*
X35046487Y-24908571D01*
X35183924Y-25097738D01*
X35183926Y-25097740D01*
X35183928Y-25097743D01*
X35349256Y-25263071D01*
X35349259Y-25263073D01*
X35349262Y-25263076D01*
X35397419Y-25298064D01*
X35440773Y-25354286D01*
X35446848Y-25425023D01*
X35413717Y-25487814D01*
X35397419Y-25501936D01*
X35349259Y-25536926D01*
X35349256Y-25536928D01*
X35183928Y-25702256D01*
X35183926Y-25702259D01*
X35046489Y-25891425D01*
X34940333Y-26099767D01*
X34868079Y-26322141D01*
X34868078Y-26322145D01*
X34831500Y-26553089D01*
X34831500Y-26786911D01*
X34868078Y-27017855D01*
X34868079Y-27017857D01*
X34868079Y-27017858D01*
X34938755Y-27235376D01*
X34940334Y-27240234D01*
X35029517Y-27415266D01*
X35046489Y-27448574D01*
X35046701Y-27448866D01*
X35183924Y-27637738D01*
X35183926Y-27637740D01*
X35183928Y-27637743D01*
X35349256Y-27803071D01*
X35349259Y-27803073D01*
X35349262Y-27803076D01*
X35374867Y-27821679D01*
X35397419Y-27838064D01*
X35440773Y-27894286D01*
X35446848Y-27965023D01*
X35413717Y-28027814D01*
X35397419Y-28041936D01*
X35349259Y-28076926D01*
X35349256Y-28076928D01*
X35183928Y-28242256D01*
X35183926Y-28242259D01*
X35046489Y-28431425D01*
X34940333Y-28639767D01*
X34888750Y-28798523D01*
X34868078Y-28862145D01*
X34831500Y-29093089D01*
X34831500Y-29326911D01*
X34868078Y-29557855D01*
X34940334Y-29780234D01*
X35046487Y-29988571D01*
X35183924Y-30177738D01*
X35183926Y-30177740D01*
X35183928Y-30177743D01*
X35349256Y-30343071D01*
X35349259Y-30343073D01*
X35349262Y-30343076D01*
X35538429Y-30480513D01*
X35746766Y-30586666D01*
X35969145Y-30658922D01*
X36200089Y-30695500D01*
X36200092Y-30695500D01*
X36433908Y-30695500D01*
X36433911Y-30695500D01*
X36664855Y-30658922D01*
X36887234Y-30586666D01*
X37095571Y-30480513D01*
X37284738Y-30343076D01*
X37450076Y-30177738D01*
X37485064Y-30129579D01*
X37541285Y-30086226D01*
X37612021Y-30080150D01*
X37674813Y-30113282D01*
X37688931Y-30129574D01*
X37723924Y-30177738D01*
X37723928Y-30177743D01*
X37889256Y-30343071D01*
X37889259Y-30343073D01*
X37889262Y-30343076D01*
X38078429Y-30480513D01*
X38286766Y-30586666D01*
X38509145Y-30658922D01*
X38740089Y-30695500D01*
X38740092Y-30695500D01*
X38973908Y-30695500D01*
X38973911Y-30695500D01*
X39204855Y-30658922D01*
X39427234Y-30586666D01*
X39635571Y-30480513D01*
X39824738Y-30343076D01*
X39990076Y-30177738D01*
X40127513Y-29988571D01*
X40233666Y-29780234D01*
X40305922Y-29557855D01*
X40342500Y-29326911D01*
X40342500Y-29093089D01*
X40305922Y-28862145D01*
X40233666Y-28639766D01*
X40127513Y-28431429D01*
X39990076Y-28242262D01*
X39990073Y-28242259D01*
X39990071Y-28242256D01*
X39824743Y-28076928D01*
X39824739Y-28076925D01*
X39824738Y-28076924D01*
X39776579Y-28041935D01*
X39733226Y-27985715D01*
X39727150Y-27914979D01*
X39760282Y-27852187D01*
X39776574Y-27838068D01*
X39824738Y-27803076D01*
X39990076Y-27637738D01*
X40127513Y-27448571D01*
X40233666Y-27240234D01*
X40305922Y-27017855D01*
X40323364Y-26907724D01*
X40353775Y-26843576D01*
X40414043Y-26806049D01*
X40485032Y-26807062D01*
X40536907Y-26838344D01*
X44619168Y-30920606D01*
X44619174Y-30920611D01*
X44738860Y-31000583D01*
X44870269Y-31055014D01*
X44871848Y-31055668D01*
X44871851Y-31055668D01*
X44871852Y-31055669D01*
X45013021Y-31083749D01*
X45013024Y-31083749D01*
X45013027Y-31083750D01*
X53550469Y-31083750D01*
X53618590Y-31103752D01*
X53648388Y-31130454D01*
X53654130Y-31137544D01*
X53657408Y-31141592D01*
X53701815Y-31177552D01*
X53802062Y-31258732D01*
X53802063Y-31258732D01*
X53802065Y-31258734D01*
X53967917Y-31343239D01*
X54147714Y-31391416D01*
X54225019Y-31397500D01*
X55248980Y-31397499D01*
X55326286Y-31391416D01*
X55506083Y-31343239D01*
X55671935Y-31258734D01*
X55816592Y-31141592D01*
X55822025Y-31134882D01*
X55825612Y-31130454D01*
X55884027Y-31090103D01*
X55923531Y-31083750D01*
X56792583Y-31083750D01*
X56859618Y-31103062D01*
X56933028Y-31149189D01*
X57100104Y-31207651D01*
X57231891Y-31222500D01*
X58495108Y-31222499D01*
X58495109Y-31222499D01*
X58511581Y-31220643D01*
X58626896Y-31207651D01*
X58793972Y-31149189D01*
X58814712Y-31136156D01*
X58883033Y-31116850D01*
X58950947Y-31137544D01*
X58996891Y-31191671D01*
X59007750Y-31242843D01*
X59007750Y-31980527D01*
X59007750Y-32124473D01*
X59035832Y-32265652D01*
X59090917Y-32398640D01*
X59144352Y-32478611D01*
X59170888Y-32518325D01*
X59170893Y-32518331D01*
X61462345Y-34809782D01*
X61496370Y-34872094D01*
X61499250Y-34898877D01*
X61499250Y-38160122D01*
X61479248Y-38228243D01*
X61462345Y-38249217D01*
X60123611Y-39587950D01*
X60061299Y-39621976D01*
X59990483Y-39616911D01*
X59986299Y-39615264D01*
X59981279Y-39613184D01*
X59981268Y-39613181D01*
X59748857Y-39550906D01*
X59748852Y-39550905D01*
X59748847Y-39550904D01*
X59510307Y-39519500D01*
X59510305Y-39519500D01*
X59269695Y-39519500D01*
X59269692Y-39519500D01*
X59031150Y-39550904D01*
X58798736Y-39613179D01*
X58798732Y-39613181D01*
X58576435Y-39705259D01*
X58576425Y-39705264D01*
X58368066Y-39825560D01*
X58177174Y-39972037D01*
X58177163Y-39972046D01*
X58007046Y-40142163D01*
X58007037Y-40142174D01*
X57860560Y-40333066D01*
X57740264Y-40541425D01*
X57740259Y-40541435D01*
X57740258Y-40541437D01*
X57688799Y-40665670D01*
X57648181Y-40763732D01*
X57648179Y-40763736D01*
X57585904Y-40996150D01*
X57554500Y-41234692D01*
X57554500Y-41475307D01*
X57585904Y-41713849D01*
X57585905Y-41713855D01*
X57585906Y-41713857D01*
X57585936Y-41713968D01*
X57648179Y-41946263D01*
X57648180Y-41946265D01*
X57648181Y-41946268D01*
X57740258Y-42168563D01*
X57740259Y-42168564D01*
X57740264Y-42168574D01*
X57860560Y-42376933D01*
X57860562Y-42376936D01*
X57860563Y-42376937D01*
X58007037Y-42567826D01*
X58007041Y-42567830D01*
X58007046Y-42567836D01*
X58177163Y-42737953D01*
X58177168Y-42737957D01*
X58177174Y-42737963D01*
X58368063Y-42884437D01*
X58576437Y-43004742D01*
X58798732Y-43096819D01*
X59031143Y-43159094D01*
X59031149Y-43159094D01*
X59031150Y-43159095D01*
X59058523Y-43162698D01*
X59269695Y-43190500D01*
X59269702Y-43190500D01*
X59510298Y-43190500D01*
X59510305Y-43190500D01*
X59748857Y-43159094D01*
X59981268Y-43096819D01*
X60203563Y-43004742D01*
X60411937Y-42884437D01*
X60602826Y-42737963D01*
X60772963Y-42567826D01*
X60919437Y-42376937D01*
X61039742Y-42168563D01*
X61131819Y-41946268D01*
X61194094Y-41713857D01*
X61225500Y-41475305D01*
X61225500Y-41234695D01*
X61194094Y-40996143D01*
X61131819Y-40763732D01*
X61129734Y-40758700D01*
X61122145Y-40688112D01*
X61153923Y-40624624D01*
X61157021Y-40621414D01*
X62695823Y-39082612D01*
X62695826Y-39082611D01*
X62797611Y-38980826D01*
X62833798Y-38926668D01*
X62877583Y-38861140D01*
X62918872Y-38761458D01*
X62925100Y-38746424D01*
X62932665Y-38728159D01*
X62932664Y-38728159D01*
X62932668Y-38728152D01*
X62945312Y-38664585D01*
X62960751Y-38586973D01*
X62960751Y-38443027D01*
X62960751Y-38437835D01*
X62960750Y-38437809D01*
X62960750Y-34472028D01*
X62960749Y-34472024D01*
X62932668Y-34330848D01*
X62915235Y-34288761D01*
X62877584Y-34197864D01*
X62877582Y-34197860D01*
X62870312Y-34186980D01*
X62797611Y-34078174D01*
X62695826Y-33976389D01*
X60506155Y-31786718D01*
X60472129Y-31724406D01*
X60469250Y-31697623D01*
X60469250Y-30573938D01*
X61657000Y-30573938D01*
X61663082Y-30651210D01*
X61711230Y-30830902D01*
X61795687Y-30996658D01*
X61795688Y-30996661D01*
X61912763Y-31141236D01*
X62057338Y-31258311D01*
X62057341Y-31258312D01*
X62223097Y-31342769D01*
X62402789Y-31390917D01*
X62480061Y-31397000D01*
X62674500Y-31397000D01*
X63309500Y-31397000D01*
X63503939Y-31397000D01*
X63581210Y-31390917D01*
X63760902Y-31342769D01*
X63926658Y-31258312D01*
X63926661Y-31258311D01*
X64071236Y-31141236D01*
X64188311Y-30996661D01*
X64188312Y-30996658D01*
X64272769Y-30830902D01*
X64320917Y-30651210D01*
X64327000Y-30573938D01*
X64327000Y-30567000D01*
X63309500Y-30567000D01*
X63309500Y-31397000D01*
X62674500Y-31397000D01*
X62674500Y-30567000D01*
X61657000Y-30567000D01*
X61657000Y-30573938D01*
X60469250Y-30573938D01*
X60469250Y-30358476D01*
X60489252Y-30290355D01*
X60542908Y-30243862D01*
X60553635Y-30239547D01*
X60584661Y-30228690D01*
X60668972Y-30199189D01*
X60818850Y-30105014D01*
X60818854Y-30105010D01*
X60819210Y-30104655D01*
X60819496Y-30104498D01*
X60824384Y-30100601D01*
X60825066Y-30101456D01*
X60881522Y-30070629D01*
X60908305Y-30067750D01*
X61031972Y-30067750D01*
X61031973Y-30067750D01*
X61173152Y-30039668D01*
X61306140Y-29984583D01*
X61425826Y-29904611D01*
X61441904Y-29888532D01*
X61504214Y-29854507D01*
X61575030Y-29859570D01*
X61631866Y-29902116D01*
X61634692Y-29909693D01*
X61656999Y-29932000D01*
X64327000Y-29932000D01*
X64327000Y-29925061D01*
X64320917Y-29847789D01*
X64272769Y-29668097D01*
X64188312Y-29502341D01*
X64188307Y-29502332D01*
X64118956Y-29416691D01*
X64091630Y-29351164D01*
X64104070Y-29281265D01*
X64118953Y-29258106D01*
X64188734Y-29171935D01*
X64273239Y-29006083D01*
X64321416Y-28826286D01*
X64327500Y-28748981D01*
X64327499Y-28100020D01*
X64321416Y-28022714D01*
X64273239Y-27842917D01*
X64188734Y-27677065D01*
X64177184Y-27662802D01*
X64071592Y-27532407D01*
X63926937Y-27415267D01*
X63761081Y-27330760D01*
X63581290Y-27282585D01*
X63581289Y-27282584D01*
X63581286Y-27282584D01*
X63503981Y-27276500D01*
X63503977Y-27276500D01*
X62480020Y-27276500D01*
X62402716Y-27282583D01*
X62222918Y-27330760D01*
X62057063Y-27415267D01*
X62057062Y-27415267D01*
X61912407Y-27532407D01*
X61806816Y-27662802D01*
X61748402Y-27703154D01*
X61733479Y-27707086D01*
X61705167Y-27712717D01*
X61659348Y-27721832D01*
X61659346Y-27721833D01*
X61659342Y-27721834D01*
X61526360Y-27776917D01*
X61406678Y-27856886D01*
X61406676Y-27856887D01*
X60813033Y-28450528D01*
X60750721Y-28484553D01*
X60679905Y-28479488D01*
X60669270Y-28474955D01*
X60668974Y-28474812D01*
X60668972Y-28474811D01*
X60668968Y-28474809D01*
X60668967Y-28474809D01*
X60501899Y-28416350D01*
X60501898Y-28416349D01*
X60501896Y-28416349D01*
X60370109Y-28401500D01*
X59362499Y-28401500D01*
X59294378Y-28381498D01*
X59247885Y-28327842D01*
X59236499Y-28275500D01*
X59236499Y-28192890D01*
X59232501Y-28157403D01*
X59221651Y-28061104D01*
X59163189Y-27894028D01*
X59069014Y-27744150D01*
X59069010Y-27744146D01*
X59069010Y-27744145D01*
X58943854Y-27618989D01*
X58943851Y-27618987D01*
X58943850Y-27618986D01*
X58844242Y-27556398D01*
X58793971Y-27524810D01*
X58626899Y-27466350D01*
X58626898Y-27466349D01*
X58626896Y-27466349D01*
X58495109Y-27451500D01*
X57231890Y-27451500D01*
X57100110Y-27466348D01*
X57100105Y-27466348D01*
X57100104Y-27466349D01*
X57100103Y-27466349D01*
X57100099Y-27466350D01*
X56933027Y-27524811D01*
X56933025Y-27524812D01*
X56829301Y-27589987D01*
X56812211Y-27594910D01*
X56797763Y-27604196D01*
X56762265Y-27609300D01*
X56751572Y-27609300D01*
X56703354Y-27599709D01*
X56691768Y-27594910D01*
X56538980Y-27531623D01*
X56531570Y-27530149D01*
X56354864Y-27495000D01*
X56354862Y-27495000D01*
X56167138Y-27495000D01*
X56167135Y-27495000D01*
X55983019Y-27531623D01*
X55983014Y-27531625D01*
X55941525Y-27548810D01*
X55870935Y-27556398D01*
X55814014Y-27530320D01*
X55671937Y-27415267D01*
X55506081Y-27330760D01*
X55326290Y-27282585D01*
X55326289Y-27282584D01*
X55326286Y-27282584D01*
X55248981Y-27276500D01*
X55248977Y-27276500D01*
X54225020Y-27276500D01*
X54147716Y-27282583D01*
X53967918Y-27330760D01*
X53802063Y-27415267D01*
X53802062Y-27415267D01*
X53657407Y-27532407D01*
X53540267Y-27677062D01*
X53540267Y-27677063D01*
X53455760Y-27842918D01*
X53423042Y-27965023D01*
X53407584Y-28022714D01*
X53401500Y-28100019D01*
X53401500Y-28100022D01*
X53401500Y-28748979D01*
X53407583Y-28826283D01*
X53407584Y-28826286D01*
X53455761Y-29006083D01*
X53523884Y-29139784D01*
X53540267Y-29171936D01*
X53540271Y-29171942D01*
X53609721Y-29257706D01*
X53620053Y-29282484D01*
X53633809Y-29305537D01*
X53633503Y-29314735D01*
X53637047Y-29323233D01*
X53632342Y-29349666D01*
X53631451Y-29376494D01*
X53625690Y-29387045D01*
X53624607Y-29393131D01*
X53615478Y-29408604D01*
X53612742Y-29412564D01*
X53540266Y-29502065D01*
X53510267Y-29560941D01*
X53505493Y-29567854D01*
X53484172Y-29585122D01*
X53465335Y-29605068D01*
X53456644Y-29607418D01*
X53450323Y-29612539D01*
X53429073Y-29614876D01*
X53401816Y-29622250D01*
X45439877Y-29622250D01*
X45371756Y-29602248D01*
X45350782Y-29585345D01*
X43587116Y-27821679D01*
X43553090Y-27759367D01*
X43558155Y-27688552D01*
X43600702Y-27631716D01*
X43667222Y-27606905D01*
X43716859Y-27614950D01*
X43717197Y-27613837D01*
X43913501Y-27673385D01*
X43913512Y-27673387D01*
X44061875Y-27687999D01*
X44061891Y-27688000D01*
X44419000Y-27688000D01*
X45054000Y-27688000D01*
X45411109Y-27688000D01*
X45411124Y-27687999D01*
X45559487Y-27673387D01*
X45559498Y-27673385D01*
X45749875Y-27615635D01*
X45749879Y-27615633D01*
X45925341Y-27521847D01*
X46079132Y-27395632D01*
X46205347Y-27241841D01*
X46299133Y-27066379D01*
X46299135Y-27066375D01*
X46356885Y-26875998D01*
X46356887Y-26875987D01*
X46371499Y-26727624D01*
X46371500Y-26727608D01*
X46371500Y-26620500D01*
X45054000Y-26620500D01*
X45054000Y-27688000D01*
X44419000Y-27688000D01*
X44419000Y-26620500D01*
X43101500Y-26620500D01*
X43101500Y-26727624D01*
X43116112Y-26875987D01*
X43116114Y-26875998D01*
X43175663Y-27072303D01*
X43174151Y-27072761D01*
X43180912Y-27135666D01*
X43149129Y-27199151D01*
X43088069Y-27235376D01*
X43017118Y-27232838D01*
X42967820Y-27202383D01*
X40342755Y-24577318D01*
X40308729Y-24515006D01*
X40307401Y-24468516D01*
X40342500Y-24246911D01*
X40342500Y-24013089D01*
X40305922Y-23782145D01*
X40233666Y-23559766D01*
X40127513Y-23351429D01*
X39990076Y-23162262D01*
X39990073Y-23162259D01*
X39990071Y-23162256D01*
X39824743Y-22996928D01*
X39824739Y-22996925D01*
X39824738Y-22996924D01*
X39776579Y-22961935D01*
X39733226Y-22905715D01*
X39727150Y-22834979D01*
X39760282Y-22772187D01*
X39776574Y-22758068D01*
X39824738Y-22723076D01*
X39891815Y-22655999D01*
X39969210Y-22578605D01*
X40031522Y-22544579D01*
X40058305Y-22541700D01*
X41165428Y-22541700D01*
X41213645Y-22551290D01*
X41378020Y-22619377D01*
X41562138Y-22656000D01*
X41562139Y-22656000D01*
X41732064Y-22656000D01*
X41800185Y-22676002D01*
X41846678Y-22729658D01*
X41856782Y-22799932D01*
X41827288Y-22864512D01*
X41821159Y-22871095D01*
X41804761Y-22887492D01*
X41804756Y-22887498D01*
X41700462Y-23043585D01*
X41628625Y-23217014D01*
X41628623Y-23217019D01*
X41592000Y-23401135D01*
X41592000Y-23588864D01*
X41617440Y-23716759D01*
X41628623Y-23772980D01*
X41700462Y-23946415D01*
X41745013Y-24013089D01*
X41804756Y-24102501D01*
X41804761Y-24102507D01*
X41937492Y-24235238D01*
X41937498Y-24235243D01*
X42093585Y-24339538D01*
X42257960Y-24407624D01*
X42265003Y-24412330D01*
X42270127Y-24413445D01*
X42298837Y-24434938D01*
X42401539Y-24537640D01*
X42518360Y-24654461D01*
X42655727Y-24746246D01*
X42808360Y-24809469D01*
X42970395Y-24841700D01*
X43135605Y-24841700D01*
X43138038Y-24841700D01*
X43206159Y-24861702D01*
X43238756Y-24891990D01*
X43244583Y-24899742D01*
X43267235Y-24942120D01*
X43376735Y-25075546D01*
X43378342Y-25077683D01*
X43389909Y-25108509D01*
X43402777Y-25138806D01*
X43402307Y-25141548D01*
X43403285Y-25144154D01*
X43396348Y-25176347D01*
X43390795Y-25208784D01*
X43388637Y-25212141D01*
X43388332Y-25213558D01*
X43386627Y-25215269D01*
X43375023Y-25233327D01*
X43267652Y-25364158D01*
X43173866Y-25539620D01*
X43173864Y-25539624D01*
X43116114Y-25730001D01*
X43116112Y-25730012D01*
X43101500Y-25878375D01*
X43101500Y-25985500D01*
X46417049Y-25985500D01*
X46424491Y-25984700D01*
X48469604Y-25984700D01*
X48469605Y-25984700D01*
X48631640Y-25952469D01*
X48784273Y-25889246D01*
X48921640Y-25797461D01*
X49200856Y-25518244D01*
X49263164Y-25484222D01*
X49333980Y-25489286D01*
X49390816Y-25531833D01*
X49413068Y-25580558D01*
X49449996Y-25750314D01*
X49492680Y-25849990D01*
X49535362Y-25949663D01*
X49535363Y-25949665D01*
X49535364Y-25949666D01*
X49656913Y-26129253D01*
X49810246Y-26282586D01*
X49810249Y-26282588D01*
X49810250Y-26282589D01*
X49989837Y-26404138D01*
X50189183Y-26489502D01*
X50189186Y-26489502D01*
X50189187Y-26489503D01*
X50189186Y-26489503D01*
X50343425Y-26523055D01*
X50401081Y-26535598D01*
X50449796Y-26538500D01*
X50449812Y-26538500D01*
X51623188Y-26538500D01*
X51623204Y-26538500D01*
X51671919Y-26535598D01*
X51777868Y-26512550D01*
X51883813Y-26489503D01*
X51883813Y-26489502D01*
X51883817Y-26489502D01*
X52083163Y-26404138D01*
X52262750Y-26282589D01*
X52416089Y-26129250D01*
X52537638Y-25949663D01*
X52623002Y-25750317D01*
X52633457Y-25702259D01*
X52669097Y-25538423D01*
X52669096Y-25538423D01*
X52669098Y-25538419D01*
X52672000Y-25489704D01*
X52672000Y-22516296D01*
X52669098Y-22467581D01*
X52653129Y-22394174D01*
X52623003Y-22255686D01*
X52622965Y-22255597D01*
X52537638Y-22056337D01*
X52416089Y-21876750D01*
X52416088Y-21876749D01*
X52416086Y-21876746D01*
X52262753Y-21723413D01*
X52083166Y-21601864D01*
X52083165Y-21601863D01*
X52083163Y-21601862D01*
X51949040Y-21544428D01*
X51883813Y-21516496D01*
X51671922Y-21470402D01*
X51671923Y-21470402D01*
X51623207Y-21467500D01*
X51623204Y-21467500D01*
X50449796Y-21467500D01*
X50449792Y-21467500D01*
X50401076Y-21470402D01*
X50189186Y-21516496D01*
X50070120Y-21567483D01*
X49989837Y-21601862D01*
X49989835Y-21601862D01*
X49989833Y-21601864D01*
X49810246Y-21723413D01*
X49652667Y-21880993D01*
X49651529Y-21879855D01*
X49599103Y-21915318D01*
X49528126Y-21916989D01*
X49490766Y-21900055D01*
X49473418Y-21888463D01*
X49299985Y-21816625D01*
X49299980Y-21816623D01*
X49115864Y-21780000D01*
X49115862Y-21780000D01*
X48928138Y-21780000D01*
X48928135Y-21780000D01*
X48744019Y-21816623D01*
X48744014Y-21816625D01*
X48570585Y-21888462D01*
X48414498Y-21992756D01*
X48414492Y-21992761D01*
X48281759Y-22125494D01*
X48218188Y-22220635D01*
X48163710Y-22266162D01*
X48093267Y-22275009D01*
X48029223Y-22244368D01*
X48024328Y-22239727D01*
X47239791Y-21455189D01*
X58559500Y-21455189D01*
X58559500Y-21724810D01*
X58589688Y-21992735D01*
X58649685Y-22255597D01*
X58738726Y-22510061D01*
X58738737Y-22510088D01*
X58855717Y-22753000D01*
X58999159Y-22981286D01*
X59167268Y-23192088D01*
X59357911Y-23382731D01*
X59568713Y-23550840D01*
X59796999Y-23694282D01*
X59797002Y-23694283D01*
X59797003Y-23694284D01*
X60039921Y-23811267D01*
X60039937Y-23811272D01*
X60039938Y-23811273D01*
X60294402Y-23900314D01*
X60294405Y-23900314D01*
X60294409Y-23900316D01*
X60557268Y-23960312D01*
X60747248Y-23981717D01*
X60825189Y-23990500D01*
X60825191Y-23990500D01*
X61094811Y-23990500D01*
X61162853Y-23982833D01*
X61362732Y-23960312D01*
X61625591Y-23900316D01*
X61880079Y-23811267D01*
X62122997Y-23694284D01*
X62290771Y-23588864D01*
X62351286Y-23550840D01*
X62351289Y-23550838D01*
X62562085Y-23382734D01*
X62752734Y-23192085D01*
X62920838Y-22981289D01*
X62968325Y-22905715D01*
X63014264Y-22832603D01*
X63064284Y-22752997D01*
X63181267Y-22510079D01*
X63270316Y-22255591D01*
X63330312Y-21992732D01*
X63360500Y-21724809D01*
X63360500Y-21455191D01*
X63330312Y-21187268D01*
X63270316Y-20924409D01*
X63260561Y-20896532D01*
X63181273Y-20669938D01*
X63181272Y-20669937D01*
X63181267Y-20669921D01*
X63064284Y-20427003D01*
X63064283Y-20427002D01*
X63064282Y-20426999D01*
X62920840Y-20198713D01*
X62752731Y-19987911D01*
X62562088Y-19797268D01*
X62351286Y-19629159D01*
X62123000Y-19485717D01*
X61880088Y-19368737D01*
X61880083Y-19368735D01*
X61880079Y-19368733D01*
X61880073Y-19368730D01*
X61880061Y-19368726D01*
X61625597Y-19279685D01*
X61362735Y-19219688D01*
X61094811Y-19189500D01*
X61094809Y-19189500D01*
X60825191Y-19189500D01*
X60825189Y-19189500D01*
X60557264Y-19219688D01*
X60294402Y-19279685D01*
X60039938Y-19368726D01*
X60039911Y-19368737D01*
X59796999Y-19485717D01*
X59568713Y-19629159D01*
X59357911Y-19797268D01*
X59167268Y-19987911D01*
X58999159Y-20198713D01*
X58855717Y-20426999D01*
X58738737Y-20669911D01*
X58738726Y-20669938D01*
X58649685Y-20924402D01*
X58589688Y-21187264D01*
X58559500Y-21455189D01*
X47239791Y-21455189D01*
X46836147Y-21051545D01*
X46836141Y-21051540D01*
X46792514Y-21022389D01*
X46698773Y-20959754D01*
X46546141Y-20896531D01*
X46384107Y-20864300D01*
X46384105Y-20864300D01*
X46334962Y-20864300D01*
X46266841Y-20844298D01*
X46223840Y-20797696D01*
X46205765Y-20763880D01*
X46079488Y-20610012D01*
X45925620Y-20483735D01*
X45875464Y-20456926D01*
X45750076Y-20389904D01*
X45750070Y-20389902D01*
X45716911Y-20379843D01*
X45559593Y-20332121D01*
X45559590Y-20332120D01*
X45559585Y-20332119D01*
X45411148Y-20317500D01*
X45411140Y-20317500D01*
X44061860Y-20317500D01*
X44061851Y-20317500D01*
X43913415Y-20332119D01*
X43913412Y-20332119D01*
X43722929Y-20389902D01*
X43722923Y-20389904D01*
X43547379Y-20483735D01*
X43393512Y-20610012D01*
X43267235Y-20763879D01*
X43249160Y-20797696D01*
X43199408Y-20848344D01*
X43138038Y-20864300D01*
X42146572Y-20864300D01*
X42098354Y-20854709D01*
X41933985Y-20786625D01*
X41933980Y-20786623D01*
X41749864Y-20750000D01*
X41749862Y-20750000D01*
X41562138Y-20750000D01*
X41562135Y-20750000D01*
X41378019Y-20786623D01*
X41378014Y-20786625D01*
X41213646Y-20854709D01*
X41165428Y-20864300D01*
X40230126Y-20864300D01*
X40162005Y-20844298D01*
X40128190Y-20812361D01*
X40109492Y-20786625D01*
X39990076Y-20622262D01*
X39990073Y-20622259D01*
X39990071Y-20622256D01*
X39824743Y-20456928D01*
X39824740Y-20456926D01*
X39824738Y-20456924D01*
X39635571Y-20319487D01*
X39427234Y-20213334D01*
X39427233Y-20213333D01*
X39427232Y-20213333D01*
X39204858Y-20141079D01*
X39204855Y-20141078D01*
X38973911Y-20104500D01*
X38740089Y-20104500D01*
X38509145Y-20141078D01*
X38509142Y-20141078D01*
X38509141Y-20141079D01*
X38286767Y-20213333D01*
X38078426Y-20319488D01*
X37895419Y-20452449D01*
X37828551Y-20476307D01*
X37759400Y-20460225D01*
X37712907Y-20414652D01*
X37673135Y-20347402D01*
X37673131Y-20347398D01*
X37673130Y-20347396D01*
X37559603Y-20233869D01*
X37559599Y-20233866D01*
X37559598Y-20233865D01*
X37421393Y-20152131D01*
X37344298Y-20129733D01*
X37267202Y-20107334D01*
X37231189Y-20104500D01*
X35402820Y-20104500D01*
X35366797Y-20107334D01*
X35212604Y-20152132D01*
X35074400Y-20233866D01*
X35074396Y-20233869D01*
X34960869Y-20347396D01*
X34960866Y-20347400D01*
X34879132Y-20485604D01*
X34834334Y-20639797D01*
X34831500Y-20675810D01*
X34831500Y-20733250D01*
X34811498Y-20801371D01*
X34757842Y-20847864D01*
X34705500Y-20859250D01*
X33583024Y-20859250D01*
X33477858Y-20880169D01*
X33441848Y-20887332D01*
X33441847Y-20887332D01*
X33441844Y-20887333D01*
X33318229Y-20938536D01*
X33318230Y-20938537D01*
X33308857Y-20942419D01*
X33189172Y-21022390D01*
X32815594Y-21395968D01*
X32753282Y-21429993D01*
X32682466Y-21424928D01*
X32625631Y-21382381D01*
X32600820Y-21315861D01*
X32600499Y-21306872D01*
X32600499Y-20675820D01*
X32597665Y-20639797D01*
X32589012Y-20610012D01*
X32552869Y-20485607D01*
X32471135Y-20347402D01*
X32471131Y-20347398D01*
X32471130Y-20347396D01*
X32357603Y-20233869D01*
X32357599Y-20233866D01*
X32357598Y-20233865D01*
X32219393Y-20152131D01*
X32142298Y-20129733D01*
X32065202Y-20107334D01*
X32029189Y-20104500D01*
X30200820Y-20104500D01*
X30164797Y-20107334D01*
X30010604Y-20152132D01*
X29872400Y-20233866D01*
X29872396Y-20233869D01*
X29758869Y-20347396D01*
X29758866Y-20347400D01*
X29677132Y-20485604D01*
X29632334Y-20639797D01*
X29629500Y-20675810D01*
X29629500Y-22504179D01*
X29632334Y-22540202D01*
X29643497Y-22578623D01*
X29677131Y-22694393D01*
X29739546Y-22799932D01*
X29758866Y-22832599D01*
X29758869Y-22832603D01*
X29872396Y-22946130D01*
X29872398Y-22946131D01*
X29872402Y-22946135D01*
X29939652Y-22985906D01*
X29988104Y-23037798D01*
X30000809Y-23107649D01*
X29977449Y-23168419D01*
X29844488Y-23351426D01*
X29738333Y-23559767D01*
X29680277Y-23738444D01*
X29666078Y-23782145D01*
X29629500Y-24013089D01*
X29629500Y-24246911D01*
X29665282Y-24472827D01*
X29656182Y-24543238D01*
X29629929Y-24581633D01*
X28388387Y-25823176D01*
X28388386Y-25823178D01*
X28308417Y-25942859D01*
X28253741Y-26074861D01*
X28253736Y-26074873D01*
X28253332Y-26075847D01*
X28225250Y-26217023D01*
X28225250Y-33763155D01*
X28205248Y-33831276D01*
X28151592Y-33877769D01*
X28081318Y-33887873D01*
X28016738Y-33858379D01*
X27979417Y-33802092D01*
X27959166Y-33739766D01*
X27853013Y-33531429D01*
X27715576Y-33342262D01*
X27715573Y-33342259D01*
X27715571Y-33342256D01*
X27550243Y-33176928D01*
X27550240Y-33176926D01*
X27550238Y-33176924D01*
X27361071Y-33039487D01*
X27152734Y-32933334D01*
X27152733Y-32933333D01*
X27152732Y-32933333D01*
X26930358Y-32861079D01*
X26930355Y-32861078D01*
X26699411Y-32824500D01*
X26465589Y-32824500D01*
X26234645Y-32861078D01*
X26234642Y-32861078D01*
X26234641Y-32861079D01*
X26012267Y-32933333D01*
X25803925Y-33039489D01*
X25656561Y-33146555D01*
X25589693Y-33170414D01*
X25520541Y-33154333D01*
X25508439Y-33146555D01*
X25361074Y-33039489D01*
X25361073Y-33039488D01*
X25361071Y-33039487D01*
X25152734Y-32933334D01*
X25152733Y-32933333D01*
X25152732Y-32933333D01*
X24930358Y-32861079D01*
X24930355Y-32861078D01*
X24699411Y-32824500D01*
X24465589Y-32824500D01*
X24234645Y-32861078D01*
X24234642Y-32861078D01*
X24234641Y-32861079D01*
X24012267Y-32933333D01*
X23803925Y-33039489D01*
X23614759Y-33176926D01*
X23614756Y-33176928D01*
X23449428Y-33342256D01*
X23449426Y-33342259D01*
X23311989Y-33531425D01*
X23205833Y-33739767D01*
X23139901Y-33942685D01*
X23133578Y-33962145D01*
X23097000Y-34193089D01*
X13335000Y-34193089D01*
X13335000Y-29406031D01*
X19487000Y-29406031D01*
X19487000Y-29673968D01*
X19516999Y-29940219D01*
X19576621Y-30201438D01*
X19665106Y-30454312D01*
X19665117Y-30454339D01*
X19781366Y-30695733D01*
X19923914Y-30922596D01*
X20090970Y-31132078D01*
X20280421Y-31321529D01*
X20280425Y-31321532D01*
X20489904Y-31488586D01*
X20585173Y-31548447D01*
X20716766Y-31631133D01*
X20716769Y-31631134D01*
X20716770Y-31631135D01*
X20958170Y-31747387D01*
X20958186Y-31747392D01*
X20958187Y-31747393D01*
X21211061Y-31835878D01*
X21211064Y-31835878D01*
X21211068Y-31835880D01*
X21472284Y-31895501D01*
X21661079Y-31916773D01*
X21738531Y-31925500D01*
X21738533Y-31925500D01*
X22006469Y-31925500D01*
X22074085Y-31917881D01*
X22272716Y-31895501D01*
X22533932Y-31835880D01*
X22786830Y-31747387D01*
X23028230Y-31631135D01*
X23255096Y-31488586D01*
X23464575Y-31321532D01*
X23654032Y-31132075D01*
X23821086Y-30922596D01*
X23963635Y-30695730D01*
X24079887Y-30454330D01*
X24168380Y-30201432D01*
X24228001Y-29940216D01*
X24258000Y-29673967D01*
X24258000Y-29406033D01*
X24253036Y-29361980D01*
X24241332Y-29258102D01*
X24228001Y-29139784D01*
X24168380Y-28878568D01*
X24162633Y-28862145D01*
X24079893Y-28625687D01*
X24079892Y-28625686D01*
X24079887Y-28625670D01*
X23963635Y-28384270D01*
X23963634Y-28384269D01*
X23963633Y-28384266D01*
X23874402Y-28242256D01*
X23821086Y-28157404D01*
X23654032Y-27947925D01*
X23654029Y-27947921D01*
X23464578Y-27758470D01*
X23255096Y-27591414D01*
X23028233Y-27448866D01*
X22786839Y-27332617D01*
X22786834Y-27332615D01*
X22786830Y-27332613D01*
X22786824Y-27332610D01*
X22786812Y-27332606D01*
X22533938Y-27244121D01*
X22272719Y-27184499D01*
X22006469Y-27154500D01*
X22006467Y-27154500D01*
X21738533Y-27154500D01*
X21738531Y-27154500D01*
X21472280Y-27184499D01*
X21211061Y-27244121D01*
X20958187Y-27332606D01*
X20958160Y-27332617D01*
X20716766Y-27448866D01*
X20489903Y-27591414D01*
X20280421Y-27758470D01*
X20090970Y-27947921D01*
X19923914Y-28157403D01*
X19781366Y-28384266D01*
X19665117Y-28625660D01*
X19665106Y-28625687D01*
X19576621Y-28878561D01*
X19516999Y-29139780D01*
X19487000Y-29406031D01*
X13335000Y-29406031D01*
X13335000Y-21455189D01*
X15379500Y-21455189D01*
X15379500Y-21724810D01*
X15409688Y-21992735D01*
X15469685Y-22255597D01*
X15558726Y-22510061D01*
X15558737Y-22510088D01*
X15675717Y-22753000D01*
X15819159Y-22981286D01*
X15987268Y-23192088D01*
X16177911Y-23382731D01*
X16388713Y-23550840D01*
X16616999Y-23694282D01*
X16617002Y-23694283D01*
X16617003Y-23694284D01*
X16859921Y-23811267D01*
X16859937Y-23811272D01*
X16859938Y-23811273D01*
X17114402Y-23900314D01*
X17114405Y-23900314D01*
X17114409Y-23900316D01*
X17377268Y-23960312D01*
X17567248Y-23981717D01*
X17645189Y-23990500D01*
X17645191Y-23990500D01*
X17914811Y-23990500D01*
X17982853Y-23982833D01*
X18182732Y-23960312D01*
X18445591Y-23900316D01*
X18700079Y-23811267D01*
X18942997Y-23694284D01*
X19110771Y-23588864D01*
X19171286Y-23550840D01*
X19171289Y-23550838D01*
X19382085Y-23382734D01*
X19572734Y-23192085D01*
X19740838Y-22981289D01*
X19788325Y-22905715D01*
X19834264Y-22832603D01*
X19884284Y-22752997D01*
X20001267Y-22510079D01*
X20090316Y-22255591D01*
X20150312Y-21992732D01*
X20180500Y-21724809D01*
X20180500Y-21455191D01*
X20150312Y-21187268D01*
X20090316Y-20924409D01*
X20080561Y-20896532D01*
X20001273Y-20669938D01*
X20001272Y-20669937D01*
X20001267Y-20669921D01*
X19884284Y-20427003D01*
X19884283Y-20427002D01*
X19884282Y-20426999D01*
X19740840Y-20198713D01*
X19572731Y-19987911D01*
X19382088Y-19797268D01*
X19171286Y-19629159D01*
X18943000Y-19485717D01*
X18700088Y-19368737D01*
X18700083Y-19368735D01*
X18700079Y-19368733D01*
X18700073Y-19368730D01*
X18700061Y-19368726D01*
X18445597Y-19279685D01*
X18182735Y-19219688D01*
X17914811Y-19189500D01*
X17914809Y-19189500D01*
X17645191Y-19189500D01*
X17645189Y-19189500D01*
X17377264Y-19219688D01*
X17114402Y-19279685D01*
X16859938Y-19368726D01*
X16859911Y-19368737D01*
X16616999Y-19485717D01*
X16388713Y-19629159D01*
X16177911Y-19797268D01*
X15987268Y-19987911D01*
X15819159Y-20198713D01*
X15675717Y-20426999D01*
X15558737Y-20669911D01*
X15558726Y-20669938D01*
X15469685Y-20924402D01*
X15409688Y-21187264D01*
X15379500Y-21455189D01*
X13335000Y-21455189D01*
X13335000Y-19169716D01*
X13352758Y-19105220D01*
X13524958Y-18816232D01*
X13530629Y-18807552D01*
X13768545Y-18474331D01*
X13774921Y-18466139D01*
X14039536Y-18153707D01*
X14046567Y-18146070D01*
X14336070Y-17856567D01*
X14343707Y-17849536D01*
X14656139Y-17584921D01*
X14664331Y-17578545D01*
X14997552Y-17340629D01*
X15006243Y-17334951D01*
X15097450Y-17280603D01*
X15295221Y-17162759D01*
X15359718Y-17145000D01*
X63380282Y-17145000D01*
X63444779Y-17162759D01*
G37*
%TD.AperFunction*%
%TD*%
M02*
