%TF.GenerationSoftware,KiCad,Pcbnew,9.0.0+1*%
%TF.CreationDate,2025-03-04T14:17:01+00:00*%
%TF.ProjectId,ESP01LEDDriver,45535030-314c-4454-9444-72697665722e,rev?*%
%TF.SameCoordinates,Original*%
%TF.FileFunction,Copper,L2,Bot*%
%TF.FilePolarity,Positive*%
%FSLAX46Y46*%
G04 Gerber Fmt 4.6, Leading zero omitted, Abs format (unit mm)*
G04 Created by KiCad (PCBNEW 9.0.0+1) date 2025-03-04 14:17:01*
%MOMM*%
%LPD*%
G01*
G04 APERTURE LIST*
G04 Aperture macros list*
%AMRoundRect*
0 Rectangle with rounded corners*
0 $1 Rounding radius*
0 $2 $3 $4 $5 $6 $7 $8 $9 X,Y pos of 4 corners*
0 Add a 4 corners polygon primitive as box body*
4,1,4,$2,$3,$4,$5,$6,$7,$8,$9,$2,$3,0*
0 Add four circle primitives for the rounded corners*
1,1,$1+$1,$2,$3*
1,1,$1+$1,$4,$5*
1,1,$1+$1,$6,$7*
1,1,$1+$1,$8,$9*
0 Add four rect primitives between the rounded corners*
20,1,$1+$1,$2,$3,$4,$5,0*
20,1,$1+$1,$4,$5,$6,$7,0*
20,1,$1+$1,$6,$7,$8,$9,0*
20,1,$1+$1,$8,$9,$2,$3,0*%
G04 Aperture macros list end*
%TA.AperFunction,ComponentPad*%
%ADD10R,1.700000X1.700000*%
%TD*%
%TA.AperFunction,ComponentPad*%
%ADD11O,1.700000X1.700000*%
%TD*%
%TA.AperFunction,ComponentPad*%
%ADD12R,3.500000X3.500000*%
%TD*%
%TA.AperFunction,ComponentPad*%
%ADD13RoundRect,0.750000X-0.750000X-1.000000X0.750000X-1.000000X0.750000X1.000000X-0.750000X1.000000X0*%
%TD*%
%TA.AperFunction,ComponentPad*%
%ADD14RoundRect,0.875000X-0.875000X-0.875000X0.875000X-0.875000X0.875000X0.875000X-0.875000X0.875000X0*%
%TD*%
%TA.AperFunction,ComponentPad*%
%ADD15C,1.700000*%
%TD*%
%TA.AperFunction,ComponentPad*%
%ADD16C,3.500000*%
%TD*%
%TA.AperFunction,ComponentPad*%
%ADD17R,2.400000X2.400000*%
%TD*%
%TA.AperFunction,ComponentPad*%
%ADD18C,2.400000*%
%TD*%
%TA.AperFunction,SMDPad,CuDef*%
%ADD19RoundRect,0.250000X0.262500X0.450000X-0.262500X0.450000X-0.262500X-0.450000X0.262500X-0.450000X0*%
%TD*%
%TA.AperFunction,SMDPad,CuDef*%
%ADD20RoundRect,0.250000X0.250000X0.475000X-0.250000X0.475000X-0.250000X-0.475000X0.250000X-0.475000X0*%
%TD*%
%TA.AperFunction,SMDPad,CuDef*%
%ADD21RoundRect,0.250000X-0.475000X0.250000X-0.475000X-0.250000X0.475000X-0.250000X0.475000X0.250000X0*%
%TD*%
%TA.AperFunction,SMDPad,CuDef*%
%ADD22RoundRect,0.250000X-0.425000X0.450000X-0.425000X-0.450000X0.425000X-0.450000X0.425000X0.450000X0*%
%TD*%
%TA.AperFunction,SMDPad,CuDef*%
%ADD23RoundRect,0.250000X-1.025000X0.787500X-1.025000X-0.787500X1.025000X-0.787500X1.025000X0.787500X0*%
%TD*%
%TA.AperFunction,SMDPad,CuDef*%
%ADD24RoundRect,0.250000X-0.250000X-0.475000X0.250000X-0.475000X0.250000X0.475000X-0.250000X0.475000X0*%
%TD*%
%TA.AperFunction,ViaPad*%
%ADD25C,0.635000*%
%TD*%
%TA.AperFunction,ViaPad*%
%ADD26C,0.508000*%
%TD*%
%TA.AperFunction,Conductor*%
%ADD27C,0.406400*%
%TD*%
%TA.AperFunction,Conductor*%
%ADD28C,0.190500*%
%TD*%
G04 APERTURE END LIST*
D10*
%TO.P,J2,1,Pin_1*%
%TO.N,/UART_TX*%
X36317000Y-21590000D03*
D11*
%TO.P,J2,2,Pin_2*%
%TO.N,GND*%
X38857000Y-21590000D03*
%TO.P,J2,3,Pin_3*%
%TO.N,+3V3*%
X36317000Y-24130000D03*
%TO.P,J2,4,Pin_4*%
%TO.N,/GPIO2*%
X38857000Y-24130000D03*
%TO.P,J2,5,Pin_5*%
%TO.N,+3V3*%
X36317000Y-26670000D03*
%TO.P,J2,6,Pin_6*%
%TO.N,/GPIO0*%
X38857000Y-26670000D03*
%TO.P,J2,7,Pin_7*%
%TO.N,+3V3*%
X36317000Y-29210000D03*
%TO.P,J2,8,Pin_8*%
%TO.N,/UART_RX*%
X38857000Y-29210000D03*
%TD*%
D12*
%TO.P,CON1,1*%
%TO.N,+5V*%
X25685000Y-49276000D03*
D13*
%TO.P,CON1,2*%
%TO.N,GND*%
X19685000Y-49276000D03*
D14*
%TO.P,CON1,3*%
X22685000Y-53976000D03*
%TD*%
D10*
%TO.P,J1,1,Pin_1*%
%TO.N,+3V3*%
X31115000Y-21590000D03*
D11*
%TO.P,J1,2,Pin_2*%
%TO.N,/UART_TX*%
X31115000Y-24130000D03*
%TO.P,J1,3,Pin_3*%
%TO.N,/UART_RX*%
X31115000Y-26670000D03*
%TO.P,J1,4,Pin_4*%
%TO.N,GND*%
X31115000Y-29210000D03*
%TD*%
D10*
%TO.P,J5,1,VBUS*%
%TO.N,/VBUS*%
X26582500Y-36810000D03*
D15*
%TO.P,J5,2,D-*%
%TO.N,Net-(J5-D-)*%
X26582500Y-34310000D03*
%TO.P,J5,3,D+*%
%TO.N,Net-(J5-D+)*%
X24582500Y-34310000D03*
%TO.P,J5,4,GND*%
%TO.N,GND*%
X24582500Y-36810000D03*
D16*
%TO.P,J5,5,Shield*%
X21872500Y-41580000D03*
X21872500Y-29540000D03*
%TD*%
D17*
%TO.P,J3,1,Pin_1*%
%TO.N,GND*%
X59390000Y-46355000D03*
D18*
%TO.P,J3,2,Pin_2*%
%TO.N,Net-(J3-Pin_2)*%
X59390000Y-41355000D03*
%TO.P,J3,3,Pin_3*%
%TO.N,+5V*%
X59390000Y-36355000D03*
%TD*%
D19*
%TO.P,R5,1*%
%TO.N,Net-(U2-USBDM)*%
X27267500Y-30480000D03*
%TO.P,R5,2*%
%TO.N,Net-(J5-D-)*%
X25442500Y-30480000D03*
%TD*%
D20*
%TO.P,C7,1*%
%TO.N,+3V3*%
X35367000Y-35306000D03*
%TO.P,C7,2*%
%TO.N,GND*%
X33467000Y-35306000D03*
%TD*%
%TO.P,C8,1*%
%TO.N,+3V3*%
X35367000Y-42545000D03*
%TO.P,C8,2*%
%TO.N,GND*%
X33467000Y-42545000D03*
%TD*%
D21*
%TO.P,C2,1*%
%TO.N,+3V3*%
X51696500Y-23053000D03*
%TO.P,C2,2*%
%TO.N,GND*%
X51696500Y-24953000D03*
%TD*%
D19*
%TO.P,R6,1*%
%TO.N,Net-(U2-USBDP)*%
X27267500Y-40640000D03*
%TO.P,R6,2*%
%TO.N,Net-(J5-D+)*%
X25442500Y-40640000D03*
%TD*%
D22*
%TO.P,C3,1*%
%TO.N,+3V3*%
X44116500Y-22653000D03*
%TO.P,C3,2*%
%TO.N,GND*%
X44116500Y-25353000D03*
%TD*%
D23*
%TO.P,C1,1*%
%TO.N,+5V*%
X47886500Y-20890500D03*
%TO.P,C1,2*%
%TO.N,GND*%
X47886500Y-27115500D03*
%TD*%
D24*
%TO.P,C4,1*%
%TO.N,/VBUS*%
X30546000Y-46355000D03*
%TO.P,C4,2*%
%TO.N,GND*%
X32446000Y-46355000D03*
%TD*%
%TO.P,C6,1*%
%TO.N,Net-(J5-D+)*%
X25405000Y-42926000D03*
%TO.P,C6,2*%
%TO.N,GND*%
X27305000Y-42926000D03*
%TD*%
%TO.P,C5,1*%
%TO.N,Net-(J5-D-)*%
X25405000Y-28194000D03*
%TO.P,C5,2*%
%TO.N,GND*%
X27305000Y-28194000D03*
%TD*%
D25*
%TO.N,+5V*%
X45085000Y-38735000D03*
X50673000Y-20955000D03*
X47625000Y-38735000D03*
X47879000Y-18415000D03*
%TO.N,+3V3*%
X35306000Y-39941500D03*
X56261000Y-28448000D03*
X34544000Y-36576000D03*
X49022000Y-22733000D03*
X42545000Y-23495000D03*
X46355000Y-34290000D03*
%TO.N,GND*%
X39875000Y-59690000D03*
X47350000Y-55975000D03*
X33528000Y-33909000D03*
X30480000Y-39116000D03*
X30480000Y-42418000D03*
X35069937Y-38844063D03*
X41656000Y-21703000D03*
X47498000Y-24180800D03*
D26*
%TO.N,/UART_RX*%
X36957000Y-34798000D03*
D25*
%TO.N,/VBUS*%
X28321000Y-44958000D03*
D26*
%TO.N,/GPIO0*%
X47371000Y-51943000D03*
%TO.N,Net-(U2-USBDM)*%
X38227000Y-41021000D03*
%TO.N,Net-(U2-USBDP)*%
X32893000Y-40640000D03*
%TD*%
D27*
%TO.N,+5V*%
X47886500Y-20890500D02*
X47886500Y-18422500D01*
X50608500Y-20890500D02*
X47886500Y-20890500D01*
X47886500Y-18422500D02*
X47879000Y-18415000D01*
X50673000Y-20955000D02*
X50608500Y-20890500D01*
X45085000Y-38735000D02*
X47625000Y-38735000D01*
%TO.N,+3V3*%
X35306000Y-35814000D02*
X35306000Y-30162500D01*
X43274500Y-23495000D02*
X44116500Y-22653000D01*
X35306000Y-30162500D02*
X36317000Y-29151500D01*
X50419000Y-34290000D02*
X56261000Y-28448000D01*
X56261000Y-25781000D02*
X53533000Y-23053000D01*
X49022000Y-22733000D02*
X51376500Y-22733000D01*
X42545000Y-23495000D02*
X43274500Y-23495000D01*
X49022000Y-22733000D02*
X44196500Y-22733000D01*
X34544000Y-18161000D02*
X31115000Y-21590000D01*
X46355000Y-34290000D02*
X50419000Y-34290000D01*
X34544000Y-36576000D02*
X35306000Y-35814000D01*
X44116500Y-21129500D02*
X41148000Y-18161000D01*
X44116500Y-22820000D02*
X44116500Y-21129500D01*
X36317000Y-29151500D02*
X36317000Y-24252000D01*
X35367000Y-35753000D02*
X35367000Y-35306000D01*
X53533000Y-23053000D02*
X51696500Y-23053000D01*
X56261000Y-28448000D02*
X56261000Y-25781000D01*
X31115000Y-21590000D02*
X33655000Y-24130000D01*
X33655000Y-24130000D02*
X36131500Y-24130000D01*
X35306000Y-39941500D02*
X35367000Y-40002500D01*
X34544000Y-36576000D02*
X35367000Y-35753000D01*
X41148000Y-18161000D02*
X34544000Y-18161000D01*
X36317000Y-24252000D02*
X36195000Y-24130000D01*
X35367000Y-40002500D02*
X35367000Y-42545000D01*
X51376500Y-22733000D02*
X51696500Y-23053000D01*
X44196500Y-22733000D02*
X44116500Y-22653000D01*
%TO.N,GND*%
X21872500Y-28993500D02*
X21872500Y-29540000D01*
X33467000Y-42545000D02*
X33340000Y-42418000D01*
X33467000Y-33970000D02*
X33528000Y-33909000D01*
X47498000Y-24180800D02*
X47886500Y-24569300D01*
X33340000Y-42418000D02*
X30480000Y-42418000D01*
X46325800Y-25353000D02*
X44116500Y-25353000D01*
X21872500Y-42253500D02*
X21872500Y-41580000D01*
X47886500Y-24569300D02*
X47886500Y-27115500D01*
X33467000Y-35306000D02*
X33467000Y-33970000D01*
X47498000Y-24180800D02*
X46325800Y-25353000D01*
D28*
%TO.N,/UART_RX*%
X36957000Y-31051500D02*
X38798500Y-29210000D01*
X36957000Y-34798000D02*
X36957000Y-31051500D01*
D27*
%TO.N,/VBUS*%
X30419000Y-46228000D02*
X30546000Y-46355000D01*
X29591000Y-46228000D02*
X30419000Y-46228000D01*
X28321000Y-44958000D02*
X29591000Y-46228000D01*
D28*
%TO.N,Net-(J5-D-)*%
X25442500Y-28231500D02*
X25442500Y-30480000D01*
X25442500Y-30480000D02*
X25442500Y-33170000D01*
X25442500Y-33170000D02*
X26582500Y-34310000D01*
X25405000Y-28194000D02*
X25442500Y-28231500D01*
%TO.N,/GPIO0*%
X38857000Y-26670000D02*
X41656000Y-29469000D01*
X41656000Y-46228000D02*
X47371000Y-51943000D01*
X41656000Y-29469000D02*
X41656000Y-46228000D01*
%TO.N,Net-(J5-D+)*%
X27604000Y-35560000D02*
X28133000Y-36089000D01*
X28133000Y-36089000D02*
X28133000Y-37949500D01*
X25405000Y-40677500D02*
X25442500Y-40640000D01*
X25405000Y-42926000D02*
X25405000Y-40677500D01*
X24582500Y-34310000D02*
X25832500Y-35560000D01*
X28133000Y-37949500D02*
X25442500Y-40640000D01*
X25832500Y-35560000D02*
X27604000Y-35560000D01*
%TO.N,Net-(U2-USBDM)*%
X34671000Y-37592000D02*
X38100000Y-41021000D01*
X33401000Y-37592000D02*
X34671000Y-37592000D01*
X27267500Y-31458500D02*
X33401000Y-37592000D01*
X38100000Y-41021000D02*
X38227000Y-41021000D01*
X27267500Y-30480000D02*
X27267500Y-31458500D01*
%TO.N,Net-(U2-USBDP)*%
X27267500Y-40640000D02*
X32893000Y-40640000D01*
%TD*%
%TA.AperFunction,Conductor*%
%TO.N,GND*%
G36*
X34239888Y-17165002D02*
G01*
X34286381Y-17218658D01*
X34296485Y-17288932D01*
X34266991Y-17353512D01*
X34219986Y-17387408D01*
X34146731Y-17417751D01*
X34146727Y-17417753D01*
X34009358Y-17509540D01*
X34009352Y-17509545D01*
X31451302Y-20067595D01*
X31388990Y-20101621D01*
X31362207Y-20104500D01*
X30200820Y-20104500D01*
X30164797Y-20107334D01*
X30010604Y-20152132D01*
X29872400Y-20233866D01*
X29872396Y-20233869D01*
X29758869Y-20347396D01*
X29758866Y-20347400D01*
X29677132Y-20485604D01*
X29632334Y-20639797D01*
X29629500Y-20675810D01*
X29629500Y-22504179D01*
X29632334Y-22540202D01*
X29633813Y-22545293D01*
X29677131Y-22694393D01*
X29712832Y-22754761D01*
X29758866Y-22832599D01*
X29758869Y-22832603D01*
X29872396Y-22946130D01*
X29872398Y-22946131D01*
X29872402Y-22946135D01*
X29939652Y-22985906D01*
X29988104Y-23037798D01*
X30000809Y-23107649D01*
X29977449Y-23168419D01*
X29844488Y-23351426D01*
X29738333Y-23559767D01*
X29694626Y-23694284D01*
X29666078Y-23782145D01*
X29629500Y-24013089D01*
X29629500Y-24246911D01*
X29666078Y-24477855D01*
X29666079Y-24477858D01*
X29738333Y-24700232D01*
X29844489Y-24908574D01*
X29864755Y-24936468D01*
X29981924Y-25097738D01*
X29981926Y-25097740D01*
X29981928Y-25097743D01*
X30147256Y-25263071D01*
X30147259Y-25263073D01*
X30147262Y-25263076D01*
X30195415Y-25298061D01*
X30195419Y-25298064D01*
X30238773Y-25354286D01*
X30244848Y-25425023D01*
X30211717Y-25487814D01*
X30195419Y-25501936D01*
X30147259Y-25536926D01*
X30147256Y-25536928D01*
X29981928Y-25702256D01*
X29981926Y-25702259D01*
X29844489Y-25891425D01*
X29738333Y-26099767D01*
X29666079Y-26322141D01*
X29666078Y-26322145D01*
X29629500Y-26553089D01*
X29629500Y-26786911D01*
X29666078Y-27017855D01*
X29666079Y-27017858D01*
X29736329Y-27234065D01*
X29738334Y-27240234D01*
X29836553Y-27433000D01*
X29844489Y-27448574D01*
X29845020Y-27449305D01*
X29981924Y-27637738D01*
X29981926Y-27637740D01*
X29981928Y-27637743D01*
X30147256Y-27803071D01*
X30147259Y-27803073D01*
X30147262Y-27803076D01*
X30192481Y-27835929D01*
X30195843Y-27838372D01*
X30239197Y-27894594D01*
X30245272Y-27965330D01*
X30212141Y-28028122D01*
X30195844Y-28042243D01*
X30147587Y-28077304D01*
X30147581Y-28077309D01*
X29982309Y-28242581D01*
X29982307Y-28242584D01*
X29844916Y-28431686D01*
X29738797Y-28639956D01*
X29738794Y-28639962D01*
X29666567Y-28862259D01*
X29661777Y-28892500D01*
X30725394Y-28892500D01*
X30714901Y-28902993D01*
X30649075Y-29017007D01*
X30615000Y-29144174D01*
X30615000Y-29275826D01*
X30649075Y-29402993D01*
X30714901Y-29517007D01*
X30725394Y-29527500D01*
X29661777Y-29527500D01*
X29666567Y-29557740D01*
X29738794Y-29780037D01*
X29738797Y-29780043D01*
X29844916Y-29988313D01*
X29982307Y-30177415D01*
X29982309Y-30177418D01*
X30147581Y-30342690D01*
X30147584Y-30342692D01*
X30336686Y-30480083D01*
X30544956Y-30586202D01*
X30544962Y-30586205D01*
X30767259Y-30658432D01*
X30797500Y-30663222D01*
X30797500Y-29599606D01*
X30807993Y-29610099D01*
X30922007Y-29675925D01*
X31049174Y-29710000D01*
X31180826Y-29710000D01*
X31307993Y-29675925D01*
X31422007Y-29610099D01*
X31432500Y-29599606D01*
X31432500Y-30663222D01*
X31462740Y-30658432D01*
X31685037Y-30586205D01*
X31685043Y-30586202D01*
X31893313Y-30480083D01*
X32082415Y-30342692D01*
X32082418Y-30342690D01*
X32247690Y-30177418D01*
X32247692Y-30177415D01*
X32385083Y-29988313D01*
X32491202Y-29780043D01*
X32491205Y-29780037D01*
X32563432Y-29557740D01*
X32568223Y-29527500D01*
X31504606Y-29527500D01*
X31515099Y-29517007D01*
X31580925Y-29402993D01*
X31615000Y-29275826D01*
X31615000Y-29144174D01*
X31580925Y-29017007D01*
X31515099Y-28902993D01*
X31504606Y-28892500D01*
X32568222Y-28892500D01*
X32563432Y-28862259D01*
X32491205Y-28639962D01*
X32491202Y-28639956D01*
X32385083Y-28431686D01*
X32247692Y-28242584D01*
X32247690Y-28242581D01*
X32082415Y-28077306D01*
X32034156Y-28042244D01*
X31990802Y-27986021D01*
X31984727Y-27915285D01*
X32017859Y-27852493D01*
X32034149Y-27838377D01*
X32082738Y-27803076D01*
X32248076Y-27637738D01*
X32385513Y-27448571D01*
X32491666Y-27240234D01*
X32563922Y-27017855D01*
X32600500Y-26786911D01*
X32600500Y-26553089D01*
X32563922Y-26322145D01*
X32491666Y-26099766D01*
X32385513Y-25891429D01*
X32248076Y-25702262D01*
X32248073Y-25702259D01*
X32248071Y-25702256D01*
X32082743Y-25536928D01*
X32082739Y-25536925D01*
X32082738Y-25536924D01*
X32034579Y-25501935D01*
X31991226Y-25445715D01*
X31985150Y-25374979D01*
X32018282Y-25312187D01*
X32034574Y-25298068D01*
X32082738Y-25263076D01*
X32248076Y-25097738D01*
X32385513Y-24908571D01*
X32491666Y-24700234D01*
X32562388Y-24482575D01*
X32602462Y-24423970D01*
X32667858Y-24396333D01*
X32737815Y-24408440D01*
X32771316Y-24432417D01*
X33003539Y-24664640D01*
X33120360Y-24781461D01*
X33257727Y-24873246D01*
X33410360Y-24936469D01*
X33572395Y-24968700D01*
X35025973Y-24968700D01*
X35094094Y-24988702D01*
X35127907Y-25020637D01*
X35183924Y-25097738D01*
X35183926Y-25097740D01*
X35183928Y-25097743D01*
X35349256Y-25263071D01*
X35349259Y-25263073D01*
X35349262Y-25263076D01*
X35397420Y-25298064D01*
X35440772Y-25354284D01*
X35446849Y-25425020D01*
X35413718Y-25487812D01*
X35397420Y-25501934D01*
X35349262Y-25536923D01*
X35349256Y-25536928D01*
X35183928Y-25702256D01*
X35183926Y-25702259D01*
X35046489Y-25891425D01*
X34940333Y-26099767D01*
X34868079Y-26322141D01*
X34868078Y-26322145D01*
X34831500Y-26553089D01*
X34831500Y-26786911D01*
X34868078Y-27017855D01*
X34868079Y-27017858D01*
X34938329Y-27234065D01*
X34940334Y-27240234D01*
X35038553Y-27433000D01*
X35046489Y-27448574D01*
X35047020Y-27449305D01*
X35183924Y-27637738D01*
X35183926Y-27637740D01*
X35183928Y-27637743D01*
X35349256Y-27803071D01*
X35349259Y-27803073D01*
X35349262Y-27803076D01*
X35397420Y-27838064D01*
X35440772Y-27894284D01*
X35446849Y-27965020D01*
X35413718Y-28027812D01*
X35397420Y-28041934D01*
X35349262Y-28076923D01*
X35349256Y-28076928D01*
X35183928Y-28242256D01*
X35183926Y-28242259D01*
X35046489Y-28431425D01*
X34940333Y-28639767D01*
X34885578Y-28808286D01*
X34868078Y-28862145D01*
X34837453Y-29055507D01*
X34831500Y-29093092D01*
X34831500Y-29326911D01*
X34838409Y-29370539D01*
X34837696Y-29376049D01*
X34839639Y-29381256D01*
X34833193Y-29410887D01*
X34829308Y-29440950D01*
X34825417Y-29446640D01*
X34824549Y-29450631D01*
X34803057Y-29479341D01*
X34771361Y-29511038D01*
X34771359Y-29511039D01*
X34654545Y-29627852D01*
X34654540Y-29627858D01*
X34583097Y-29734782D01*
X34562754Y-29765227D01*
X34556617Y-29780043D01*
X34499532Y-29917857D01*
X34499531Y-29917858D01*
X34467300Y-30079892D01*
X34467300Y-34035633D01*
X34447298Y-34103754D01*
X34393642Y-34150247D01*
X34323368Y-34160351D01*
X34262007Y-34133554D01*
X34201666Y-34084692D01*
X34201658Y-34084687D01*
X34035902Y-34000230D01*
X33856207Y-33952081D01*
X33856203Y-33952080D01*
X33784500Y-33946436D01*
X33784500Y-35180000D01*
X33764498Y-35248121D01*
X33710842Y-35294614D01*
X33658500Y-35306000D01*
X33467000Y-35306000D01*
X33467000Y-35497500D01*
X33446998Y-35565621D01*
X33393342Y-35612114D01*
X33341000Y-35623500D01*
X32518127Y-35623500D01*
X32450006Y-35603498D01*
X32429032Y-35586595D01*
X31611498Y-34769061D01*
X32332000Y-34769061D01*
X32332000Y-34988500D01*
X33149500Y-34988500D01*
X33149500Y-33946436D01*
X33077796Y-33952080D01*
X33077792Y-33952081D01*
X32898097Y-34000230D01*
X32732341Y-34084687D01*
X32732338Y-34084688D01*
X32587763Y-34201763D01*
X32470688Y-34346338D01*
X32470687Y-34346341D01*
X32386230Y-34512097D01*
X32338082Y-34691789D01*
X32332000Y-34769061D01*
X31611498Y-34769061D01*
X28334930Y-31492493D01*
X28300904Y-31430181D01*
X28305969Y-31359366D01*
X28311758Y-31346195D01*
X28361239Y-31249083D01*
X28409416Y-31069286D01*
X28415500Y-30991981D01*
X28415499Y-29968020D01*
X28409416Y-29890714D01*
X28361239Y-29710917D01*
X28276734Y-29545065D01*
X28193956Y-29442844D01*
X28193171Y-29441833D01*
X28180625Y-29409945D01*
X28167432Y-29378307D01*
X28167664Y-29377000D01*
X28167179Y-29375766D01*
X28173863Y-29342168D01*
X28179871Y-29308408D01*
X28180897Y-29306811D01*
X28181032Y-29306134D01*
X28181931Y-29305201D01*
X28194757Y-29285245D01*
X28301311Y-29153661D01*
X28301312Y-29153658D01*
X28385769Y-28987902D01*
X28433917Y-28808210D01*
X28440000Y-28730938D01*
X28440000Y-28511500D01*
X27431000Y-28511500D01*
X27362879Y-28491498D01*
X27316386Y-28437842D01*
X27305000Y-28385500D01*
X27305000Y-28194000D01*
X27113500Y-28194000D01*
X27045379Y-28173998D01*
X26998886Y-28120342D01*
X26987500Y-28068000D01*
X26987500Y-27876500D01*
X27622500Y-27876500D01*
X28440000Y-27876500D01*
X28440000Y-27657061D01*
X28433917Y-27579789D01*
X28385769Y-27400097D01*
X28301312Y-27234341D01*
X28301311Y-27234338D01*
X28184236Y-27089763D01*
X28039661Y-26972688D01*
X28039658Y-26972687D01*
X27873902Y-26888230D01*
X27694207Y-26840081D01*
X27694203Y-26840080D01*
X27622500Y-26834436D01*
X27622500Y-27876500D01*
X26987500Y-27876500D01*
X26987500Y-26834436D01*
X26915796Y-26840080D01*
X26915792Y-26840081D01*
X26736097Y-26888230D01*
X26570341Y-26972687D01*
X26570338Y-26972688D01*
X26434690Y-27082534D01*
X26369162Y-27109859D01*
X26299264Y-27097419D01*
X26276103Y-27082534D01*
X26139935Y-26972266D01*
X25974083Y-26887761D01*
X25974082Y-26887760D01*
X25974081Y-26887760D01*
X25794290Y-26839585D01*
X25794289Y-26839584D01*
X25794286Y-26839584D01*
X25716981Y-26833500D01*
X25716977Y-26833500D01*
X25093020Y-26833500D01*
X25015716Y-26839583D01*
X24835918Y-26887760D01*
X24670063Y-26972267D01*
X24670062Y-26972267D01*
X24525407Y-27089407D01*
X24408267Y-27234062D01*
X24408267Y-27234063D01*
X24323760Y-27399918D01*
X24286185Y-27540150D01*
X24275584Y-27579714D01*
X24271017Y-27637743D01*
X24269500Y-27657022D01*
X24269500Y-28468516D01*
X24249498Y-28536637D01*
X24195842Y-28583130D01*
X24125568Y-28593234D01*
X24060988Y-28563740D01*
X24029978Y-28523185D01*
X23963199Y-28384517D01*
X23963194Y-28384508D01*
X23820675Y-28157690D01*
X23820671Y-28157684D01*
X23768831Y-28092681D01*
X23768830Y-28092680D01*
X22890231Y-28971278D01*
X22868897Y-28929407D01*
X22761112Y-28781054D01*
X22631446Y-28651388D01*
X22483093Y-28543603D01*
X22441219Y-28522267D01*
X23319818Y-27643668D01*
X23319817Y-27643667D01*
X23254815Y-27591828D01*
X23254809Y-27591824D01*
X23027991Y-27449305D01*
X23027982Y-27449300D01*
X22786647Y-27333079D01*
X22786620Y-27333068D01*
X22533799Y-27244602D01*
X22272635Y-27184993D01*
X22006441Y-27155000D01*
X21738559Y-27155000D01*
X21472364Y-27184993D01*
X21211200Y-27244602D01*
X20958379Y-27333068D01*
X20958352Y-27333079D01*
X20717017Y-27449300D01*
X20717007Y-27449305D01*
X20490202Y-27591816D01*
X20490195Y-27591820D01*
X20425181Y-27643667D01*
X20425181Y-27643669D01*
X21303779Y-28522267D01*
X21261907Y-28543603D01*
X21113554Y-28651388D01*
X20983888Y-28781054D01*
X20876103Y-28929407D01*
X20854767Y-28971279D01*
X19976169Y-28092681D01*
X19976167Y-28092681D01*
X19924320Y-28157695D01*
X19924316Y-28157702D01*
X19781805Y-28384507D01*
X19781800Y-28384517D01*
X19665579Y-28625852D01*
X19665568Y-28625879D01*
X19577102Y-28878700D01*
X19517493Y-29139864D01*
X19487500Y-29406059D01*
X19487500Y-29673940D01*
X19517493Y-29940135D01*
X19577103Y-30201299D01*
X19577102Y-30201299D01*
X19665568Y-30454120D01*
X19665579Y-30454147D01*
X19781800Y-30695482D01*
X19781805Y-30695491D01*
X19924324Y-30922309D01*
X19924328Y-30922315D01*
X19976167Y-30987317D01*
X19976168Y-30987318D01*
X20854767Y-30108719D01*
X20876103Y-30150593D01*
X20983888Y-30298946D01*
X21113554Y-30428612D01*
X21261907Y-30536397D01*
X21303778Y-30557731D01*
X20425180Y-31436330D01*
X20425181Y-31436331D01*
X20490184Y-31488171D01*
X20490190Y-31488175D01*
X20717008Y-31630694D01*
X20717017Y-31630699D01*
X20958352Y-31746920D01*
X20958379Y-31746931D01*
X21211200Y-31835397D01*
X21472364Y-31895006D01*
X21738559Y-31925000D01*
X22006441Y-31925000D01*
X22272635Y-31895006D01*
X22533799Y-31835397D01*
X22786620Y-31746931D01*
X22786647Y-31746920D01*
X23027982Y-31630699D01*
X23027992Y-31630694D01*
X23254798Y-31488182D01*
X23254806Y-31488177D01*
X23319818Y-31436330D01*
X22441220Y-30557731D01*
X22483093Y-30536397D01*
X22631446Y-30428612D01*
X22761112Y-30298946D01*
X22868897Y-30150593D01*
X22890232Y-30108720D01*
X23768830Y-30987318D01*
X23820677Y-30922306D01*
X23820682Y-30922298D01*
X23963194Y-30695492D01*
X23963199Y-30695482D01*
X24054978Y-30504901D01*
X24102555Y-30452205D01*
X24171070Y-30433596D01*
X24238768Y-30454983D01*
X24284157Y-30509576D01*
X24294500Y-30559570D01*
X24294500Y-30991979D01*
X24300583Y-31069283D01*
X24300584Y-31069286D01*
X24348761Y-31249083D01*
X24404952Y-31359366D01*
X24433267Y-31414936D01*
X24433267Y-31414937D01*
X24550409Y-31559594D01*
X24665044Y-31652423D01*
X24705396Y-31710837D01*
X24711750Y-31750343D01*
X24711750Y-32698500D01*
X24691748Y-32766621D01*
X24638092Y-32813114D01*
X24585750Y-32824500D01*
X24465589Y-32824500D01*
X24234645Y-32861078D01*
X24234642Y-32861078D01*
X24234641Y-32861079D01*
X24012267Y-32933333D01*
X23803925Y-33039489D01*
X23614759Y-33176926D01*
X23614756Y-33176928D01*
X23449428Y-33342256D01*
X23449426Y-33342259D01*
X23311989Y-33531425D01*
X23205833Y-33739767D01*
X23173725Y-33838585D01*
X23133578Y-33962145D01*
X23097000Y-34193089D01*
X23097000Y-34426911D01*
X23133578Y-34657855D01*
X23133579Y-34657858D01*
X23192663Y-34839700D01*
X23205834Y-34880234D01*
X23296134Y-35057458D01*
X23311989Y-35088574D01*
X23341142Y-35128700D01*
X23449424Y-35277738D01*
X23449426Y-35277740D01*
X23449428Y-35277743D01*
X23614760Y-35443075D01*
X23677857Y-35488917D01*
X23788953Y-35569632D01*
X23803984Y-35582470D01*
X24571513Y-36350000D01*
X24521940Y-36350000D01*
X24404947Y-36381349D01*
X24300054Y-36441909D01*
X24214409Y-36527554D01*
X24153849Y-36632447D01*
X24122500Y-36749440D01*
X24122500Y-36799012D01*
X23330408Y-36006920D01*
X23312417Y-36031685D01*
X23312412Y-36031692D01*
X23206297Y-36239956D01*
X23206294Y-36239962D01*
X23134067Y-36462256D01*
X23097500Y-36693131D01*
X23097500Y-36926868D01*
X23134067Y-37157743D01*
X23206294Y-37380037D01*
X23206297Y-37380043D01*
X23312416Y-37588313D01*
X23330408Y-37613077D01*
X23330410Y-37613077D01*
X24122500Y-36820987D01*
X24122500Y-36870560D01*
X24153849Y-36987553D01*
X24214409Y-37092446D01*
X24300054Y-37178091D01*
X24404947Y-37238651D01*
X24521940Y-37270000D01*
X24571511Y-37270000D01*
X23779421Y-38062088D01*
X23779421Y-38062090D01*
X23804185Y-38080083D01*
X24012456Y-38186202D01*
X24012462Y-38186205D01*
X24234757Y-38258432D01*
X24234754Y-38258432D01*
X24465631Y-38295000D01*
X24699369Y-38295000D01*
X24930243Y-38258432D01*
X25152537Y-38186205D01*
X25152542Y-38186203D01*
X25209988Y-38156932D01*
X25279765Y-38143827D01*
X25331639Y-38164535D01*
X25333080Y-38162100D01*
X25339900Y-38166133D01*
X25339902Y-38166135D01*
X25478107Y-38247869D01*
X25632296Y-38292665D01*
X25668319Y-38295500D01*
X26449373Y-38295499D01*
X26517494Y-38315501D01*
X26563987Y-38369157D01*
X26574091Y-38439431D01*
X26544598Y-38504011D01*
X26538468Y-38510594D01*
X25781467Y-39267595D01*
X25719155Y-39301621D01*
X25692372Y-39304500D01*
X25118020Y-39304500D01*
X25040716Y-39310583D01*
X24860918Y-39358760D01*
X24695063Y-39443267D01*
X24695062Y-39443267D01*
X24550407Y-39560407D01*
X24433267Y-39705062D01*
X24433267Y-39705063D01*
X24348760Y-39870918D01*
X24304697Y-40035364D01*
X24300584Y-40050714D01*
X24294500Y-40128019D01*
X24294500Y-40128022D01*
X24294500Y-40560428D01*
X24274498Y-40628549D01*
X24220842Y-40675042D01*
X24150568Y-40685146D01*
X24085988Y-40655652D01*
X24054978Y-40615097D01*
X23963199Y-40424517D01*
X23963194Y-40424508D01*
X23820675Y-40197690D01*
X23820671Y-40197684D01*
X23768831Y-40132681D01*
X23768830Y-40132680D01*
X22890231Y-41011278D01*
X22868897Y-40969407D01*
X22761112Y-40821054D01*
X22631446Y-40691388D01*
X22483093Y-40583603D01*
X22441219Y-40562267D01*
X23319818Y-39683668D01*
X23319817Y-39683667D01*
X23254815Y-39631828D01*
X23254809Y-39631824D01*
X23027991Y-39489305D01*
X23027982Y-39489300D01*
X22786647Y-39373079D01*
X22786620Y-39373068D01*
X22533799Y-39284602D01*
X22272635Y-39224993D01*
X22006441Y-39195000D01*
X21738559Y-39195000D01*
X21472364Y-39224993D01*
X21211200Y-39284602D01*
X20958379Y-39373068D01*
X20958352Y-39373079D01*
X20717017Y-39489300D01*
X20717007Y-39489305D01*
X20490202Y-39631816D01*
X20490195Y-39631820D01*
X20425181Y-39683667D01*
X20425181Y-39683669D01*
X21303779Y-40562267D01*
X21261907Y-40583603D01*
X21113554Y-40691388D01*
X20983888Y-40821054D01*
X20876103Y-40969407D01*
X20854767Y-41011279D01*
X19976169Y-40132681D01*
X19976167Y-40132681D01*
X19924320Y-40197695D01*
X19924316Y-40197702D01*
X19781805Y-40424507D01*
X19781800Y-40424517D01*
X19665579Y-40665852D01*
X19665568Y-40665879D01*
X19577102Y-40918700D01*
X19517493Y-41179864D01*
X19487500Y-41446059D01*
X19487500Y-41713940D01*
X19517493Y-41980135D01*
X19577103Y-42241299D01*
X19577102Y-42241299D01*
X19665568Y-42494120D01*
X19665579Y-42494147D01*
X19781800Y-42735482D01*
X19781805Y-42735491D01*
X19924324Y-42962309D01*
X19924328Y-42962315D01*
X19976167Y-43027317D01*
X19976168Y-43027318D01*
X20854767Y-42148719D01*
X20876103Y-42190593D01*
X20983888Y-42338946D01*
X21113554Y-42468612D01*
X21261907Y-42576397D01*
X21303778Y-42597731D01*
X20425180Y-43476330D01*
X20425181Y-43476331D01*
X20490184Y-43528171D01*
X20490190Y-43528175D01*
X20717008Y-43670694D01*
X20717017Y-43670699D01*
X20958352Y-43786920D01*
X20958379Y-43786931D01*
X21211200Y-43875397D01*
X21472364Y-43935006D01*
X21738559Y-43965000D01*
X22006441Y-43965000D01*
X22272635Y-43935006D01*
X22533799Y-43875397D01*
X22786620Y-43786931D01*
X22786647Y-43786920D01*
X23027982Y-43670699D01*
X23027992Y-43670694D01*
X23254798Y-43528182D01*
X23254806Y-43528177D01*
X23319818Y-43476330D01*
X22441220Y-42597731D01*
X22483093Y-42576397D01*
X22631446Y-42468612D01*
X22761112Y-42338946D01*
X22868897Y-42190593D01*
X22890232Y-42148720D01*
X23768830Y-43027318D01*
X23820677Y-42962306D01*
X23820682Y-42962298D01*
X23963194Y-42735492D01*
X23963199Y-42735482D01*
X24029978Y-42596815D01*
X24077556Y-42544119D01*
X24146070Y-42525510D01*
X24213769Y-42546898D01*
X24259157Y-42601490D01*
X24269500Y-42651484D01*
X24269500Y-43462979D01*
X24275583Y-43540283D01*
X24323712Y-43719902D01*
X24323761Y-43720083D01*
X24390348Y-43850769D01*
X24408267Y-43885936D01*
X24408267Y-43885937D01*
X24525407Y-44030592D01*
X24670062Y-44147732D01*
X24670063Y-44147732D01*
X24670065Y-44147734D01*
X24835917Y-44232239D01*
X25015714Y-44280416D01*
X25093019Y-44286500D01*
X25716980Y-44286499D01*
X25794286Y-44280416D01*
X25974083Y-44232239D01*
X26139935Y-44147734D01*
X26276103Y-44037466D01*
X26341628Y-44010141D01*
X26411526Y-44022580D01*
X26434690Y-44037466D01*
X26570338Y-44147311D01*
X26570341Y-44147312D01*
X26736097Y-44231769D01*
X26915789Y-44279917D01*
X26987499Y-44285561D01*
X26987500Y-44285561D01*
X26987500Y-43081938D01*
X32332000Y-43081938D01*
X32338082Y-43159210D01*
X32386230Y-43338902D01*
X32470687Y-43504658D01*
X32470688Y-43504661D01*
X32587763Y-43649236D01*
X32732338Y-43766311D01*
X32732341Y-43766312D01*
X32898097Y-43850769D01*
X33077789Y-43898917D01*
X33149499Y-43904561D01*
X33149500Y-43904561D01*
X33149500Y-42862500D01*
X32332000Y-42862500D01*
X32332000Y-43081938D01*
X26987500Y-43081938D01*
X26987500Y-43052000D01*
X27007502Y-42983879D01*
X27061158Y-42937386D01*
X27113500Y-42926000D01*
X27305000Y-42926000D01*
X27305000Y-42734500D01*
X27325002Y-42666379D01*
X27378658Y-42619886D01*
X27431000Y-42608500D01*
X28440000Y-42608500D01*
X28440000Y-42389061D01*
X28433917Y-42311789D01*
X28385769Y-42132097D01*
X28301312Y-41966341D01*
X28301307Y-41966332D01*
X28194757Y-41834754D01*
X28167431Y-41769227D01*
X28179871Y-41699328D01*
X28194751Y-41676173D01*
X28276734Y-41574935D01*
X28345717Y-41439547D01*
X28394465Y-41387932D01*
X28457984Y-41370750D01*
X32347365Y-41370750D01*
X32365801Y-41376163D01*
X32385013Y-41376506D01*
X32413688Y-41390224D01*
X32415486Y-41390752D01*
X32417330Y-41391960D01*
X32438735Y-41406262D01*
X32484262Y-41460736D01*
X32493111Y-41531179D01*
X32472058Y-41578358D01*
X32474284Y-41579803D01*
X32470687Y-41585341D01*
X32386230Y-41751097D01*
X32338082Y-41930789D01*
X32332000Y-42008061D01*
X32332000Y-42227500D01*
X33341000Y-42227500D01*
X33409121Y-42247502D01*
X33455614Y-42301158D01*
X33467000Y-42353500D01*
X33467000Y-42545000D01*
X33658500Y-42545000D01*
X33726621Y-42565002D01*
X33773114Y-42618658D01*
X33784500Y-42671000D01*
X33784500Y-43904561D01*
X33856210Y-43898917D01*
X34035902Y-43850769D01*
X34201658Y-43766312D01*
X34201661Y-43766310D01*
X34337308Y-43656466D01*
X34402836Y-43629140D01*
X34472734Y-43641580D01*
X34495891Y-43656461D01*
X34632065Y-43766734D01*
X34797917Y-43851239D01*
X34977714Y-43899416D01*
X35055019Y-43905500D01*
X35678980Y-43905499D01*
X35756286Y-43899416D01*
X35936083Y-43851239D01*
X36101935Y-43766734D01*
X36246592Y-43649592D01*
X36363734Y-43504935D01*
X36448239Y-43339083D01*
X36496416Y-43159286D01*
X36502500Y-43081981D01*
X36502499Y-42008020D01*
X36496416Y-41930714D01*
X36448239Y-41750917D01*
X36363734Y-41585065D01*
X36359632Y-41580000D01*
X36246587Y-41440402D01*
X36242605Y-41436420D01*
X36208579Y-41374108D01*
X36205700Y-41347325D01*
X36205700Y-40464327D01*
X36225702Y-40396206D01*
X36279358Y-40349713D01*
X36349632Y-40339609D01*
X36414212Y-40369103D01*
X36420795Y-40375232D01*
X37386246Y-41340683D01*
X37413559Y-41381559D01*
X37438732Y-41442330D01*
X37438734Y-41442335D01*
X37469456Y-41488313D01*
X37536080Y-41588023D01*
X37659977Y-41711920D01*
X37805664Y-41809265D01*
X37967542Y-41876317D01*
X38139392Y-41910500D01*
X38139393Y-41910500D01*
X38314607Y-41910500D01*
X38314608Y-41910500D01*
X38486458Y-41876317D01*
X38648336Y-41809265D01*
X38794023Y-41711920D01*
X38917920Y-41588023D01*
X39015265Y-41442336D01*
X39082317Y-41280458D01*
X39116500Y-41108608D01*
X39116500Y-40933392D01*
X39082317Y-40761542D01*
X39015265Y-40599664D01*
X38917920Y-40453977D01*
X38794023Y-40330080D01*
X38648336Y-40232735D01*
X38486458Y-40165683D01*
X38314610Y-40131500D01*
X38314608Y-40131500D01*
X38296127Y-40131500D01*
X38228006Y-40111498D01*
X38207032Y-40094595D01*
X35362046Y-37249609D01*
X35328020Y-37187297D01*
X35333085Y-37116482D01*
X35346378Y-37090510D01*
X35388535Y-37027419D01*
X35388538Y-37027415D01*
X35456626Y-36863035D01*
X35461331Y-36855993D01*
X35462446Y-36850870D01*
X35483936Y-36822163D01*
X35603369Y-36702730D01*
X35665679Y-36668706D01*
X35682569Y-36666216D01*
X35756286Y-36660416D01*
X35936083Y-36612239D01*
X36101935Y-36527734D01*
X36246592Y-36410592D01*
X36363734Y-36265935D01*
X36448239Y-36100083D01*
X36496416Y-35920286D01*
X36502500Y-35842981D01*
X36502499Y-35761098D01*
X36522500Y-35692981D01*
X36576155Y-35646487D01*
X36646429Y-35636382D01*
X36676714Y-35644690D01*
X36697542Y-35653317D01*
X36869392Y-35687500D01*
X36869393Y-35687500D01*
X37044607Y-35687500D01*
X37044608Y-35687500D01*
X37216458Y-35653317D01*
X37378336Y-35586265D01*
X37524023Y-35488920D01*
X37647920Y-35365023D01*
X37745265Y-35219336D01*
X37812317Y-35057458D01*
X37846500Y-34885608D01*
X37846500Y-34710392D01*
X37812317Y-34538542D01*
X37745265Y-34376664D01*
X37708984Y-34322366D01*
X37687770Y-34254614D01*
X37687750Y-34252365D01*
X37687750Y-31406377D01*
X37707752Y-31338256D01*
X37724650Y-31317286D01*
X38359349Y-30682586D01*
X38421660Y-30648563D01*
X38487379Y-30651850D01*
X38504667Y-30657467D01*
X38509145Y-30658922D01*
X38740089Y-30695500D01*
X38740092Y-30695500D01*
X38973908Y-30695500D01*
X38973911Y-30695500D01*
X39204855Y-30658922D01*
X39427234Y-30586666D01*
X39635571Y-30480513D01*
X39824738Y-30343076D01*
X39990076Y-30177738D01*
X40127513Y-29988571D01*
X40233666Y-29780234D01*
X40305922Y-29557855D01*
X40322681Y-29452042D01*
X40353092Y-29387892D01*
X40413361Y-29350365D01*
X40484350Y-29351379D01*
X40536224Y-29382661D01*
X40888345Y-29734782D01*
X40922371Y-29797094D01*
X40925250Y-29823877D01*
X40925250Y-46156027D01*
X40925250Y-46299973D01*
X40953332Y-46441152D01*
X41008417Y-46574140D01*
X41016737Y-46586591D01*
X41088388Y-46693825D01*
X41088393Y-46693831D01*
X46468458Y-52073894D01*
X46502484Y-52136206D01*
X46502942Y-52138406D01*
X46515683Y-52202460D01*
X46515684Y-52202461D01*
X46582735Y-52364336D01*
X46680080Y-52510023D01*
X46803977Y-52633920D01*
X46949664Y-52731265D01*
X47111542Y-52798317D01*
X47283392Y-52832500D01*
X47283393Y-52832500D01*
X47458607Y-52832500D01*
X47458608Y-52832500D01*
X47630458Y-52798317D01*
X47792336Y-52731265D01*
X47938023Y-52633920D01*
X48061920Y-52510023D01*
X48159265Y-52364336D01*
X48226317Y-52202458D01*
X48260500Y-52030608D01*
X48260500Y-51855392D01*
X48226317Y-51683542D01*
X48159265Y-51521664D01*
X48061920Y-51375977D01*
X47938023Y-51252080D01*
X47792336Y-51154735D01*
X47690256Y-51112452D01*
X47630461Y-51087684D01*
X47630460Y-51087683D01*
X47566406Y-51074942D01*
X47503497Y-51042033D01*
X47501894Y-51040458D01*
X43170841Y-46709404D01*
X42423655Y-45962218D01*
X42389629Y-45899906D01*
X42386750Y-45873123D01*
X42386750Y-45090863D01*
X57555000Y-45090863D01*
X57555000Y-46037500D01*
X58880489Y-46037500D01*
X58830889Y-46123409D01*
X58790000Y-46276009D01*
X58790000Y-46433991D01*
X58830889Y-46586591D01*
X58880489Y-46672500D01*
X57555000Y-46672500D01*
X57555000Y-47619136D01*
X57557832Y-47655117D01*
X57557834Y-47655130D01*
X57602595Y-47809197D01*
X57684261Y-47947285D01*
X57684266Y-47947292D01*
X57797707Y-48060733D01*
X57797714Y-48060738D01*
X57935802Y-48142404D01*
X58089869Y-48187165D01*
X58089882Y-48187167D01*
X58125863Y-48189999D01*
X58125865Y-48190000D01*
X59072500Y-48190000D01*
X59072500Y-46864510D01*
X59158409Y-46914111D01*
X59311009Y-46955000D01*
X59468991Y-46955000D01*
X59621591Y-46914111D01*
X59707500Y-46864510D01*
X59707500Y-48190000D01*
X60654135Y-48190000D01*
X60654136Y-48189999D01*
X60690117Y-48187167D01*
X60690130Y-48187165D01*
X60844197Y-48142404D01*
X60982285Y-48060738D01*
X60982292Y-48060733D01*
X61095733Y-47947292D01*
X61095738Y-47947285D01*
X61177404Y-47809197D01*
X61222165Y-47655130D01*
X61222167Y-47655117D01*
X61224999Y-47619136D01*
X61225000Y-47619135D01*
X61225000Y-46672500D01*
X59899511Y-46672500D01*
X59949111Y-46586591D01*
X59990000Y-46433991D01*
X59990000Y-46276009D01*
X59949111Y-46123409D01*
X59899511Y-46037500D01*
X61225000Y-46037500D01*
X61225000Y-45090864D01*
X61224999Y-45090863D01*
X61222167Y-45054882D01*
X61222165Y-45054869D01*
X61177404Y-44900802D01*
X61095738Y-44762714D01*
X61095733Y-44762707D01*
X60982292Y-44649266D01*
X60982285Y-44649261D01*
X60844197Y-44567595D01*
X60690130Y-44522834D01*
X60690117Y-44522832D01*
X60654136Y-44520000D01*
X59707500Y-44520000D01*
X59707500Y-45845489D01*
X59621591Y-45795889D01*
X59468991Y-45755000D01*
X59311009Y-45755000D01*
X59158409Y-45795889D01*
X59072500Y-45845489D01*
X59072500Y-44520000D01*
X58125864Y-44520000D01*
X58089882Y-44522832D01*
X58089869Y-44522834D01*
X57935802Y-44567595D01*
X57797714Y-44649261D01*
X57797707Y-44649266D01*
X57684266Y-44762707D01*
X57684261Y-44762714D01*
X57602595Y-44900802D01*
X57557834Y-45054869D01*
X57557832Y-45054882D01*
X57555000Y-45090863D01*
X42386750Y-45090863D01*
X42386750Y-41234692D01*
X57554500Y-41234692D01*
X57554500Y-41475307D01*
X57585904Y-41713849D01*
X57648179Y-41946263D01*
X57648180Y-41946265D01*
X57648181Y-41946268D01*
X57740258Y-42168563D01*
X57740259Y-42168564D01*
X57740264Y-42168574D01*
X57860560Y-42376933D01*
X57860562Y-42376936D01*
X57860563Y-42376937D01*
X58007037Y-42567826D01*
X58007041Y-42567830D01*
X58007046Y-42567836D01*
X58177163Y-42737953D01*
X58177168Y-42737957D01*
X58177174Y-42737963D01*
X58368063Y-42884437D01*
X58576437Y-43004742D01*
X58798732Y-43096819D01*
X59031143Y-43159094D01*
X59031149Y-43159094D01*
X59031150Y-43159095D01*
X59058523Y-43162698D01*
X59269695Y-43190500D01*
X59269702Y-43190500D01*
X59510298Y-43190500D01*
X59510305Y-43190500D01*
X59748857Y-43159094D01*
X59981268Y-43096819D01*
X60203563Y-43004742D01*
X60411937Y-42884437D01*
X60602826Y-42737963D01*
X60772963Y-42567826D01*
X60919437Y-42376937D01*
X61039742Y-42168563D01*
X61131819Y-41946268D01*
X61194094Y-41713857D01*
X61225500Y-41475305D01*
X61225500Y-41234695D01*
X61197698Y-41023523D01*
X61194095Y-40996150D01*
X61194094Y-40996149D01*
X61194094Y-40996143D01*
X61131819Y-40763732D01*
X61039742Y-40541437D01*
X60972232Y-40424507D01*
X60919439Y-40333066D01*
X60919437Y-40333063D01*
X60772963Y-40142174D01*
X60772957Y-40142168D01*
X60772953Y-40142163D01*
X60602836Y-39972046D01*
X60602830Y-39972041D01*
X60602826Y-39972037D01*
X60411937Y-39825563D01*
X60411936Y-39825562D01*
X60411933Y-39825560D01*
X60203574Y-39705264D01*
X60203569Y-39705261D01*
X60203563Y-39705258D01*
X59981268Y-39613181D01*
X59981265Y-39613180D01*
X59981263Y-39613179D01*
X59790371Y-39562030D01*
X59748857Y-39550906D01*
X59748855Y-39550905D01*
X59748849Y-39550904D01*
X59510307Y-39519500D01*
X59510305Y-39519500D01*
X59269695Y-39519500D01*
X59269692Y-39519500D01*
X59031150Y-39550904D01*
X58798736Y-39613179D01*
X58798732Y-39613181D01*
X58576911Y-39705062D01*
X58576435Y-39705259D01*
X58576425Y-39705264D01*
X58368066Y-39825560D01*
X58177174Y-39972037D01*
X58177163Y-39972046D01*
X58007046Y-40142163D01*
X58007037Y-40142174D01*
X57860560Y-40333066D01*
X57740264Y-40541425D01*
X57740259Y-40541435D01*
X57740258Y-40541437D01*
X57716140Y-40599664D01*
X57648181Y-40763732D01*
X57648179Y-40763736D01*
X57585904Y-40996150D01*
X57554500Y-41234692D01*
X42386750Y-41234692D01*
X42386750Y-38641135D01*
X44132000Y-38641135D01*
X44132000Y-38828864D01*
X44154424Y-38941597D01*
X44168623Y-39012980D01*
X44240462Y-39186415D01*
X44294705Y-39267595D01*
X44344756Y-39342501D01*
X44344761Y-39342507D01*
X44477492Y-39475238D01*
X44477498Y-39475243D01*
X44633585Y-39579538D01*
X44807020Y-39651377D01*
X44991138Y-39688000D01*
X44991139Y-39688000D01*
X45178861Y-39688000D01*
X45178862Y-39688000D01*
X45362980Y-39651377D01*
X45527354Y-39583290D01*
X45575572Y-39573700D01*
X47134428Y-39573700D01*
X47182645Y-39583290D01*
X47347020Y-39651377D01*
X47531138Y-39688000D01*
X47531139Y-39688000D01*
X47718861Y-39688000D01*
X47718862Y-39688000D01*
X47902980Y-39651377D01*
X48076415Y-39579538D01*
X48232502Y-39475243D01*
X48365243Y-39342502D01*
X48469538Y-39186415D01*
X48541377Y-39012980D01*
X48578000Y-38828862D01*
X48578000Y-38641138D01*
X48541377Y-38457020D01*
X48469538Y-38283585D01*
X48365243Y-38127498D01*
X48365238Y-38127492D01*
X48232507Y-37994761D01*
X48232501Y-37994756D01*
X48180709Y-37960149D01*
X48076415Y-37890462D01*
X47902980Y-37818623D01*
X47718864Y-37782000D01*
X47718862Y-37782000D01*
X47531138Y-37782000D01*
X47531135Y-37782000D01*
X47347019Y-37818623D01*
X47347014Y-37818625D01*
X47227538Y-37868113D01*
X47204828Y-37877521D01*
X47182646Y-37886709D01*
X47134428Y-37896300D01*
X45575572Y-37896300D01*
X45527354Y-37886709D01*
X45505172Y-37877521D01*
X45362980Y-37818623D01*
X45178864Y-37782000D01*
X45178862Y-37782000D01*
X44991138Y-37782000D01*
X44991135Y-37782000D01*
X44807019Y-37818623D01*
X44807014Y-37818625D01*
X44633585Y-37890462D01*
X44477498Y-37994756D01*
X44477492Y-37994761D01*
X44344761Y-38127492D01*
X44344756Y-38127498D01*
X44240462Y-38283585D01*
X44168625Y-38457014D01*
X44168623Y-38457019D01*
X44132000Y-38641135D01*
X42386750Y-38641135D01*
X42386750Y-36234692D01*
X57554500Y-36234692D01*
X57554500Y-36475307D01*
X57585904Y-36713849D01*
X57648179Y-36946263D01*
X57648180Y-36946265D01*
X57648181Y-36946268D01*
X57740258Y-37168563D01*
X57740259Y-37168564D01*
X57740264Y-37168574D01*
X57860560Y-37376933D01*
X57860562Y-37376936D01*
X57860563Y-37376937D01*
X58007037Y-37567826D01*
X58007041Y-37567830D01*
X58007046Y-37567836D01*
X58177163Y-37737953D01*
X58177168Y-37737957D01*
X58177174Y-37737963D01*
X58359050Y-37877521D01*
X58368066Y-37884439D01*
X58388610Y-37896300D01*
X58576437Y-38004742D01*
X58798732Y-38096819D01*
X59031143Y-38159094D01*
X59031149Y-38159094D01*
X59031150Y-38159095D01*
X59053976Y-38162100D01*
X59269695Y-38190500D01*
X59269702Y-38190500D01*
X59510298Y-38190500D01*
X59510305Y-38190500D01*
X59748857Y-38159094D01*
X59981268Y-38096819D01*
X60203563Y-38004742D01*
X60411937Y-37884437D01*
X60602826Y-37737963D01*
X60772963Y-37567826D01*
X60919437Y-37376937D01*
X61039742Y-37168563D01*
X61131819Y-36946268D01*
X61194094Y-36713857D01*
X61225500Y-36475305D01*
X61225500Y-36234695D01*
X61194094Y-35996143D01*
X61131819Y-35763732D01*
X61039742Y-35541437D01*
X60982953Y-35443075D01*
X60919439Y-35333066D01*
X60919437Y-35333063D01*
X60772963Y-35142174D01*
X60772957Y-35142168D01*
X60772953Y-35142163D01*
X60602836Y-34972046D01*
X60602830Y-34972041D01*
X60602826Y-34972037D01*
X60411937Y-34825563D01*
X60411936Y-34825562D01*
X60411933Y-34825560D01*
X60203574Y-34705264D01*
X60203569Y-34705261D01*
X60203563Y-34705258D01*
X59981268Y-34613181D01*
X59981265Y-34613180D01*
X59981263Y-34613179D01*
X59790371Y-34562030D01*
X59748857Y-34550906D01*
X59748855Y-34550905D01*
X59748849Y-34550904D01*
X59510307Y-34519500D01*
X59510305Y-34519500D01*
X59269695Y-34519500D01*
X59269692Y-34519500D01*
X59031150Y-34550904D01*
X58798736Y-34613179D01*
X58798732Y-34613181D01*
X58608955Y-34691789D01*
X58576435Y-34705259D01*
X58576425Y-34705264D01*
X58368066Y-34825560D01*
X58177174Y-34972037D01*
X58177163Y-34972046D01*
X58007046Y-35142163D01*
X58007037Y-35142174D01*
X57860560Y-35333066D01*
X57740264Y-35541425D01*
X57740259Y-35541435D01*
X57648181Y-35763732D01*
X57648179Y-35763736D01*
X57585904Y-35996150D01*
X57554500Y-36234692D01*
X42386750Y-36234692D01*
X42386750Y-29397028D01*
X42386749Y-29397024D01*
X42382577Y-29376049D01*
X42358668Y-29255848D01*
X42330665Y-29188243D01*
X42303583Y-29122860D01*
X42223611Y-29003174D01*
X42223606Y-29003168D01*
X41185375Y-27964938D01*
X45976500Y-27964938D01*
X45982582Y-28042210D01*
X46030730Y-28221902D01*
X46115187Y-28387658D01*
X46115188Y-28387661D01*
X46232263Y-28532236D01*
X46376838Y-28649311D01*
X46376841Y-28649312D01*
X46542597Y-28733769D01*
X46722289Y-28781917D01*
X46799561Y-28788000D01*
X47569000Y-28788000D01*
X48204000Y-28788000D01*
X48973439Y-28788000D01*
X49050710Y-28781917D01*
X49230402Y-28733769D01*
X49396158Y-28649312D01*
X49396161Y-28649311D01*
X49540736Y-28532236D01*
X49657811Y-28387661D01*
X49657812Y-28387658D01*
X49742269Y-28221902D01*
X49790417Y-28042210D01*
X49796500Y-27964938D01*
X49796500Y-27433000D01*
X48204000Y-27433000D01*
X48204000Y-28788000D01*
X47569000Y-28788000D01*
X47569000Y-27433000D01*
X45976500Y-27433000D01*
X45976500Y-27964938D01*
X41185375Y-27964938D01*
X40690341Y-27469904D01*
X40342071Y-27121634D01*
X40308045Y-27059322D01*
X40306717Y-27012834D01*
X40342500Y-26786911D01*
X40342500Y-26553089D01*
X40305922Y-26322145D01*
X40233666Y-26099766D01*
X40127513Y-25891429D01*
X40108266Y-25864938D01*
X42806500Y-25864938D01*
X42812582Y-25942210D01*
X42860730Y-26121902D01*
X42945187Y-26287658D01*
X42945188Y-26287661D01*
X43062263Y-26432236D01*
X43206838Y-26549311D01*
X43206841Y-26549312D01*
X43372597Y-26633769D01*
X43552289Y-26681917D01*
X43629561Y-26688000D01*
X43799000Y-26688000D01*
X44434000Y-26688000D01*
X44603439Y-26688000D01*
X44680710Y-26681917D01*
X44860402Y-26633769D01*
X45026158Y-26549312D01*
X45026161Y-26549311D01*
X45170736Y-26432236D01*
X45287811Y-26287661D01*
X45287812Y-26287658D01*
X45298817Y-26266061D01*
X45976500Y-26266061D01*
X45976500Y-26798000D01*
X47569000Y-26798000D01*
X48204000Y-26798000D01*
X49796500Y-26798000D01*
X49796500Y-26266061D01*
X49790417Y-26188789D01*
X49742269Y-26009097D01*
X49657812Y-25843341D01*
X49657811Y-25843338D01*
X49540736Y-25698763D01*
X49396161Y-25581688D01*
X49396158Y-25581687D01*
X49230402Y-25497230D01*
X49050710Y-25449082D01*
X48973439Y-25443000D01*
X48204000Y-25443000D01*
X48204000Y-26798000D01*
X47569000Y-26798000D01*
X47569000Y-25443000D01*
X46799561Y-25443000D01*
X46722289Y-25449082D01*
X46542597Y-25497230D01*
X46376841Y-25581687D01*
X46376838Y-25581688D01*
X46232263Y-25698763D01*
X46115188Y-25843338D01*
X46115187Y-25843341D01*
X46030730Y-26009097D01*
X45982582Y-26188789D01*
X45976500Y-26266061D01*
X45298817Y-26266061D01*
X45329226Y-26206381D01*
X45372269Y-26121902D01*
X45420417Y-25942210D01*
X45426500Y-25864938D01*
X45426500Y-25670500D01*
X44434000Y-25670500D01*
X44434000Y-26688000D01*
X43799000Y-26688000D01*
X43799000Y-25670500D01*
X42806500Y-25670500D01*
X42806500Y-25864938D01*
X40108266Y-25864938D01*
X39990076Y-25702262D01*
X39990070Y-25702256D01*
X39990065Y-25702250D01*
X39824743Y-25536928D01*
X39824739Y-25536925D01*
X39824738Y-25536924D01*
X39776579Y-25501935D01*
X39733226Y-25445715D01*
X39727150Y-25374979D01*
X39760282Y-25312187D01*
X39776574Y-25298068D01*
X39814519Y-25270500D01*
X50336937Y-25270500D01*
X50342580Y-25342203D01*
X50342581Y-25342207D01*
X50390730Y-25521902D01*
X50475187Y-25687658D01*
X50475188Y-25687661D01*
X50592263Y-25832236D01*
X50736838Y-25949311D01*
X50736841Y-25949312D01*
X50902597Y-26033769D01*
X51082289Y-26081917D01*
X51159561Y-26088000D01*
X51379000Y-26088000D01*
X52014000Y-26088000D01*
X52233439Y-26088000D01*
X52310710Y-26081917D01*
X52490402Y-26033769D01*
X52656158Y-25949312D01*
X52656161Y-25949311D01*
X52800736Y-25832236D01*
X52917811Y-25687661D01*
X52917812Y-25687658D01*
X53002269Y-25521902D01*
X53050418Y-25342207D01*
X53050419Y-25342203D01*
X53056063Y-25270500D01*
X52014000Y-25270500D01*
X52014000Y-26088000D01*
X51379000Y-26088000D01*
X51379000Y-25270500D01*
X50336937Y-25270500D01*
X39814519Y-25270500D01*
X39824738Y-25263076D01*
X39841460Y-25246354D01*
X39951467Y-25136348D01*
X39990071Y-25097743D01*
X39990076Y-25097738D01*
X40127513Y-24908571D01*
X40233666Y-24700234D01*
X40305922Y-24477855D01*
X40342500Y-24246911D01*
X40342500Y-24013089D01*
X40305922Y-23782145D01*
X40233666Y-23559766D01*
X40127513Y-23351429D01*
X39990076Y-23162262D01*
X39990073Y-23162259D01*
X39990071Y-23162256D01*
X39824740Y-22996925D01*
X39776156Y-22961627D01*
X39732802Y-22905404D01*
X39726727Y-22834668D01*
X39759859Y-22771877D01*
X39776158Y-22757753D01*
X39824416Y-22722692D01*
X39989690Y-22557418D01*
X39989692Y-22557415D01*
X40127083Y-22368313D01*
X40233202Y-22160043D01*
X40233205Y-22160037D01*
X40305432Y-21937740D01*
X40310223Y-21907500D01*
X39246606Y-21907500D01*
X39257099Y-21897007D01*
X39322925Y-21782993D01*
X39357000Y-21655826D01*
X39357000Y-21524174D01*
X39322925Y-21397007D01*
X39257099Y-21282993D01*
X39246606Y-21272500D01*
X40310222Y-21272500D01*
X40305432Y-21242259D01*
X40233205Y-21019962D01*
X40233202Y-21019956D01*
X40127083Y-20811686D01*
X39989692Y-20622584D01*
X39989690Y-20622581D01*
X39824418Y-20457309D01*
X39824415Y-20457307D01*
X39635313Y-20319916D01*
X39427043Y-20213797D01*
X39427037Y-20213794D01*
X39204739Y-20141566D01*
X39204733Y-20141564D01*
X39174500Y-20136775D01*
X39174500Y-21200394D01*
X39164007Y-21189901D01*
X39049993Y-21124075D01*
X38922826Y-21090000D01*
X38791174Y-21090000D01*
X38664007Y-21124075D01*
X38549993Y-21189901D01*
X38539500Y-21200394D01*
X38539500Y-20136775D01*
X38539499Y-20136775D01*
X38509266Y-20141564D01*
X38509260Y-20141566D01*
X38286962Y-20213794D01*
X38286956Y-20213797D01*
X38078683Y-20319917D01*
X37895675Y-20452880D01*
X37828808Y-20476739D01*
X37759656Y-20460658D01*
X37713162Y-20415084D01*
X37709624Y-20409103D01*
X37673135Y-20347402D01*
X37673133Y-20347400D01*
X37673130Y-20347396D01*
X37559603Y-20233869D01*
X37559599Y-20233866D01*
X37559598Y-20233865D01*
X37421393Y-20152131D01*
X37344298Y-20129733D01*
X37267202Y-20107334D01*
X37231189Y-20104500D01*
X35402820Y-20104500D01*
X35366797Y-20107334D01*
X35212604Y-20152132D01*
X35074400Y-20233866D01*
X35074396Y-20233869D01*
X34960869Y-20347396D01*
X34960866Y-20347400D01*
X34879132Y-20485604D01*
X34834334Y-20639797D01*
X34831500Y-20675810D01*
X34831500Y-22504179D01*
X34834334Y-22540202D01*
X34835813Y-22545293D01*
X34879131Y-22694393D01*
X34914832Y-22754761D01*
X34960866Y-22832599D01*
X34960869Y-22832603D01*
X35074396Y-22946130D01*
X35074398Y-22946131D01*
X35074402Y-22946135D01*
X35141652Y-22985906D01*
X35151962Y-22996948D01*
X35165325Y-23003999D01*
X35175701Y-23022372D01*
X35190104Y-23037798D01*
X35192807Y-23052664D01*
X35200237Y-23065819D01*
X35199032Y-23086886D01*
X35202809Y-23107649D01*
X35196978Y-23122816D01*
X35196185Y-23136699D01*
X35179449Y-23168418D01*
X35127909Y-23239359D01*
X35071688Y-23282714D01*
X35025972Y-23291300D01*
X34054591Y-23291300D01*
X33986470Y-23271298D01*
X33965496Y-23254395D01*
X32637404Y-21926303D01*
X32603378Y-21863991D01*
X32600499Y-21837208D01*
X32600499Y-21342791D01*
X32620501Y-21274670D01*
X32637404Y-21253696D01*
X34854496Y-19036605D01*
X34916808Y-19002579D01*
X34943591Y-18999700D01*
X40748409Y-18999700D01*
X40816530Y-19019702D01*
X40837504Y-19036605D01*
X43135574Y-21334675D01*
X43169600Y-21396987D01*
X43164535Y-21467802D01*
X43125774Y-21521690D01*
X43061907Y-21573408D01*
X42944767Y-21718062D01*
X42944767Y-21718063D01*
X42860260Y-21883918D01*
X42814079Y-22056267D01*
X42812084Y-22063714D01*
X42806000Y-22141019D01*
X42806000Y-22141022D01*
X42806000Y-22421713D01*
X42785998Y-22489834D01*
X42732342Y-22536327D01*
X42662068Y-22546431D01*
X42655424Y-22545293D01*
X42638869Y-22542000D01*
X42638862Y-22542000D01*
X42451138Y-22542000D01*
X42451135Y-22542000D01*
X42267019Y-22578623D01*
X42267014Y-22578625D01*
X42093585Y-22650462D01*
X41937498Y-22754756D01*
X41937492Y-22754761D01*
X41804761Y-22887492D01*
X41804756Y-22887498D01*
X41700462Y-23043585D01*
X41628625Y-23217014D01*
X41628623Y-23217019D01*
X41592000Y-23401135D01*
X41592000Y-23588864D01*
X41620589Y-23732592D01*
X41628623Y-23772980D01*
X41700462Y-23946415D01*
X41757292Y-24031466D01*
X41804756Y-24102501D01*
X41804761Y-24102507D01*
X41937492Y-24235238D01*
X41937498Y-24235243D01*
X42093585Y-24339538D01*
X42267020Y-24411377D01*
X42451138Y-24448000D01*
X42451139Y-24448000D01*
X42638861Y-24448000D01*
X42638862Y-24448000D01*
X42713010Y-24433251D01*
X42783723Y-24439579D01*
X42839790Y-24483133D01*
X42863410Y-24550085D01*
X42859298Y-24589441D01*
X42812582Y-24763789D01*
X42806500Y-24841061D01*
X42806500Y-25035500D01*
X45426500Y-25035500D01*
X45426500Y-24841061D01*
X45420417Y-24763789D01*
X45372269Y-24584097D01*
X45287812Y-24418341D01*
X45287811Y-24418338D01*
X45170736Y-24273763D01*
X45026161Y-24156688D01*
X45026158Y-24156687D01*
X44945417Y-24115547D01*
X44893802Y-24066798D01*
X44876736Y-23997883D01*
X44899637Y-23930682D01*
X44945418Y-23891013D01*
X44978720Y-23874045D01*
X45026430Y-23849737D01*
X45026432Y-23849735D01*
X45026435Y-23849734D01*
X45171092Y-23732592D01*
X45263560Y-23618405D01*
X45321975Y-23578053D01*
X45361480Y-23571700D01*
X48531428Y-23571700D01*
X48579645Y-23581290D01*
X48744020Y-23649377D01*
X48928138Y-23686000D01*
X48928139Y-23686000D01*
X49115861Y-23686000D01*
X49115862Y-23686000D01*
X49299980Y-23649377D01*
X49464354Y-23581290D01*
X49512572Y-23571700D01*
X50287376Y-23571700D01*
X50355497Y-23591702D01*
X50399643Y-23640497D01*
X50422828Y-23686000D01*
X50467146Y-23772980D01*
X50474767Y-23787936D01*
X50474767Y-23787937D01*
X50493656Y-23811262D01*
X50585033Y-23924103D01*
X50612359Y-23989628D01*
X50599920Y-24059526D01*
X50585034Y-24082690D01*
X50475188Y-24218338D01*
X50475187Y-24218341D01*
X50390730Y-24384097D01*
X50342581Y-24563792D01*
X50342580Y-24563796D01*
X50336936Y-24635500D01*
X53056063Y-24635500D01*
X53050419Y-24563796D01*
X53050418Y-24563792D01*
X53002269Y-24384097D01*
X52917812Y-24218341D01*
X52917811Y-24218338D01*
X52819549Y-24096994D01*
X52813369Y-24082175D01*
X52802856Y-24070042D01*
X52799985Y-24050079D01*
X52792224Y-24031466D01*
X52795036Y-24015660D01*
X52792752Y-23999768D01*
X52801130Y-23981422D01*
X52804664Y-23961568D01*
X52815576Y-23949790D01*
X52822246Y-23935188D01*
X52839210Y-23924285D01*
X52852919Y-23909491D01*
X52869222Y-23904997D01*
X52881972Y-23896804D01*
X52917470Y-23891700D01*
X53133409Y-23891700D01*
X53201530Y-23911702D01*
X53222504Y-23928605D01*
X55385395Y-26091496D01*
X55419421Y-26153808D01*
X55422300Y-26180591D01*
X55422300Y-27957426D01*
X55412709Y-28005644D01*
X55348376Y-28160958D01*
X55321062Y-28201835D01*
X50108504Y-33414395D01*
X50046192Y-33448420D01*
X50019409Y-33451300D01*
X46845572Y-33451300D01*
X46797354Y-33441709D01*
X46632985Y-33373625D01*
X46632980Y-33373623D01*
X46448864Y-33337000D01*
X46448862Y-33337000D01*
X46261138Y-33337000D01*
X46261135Y-33337000D01*
X46077019Y-33373623D01*
X46077014Y-33373625D01*
X45903585Y-33445462D01*
X45747498Y-33549756D01*
X45747492Y-33549761D01*
X45614761Y-33682492D01*
X45614756Y-33682498D01*
X45510462Y-33838585D01*
X45438625Y-34012014D01*
X45438623Y-34012019D01*
X45402000Y-34196135D01*
X45402000Y-34196138D01*
X45402000Y-34383862D01*
X45438623Y-34567980D01*
X45510462Y-34741415D01*
X45576135Y-34839700D01*
X45614756Y-34897501D01*
X45614761Y-34897507D01*
X45747492Y-35030238D01*
X45747498Y-35030243D01*
X45903585Y-35134538D01*
X46077020Y-35206377D01*
X46261138Y-35243000D01*
X46261139Y-35243000D01*
X46448861Y-35243000D01*
X46448862Y-35243000D01*
X46632980Y-35206377D01*
X46797354Y-35138290D01*
X46845572Y-35128700D01*
X50501604Y-35128700D01*
X50501605Y-35128700D01*
X50663640Y-35096469D01*
X50816273Y-35033246D01*
X50953640Y-34941461D01*
X56507163Y-29387936D01*
X56548035Y-29360626D01*
X56712415Y-29292538D01*
X56868502Y-29188243D01*
X57001243Y-29055502D01*
X57105538Y-28899415D01*
X57177377Y-28725980D01*
X57214000Y-28541862D01*
X57214000Y-28354138D01*
X57177377Y-28170020D01*
X57138816Y-28076925D01*
X57109291Y-28005644D01*
X57099700Y-27957426D01*
X57099700Y-25698396D01*
X57099699Y-25698392D01*
X57067469Y-25536360D01*
X57055169Y-25506666D01*
X57004247Y-25383727D01*
X56912461Y-25246360D01*
X56912456Y-25246354D01*
X54067647Y-22401545D01*
X54067641Y-22401540D01*
X53930274Y-22309755D01*
X53930275Y-22309755D01*
X53930273Y-22309754D01*
X53777641Y-22246531D01*
X53615607Y-22214300D01*
X53615605Y-22214300D01*
X52894175Y-22214300D01*
X52826054Y-22194298D01*
X52805080Y-22177395D01*
X52801097Y-22173412D01*
X52656437Y-22056267D01*
X52490581Y-21971760D01*
X52310790Y-21923585D01*
X52310789Y-21923584D01*
X52310786Y-21923584D01*
X52233481Y-21917500D01*
X52233478Y-21917500D01*
X51588151Y-21917500D01*
X51573810Y-21916681D01*
X51568654Y-21916090D01*
X51459105Y-21894300D01*
X51378444Y-21894300D01*
X51371295Y-21893481D01*
X51344954Y-21882354D01*
X51317515Y-21874298D01*
X51312685Y-21868724D01*
X51305894Y-21865856D01*
X51289751Y-21842256D01*
X51271022Y-21820642D01*
X51269972Y-21813342D01*
X51265810Y-21807257D01*
X51264988Y-21778678D01*
X51260918Y-21750368D01*
X51263981Y-21743659D01*
X51263770Y-21736290D01*
X51278533Y-21711798D01*
X51290412Y-21685788D01*
X51296541Y-21679205D01*
X51413238Y-21562507D01*
X51413243Y-21562502D01*
X51484948Y-21455189D01*
X58559500Y-21455189D01*
X58559500Y-21724810D01*
X58589688Y-21992735D01*
X58649685Y-22255597D01*
X58738726Y-22510061D01*
X58738737Y-22510088D01*
X58855717Y-22753000D01*
X58999159Y-22981286D01*
X59167268Y-23192088D01*
X59357911Y-23382731D01*
X59568713Y-23550840D01*
X59796999Y-23694282D01*
X59797002Y-23694283D01*
X59797003Y-23694284D01*
X60039921Y-23811267D01*
X60039937Y-23811272D01*
X60039938Y-23811273D01*
X60294402Y-23900314D01*
X60294405Y-23900314D01*
X60294409Y-23900316D01*
X60557268Y-23960312D01*
X60744622Y-23981422D01*
X60825189Y-23990500D01*
X60825191Y-23990500D01*
X61094811Y-23990500D01*
X61166556Y-23982416D01*
X61362732Y-23960312D01*
X61625591Y-23900316D01*
X61880079Y-23811267D01*
X62122997Y-23694284D01*
X62290771Y-23588864D01*
X62351286Y-23550840D01*
X62351289Y-23550838D01*
X62562085Y-23382734D01*
X62752734Y-23192085D01*
X62920838Y-22981289D01*
X63064284Y-22752997D01*
X63181267Y-22510079D01*
X63270316Y-22255591D01*
X63330312Y-21992732D01*
X63360500Y-21724809D01*
X63360500Y-21455191D01*
X63360357Y-21453926D01*
X63341955Y-21290601D01*
X63330312Y-21187268D01*
X63270316Y-20924409D01*
X63256477Y-20884860D01*
X63181273Y-20669938D01*
X63181272Y-20669937D01*
X63181267Y-20669921D01*
X63064284Y-20427003D01*
X63064283Y-20427002D01*
X63064282Y-20426999D01*
X62920840Y-20198713D01*
X62752731Y-19987911D01*
X62562088Y-19797268D01*
X62351286Y-19629159D01*
X62123000Y-19485717D01*
X61880088Y-19368737D01*
X61880083Y-19368735D01*
X61880079Y-19368733D01*
X61880073Y-19368730D01*
X61880061Y-19368726D01*
X61625597Y-19279685D01*
X61362735Y-19219688D01*
X61094811Y-19189500D01*
X61094809Y-19189500D01*
X60825191Y-19189500D01*
X60825189Y-19189500D01*
X60557264Y-19219688D01*
X60294402Y-19279685D01*
X60039938Y-19368726D01*
X60039911Y-19368737D01*
X59796999Y-19485717D01*
X59568713Y-19629159D01*
X59357911Y-19797268D01*
X59167268Y-19987911D01*
X58999159Y-20198713D01*
X58855717Y-20426999D01*
X58738737Y-20669911D01*
X58738726Y-20669938D01*
X58649685Y-20924402D01*
X58589688Y-21187264D01*
X58559500Y-21455189D01*
X51484948Y-21455189D01*
X51517538Y-21406415D01*
X51589377Y-21232980D01*
X51626000Y-21048862D01*
X51626000Y-20861138D01*
X51589377Y-20677020D01*
X51517538Y-20503585D01*
X51413243Y-20347498D01*
X51413238Y-20347492D01*
X51280507Y-20214761D01*
X51280501Y-20214756D01*
X51186776Y-20152131D01*
X51124415Y-20110462D01*
X50956767Y-20041020D01*
X50950985Y-20038625D01*
X50950980Y-20038623D01*
X50766864Y-20002000D01*
X50766862Y-20002000D01*
X50579138Y-20002000D01*
X50579135Y-20002000D01*
X50395019Y-20038623D01*
X50395009Y-20038626D01*
X50386361Y-20042209D01*
X50338144Y-20051800D01*
X49911202Y-20051800D01*
X49843081Y-20031798D01*
X49796588Y-19978142D01*
X49789495Y-19958411D01*
X49742739Y-19783918D01*
X49742739Y-19783917D01*
X49658234Y-19618065D01*
X49658232Y-19618062D01*
X49541092Y-19473407D01*
X49396437Y-19356267D01*
X49230581Y-19271760D01*
X49050790Y-19223585D01*
X49050789Y-19223584D01*
X49050786Y-19223584D01*
X48973481Y-19217500D01*
X48973478Y-19217500D01*
X48851200Y-19217500D01*
X48842374Y-19214908D01*
X48833268Y-19216218D01*
X48808842Y-19205062D01*
X48783079Y-19197498D01*
X48777054Y-19190544D01*
X48768688Y-19186724D01*
X48754173Y-19164138D01*
X48736586Y-19143842D01*
X48734261Y-19133155D01*
X48730304Y-19126998D01*
X48725200Y-19091500D01*
X48725200Y-18887465D01*
X48734791Y-18839247D01*
X48744316Y-18816251D01*
X48795377Y-18692980D01*
X48832000Y-18508862D01*
X48832000Y-18321138D01*
X48795377Y-18137020D01*
X48723538Y-17963585D01*
X48619243Y-17807498D01*
X48619238Y-17807492D01*
X48486507Y-17674761D01*
X48486501Y-17674756D01*
X48434709Y-17640149D01*
X48330415Y-17570462D01*
X48156980Y-17498623D01*
X47972864Y-17462000D01*
X47972862Y-17462000D01*
X47785138Y-17462000D01*
X47785135Y-17462000D01*
X47601019Y-17498623D01*
X47601014Y-17498625D01*
X47427585Y-17570462D01*
X47271498Y-17674756D01*
X47271492Y-17674761D01*
X47138761Y-17807492D01*
X47138756Y-17807498D01*
X47034462Y-17963585D01*
X46962625Y-18137014D01*
X46962623Y-18137019D01*
X46926000Y-18321135D01*
X46926000Y-18508864D01*
X46962623Y-18692980D01*
X46962625Y-18692985D01*
X47036831Y-18872134D01*
X47035237Y-18872794D01*
X47036482Y-18877762D01*
X47042696Y-18887431D01*
X47047800Y-18922929D01*
X47047800Y-19091500D01*
X47027798Y-19159621D01*
X46974142Y-19206114D01*
X46921801Y-19217500D01*
X46799520Y-19217500D01*
X46722216Y-19223583D01*
X46542418Y-19271760D01*
X46376563Y-19356267D01*
X46376562Y-19356267D01*
X46231907Y-19473407D01*
X46114767Y-19618062D01*
X46114767Y-19618063D01*
X46030260Y-19783918D01*
X45983505Y-19958411D01*
X45982084Y-19963714D01*
X45976000Y-20041019D01*
X45976000Y-20041022D01*
X45976000Y-21739977D01*
X45977452Y-21758414D01*
X45962856Y-21827894D01*
X45913013Y-21878454D01*
X45851840Y-21894300D01*
X45455243Y-21894300D01*
X45387122Y-21874298D01*
X45342976Y-21825503D01*
X45320555Y-21781500D01*
X45288234Y-21718065D01*
X45269753Y-21695243D01*
X45171092Y-21573407D01*
X45040681Y-21467802D01*
X45026435Y-21456266D01*
X45026432Y-21456264D01*
X45026430Y-21456263D01*
X45023989Y-21455019D01*
X45022832Y-21453926D01*
X45020896Y-21452669D01*
X45021126Y-21452314D01*
X44972377Y-21406267D01*
X44955200Y-21342756D01*
X44955200Y-21046896D01*
X44955199Y-21046892D01*
X44922969Y-20884860D01*
X44859746Y-20732227D01*
X44767961Y-20594860D01*
X44651140Y-20478039D01*
X43172801Y-18999700D01*
X41682647Y-17509545D01*
X41682641Y-17509540D01*
X41545272Y-17417753D01*
X41545268Y-17417751D01*
X41472014Y-17387408D01*
X41416733Y-17342860D01*
X41394313Y-17275496D01*
X41411872Y-17206705D01*
X41463834Y-17158327D01*
X41520233Y-17145000D01*
X63380282Y-17145000D01*
X63444779Y-17162759D01*
X63733747Y-17334946D01*
X63742458Y-17340637D01*
X64064348Y-17570462D01*
X64075655Y-17578535D01*
X64083872Y-17584931D01*
X64396279Y-17849525D01*
X64403941Y-17856579D01*
X64693420Y-18146058D01*
X64700474Y-18153720D01*
X64965068Y-18466127D01*
X64971464Y-18474344D01*
X64996111Y-18508864D01*
X65127567Y-18692980D01*
X65209357Y-18807533D01*
X65215052Y-18816249D01*
X65387241Y-19105220D01*
X65405000Y-19169716D01*
X65405000Y-63380282D01*
X65387241Y-63444780D01*
X65215053Y-63733748D01*
X65209357Y-63742466D01*
X64971464Y-64075655D01*
X64965068Y-64083872D01*
X64700474Y-64396279D01*
X64693420Y-64403941D01*
X64403941Y-64693420D01*
X64396279Y-64700474D01*
X64083872Y-64965068D01*
X64075655Y-64971464D01*
X63742466Y-65209357D01*
X63733748Y-65215053D01*
X63444780Y-65387241D01*
X63380282Y-65405000D01*
X15359718Y-65405000D01*
X15295221Y-65387241D01*
X15006252Y-65215053D01*
X14997533Y-65209357D01*
X14664344Y-64971464D01*
X14656127Y-64965068D01*
X14343720Y-64700474D01*
X14336058Y-64693420D01*
X14046579Y-64403941D01*
X14039525Y-64396279D01*
X13774931Y-64083872D01*
X13768535Y-64075655D01*
X13530637Y-63742458D01*
X13524946Y-63733747D01*
X13352759Y-63444779D01*
X13335000Y-63380282D01*
X13335000Y-60825189D01*
X15379500Y-60825189D01*
X15379500Y-61094810D01*
X15409688Y-61362735D01*
X15469685Y-61625597D01*
X15558726Y-61880061D01*
X15558737Y-61880088D01*
X15675717Y-62123000D01*
X15819159Y-62351286D01*
X15987268Y-62562088D01*
X16177911Y-62752731D01*
X16388713Y-62920840D01*
X16616999Y-63064282D01*
X16617002Y-63064283D01*
X16617003Y-63064284D01*
X16859921Y-63181267D01*
X16859937Y-63181272D01*
X16859938Y-63181273D01*
X17114402Y-63270314D01*
X17114405Y-63270314D01*
X17114409Y-63270316D01*
X17377268Y-63330312D01*
X17567248Y-63351717D01*
X17645189Y-63360500D01*
X17645191Y-63360500D01*
X17914811Y-63360500D01*
X17982853Y-63352833D01*
X18182732Y-63330312D01*
X18445591Y-63270316D01*
X18700079Y-63181267D01*
X18942997Y-63064284D01*
X19171289Y-62920838D01*
X19382085Y-62752734D01*
X19572734Y-62562085D01*
X19740838Y-62351289D01*
X19884284Y-62122997D01*
X20001267Y-61880079D01*
X20090316Y-61625591D01*
X20150312Y-61362732D01*
X20180500Y-61094809D01*
X20180500Y-60825191D01*
X20180500Y-60825189D01*
X58559500Y-60825189D01*
X58559500Y-61094810D01*
X58589688Y-61362735D01*
X58649685Y-61625597D01*
X58738726Y-61880061D01*
X58738737Y-61880088D01*
X58855717Y-62123000D01*
X58999159Y-62351286D01*
X59167268Y-62562088D01*
X59357911Y-62752731D01*
X59568713Y-62920840D01*
X59796999Y-63064282D01*
X59797002Y-63064283D01*
X59797003Y-63064284D01*
X60039921Y-63181267D01*
X60039937Y-63181272D01*
X60039938Y-63181273D01*
X60294402Y-63270314D01*
X60294405Y-63270314D01*
X60294409Y-63270316D01*
X60557268Y-63330312D01*
X60747248Y-63351717D01*
X60825189Y-63360500D01*
X60825191Y-63360500D01*
X61094811Y-63360500D01*
X61162853Y-63352833D01*
X61362732Y-63330312D01*
X61625591Y-63270316D01*
X61880079Y-63181267D01*
X62122997Y-63064284D01*
X62351289Y-62920838D01*
X62562085Y-62752734D01*
X62752734Y-62562085D01*
X62920838Y-62351289D01*
X63064284Y-62122997D01*
X63181267Y-61880079D01*
X63270316Y-61625591D01*
X63330312Y-61362732D01*
X63360500Y-61094809D01*
X63360500Y-60825191D01*
X63330312Y-60557268D01*
X63270316Y-60294409D01*
X63181267Y-60039921D01*
X63064284Y-59797003D01*
X63064283Y-59797002D01*
X63064282Y-59796999D01*
X62920840Y-59568713D01*
X62752731Y-59357911D01*
X62562088Y-59167268D01*
X62351286Y-58999159D01*
X62123000Y-58855717D01*
X61880088Y-58738737D01*
X61880083Y-58738735D01*
X61880079Y-58738733D01*
X61880073Y-58738730D01*
X61880061Y-58738726D01*
X61625597Y-58649685D01*
X61362735Y-58589688D01*
X61094811Y-58559500D01*
X61094809Y-58559500D01*
X60825191Y-58559500D01*
X60825189Y-58559500D01*
X60557264Y-58589688D01*
X60294402Y-58649685D01*
X60039938Y-58738726D01*
X60039911Y-58738737D01*
X59796999Y-58855717D01*
X59568713Y-58999159D01*
X59357911Y-59167268D01*
X59167268Y-59357911D01*
X58999159Y-59568713D01*
X58855717Y-59796999D01*
X58738737Y-60039911D01*
X58738726Y-60039938D01*
X58649685Y-60294402D01*
X58589688Y-60557264D01*
X58559500Y-60825189D01*
X20180500Y-60825189D01*
X20150312Y-60557268D01*
X20090316Y-60294409D01*
X20001267Y-60039921D01*
X19884284Y-59797003D01*
X19884283Y-59797002D01*
X19884282Y-59796999D01*
X19740840Y-59568713D01*
X19572731Y-59357911D01*
X19382088Y-59167268D01*
X19171286Y-58999159D01*
X18943000Y-58855717D01*
X18700088Y-58738737D01*
X18700083Y-58738735D01*
X18700079Y-58738733D01*
X18700073Y-58738730D01*
X18700061Y-58738726D01*
X18445597Y-58649685D01*
X18182735Y-58589688D01*
X17914811Y-58559500D01*
X17914809Y-58559500D01*
X17645191Y-58559500D01*
X17645189Y-58559500D01*
X17377264Y-58589688D01*
X17114402Y-58649685D01*
X16859938Y-58738726D01*
X16859911Y-58738737D01*
X16616999Y-58855717D01*
X16388713Y-58999159D01*
X16177911Y-59167268D01*
X15987268Y-59357911D01*
X15819159Y-59568713D01*
X15675717Y-59796999D01*
X15558737Y-60039911D01*
X15558726Y-60039938D01*
X15469685Y-60294402D01*
X15409688Y-60557264D01*
X15379500Y-60825189D01*
X13335000Y-60825189D01*
X13335000Y-53031415D01*
X20300000Y-53031415D01*
X20300000Y-53658500D01*
X21295394Y-53658500D01*
X21284901Y-53668993D01*
X21219075Y-53783007D01*
X21185000Y-53910174D01*
X21185000Y-54041826D01*
X21219075Y-54168993D01*
X21284901Y-54283007D01*
X21295394Y-54293500D01*
X20300000Y-54293500D01*
X20300000Y-54920584D01*
X20310114Y-55063842D01*
X20310115Y-55063853D01*
X20363682Y-55301690D01*
X20454705Y-55527856D01*
X20580832Y-55736497D01*
X20738794Y-55922205D01*
X20924502Y-56080167D01*
X21133143Y-56206294D01*
X21359309Y-56297317D01*
X21597146Y-56350884D01*
X21597157Y-56350885D01*
X21740415Y-56361000D01*
X22367500Y-56361000D01*
X22367500Y-54476000D01*
X23002500Y-54476000D01*
X23002500Y-56361000D01*
X23629585Y-56361000D01*
X23772842Y-56350885D01*
X23772853Y-56350884D01*
X24010690Y-56297317D01*
X24236856Y-56206294D01*
X24445497Y-56080167D01*
X24631205Y-55922205D01*
X24789167Y-55736497D01*
X24915294Y-55527856D01*
X25006317Y-55301690D01*
X25059884Y-55063853D01*
X25059885Y-55063842D01*
X25070000Y-54920584D01*
X25070000Y-54293500D01*
X24074606Y-54293500D01*
X24085099Y-54283007D01*
X24150925Y-54168993D01*
X24185000Y-54041826D01*
X24185000Y-53910174D01*
X24150925Y-53783007D01*
X24085099Y-53668993D01*
X24074606Y-53658500D01*
X25070000Y-53658500D01*
X25070000Y-53031415D01*
X25059885Y-52888157D01*
X25059884Y-52888146D01*
X25006317Y-52650309D01*
X24915294Y-52424143D01*
X24789167Y-52215502D01*
X24631205Y-52029794D01*
X24459185Y-51883475D01*
X24420256Y-51824103D01*
X24419606Y-51753109D01*
X24457441Y-51693034D01*
X24521749Y-51662951D01*
X24540811Y-51661499D01*
X27499180Y-51661499D01*
X27535204Y-51658665D01*
X27689393Y-51613869D01*
X27827598Y-51532135D01*
X27941135Y-51418598D01*
X28022869Y-51280393D01*
X28067665Y-51126204D01*
X28070500Y-51090181D01*
X28070499Y-47461820D01*
X28067665Y-47425796D01*
X28022869Y-47271607D01*
X27941135Y-47133402D01*
X27941133Y-47133400D01*
X27941130Y-47133396D01*
X27827603Y-47019869D01*
X27827599Y-47019866D01*
X27827598Y-47019865D01*
X27689393Y-46938131D01*
X27606716Y-46914111D01*
X27535202Y-46893334D01*
X27499189Y-46890500D01*
X23870820Y-46890500D01*
X23834797Y-46893334D01*
X23680604Y-46938132D01*
X23542400Y-47019866D01*
X23542396Y-47019869D01*
X23428869Y-47133396D01*
X23428866Y-47133400D01*
X23347132Y-47271604D01*
X23302334Y-47425797D01*
X23299500Y-47461810D01*
X23299500Y-51090179D01*
X23302334Y-51126202D01*
X23347132Y-51280397D01*
X23418375Y-51400861D01*
X23435835Y-51469677D01*
X23413318Y-51537008D01*
X23357974Y-51581477D01*
X23309922Y-51591000D01*
X23002500Y-51591000D01*
X23002500Y-53476000D01*
X22367500Y-53476000D01*
X22367500Y-51591000D01*
X21740415Y-51591000D01*
X21597157Y-51601114D01*
X21597146Y-51601115D01*
X21359307Y-51654682D01*
X21229726Y-51706833D01*
X21065369Y-51786674D01*
X20924504Y-51871831D01*
X20738794Y-52029794D01*
X20580832Y-52215502D01*
X20454705Y-52424143D01*
X20363682Y-52650309D01*
X20310115Y-52888146D01*
X20310114Y-52888157D01*
X20300000Y-53031415D01*
X13335000Y-53031415D01*
X13335000Y-48181735D01*
X17550000Y-48181735D01*
X17550000Y-48958500D01*
X19185000Y-48958500D01*
X19185000Y-49593500D01*
X17550001Y-49593500D01*
X17550001Y-50370264D01*
X17552814Y-50423250D01*
X17597582Y-50654727D01*
X17680823Y-50875301D01*
X17680825Y-50875306D01*
X17800144Y-51078636D01*
X17952115Y-51258884D01*
X18132363Y-51410855D01*
X18335693Y-51530174D01*
X18335698Y-51530176D01*
X18556272Y-51613417D01*
X18787749Y-51658185D01*
X18840735Y-51660999D01*
X19367500Y-51660999D01*
X19367500Y-50665606D01*
X19377993Y-50676099D01*
X19492007Y-50741925D01*
X19619174Y-50776000D01*
X19750826Y-50776000D01*
X19877993Y-50741925D01*
X19992007Y-50676099D01*
X20002500Y-50665606D01*
X20002500Y-51660999D01*
X20529264Y-51660999D01*
X20582250Y-51658185D01*
X20813727Y-51613417D01*
X20955250Y-51560008D01*
X21119109Y-51480408D01*
X21237636Y-51410855D01*
X21417884Y-51258884D01*
X21569855Y-51078636D01*
X21689174Y-50875306D01*
X21689176Y-50875301D01*
X21772417Y-50654727D01*
X21817185Y-50423250D01*
X21820000Y-50370264D01*
X21820000Y-49593500D01*
X20185000Y-49593500D01*
X20185000Y-48958500D01*
X21819999Y-48958500D01*
X21819999Y-48181735D01*
X21817185Y-48128749D01*
X21772417Y-47897272D01*
X21689176Y-47676698D01*
X21689174Y-47676693D01*
X21569855Y-47473363D01*
X21417884Y-47293115D01*
X21237636Y-47141144D01*
X21034306Y-47021825D01*
X21034301Y-47021823D01*
X20813727Y-46938582D01*
X20582250Y-46893814D01*
X20529265Y-46891000D01*
X20002500Y-46891000D01*
X20002500Y-47886394D01*
X19992007Y-47875901D01*
X19877993Y-47810075D01*
X19750826Y-47776000D01*
X19619174Y-47776000D01*
X19492007Y-47810075D01*
X19377993Y-47875901D01*
X19367500Y-47886394D01*
X19367500Y-46891000D01*
X18840735Y-46891000D01*
X18787749Y-46893814D01*
X18556272Y-46938582D01*
X18335698Y-47021823D01*
X18335693Y-47021825D01*
X18132363Y-47141144D01*
X17952115Y-47293115D01*
X17800144Y-47473363D01*
X17680825Y-47676693D01*
X17680823Y-47676698D01*
X17597582Y-47897272D01*
X17552814Y-48128749D01*
X17550000Y-48181735D01*
X13335000Y-48181735D01*
X13335000Y-44864135D01*
X27368000Y-44864135D01*
X27368000Y-45051864D01*
X27404623Y-45235980D01*
X27404625Y-45235985D01*
X27407752Y-45243534D01*
X27476462Y-45409415D01*
X27546149Y-45513709D01*
X27580756Y-45565501D01*
X27580761Y-45565507D01*
X27713492Y-45698238D01*
X27713498Y-45698243D01*
X27869585Y-45802538D01*
X28033960Y-45870624D01*
X28074837Y-45897938D01*
X29056352Y-46879454D01*
X29056358Y-46879459D01*
X29056360Y-46879461D01*
X29193727Y-46971246D01*
X29346360Y-47034469D01*
X29362139Y-47037607D01*
X29425048Y-47070513D01*
X29459265Y-47128572D01*
X29464761Y-47149084D01*
X29507818Y-47233589D01*
X29549126Y-47314661D01*
X29549267Y-47314936D01*
X29549267Y-47314937D01*
X29666407Y-47459592D01*
X29811062Y-47576732D01*
X29811063Y-47576732D01*
X29811065Y-47576734D01*
X29976917Y-47661239D01*
X30156714Y-47709416D01*
X30234019Y-47715500D01*
X30857980Y-47715499D01*
X30935286Y-47709416D01*
X31115083Y-47661239D01*
X31280935Y-47576734D01*
X31417103Y-47466466D01*
X31482628Y-47439141D01*
X31552526Y-47451580D01*
X31575690Y-47466466D01*
X31711338Y-47576311D01*
X31711341Y-47576312D01*
X31877097Y-47660769D01*
X32056789Y-47708917D01*
X32128499Y-47714561D01*
X32128500Y-47714561D01*
X32763500Y-47714561D01*
X32835210Y-47708917D01*
X33014902Y-47660769D01*
X33180658Y-47576312D01*
X33180661Y-47576311D01*
X33325236Y-47459236D01*
X33442311Y-47314661D01*
X33442312Y-47314658D01*
X33526769Y-47148902D01*
X33574917Y-46969210D01*
X33581000Y-46891938D01*
X33581000Y-46672500D01*
X32763500Y-46672500D01*
X32763500Y-47714561D01*
X32128500Y-47714561D01*
X32128500Y-46037500D01*
X32763500Y-46037500D01*
X33581000Y-46037500D01*
X33581000Y-45818061D01*
X33574917Y-45740789D01*
X33526769Y-45561097D01*
X33442312Y-45395341D01*
X33442311Y-45395338D01*
X33325236Y-45250763D01*
X33180661Y-45133688D01*
X33180658Y-45133687D01*
X33014902Y-45049230D01*
X32835207Y-45001081D01*
X32835203Y-45001080D01*
X32763500Y-44995436D01*
X32763500Y-46037500D01*
X32128500Y-46037500D01*
X32128500Y-44995436D01*
X32056796Y-45001080D01*
X32056792Y-45001081D01*
X31877097Y-45049230D01*
X31711341Y-45133687D01*
X31711338Y-45133688D01*
X31575690Y-45243534D01*
X31510162Y-45270859D01*
X31440264Y-45258419D01*
X31417103Y-45243534D01*
X31280935Y-45133266D01*
X31115083Y-45048761D01*
X31115082Y-45048760D01*
X31115081Y-45048760D01*
X30935290Y-45000585D01*
X30935289Y-45000584D01*
X30935286Y-45000584D01*
X30857981Y-44994500D01*
X30857977Y-44994500D01*
X30234020Y-44994500D01*
X30156716Y-45000583D01*
X29976918Y-45048760D01*
X29894286Y-45090863D01*
X29811065Y-45133266D01*
X29811063Y-45133266D01*
X29807374Y-45135147D01*
X29737597Y-45148251D01*
X29671812Y-45121551D01*
X29661076Y-45111975D01*
X29260938Y-44711837D01*
X29233624Y-44670960D01*
X29224636Y-44649261D01*
X29165538Y-44506585D01*
X29061243Y-44350498D01*
X29061238Y-44350492D01*
X28928507Y-44217761D01*
X28928501Y-44217756D01*
X28823703Y-44147732D01*
X28772415Y-44113462D01*
X28598980Y-44041623D01*
X28419803Y-44005982D01*
X28356893Y-43973074D01*
X28321762Y-43911379D01*
X28325562Y-43840484D01*
X28332118Y-43825200D01*
X28385769Y-43719902D01*
X28433917Y-43540210D01*
X28440000Y-43462938D01*
X28440000Y-43243500D01*
X27622500Y-43243500D01*
X27622500Y-44256563D01*
X27602498Y-44324684D01*
X27585600Y-44345654D01*
X27580759Y-44350494D01*
X27580755Y-44350499D01*
X27476462Y-44506585D01*
X27404625Y-44680014D01*
X27404623Y-44680019D01*
X27368000Y-44864135D01*
X13335000Y-44864135D01*
X13335000Y-21455189D01*
X15379500Y-21455189D01*
X15379500Y-21724810D01*
X15409688Y-21992735D01*
X15469685Y-22255597D01*
X15558726Y-22510061D01*
X15558737Y-22510088D01*
X15675717Y-22753000D01*
X15819159Y-22981286D01*
X15987268Y-23192088D01*
X16177911Y-23382731D01*
X16388713Y-23550840D01*
X16616999Y-23694282D01*
X16617002Y-23694283D01*
X16617003Y-23694284D01*
X16859921Y-23811267D01*
X16859937Y-23811272D01*
X16859938Y-23811273D01*
X17114402Y-23900314D01*
X17114405Y-23900314D01*
X17114409Y-23900316D01*
X17377268Y-23960312D01*
X17564622Y-23981422D01*
X17645189Y-23990500D01*
X17645191Y-23990500D01*
X17914811Y-23990500D01*
X17986556Y-23982416D01*
X18182732Y-23960312D01*
X18445591Y-23900316D01*
X18700079Y-23811267D01*
X18942997Y-23694284D01*
X19110771Y-23588864D01*
X19171286Y-23550840D01*
X19171289Y-23550838D01*
X19382085Y-23382734D01*
X19572734Y-23192085D01*
X19740838Y-22981289D01*
X19884284Y-22752997D01*
X20001267Y-22510079D01*
X20090316Y-22255591D01*
X20150312Y-21992732D01*
X20180500Y-21724809D01*
X20180500Y-21455191D01*
X20180357Y-21453926D01*
X20161955Y-21290601D01*
X20150312Y-21187268D01*
X20090316Y-20924409D01*
X20076477Y-20884860D01*
X20001273Y-20669938D01*
X20001272Y-20669937D01*
X20001267Y-20669921D01*
X19884284Y-20427003D01*
X19884283Y-20427002D01*
X19884282Y-20426999D01*
X19740840Y-20198713D01*
X19572731Y-19987911D01*
X19382088Y-19797268D01*
X19171286Y-19629159D01*
X18943000Y-19485717D01*
X18700088Y-19368737D01*
X18700083Y-19368735D01*
X18700079Y-19368733D01*
X18700073Y-19368730D01*
X18700061Y-19368726D01*
X18445597Y-19279685D01*
X18182735Y-19219688D01*
X17914811Y-19189500D01*
X17914809Y-19189500D01*
X17645191Y-19189500D01*
X17645189Y-19189500D01*
X17377264Y-19219688D01*
X17114402Y-19279685D01*
X16859938Y-19368726D01*
X16859911Y-19368737D01*
X16616999Y-19485717D01*
X16388713Y-19629159D01*
X16177911Y-19797268D01*
X15987268Y-19987911D01*
X15819159Y-20198713D01*
X15675717Y-20426999D01*
X15558737Y-20669911D01*
X15558726Y-20669938D01*
X15469685Y-20924402D01*
X15409688Y-21187264D01*
X15379500Y-21455189D01*
X13335000Y-21455189D01*
X13335000Y-19169716D01*
X13352758Y-19105220D01*
X13524958Y-18816232D01*
X13530629Y-18807552D01*
X13768545Y-18474331D01*
X13774921Y-18466139D01*
X14039536Y-18153707D01*
X14046567Y-18146070D01*
X14336070Y-17856567D01*
X14343707Y-17849536D01*
X14656139Y-17584921D01*
X14664331Y-17578545D01*
X14997552Y-17340629D01*
X15006243Y-17334951D01*
X15106023Y-17275496D01*
X15295221Y-17162759D01*
X15359718Y-17145000D01*
X34171767Y-17145000D01*
X34239888Y-17165002D01*
G37*
%TD.AperFunction*%
%TA.AperFunction,Conductor*%
G36*
X26369560Y-31584993D02*
G01*
X26398280Y-31586864D01*
X26407282Y-31591705D01*
X26411129Y-31592390D01*
X26424335Y-31600876D01*
X26429865Y-31603851D01*
X26432118Y-31605515D01*
X26520065Y-31676734D01*
X26547337Y-31690629D01*
X26555720Y-31696822D01*
X26597262Y-31749949D01*
X26619914Y-31804634D01*
X26619916Y-31804639D01*
X26699888Y-31924325D01*
X26699893Y-31924331D01*
X32935168Y-38159606D01*
X32935174Y-38159611D01*
X33054860Y-38239583D01*
X33187848Y-38294668D01*
X33329027Y-38322750D01*
X33472973Y-38322750D01*
X34316123Y-38322750D01*
X34384244Y-38342752D01*
X34405218Y-38359655D01*
X34924848Y-38879285D01*
X34958874Y-38941597D01*
X34953809Y-39012412D01*
X34911262Y-39069248D01*
X34883974Y-39084788D01*
X34854584Y-39096962D01*
X34698498Y-39201256D01*
X34698492Y-39201261D01*
X34565761Y-39333992D01*
X34565758Y-39333997D01*
X34565757Y-39333998D01*
X34549211Y-39358761D01*
X34461462Y-39490085D01*
X34389625Y-39663514D01*
X34389623Y-39663519D01*
X34353000Y-39847635D01*
X34353000Y-40035364D01*
X34389623Y-40219480D01*
X34389625Y-40219485D01*
X34461462Y-40392915D01*
X34461462Y-40392916D01*
X34476219Y-40415000D01*
X34502265Y-40453981D01*
X34507064Y-40461162D01*
X34528280Y-40528915D01*
X34528300Y-40531165D01*
X34528300Y-41324030D01*
X34508298Y-41392151D01*
X34454642Y-41438644D01*
X34384368Y-41448748D01*
X34323006Y-41421951D01*
X34201661Y-41323688D01*
X34201658Y-41323687D01*
X34035902Y-41239230D01*
X33856207Y-41191081D01*
X33856203Y-41191080D01*
X33807629Y-41187257D01*
X33741288Y-41161971D01*
X33699149Y-41104833D01*
X33694591Y-41033983D01*
X33701107Y-41013432D01*
X33748317Y-40899458D01*
X33782500Y-40727608D01*
X33782500Y-40552392D01*
X33748317Y-40380542D01*
X33681265Y-40218664D01*
X33583920Y-40072977D01*
X33460023Y-39949080D01*
X33314336Y-39851735D01*
X33152458Y-39784683D01*
X32980610Y-39750500D01*
X32980608Y-39750500D01*
X32805392Y-39750500D01*
X32805389Y-39750500D01*
X32633541Y-39784683D01*
X32633536Y-39784685D01*
X32471663Y-39851735D01*
X32417367Y-39888015D01*
X32349614Y-39909230D01*
X32347365Y-39909250D01*
X28457984Y-39909250D01*
X28389863Y-39889248D01*
X28345717Y-39840453D01*
X28317301Y-39784683D01*
X28276734Y-39705065D01*
X28262915Y-39688000D01*
X28159592Y-39560407D01*
X28014937Y-39443267D01*
X27942718Y-39406470D01*
X27891103Y-39357722D01*
X27874037Y-39288807D01*
X27896938Y-39221605D01*
X27910820Y-39205114D01*
X28588450Y-38527485D01*
X28588455Y-38527481D01*
X28598824Y-38517111D01*
X28598826Y-38517111D01*
X28700611Y-38415326D01*
X28762468Y-38322750D01*
X28780583Y-38295640D01*
X28835668Y-38162651D01*
X28863751Y-38021473D01*
X28863751Y-37877527D01*
X28863751Y-37872335D01*
X28863750Y-37872309D01*
X28863750Y-36017028D01*
X28863749Y-36017024D01*
X28835668Y-35875848D01*
X28822054Y-35842981D01*
X28780583Y-35742860D01*
X28700611Y-35623174D01*
X28700606Y-35623168D01*
X28069831Y-34992393D01*
X28069827Y-34992390D01*
X28069826Y-34992389D01*
X28039367Y-34972037D01*
X28028269Y-34964621D01*
X27982741Y-34910144D01*
X27973894Y-34839700D01*
X27978435Y-34820928D01*
X28031422Y-34657855D01*
X28068000Y-34426911D01*
X28068000Y-34193089D01*
X28031422Y-33962145D01*
X27959166Y-33739766D01*
X27853013Y-33531429D01*
X27715576Y-33342262D01*
X27715573Y-33342259D01*
X27715571Y-33342256D01*
X27550243Y-33176928D01*
X27550240Y-33176926D01*
X27550238Y-33176924D01*
X27361071Y-33039487D01*
X27152734Y-32933334D01*
X27152733Y-32933333D01*
X27152732Y-32933333D01*
X26930358Y-32861079D01*
X26930355Y-32861078D01*
X26699411Y-32824500D01*
X26465589Y-32824500D01*
X26318959Y-32847723D01*
X26248550Y-32838624D01*
X26194236Y-32792902D01*
X26173263Y-32725074D01*
X26173250Y-32723275D01*
X26173250Y-31750343D01*
X26193252Y-31682222D01*
X26219951Y-31652427D01*
X26275707Y-31607276D01*
X26302260Y-31596202D01*
X26327433Y-31582249D01*
X26334602Y-31582715D01*
X26341230Y-31579952D01*
X26369560Y-31584993D01*
G37*
%TD.AperFunction*%
%TD*%
M02*
