M48
; DRILL file {KiCad 7.0.9-7.0.9~ubuntu20.04.1} date Fri 05 Jan 2024 14:18:15 GMT
; FORMAT={-:-/ absolute / inch / decimal}
; #@! TF.CreationDate,2024-01-05T14:18:15+00:00
; #@! TF.GenerationSoftware,Kicad,Pcbnew,7.0.9-7.0.9~ubuntu20.04.1
; #@! TF.FileFunction,Plated,1,2,PTH
FMAT,2
INCH
; #@! TA.AperFunction,Plated,PTH,ViaDrill
T1C0.0120
; #@! TA.AperFunction,Plated,PTH,ComponentDrill
T2C0.0362
; #@! TA.AperFunction,Plated,PTH,ComponentDrill
T3C0.0394
; #@! TA.AperFunction,Plated,PTH,ComponentDrill
T4C0.0472
; #@! TA.AperFunction,Plated,PTH,ComponentDrill
T5C0.0917
%
G90
G05
T1
X1.25Y-1.6
X1.47Y-1.465
X1.4734Y-1.7016
X1.5699Y-2.35
X1.7375Y-0.975
X1.8642Y-2.2037
T2
X0.8802Y-1.3258
X0.8802Y-1.4242
X0.959Y-1.3258
X0.959Y-1.4242
T3
X1.175Y-0.8504
X1.175Y-0.9504
X1.175Y-1.0504
X1.175Y-1.1504
X1.4275Y-0.85
X1.4275Y-0.95
X1.4275Y-1.05
X1.4275Y-1.15
X1.5275Y-0.85
X1.5275Y-0.95
X1.5275Y-1.05
X1.5275Y-1.15
X1.775Y-1.65
T4
X2.3382Y-1.4313
X2.3382Y-1.6281
X2.3382Y-1.825
T5
X0.7735Y-1.138
X0.7735Y-1.612
T3
G00X0.775Y-1.9006
M15
G01X0.775Y-1.9794
M16
G05
G00X0.8537Y-2.125
M15
G01X0.9325Y-2.125
M16
G05
G00X1.0112Y-1.9006
M15
G01X1.0112Y-1.9794
M16
G05
T0
M30
