%TF.GenerationSoftware,KiCad,Pcbnew,9.0.0+1*%
%TF.CreationDate,2025-03-04T14:17:01+00:00*%
%TF.ProjectId,ESP01LEDDriver,45535030-314c-4454-9444-72697665722e,rev?*%
%TF.SameCoordinates,Original*%
%TF.FileFunction,Paste,Top*%
%TF.FilePolarity,Positive*%
%FSLAX46Y46*%
G04 Gerber Fmt 4.6, Leading zero omitted, Abs format (unit mm)*
G04 Created by KiCad (PCBNEW 9.0.0+1) date 2025-03-04 14:17:01*
%MOMM*%
%LPD*%
G01*
G04 APERTURE LIST*
G04 Aperture macros list*
%AMRoundRect*
0 Rectangle with rounded corners*
0 $1 Rounding radius*
0 $2 $3 $4 $5 $6 $7 $8 $9 X,Y pos of 4 corners*
0 Add a 4 corners polygon primitive as box body*
4,1,4,$2,$3,$4,$5,$6,$7,$8,$9,$2,$3,0*
0 Add four circle primitives for the rounded corners*
1,1,$1+$1,$2,$3*
1,1,$1+$1,$4,$5*
1,1,$1+$1,$6,$7*
1,1,$1+$1,$8,$9*
0 Add four rect primitives between the rounded corners*
20,1,$1+$1,$2,$3,$4,$5,0*
20,1,$1+$1,$4,$5,$6,$7,0*
20,1,$1+$1,$6,$7,$8,$9,0*
20,1,$1+$1,$8,$9,$2,$3,0*%
G04 Aperture macros list end*
%ADD10RoundRect,0.250000X-0.262500X-0.450000X0.262500X-0.450000X0.262500X0.450000X-0.262500X0.450000X0*%
%ADD11RoundRect,0.250000X-0.375000X-1.075000X0.375000X-1.075000X0.375000X1.075000X-0.375000X1.075000X0*%
%ADD12RoundRect,0.150000X-0.587500X-0.150000X0.587500X-0.150000X0.587500X0.150000X-0.587500X0.150000X0*%
%ADD13RoundRect,0.250000X0.450000X-0.262500X0.450000X0.262500X-0.450000X0.262500X-0.450000X-0.262500X0*%
%ADD14RoundRect,0.250000X0.275000X0.700000X-0.275000X0.700000X-0.275000X-0.700000X0.275000X-0.700000X0*%
%ADD15R,2.800000X1.000000*%
%ADD16RoundRect,0.250000X0.375000X1.075000X-0.375000X1.075000X-0.375000X-1.075000X0.375000X-1.075000X0*%
%ADD17RoundRect,0.250000X-0.450000X0.262500X-0.450000X-0.262500X0.450000X-0.262500X0.450000X0.262500X0*%
%ADD18RoundRect,0.375000X-0.625000X-0.375000X0.625000X-0.375000X0.625000X0.375000X-0.625000X0.375000X0*%
%ADD19RoundRect,0.500000X-0.500000X-1.400000X0.500000X-1.400000X0.500000X1.400000X-0.500000X1.400000X0*%
%ADD20RoundRect,0.250000X0.262500X0.450000X-0.262500X0.450000X-0.262500X-0.450000X0.262500X-0.450000X0*%
%ADD21R,1.200000X0.400000*%
G04 APERTURE END LIST*
D10*
%TO.C,R3*%
X36422500Y-59690000D03*
X38247500Y-59690000D03*
%TD*%
D11*
%TO.C,D3*%
X43685000Y-41275000D03*
X46485000Y-41275000D03*
%TD*%
%TO.C,D2*%
X43685000Y-36195000D03*
X46485000Y-36195000D03*
%TD*%
D12*
%TO.C,Q1*%
X57863500Y-28387000D03*
X57863500Y-30287000D03*
X59738500Y-29337000D03*
%TD*%
D13*
%TO.C,R2*%
X62992000Y-30249500D03*
X62992000Y-28424500D03*
%TD*%
D14*
%TO.C,FB1*%
X33071000Y-46355000D03*
X29921000Y-46355000D03*
%TD*%
D15*
%TO.C,SW1*%
X44471000Y-51975000D03*
X50271000Y-51975000D03*
X44471000Y-55975000D03*
X50271000Y-55975000D03*
%TD*%
D16*
%TO.C,D1*%
X33655000Y-59690000D03*
X30855000Y-59690000D03*
%TD*%
D17*
%TO.C,R1*%
X54737000Y-28424500D03*
X54737000Y-30249500D03*
%TD*%
D18*
%TO.C,U1*%
X44736500Y-21703000D03*
X44736500Y-24003000D03*
D19*
X51036500Y-24003000D03*
D18*
X44736500Y-26303000D03*
%TD*%
D20*
%TO.C,R7*%
X41552500Y-36195000D03*
X39727500Y-36195000D03*
%TD*%
%TO.C,R8*%
X41552500Y-41275000D03*
X39727500Y-41275000D03*
%TD*%
D21*
%TO.C,U2*%
X31690000Y-35877500D03*
X31690000Y-36512500D03*
X31690000Y-37147500D03*
X31690000Y-37782500D03*
X31690000Y-38417500D03*
X31690000Y-39052500D03*
X31690000Y-39687500D03*
X31690000Y-40322500D03*
X31690000Y-40957500D03*
X31690000Y-41592500D03*
X36890000Y-41592500D03*
X36890000Y-40957500D03*
X36890000Y-40322500D03*
X36890000Y-39687500D03*
X36890000Y-39052500D03*
X36890000Y-38417500D03*
X36890000Y-37782500D03*
X36890000Y-37147500D03*
X36890000Y-36512500D03*
X36890000Y-35877500D03*
%TD*%
M02*
